ISO-10303-21;
HEADER;
FILE_DESCRIPTION (( 'STEP AP203' ),
    '1' );
FILE_NAME ('ÁªÖáÆ÷CNC.STEP',
    '2026-01-10T02:23:09',
    ( '' ),
    ( '' ),
    'SwSTEP 2.0',
    'SolidWorks 2023',
    '' );
FILE_SCHEMA (( 'CONFIG_CONTROL_DESIGN' ));
ENDSEC;

DATA;
#1 = VERTEX_POINT ( 'NONE', #180 ) ;
#2 = CARTESIAN_POINT ( 'NONE',  ( -5.363953678644055145, -16.67229264281018075, 1.217443375496605418 ) ) ;
#3 = CARTESIAN_POINT ( 'NONE',  ( 2.399999999999999911, -0.4999999999999998890, 3.200000000000000178 ) ) ;
#4 = EDGE_CURVE ( 'NONE', #562, #427, #239, .T. ) ;
#5 = ORIENTED_EDGE ( 'NONE', *, *, #617, .T. ) ;
#6 = DIRECTION ( 'NONE',  ( 0.000000000000000000, 0.000000000000000000, -1.000000000000000000 ) ) ;
#7 = LINE ( 'NONE', #768, #428 ) ;
#8 = CLOSED_SHELL ( 'NONE', ( #406, #38, #765, #695, #129, #74, #371, #254, #146, #88, #420, #647, #848, #803, #509, #413, #484, #457, #561, #212, #630, #664, #319 ) ) ;
#9 =( GEOMETRIC_REPRESENTATION_CONTEXT ( 3 ) GLOBAL_UNCERTAINTY_ASSIGNED_CONTEXT ( ( #391 ) ) GLOBAL_UNIT_ASSIGNED_CONTEXT ( ( #159, #445, #771 ) ) REPRESENTATION_CONTEXT ( 'NONE', 'WORKASPACE' ) );
#10 = ORIENTED_EDGE ( 'NONE', *, *, #789, .F. ) ;
#11 = DIRECTION ( 'NONE',  ( 0.000000000000000000, 0.000000000000000000, -1.000000000000000000 ) ) ;
#12 = EDGE_CURVE ( 'NONE', #641, #435, #255, .T. ) ;
#13 = FACE_OUTER_BOUND ( 'NONE', #855, .T. ) ;
#14 = ORIENTED_EDGE ( 'NONE', *, *, #754, .F. ) ;
#15 = DIRECTION ( 'NONE',  ( -1.000000000000000000, -2.433606793669644042E-17, 0.000000000000000000 ) ) ;
#16 = EDGE_CURVE ( 'NONE', #637, #476, #689, .T. ) ;
#17 = DIRECTION ( 'NONE',  ( -1.000000000000000000, 0.000000000000000000, 0.000000000000000000 ) ) ;
#18 = CARTESIAN_POINT ( 'NONE',  ( 2.399999999999999911, -7.500000000000000000, -3.200000000000000178 ) ) ;
#19 = CARTESIAN_POINT ( 'NONE',  ( -0.9999999999999993339, -20.00000000000000000, 0.5000000000000002220 ) ) ;
#20 = DIRECTION ( 'NONE',  ( -2.433606793669644042E-17, 1.000000000000000000, -0.000000000000000000 ) ) ;
#21 = ORIENTED_EDGE ( 'NONE', *, *, #669, .T. ) ;
#22 = DIRECTION ( 'NONE',  ( -2.433606793669644042E-17, 1.000000000000000000, 0.000000000000000000 ) ) ;
#23 = CARTESIAN_POINT ( 'NONE',  ( -0.9999999999999993339, -20.00000000000000000, -0.5000000000000002220 ) ) ;
#24 = ORIENTED_EDGE ( 'NONE', *, *, #367, .F. ) ;
#25 = DIRECTION ( 'NONE',  ( 1.000000000000000000, 0.000000000000000000, 0.000000000000000000 ) ) ;
#26 = DIRECTION ( 'NONE',  ( -0.000000000000000000, 1.000000000000000000, -0.000000000000000000 ) ) ;
#27 = PERSON_AND_ORGANIZATION ( #613, #339 ) ;
#28 = ORIENTED_EDGE ( 'NONE', *, *, #827, .F. ) ;
#29 = DIRECTION ( 'NONE',  ( 0.000000000000000000, 0.000000000000000000, 1.000000000000000000 ) ) ;
#30 = ADVANCED_BREP_SHAPE_REPRESENTATION ( '\X2\80548f745668\X0\CNC', ( #328, #704 ), #9 ) ;
#31 = VECTOR ( 'NONE', #480, 1000.000000000000000 ) ;
#32 = EDGE_LOOP ( 'NONE', ( #688, #172, #819, #169, #244 ) ) ;
#33 = CARTESIAN_POINT ( 'NONE',  ( -5.500000000000001776, -15.75000000000000711, 4.896506970361133537E-22 ) ) ;
#34 = AXIS2_PLACEMENT_3D ( 'NONE', #571, #97, #436 ) ;
#35 = EDGE_CURVE ( 'NONE', #662, #520, #652, .T. ) ;
#36 = ORIENTED_EDGE ( 'NONE', *, *, #234, .T. ) ;
#37 = CARTESIAN_POINT ( 'NONE',  ( -5.447443945022562239, -15.99988788088615621, -0.7675711240191736007 ) ) ;
#38 = ADVANCED_FACE ( 'NONE', ( #802 ), #120, .F. ) ;
#39 = EDGE_LOOP ( 'NONE', ( #770, #791, #737, #658, #326 ) ) ;
#40 = DIRECTION ( 'NONE',  ( -0.000000000000000000, 1.000000000000000000, -0.000000000000000000 ) ) ;
#41 = LINE ( 'NONE', #636, #90 ) ;
#42 = VERTEX_POINT ( 'NONE', #193 ) ;
#43 = CARTESIAN_POINT ( 'NONE',  ( -0.6614378277661541183, -17.00000000000000000, 1.249999999999994227 ) ) ;
#44 = PERSON_AND_ORGANIZATION_ROLE ( 'creator' ) ;
#45 = DIRECTION ( 'NONE',  ( 1.000000000000000000, 2.433606793669644042E-17, 0.000000000000000000 ) ) ;
#46 = AXIS2_PLACEMENT_3D ( 'NONE', #499, #228, #632 ) ;
#47 = FACE_OUTER_BOUND ( 'NONE', #250, .T. ) ;
#48 = ORIENTED_EDGE ( 'NONE', *, *, #621, .F. ) ;
#49 = DIRECTION ( 'NONE',  ( 1.000000000000000000, 2.433606793669644042E-17, 0.000000000000000000 ) ) ;
#50 = PERSON_AND_ORGANIZATION ( #613, #339 ) ;
#51 = CARTESIAN_POINT ( 'NONE',  ( 2.433606793669644165E-16, -10.00000000000000000, 0.000000000000000000 ) ) ;
#52 = DIRECTION ( 'NONE',  ( -2.433606793669644042E-17, 1.000000000000000000, -0.000000000000000000 ) ) ;
#53 = ORIENTED_EDGE ( 'NONE', *, *, #276, .F. ) ;
#54 = CARTESIAN_POINT ( 'NONE',  ( 1.825205095252232877E-16, -7.500000000000000000, 0.000000000000000000 ) ) ;
#55 = EDGE_CURVE ( 'NONE', #520, #201, #515, .T. ) ;
#56 = DIRECTION ( 'NONE',  ( 2.433606793669644042E-17, -1.000000000000000000, -0.000000000000000000 ) ) ;
#57 = CARTESIAN_POINT ( 'NONE',  ( -0.9999999999999991118, -17.00000000000000000, 1.734723475976807094E-15 ) ) ;
#58 = EDGE_LOOP ( 'NONE', ( #580, #626, #109, #494, #28, #590, #797 ) ) ;
#59 = DIRECTION ( 'NONE',  ( -1.000000000000000000, -0.000000000000000000, -0.000000000000000000 ) ) ;
#60 = VECTOR ( 'NONE', #477, 1000.000000000000000 ) ;
#61 = EDGE_CURVE ( 'NONE', #860, #750, #441, .T. ) ;
#62 = FACE_OUTER_BOUND ( 'NONE', #810, .T. ) ;
#63 = CIRCLE ( 'NONE', #323, 1.249999999999997780 ) ;
#64 = EDGE_LOOP ( 'NONE', ( #531, #553, #459, #82 ) ) ;
#65 = CARTESIAN_POINT ( 'NONE',  ( -4.000000000000000000, -7.500000000000000000, 0.000000000000000000 ) ) ;
#66 = CARTESIAN_POINT ( 'NONE',  ( 2.399999999999999911, -0.2179579111978437733, 3.098394337387707864 ) ) ;
#67 = EDGE_CURVE ( 'NONE', #541, #585, #303, .T. ) ;
#68 = ORIENTED_EDGE ( 'NONE', *, *, #717, .T. ) ;
#69 = DIRECTION ( 'NONE',  ( -1.000000000000000000, -2.433606793669644042E-17, 0.000000000000000000 ) ) ;
#70 = CARTESIAN_POINT ( 'NONE',  ( 4.336808689942017736E-16, -10.00000000000000000, 0.5000000000000002220 ) ) ;
#71 = DIRECTION ( 'NONE',  ( -1.000000000000000000, -2.433606793669644042E-17, 0.000000000000000000 ) ) ;
#72 = B_SPLINE_CURVE_WITH_KNOTS ( 'NONE', 3,
 ( #283, #628, #425, #694, #83, #345, #698, #624, #748, #18 ),
 .UNSPECIFIED., .F., .F.,
 ( 4, 2, 2, 2, 4 ),
 ( 3.469446951953614189E-18, 0.0002155637621830738663, 0.0004311275243661442632, 0.0006466912865492147142, 0.0008622550487322850569 ),
 .UNSPECIFIED. ) ;
#73 = ORIENTED_EDGE ( 'NONE', *, *, #795, .T. ) ;
#74 = ADVANCED_FACE ( 'NONE', ( #47 ), #395, .T. ) ;
#75 = CYLINDRICAL_SURFACE ( 'NONE', #557, 1.249999999999992450 ) ;
#76 = CARTESIAN_POINT ( 'NONE',  ( 0.000000000000000000, 0.000000000000000000, 1.249999999999993339 ) ) ;
#77 = CARTESIAN_POINT ( 'NONE',  ( -5.364053887456518233, -17.32864100173501143, -1.216962214409077703 ) ) ;
#78 = AXIS2_PLACEMENT_3D ( 'NONE', #418, #154, #625 ) ;
#79 = AXIS2_PLACEMENT_3D ( 'NONE', #233, #175, #358 ) ;
#80 = CARTESIAN_POINT ( 'NONE',  ( -0.8795857588121156478, -16.21756129144731062, 0.9819318697797706497 ) ) ;
#81 = DIRECTION ( 'NONE',  ( -2.433606793669644042E-17, 1.000000000000000000, -0.000000000000000000 ) ) ;
#82 = ORIENTED_EDGE ( 'NONE', *, *, #669, .F. ) ;
#83 = CARTESIAN_POINT ( 'NONE',  ( 2.400000000000000355, -7.912241656176783877, -3.458963766272983520 ) ) ;
#84 = B_SPLINE_CURVE_WITH_KNOTS ( 'NONE', 3,
 ( #668, #747, #133, #140, #147, #472, #397, #414 ),
 .UNSPECIFIED., .F., .F.,
 ( 4, 2, 2, 4 ),
 ( 0.000000000000000000, 0.0002162401629910179024, 0.0004324803259820358048, 0.0008649606519640746453 ),
 .UNSPECIFIED. ) ;
#85 = DIRECTION ( 'NONE',  ( -2.433606793669644042E-17, 1.000000000000000000, -0.000000000000000000 ) ) ;
#86 = CARTESIAN_POINT ( 'NONE',  ( 1.946885434935715234E-16, -8.000000000000000000, 0.000000000000000000 ) ) ;
#87 = DIRECTION ( 'NONE',  ( 1.000000000000000000, 0.000000000000000000, 0.000000000000000000 ) ) ;
#88 = ADVANCED_FACE ( 'NONE', ( #62, #325 ), #249, .F. ) ;
#89 = CIRCLE ( 'NONE', #216, 4.500000000000000888 ) ;
#90 = VECTOR ( 'NONE', #289, 1000.000000000000000 ) ;
#91 = LOCAL_TIME ( 10, 23, 9.000000000000000000, #171 ) ;
#92 = VERTEX_POINT ( 'NONE', #315 ) ;
#93 = CYLINDRICAL_SURFACE ( 'NONE', #584, 1.249999999999993339 ) ;
#94 = CARTESIAN_POINT ( 'NONE',  ( -0.7520892660085047865, -17.47885815009761146, 1.160854108135091378 ) ) ;
#95 = CC_DESIGN_PERSON_AND_ORGANIZATION_ASSIGNMENT ( #183, #867, ( #332 ) ) ;
#96 = ORIENTED_EDGE ( 'NONE', *, *, #385, .T. ) ;
#97 = DIRECTION ( 'NONE',  ( -0.000000000000000000, 1.000000000000000000, -0.000000000000000000 ) ) ;
#98 = EDGE_CURVE ( 'NONE', #780, #488, #818, .T. ) ;
#99 = VERTEX_POINT ( 'NONE', #723 ) ;
#100 = FACE_OUTER_BOUND ( 'NONE', #64, .T. ) ;
#101 = TOROIDAL_SURFACE ( 'NONE', #601, 4.500000000000000888, 0.5000000000000000000 ) ;
#102 = ORIENTED_EDGE ( 'NONE', *, *, #282, .F. ) ;
#103 = CARTESIAN_POINT ( 'NONE',  ( -0.9999999999999991118, -15.85435607626105003, 0.5000000000000002220 ) ) ;
#104 = EDGE_CURVE ( 'NONE', #847, #427, #113, .T. ) ;
#105 = APPROVAL_PERSON_ORGANIZATION ( #793, #185, #454 ) ;
#106 = ORIENTED_EDGE ( 'NONE', *, *, #708, .F. ) ;
#107 = CARTESIAN_POINT ( 'NONE',  ( 4.867213587339288331E-16, -20.00000000000000000, 0.000000000000000000 ) ) ;
#108 = CARTESIAN_POINT ( 'NONE',  ( -5.465916235707226178, -15.90798949003496787, -0.6298616334172886244 ) ) ;
#109 = ORIENTED_EDGE ( 'NONE', *, *, #219, .T. ) ;
#110 = CARTESIAN_POINT ( 'NONE',  ( -0.9999999999999993339, -18.14564392373895174, -0.5000000000000002220 ) ) ;
#111 = COORDINATED_UNIVERSAL_TIME_OFFSET ( 8, 0, .AHEAD. ) ;
#112 = CARTESIAN_POINT ( 'NONE',  ( 0.000000000000000000, 0.000000000000000000, 0.000000000000000000 ) ) ;
#113 = LINE ( 'NONE', #655, #639 ) ;
#114 = VERTEX_POINT ( 'NONE', #619 ) ;
#115 = LINE ( 'NONE', #485, #60 ) ;
#116 = CIRCLE ( 'NONE', #840, 1.500000000000000222 ) ;
#117 = AXIS2_PLACEMENT_3D ( 'NONE', #497, #769, #502 ) ;
#118 = FACE_OUTER_BOUND ( 'NONE', #167, .T. ) ;
#119 = SECURITY_CLASSIFICATION ( '', '', #252 ) ;
#120 = CYLINDRICAL_SURFACE ( 'NONE', #458, 1.500000000000000222 ) ;
#121 = CC_DESIGN_PERSON_AND_ORGANIZATION_ASSIGNMENT ( #528, #188, ( #119 ) ) ;
#122 = VERTEX_POINT ( 'NONE', #749 ) ;
#123 = LINE ( 'NONE', #306, #672 ) ;
#124 = CALENDAR_DATE ( 2026, 10, 1 ) ;
#125 = CARTESIAN_POINT ( 'NONE',  ( -5.500000000000001776, -17.00000000000000000, 1.249999999999994227 ) ) ;
#126 = CARTESIAN_POINT ( 'NONE',  ( -5.447137681853849500, -17.99831804301551585, 0.7695436955690626579 ) ) ;
#127 = ORIENTED_EDGE ( 'NONE', *, *, #290, .F. ) ;
#128 = CARTESIAN_POINT ( 'NONE',  ( -0.9999999999999995559, -10.00000000000000000, 1.118033988749895125 ) ) ;
#129 = ADVANCED_FACE ( 'NONE', ( #222 ), #281, .T. ) ;
#130 = CARTESIAN_POINT ( 'NONE',  ( -5.447321103487925420, -16.00063406514819775, 0.7683343089070755472 ) ) ;
#131 = CARTESIAN_POINT ( 'NONE',  ( 2.433606793669644165E-16, -10.00000000000000000, 0.000000000000000000 ) ) ;
#132 = EDGE_LOOP ( 'NONE', ( #607, #102, #21, #583 ) ) ;
#133 = CARTESIAN_POINT ( 'NONE',  ( 2.399999999999999911, -7.644714049616610829, 3.220592144578975358 ) ) ;
#134 = AXIS2_PLACEMENT_3D ( 'NONE', #374, #241, #505 ) ;
#135 = DIRECTION ( 'NONE',  ( 0.000000000000000000, 0.000000000000000000, 1.000000000000000000 ) ) ;
#136 = AXIS2_PLACEMENT_3D ( 'NONE', #131, #474, #463 ) ;
#137 = DIRECTION ( 'NONE',  ( -1.000000000000000000, -2.433606793669644042E-17, 0.000000000000000000 ) ) ;
#138 = VECTOR ( 'NONE', #155, 1000.000000000000000 ) ;
#139 = ORIENTED_EDGE ( 'NONE', *, *, #838, .T. ) ;
#140 = CARTESIAN_POINT ( 'NONE',  ( 2.400000000000000799, -7.770447315170932789, 3.291871354235087033 ) ) ;
#141 = FACE_OUTER_BOUND ( 'NONE', #311, .T. ) ;
#142 = ORIENTED_EDGE ( 'NONE', *, *, #200, .T. ) ;
#143 = CARTESIAN_POINT ( 'NONE',  ( 2.399999999999999911, -0.2183296495339737409, -3.098682670791620630 ) ) ;
#144 = DIRECTION ( 'NONE',  ( -2.433606793669644042E-17, 1.000000000000000000, 0.000000000000000000 ) ) ;
#145 = CYLINDRICAL_SURFACE ( 'NONE', #163, 5.500000000000001776 ) ;
#146 = ADVANCED_FACE ( 'NONE', ( #13 ), #548, .T. ) ;
#147 = CARTESIAN_POINT ( 'NONE',  ( 2.400000000000000799, -7.824864274765919170, 3.342144888943316516 ) ) ;
#148 = CARTESIAN_POINT ( 'NONE',  ( -0.9999999999999993339, -20.00000000000000000, 1.118033988749895125 ) ) ;
#149 = CARTESIAN_POINT ( 'NONE',  ( -5.356071321407140928, -17.16370701215029371, -1.249999999999990230 ) ) ;
#150 = CIRCLE ( 'NONE', #336, 1.000000000000000000 ) ;
#151 = CC_DESIGN_APPROVAL ( #446, ( #119 ) ) ;
#152 = ORIENTED_EDGE ( 'NONE', *, *, #824, .T. ) ;
#153 = CARTESIAN_POINT ( 'NONE',  ( 1.530808498934188859E-16, -7.248924226215549105, -1.249999999999997780 ) ) ;
#154 = DIRECTION ( 'NONE',  ( -2.433606793669644042E-17, 1.000000000000000000, -0.000000000000000000 ) ) ;
#155 = DIRECTION ( 'NONE',  ( 0.000000000000000000, 0.000000000000000000, -1.000000000000000000 ) ) ;
#156 = EDGE_CURVE ( 'NONE', #392, #641, #487, .T. ) ;
#157 = CARTESIAN_POINT ( 'NONE',  ( -4.000000000000000000, -0.5000000000000001110, 0.000000000000000000 ) ) ;
#158 = CARTESIAN_POINT ( 'NONE',  ( 1.946885434935715234E-16, -8.000000000000000000, 0.000000000000000000 ) ) ;
#159 =( LENGTH_UNIT ( ) NAMED_UNIT ( * ) SI_UNIT ( .MILLI., .METRE. ) );
#160 = EDGE_CURVE ( 'NONE', #476, #602, #854, .T. ) ;
#161 = FACE_OUTER_BOUND ( 'NONE', #176, .T. ) ;
#162 = AXIS2_PLACEMENT_3D ( 'NONE', #57, #321, #536 ) ;
#163 = AXIS2_PLACEMENT_3D ( 'NONE', #419, #20, #758 ) ;
#164 = ORIENTED_EDGE ( 'NONE', *, *, #360, .F. ) ;
#165 = CARTESIAN_POINT ( 'NONE',  ( -5.356071321407141816, -17.00000000000000000, -1.249999999999990674 ) ) ;
#166 = EDGE_CURVE ( 'NONE', #269, #847, #150, .T. ) ;
#167 = EDGE_LOOP ( 'NONE', ( #368, #439, #334, #836, #782, #48, #407 ) ) ;
#168 = CARTESIAN_POINT ( 'NONE',  ( -5.358010674846832799, -16.83506559801343982, -1.241769975226485023 ) ) ;
#169 = ORIENTED_EDGE ( 'NONE', *, *, #35, .F. ) ;
#170 = LINE ( 'NONE', #295, #304 ) ;
#171 = COORDINATED_UNIVERSAL_TIME_OFFSET ( 8, 0, .AHEAD. ) ;
#172 = ORIENTED_EDGE ( 'NONE', *, *, #876, .F. ) ;
#173 = DIRECTION ( 'NONE',  ( 1.000000000000000000, 0.000000000000000000, 0.000000000000000000 ) ) ;
#174 = VECTOR ( 'NONE', #539, 1000.000000000000000 ) ;
#175 = DIRECTION ( 'NONE',  ( -2.433606793669644042E-17, 1.000000000000000000, -0.000000000000000000 ) ) ;
#176 = EDGE_LOOP ( 'NONE', ( #294, #5 ) ) ;
#177 = CARTESIAN_POINT ( 'NONE',  ( -0.9999999999999995559, -10.00000000000000000, 0.5000000000000002220 ) ) ;
#178 = CALENDAR_DATE ( 2026, 10, 1 ) ;
#179 = EDGE_CURVE ( 'NONE', #1, #476, #7, .T. ) ;
#180 = CARTESIAN_POINT ( 'NONE',  ( -5.500000000000000888, -20.00000000000000000, 0.000000000000000000 ) ) ;
#181 = ORIENTED_EDGE ( 'NONE', *, *, #478, .F. ) ;
#182 = DIRECTION ( 'NONE',  ( -1.000000000000000000, 0.000000000000000000, 0.000000000000000000 ) ) ;
#183 = PERSON_AND_ORGANIZATION ( #613, #339 ) ;
#184 = CARTESIAN_POINT ( 'NONE',  ( -5.409787473548870018, -16.23108805692484680, 0.9989215713870301938 ) ) ;
#185 = APPROVAL ( #243, 'æœª' ) ;
#186 = ORIENTED_EDGE ( 'NONE', *, *, #827, .T. ) ;
#187 = CARTESIAN_POINT ( 'NONE',  ( -0.9802995886999054109, -18.02891008651507931, -0.7201484912743884026 ) ) ;
#188 = PERSON_AND_ORGANIZATION_ROLE ( 'classification_officer' ) ;
#189 = CIRCLE ( 'NONE', #801, 1.249999999999997780 ) ;
#190 = AXIS2_PLACEMENT_3D ( 'NONE', #112, #248, #45 ) ;
#191 = CARTESIAN_POINT ( 'NONE',  ( 2.399999999999999911, 0.000000000000000000, 3.200000000000000178 ) ) ;
#192 = CIRCLE ( 'NONE', #46, 4.000000000000000000 ) ;
#193 = CARTESIAN_POINT ( 'NONE',  ( 2.399999999999999911, -0.4999999999999998890, -3.200000000000000178 ) ) ;
#194 = EDGE_CURVE ( 'NONE', #465, #344, #696, .T. ) ;
#195 = VERTEX_POINT ( 'NONE', #23 ) ;
#196 = DIRECTION ( 'NONE',  ( 2.433606793669644042E-17, -1.000000000000000000, 0.000000000000000000 ) ) ;
#197 = DATE_AND_TIME ( #178, #442 ) ;
#198 = CARTESIAN_POINT ( 'NONE',  ( -5.500000000000001776, -17.00000000000000000, 1.734723475976807094E-15 ) ) ;
#199 = CARTESIAN_POINT ( 'NONE',  ( 1.530808498934183189E-16, 0.000000000000000000, -1.249999999999993339 ) ) ;
#200 = EDGE_CURVE ( 'NONE', #305, #860, #347, .T. ) ;
#201 = VERTEX_POINT ( 'NONE', #157 ) ;
#202 = CARTESIAN_POINT ( 'NONE',  ( 2.399999999999999911, -0.1632845174561945722, -3.042966150807448589 ) ) ;
#203 = DIRECTION ( 'NONE',  ( 2.433606793669644042E-17, -1.000000000000000000, -0.000000000000000000 ) ) ;
#204 = DIRECTION ( 'NONE',  ( 2.433606793669644042E-17, -1.000000000000000000, 0.000000000000000000 ) ) ;
#205 = EDGE_LOOP ( 'NONE', ( #106, #570, #507, #237, #186 ) ) ;
#206 = DIRECTION ( 'NONE',  ( -2.433606793669644042E-17, 1.000000000000000000, 0.000000000000000000 ) ) ;
#207 = AXIS2_PLACEMENT_3D ( 'NONE', #51, #524, #542 ) ;
#208 = CARTESIAN_POINT ( 'NONE',  ( -0.7954336160458734817, -17.58504072376396365, -1.110913084389831607 ) ) ;
#209 = LOCAL_TIME ( 10, 23, 9.000000000000000000, #467 ) ;
#210 = ORIENTED_EDGE ( 'NONE', *, *, #722, .T. ) ;
#211 = FACE_OUTER_BOUND ( 'NONE', #731, .T. ) ;
#212 = ADVANCED_FACE ( 'NONE', ( #272 ), #213, .F. ) ;
#213 = CYLINDRICAL_SURFACE ( 'NONE', #627, 1.000000000000000000 ) ;
#214 = CARTESIAN_POINT ( 'NONE',  ( -5.500000000000002665, -18.24999999999999645, -0.1658069861224472641 ) ) ;
#215 = FACE_BOUND ( 'NONE', #205, .T. ) ;
#216 = AXIS2_PLACEMENT_3D ( 'NONE', #403, #196, #597 ) ;
#217 = VECTOR ( 'NONE', #203, 1000.000000000000000 ) ;
#218 = DIRECTION ( 'NONE',  ( -2.433606793669644042E-17, 1.000000000000000000, -0.000000000000000000 ) ) ;
#219 = EDGE_CURVE ( 'NONE', #99, #841, #820, .T. ) ;
#220 = ORIENTED_EDGE ( 'NONE', *, *, #657, .F. ) ;
#221 = LINE ( 'NONE', #495, #352 ) ;
#222 = FACE_OUTER_BOUND ( 'NONE', #521, .T. ) ;
#223 = CARTESIAN_POINT ( 'NONE',  ( -5.500000000000001776, -1.338483736518304685E-16, 0.000000000000000000 ) ) ;
#224 = EDGE_CURVE ( 'NONE', #92, #435, #350, .T. ) ;
#225 = CARTESIAN_POINT ( 'NONE',  ( -0.9999999999999993339, -15.90483882033664287, 0.6156704980077472023 ) ) ;
#226 = CARTESIAN_POINT ( 'NONE',  ( 2.399999999999999911, 9.734427174678569081E-18, -2.547547840571399824 ) ) ;
#227 = CARTESIAN_POINT ( 'NONE',  ( 8.143212482486763891E-16, -10.00000000000000000, 1.500000000000000222 ) ) ;
#228 = DIRECTION ( 'NONE',  ( 2.433606793669644042E-17, -1.000000000000000000, 0.000000000000000000 ) ) ;
#229 = CARTESIAN_POINT ( 'NONE',  ( -1.000000000000000000, -18.09516117966336424, -0.6156704980077437606 ) ) ;
#230 = AXIS2_PLACEMENT_3D ( 'NONE', #618, #144, #15 ) ;
#231 = CIRCLE ( 'NONE', #79, 4.000000000000000000 ) ;
#232 = VERTEX_POINT ( 'NONE', #226 ) ;
#233 = CARTESIAN_POINT ( 'NONE',  ( 1.825205095252232877E-16, -7.500000000000000000, 0.000000000000000000 ) ) ;
#234 = EDGE_CURVE ( 'NONE', #297, #847, #377, .T. ) ;
#235 = ORIENTED_EDGE ( 'NONE', *, *, #179, .T. ) ;
#236 = CARTESIAN_POINT ( 'NONE',  ( 8.143212482486763891E-16, -10.00000000000000000, -1.500000000000000222 ) ) ;
#237 = ORIENTED_EDGE ( 'NONE', *, *, #247, .F. ) ;
#238 = DIRECTION ( 'NONE',  ( -0.000000000000000000, 1.000000000000000000, -0.000000000000000000 ) ) ;
#239 = CIRCLE ( 'NONE', #136, 1.500000000000000222 ) ;
#240 = ORIENTED_EDGE ( 'NONE', *, *, #430, .T. ) ;
#241 = DIRECTION ( 'NONE',  ( -0.000000000000000000, 1.000000000000000000, -0.000000000000000000 ) ) ;
#242 = CONICAL_SURFACE ( 'NONE', #491, 1.249999999999997780, 1.029744258676652757 ) ;
#243 = APPROVAL_STATUS ( 'not_yet_approved' ) ;
#244 = ORIENTED_EDGE ( 'NONE', *, *, #617, .F. ) ;
#245 = CARTESIAN_POINT ( 'NONE',  ( 2.433606793669644165E-16, -10.00000000000000000, 0.000000000000000000 ) ) ;
#246 = PERSON_AND_ORGANIZATION ( #613, #339 ) ;
#247 = EDGE_CURVE ( 'NONE', #849, #297, #116, .T. ) ;
#248 = DIRECTION ( 'NONE',  ( -2.433606793669644042E-17, 1.000000000000000000, -0.000000000000000000 ) ) ;
#249 = PLANE ( 'NONE',  #743 ) ;
#250 = EDGE_LOOP ( 'NONE', ( #825, #845, #549, #526 ) ) ;
#251 = CARTESIAN_POINT ( 'NONE',  ( -0.9803653479403841020, -15.97090685340369554, -0.7199131943971652792 ) ) ;
#252 = SECURITY_CLASSIFICATION_LEVEL ( 'unclassified' ) ;
#253 = LINE ( 'NONE', #535, #703 ) ;
#254 = ADVANCED_FACE ( 'NONE', ( #460, #161 ), #856, .F. ) ;
#255 = LINE ( 'NONE', #199, #701 ) ;
#256 = ORIENTED_EDGE ( 'NONE', *, *, #200, .F. ) ;
#257 = DIRECTION ( 'NONE',  ( -1.000000000000000000, -0.000000000000000000, -0.000000000000000000 ) ) ;
#258 = COORDINATED_UNIVERSAL_TIME_OFFSET ( 8, 0, .AHEAD. ) ;
#259 = AXIS2_PLACEMENT_3D ( 'NONE', #525, #501, #25 ) ;
#260 = VECTOR ( 'NONE', #473, 1000.000000000000000 ) ;
#261 = CARTESIAN_POINT ( 'NONE',  ( -5.356071321407156915, -16.83500045176690207, 1.249999999999995337 ) ) ;
#262 = DIRECTION ( 'NONE',  ( 1.000000000000000000, 2.710505431213761085E-17, 0.000000000000000000 ) ) ;
#263 = EDGE_CURVE ( 'NONE', #575, #746, #410, .T. ) ;
#264 = ORIENTED_EDGE ( 'NONE', *, *, #708, .T. ) ;
#265 = LINE ( 'NONE', #812, #217 ) ;
#266 = DIRECTION ( 'NONE',  ( 1.000000000000000000, 0.000000000000000000, 0.000000000000000000 ) ) ;
#267 = ORIENTED_EDGE ( 'NONE', *, *, #263, .F. ) ;
#268 = CYLINDRICAL_SURFACE ( 'NONE', #673, 1.249999999999992450 ) ;
#269 = VERTEX_POINT ( 'NONE', #715 ) ;
#270 = EDGE_CURVE ( 'NONE', #750, #541, #123, .T. ) ;
#271 = VECTOR ( 'NONE', #869, 1000.000000000000000 ) ;
#272 = FACE_OUTER_BOUND ( 'NONE', #378, .T. ) ;
#273 = LOCAL_TIME ( 10, 23, 9.000000000000000000, #111 ) ;
#274 = ORIENTED_EDGE ( 'NONE', *, *, #504, .F. ) ;
#275 = PRODUCT_DEFINITION_SHAPE ( 'NONE', 'NONE',  #346 ) ;
#276 = EDGE_CURVE ( 'NONE', #465, #1, #760, .T. ) ;
#277 = LINE ( 'NONE', #337, #728 ) ;
#278 = CARTESIAN_POINT ( 'NONE',  ( 1.530808498934188859E-16, -7.248924226215549105, -1.249999999999997780 ) ) ;
#279 = ORIENTED_EDGE ( 'NONE', *, *, #621, .T. ) ;
#280 = DIRECTION ( 'NONE',  ( 1.000000000000000000, 2.433606793669644042E-17, 0.000000000000000000 ) ) ;
#281 = CYLINDRICAL_SURFACE ( 'NONE', #475, 5.500000000000001776 ) ;
#282 = EDGE_CURVE ( 'NONE', #766, #641, #189, .T. ) ;
#283 = CARTESIAN_POINT ( 'NONE',  ( 2.399999999999999911, -8.000000000000000000, -3.806573262134853586 ) ) ;
#284 = ORIENTED_EDGE ( 'NONE', *, *, #270, .T. ) ;
#285 = CARTESIAN_POINT ( 'NONE',  ( -0.6614378277661541183, -17.00000000000000000, 1.249999999999994227 ) ) ;
#286 = CARTESIAN_POINT ( 'NONE',  ( -0.6843507854686567971, -17.24921596924063394, -1.230777702781528316 ) ) ;
#287 = CARTESIAN_POINT ( 'NONE',  ( -0.9195386323786639560, -16.12907961536967605, -0.9048786633985694827 ) ) ;
#288 = ORIENTED_EDGE ( 'NONE', *, *, #98, .F. ) ;
#289 = DIRECTION ( 'NONE',  ( -2.433606793669644042E-17, 1.000000000000000000, -0.000000000000000000 ) ) ;
#290 = EDGE_CURVE ( 'NONE', #585, #562, #415, .T. ) ;
#291 = CIRCLE ( 'NONE', #559, 1.249999999999994227 ) ;
#292 = SHAPE_DEFINITION_REPRESENTATION ( #275, #30 ) ;
#293 = CC_DESIGN_APPROVAL ( #606, ( #346 ) ) ;
#294 = ORIENTED_EDGE ( 'NONE', *, *, #512, .T. ) ;
#295 = CARTESIAN_POINT ( 'NONE',  ( -5.500000000000001776, -17.00000000000000000, -1.249999999999990674 ) ) ;
#296 = CC_DESIGN_DATE_AND_TIME_ASSIGNMENT ( #388, #785, ( #119 ) ) ;
#297 = VERTEX_POINT ( 'NONE', #861 ) ;
#298 = EDGE_CURVE ( 'NONE', #750, #99, #359, .T. ) ;
#299 = ORIENTED_EDGE ( 'NONE', *, *, #699, .F. ) ;
#300 = CARTESIAN_POINT ( 'NONE',  ( -0.9999999999999991118, -18.14564392373895174, 0.5000000000000002220 ) ) ;
#301 = CARTESIAN_POINT ( 'NONE',  ( -5.356071321407140928, -16.91818876529900706, -1.249999999999991118 ) ) ;
#302 = EDGE_CURVE ( 'NONE', #1, #465, #870, .T. ) ;
#303 = CIRCLE ( 'NONE', #572, 1.000000000000000000 ) ;
#304 = VECTOR ( 'NONE', #779, 1000.000000000000000 ) ;
#305 = VERTEX_POINT ( 'NONE', #177 ) ;
#306 = CARTESIAN_POINT ( 'NONE',  ( -0.9999999999999995559, -10.00000000000000000, -0.5000000000000002220 ) ) ;
#307 = APPROVAL_PERSON_ORGANIZATION ( #27, #446, #718 ) ;
#308 = PERSON_AND_ORGANIZATION_ROLE ( 'design_supplier' ) ;
#309 = CARTESIAN_POINT ( 'NONE',  ( -5.500000000000001776, -15.75000000000000711, 4.896506970361133537E-22 ) ) ;
#310 = CARTESIAN_POINT ( 'NONE',  ( -5.357975516591186427, -17.16374967937089480, 1.241920287142833201 ) ) ;
#311 = EDGE_LOOP ( 'NONE', ( #774, #53 ) ) ;
#312 = DIRECTION ( 'NONE',  ( 0.000000000000000000, 0.000000000000000000, 1.000000000000000000 ) ) ;
#313 = PERSON_AND_ORGANIZATION ( #613, #339 ) ;
#314 = CARTESIAN_POINT ( 'NONE',  ( 1.500000000000000444, -10.00000000000000000, 0.000000000000000000 ) ) ;
#315 = CARTESIAN_POINT ( 'NONE',  ( 0.000000000000000000, 1.402220585023716934E-15, 1.249999999999988898 ) ) ;
#316 = ORIENTED_EDGE ( 'NONE', *, *, #219, .F. ) ;
#317 = CARTESIAN_POINT ( 'NONE',  ( -0.9803653479403837689, -18.02909314659630979, 0.7199131943971661673 ) ) ;
#318 = DIRECTION ( 'NONE',  ( 0.000000000000000000, 0.000000000000000000, 1.000000000000000000 ) ) ;
#319 = ADVANCED_FACE ( 'NONE', ( #453 ), #101, .F. ) ;
#320 = CYLINDRICAL_SURFACE ( 'NONE', #207, 1.500000000000000222 ) ;
#321 = DIRECTION ( 'NONE',  ( -1.000000000000000000, -2.433606793669644042E-17, -0.000000000000000000 ) ) ;
#322 = ORIENTED_EDGE ( 'NONE', *, *, #736, .T. ) ;
#323 = AXIS2_PLACEMENT_3D ( 'NONE', #706, #26, #340 ) ;
#324 = DIRECTION ( 'NONE',  ( 0.000000000000000000, 0.000000000000000000, 1.000000000000000000 ) ) ;
#325 = FACE_BOUND ( 'NONE', #682, .T. ) ;
#326 = ORIENTED_EDGE ( 'NONE', *, *, #754, .T. ) ;
#327 = LINE ( 'NONE', #376, #174 ) ;
#328 = MANIFOLD_SOLID_BREP ( 'Ô²½Ç2', #8 ) ;
#329 = DIRECTION ( 'NONE',  ( -2.433606793669644042E-17, 1.000000000000000000, -0.000000000000000000 ) ) ;
#330 = ORIENTED_EDGE ( 'NONE', *, *, #438, .F. ) ;
#331 = DIRECTION ( 'NONE',  ( 2.433606793669644042E-17, -1.000000000000000000, 0.000000000000000000 ) ) ;
#332 = PRODUCT ( '\X2\80548f745668\X0\CNC', '\X2\80548f745668\X0\CNC', '', ( #450 ) ) ;
#333 = CC_DESIGN_DATE_AND_TIME_ASSIGNMENT ( #721, #807, ( #346 ) ) ;
#334 = ORIENTED_EDGE ( 'NONE', *, *, #61, .F. ) ;
#335 = CARTESIAN_POINT ( 'NONE',  ( -5.500000000000001776, -17.00000000000000000, 1.734723475976807094E-15 ) ) ;
#336 = AXIS2_PLACEMENT_3D ( 'NONE', #338, #496, #691 ) ;
#337 = CARTESIAN_POINT ( 'NONE',  ( 2.399999999999999911, -8.000000000000000000, 4.635624559566798197 ) ) ;
#338 = CARTESIAN_POINT ( 'NONE',  ( 6.770415483611661901E-16, -20.00000000000000000, 0.5000000000000002220 ) ) ;
#339 = ORGANIZATION ( 'æœª', 'æœª', '' ) ;
#340 = DIRECTION ( 'NONE',  ( 0.000000000000000000, 0.000000000000000000, 1.000000000000000000 ) ) ;
#341 = ORIENTED_EDGE ( 'NONE', *, *, #160, .T. ) ;
#342 = CARTESIAN_POINT ( 'NONE',  ( 2.399999999999999911, -7.500000000000000000, 3.200000000000000178 ) ) ;
#343 = EDGE_CURVE ( 'NONE', #392, #766, #115, .T. ) ;
#344 = VERTEX_POINT ( 'NONE', #550 ) ;
#345 = CARTESIAN_POINT ( 'NONE',  ( 2.400000000000000799, -7.825872654362433067, -3.343317111445716971 ) ) ;
#346 = PRODUCT_DEFINITION ( 'æœ', '', #804, #786 ) ;
#347 = LINE ( 'NONE', #19, #31 ) ;
#348 = ORIENTED_EDGE ( 'NONE', *, *, #4, .F. ) ;
#349 = DIRECTION ( 'NONE',  ( -0.000000000000000000, 1.000000000000000000, -0.000000000000000000 ) ) ;
#350 = CIRCLE ( 'NONE', #134, 1.249999999999988898 ) ;
#351 = CARTESIAN_POINT ( 'NONE',  ( -0.6614378277661580041, -17.00000000000000000, -1.249999999999990674 ) ) ;
#352 = VECTOR ( 'NONE', #22, 1000.000000000000000 ) ;
#353 = EDGE_LOOP ( 'NONE', ( #274, #127, #139, #567 ) ) ;
#354 = CARTESIAN_POINT ( 'NONE',  ( -0.9999999999999993339, -18.14564392373895174, -0.5000000000000002220 ) ) ;
#355 = DIRECTION ( 'NONE',  ( 2.433606793669644042E-17, -1.000000000000000000, 0.000000000000000000 ) ) ;
#356 = CALENDAR_DATE ( 2026, 10, 1 ) ;
#357 = ORIENTED_EDGE ( 'NONE', *, *, #577, .F. ) ;
#358 = DIRECTION ( 'NONE',  ( 1.000000000000000000, 0.000000000000000000, 0.000000000000000000 ) ) ;
#359 = B_SPLINE_CURVE_WITH_KNOTS ( 'NONE', 3,
 ( #569, #772, #251, #287, #522, #527, #518, #581, #792, #663 ),
 .UNSPECIFIED., .F., .F.,
 ( 4, 2, 2, 2, 4 ),
 ( 0.000000000000000000, 0.0003720476609307650571, 0.0007440953218615301143, 0.001116142982792294900, 0.001488190643723059578 ),
 .UNSPECIFIED. ) ;
#360 = EDGE_CURVE ( 'NONE', #635, #122, #84, .T. ) ;
#361 = ORIENTED_EDGE ( 'NONE', *, *, #16, .T. ) ;
#362 = CARTESIAN_POINT ( 'NONE',  ( 2.399999999999999911, -7.500000000000000000, -3.200000000000000178 ) ) ;
#363 = CARTESIAN_POINT ( 'NONE',  ( -5.500000000000001776, -18.24999999999999645, 0.000000000000000000 ) ) ;
#364 = AXIS2_PLACEMENT_3D ( 'NONE', #107, #644, #798 ) ;
#365 = VECTOR ( 'NONE', #349, 1000.000000000000000 ) ;
#366 = ORIENTED_EDGE ( 'NONE', *, *, #156, .F. ) ;
#367 = EDGE_CURVE ( 'NONE', #122, #643, #89, .T. ) ;
#368 = ORIENTED_EDGE ( 'NONE', *, *, #795, .F. ) ;
#369 = CARTESIAN_POINT ( 'NONE',  ( -0.8795857588121185344, -17.78243870855269648, -0.9819318697797656537 ) ) ;
#370 = B_SPLINE_CURVE_WITH_KNOTS ( 'NONE', 3,
 ( #751, #675, #545, #143, #202, #393, #408, #683 ),
 .UNSPECIFIED., .F., .F.,
 ( 4, 2, 2, 4 ),
 ( 0.000000000000000000, 0.0002270623647413652461, 0.0004541247294827306007, 0.0009082494589654614182 ),
 .UNSPECIFIED. ) ;
#371 = ADVANCED_FACE ( 'NONE', ( #680 ), #687, .F. ) ;
#372 = EDGE_LOOP ( 'NONE', ( #787, #693, #357, #814, #498, #210, #724, #96 ) ) ;
#373 = ORIENTED_EDGE ( 'NONE', *, *, #540, .F. ) ;
#374 = CARTESIAN_POINT ( 'NONE',  ( 0.000000000000000000, 1.402220585023716934E-15, 0.000000000000000000 ) ) ;
#375 = DATE_AND_TIME ( #381, #273 ) ;
#376 = CARTESIAN_POINT ( 'NONE',  ( 2.399999999999999911, 9.734427174678569081E-18, 0.000000000000000000 ) ) ;
#377 = CIRCLE ( 'NONE', #259, 1.500000000000000222 ) ;
#378 = EDGE_LOOP ( 'NONE', ( #616, #711, #68, #256, #14, #471, #578 ) ) ;
#379 = DIRECTION ( 'NONE',  ( 2.433606793669644042E-17, -1.000000000000000000, 0.000000000000000000 ) ) ;
#380 = CC_DESIGN_SECURITY_CLASSIFICATION ( #119, ( #804 ) ) ;
#381 = CALENDAR_DATE ( 2026, 10, 1 ) ;
#382 = CARTESIAN_POINT ( 'NONE',  ( 2.399999999999999911, -0.4999999999999998890, 3.200000000000000178 ) ) ;
#383 = B_SPLINE_CURVE_WITH_KNOTS ( 'NONE', 3,
 ( #404, #422, #763, #416, #690, #80, #554, #826, #225, #490 ),
 .UNSPECIFIED., .F., .F.,
 ( 4, 2, 2, 2, 4 ),
 ( 0.001488190643723059578, 0.001860036913487637337, 0.002231883183252215096, 0.002603729453016792855, 0.002975575722781370613 ),
 .UNSPECIFIED. ) ;
#384 = DIRECTION ( 'NONE',  ( 2.433606793669644042E-17, -1.000000000000000000, 0.000000000000000000 ) ) ;
#385 = EDGE_CURVE ( 'NONE', #42, #232, #370, .T. ) ;
#386 = ORIENTED_EDGE ( 'NONE', *, *, #730, .T. ) ;
#387 = DIRECTION ( 'NONE',  ( 1.000000000000000000, 0.000000000000000000, 0.000000000000000000 ) ) ;
#388 = DATE_AND_TIME ( #124, #868 ) ;
#389 = CYLINDRICAL_SURFACE ( 'NONE', #775, 1.000000000000000000 ) ;
#390 = DIRECTION ( 'NONE',  ( 2.433606793669644042E-17, -1.000000000000000000, 0.000000000000000000 ) ) ;
#391 = UNCERTAINTY_MEASURE_WITH_UNIT (LENGTH_MEASURE( 1.000000000000000082E-05 ), #159, 'distance_accuracy_value', 'NONE');
#392 = VERTEX_POINT ( 'NONE', #866 ) ;
#393 = CARTESIAN_POINT ( 'NONE',  ( 2.400000000000000355, -0.03596634005984209598, -2.852795134195634574 ) ) ;
#394 = CARTESIAN_POINT ( 'NONE',  ( -0.9999999999999991118, -17.00000000000000000, 1.734723475976807094E-15 ) ) ;
#395 = CYLINDRICAL_SURFACE ( 'NONE', #654, 4.000000000000000000 ) ;
#396 = ORIENTED_EDGE ( 'NONE', *, *, #824, .F. ) ;
#397 = CARTESIAN_POINT ( 'NONE',  ( 2.399999999999999467, -7.999999999999996447, 3.660699184222919289 ) ) ;
#398 = AXIS2_PLACEMENT_3D ( 'NONE', #591, #429, #586 ) ;
#399 = VECTOR ( 'NONE', #653, 1000.000000000000000 ) ;
#400 = DIRECTION ( 'NONE',  ( 1.000000000000000000, 0.000000000000000000, 0.000000000000000000 ) ) ;
#401 = CARTESIAN_POINT ( 'NONE',  ( -5.356071321407156027, -17.08245780136868675, 1.249999999999995337 ) ) ;
#402 = ORIENTED_EDGE ( 'NONE', *, *, #343, .T. ) ;
#403 = CARTESIAN_POINT ( 'NONE',  ( 1.946885434935715234E-16, -8.000000000000000000, 0.000000000000000000 ) ) ;
#404 = CARTESIAN_POINT ( 'NONE',  ( -0.6614378277661541183, -17.00000000000000000, 1.249999999999994227 ) ) ;
#405 = CARTESIAN_POINT ( 'NONE',  ( 0.000000000000000000, 0.000000000000000000, 0.000000000000000000 ) ) ;
#406 = ADVANCED_FACE ( 'NONE', ( #538 ), #75, .F. ) ;
#407 = ORIENTED_EDGE ( 'NONE', *, *, #815, .F. ) ;
#408 = CARTESIAN_POINT ( 'NONE',  ( 2.400000000000000355, 2.384868320380441725E-16, -2.700273181948311230 ) ) ;
#409 = CARTESIAN_POINT ( 'NONE',  ( 0.000000000000000000, -7.248924226215549105, 0.000000000000000000 ) ) ;
#410 = B_SPLINE_CURVE_WITH_KNOTS ( 'NONE', 3,
 ( #300, #777, #317, #834, #705, #449, #94, #732, #633, #43 ),
 .UNSPECIFIED., .F., .F.,
 ( 4, 2, 2, 2, 4 ),
 ( 1.084202172485504434E-19, 0.0003720476609307651655, 0.0007440953218615301143, 0.001116142982792295117, 0.001488190643723059578 ),
 .UNSPECIFIED. ) ;
#411 = CARTESIAN_POINT ( 'NONE',  ( -5.465786354278513670, -18.09137514811406788, -0.6310673174864122048 ) ) ;
#412 = LINE ( 'NONE', #223, #842 ) ;
#413 = ADVANCED_FACE ( 'NONE', ( #806 ), #466, .F. ) ;
#414 = CARTESIAN_POINT ( 'NONE',  ( 2.399999999999999467, -8.000000000000000000, 3.806573262134857139 ) ) ;
#415 = CIRCLE ( 'NONE', #852, 1.500000000000000222 ) ;
#416 = CARTESIAN_POINT ( 'NONE',  ( -0.7521265186049649332, -16.52101290955330981, 1.160815971708758276 ) ) ;
#417 = CIRCLE ( 'NONE', #190, 3.500000000000000000 ) ;
#418 = CARTESIAN_POINT ( 'NONE',  ( 0.000000000000000000, 0.000000000000000000, 0.000000000000000000 ) ) ;
#419 = CARTESIAN_POINT ( 'NONE',  ( 0.000000000000000000, 0.000000000000000000, 0.000000000000000000 ) ) ;
#420 = ADVANCED_FACE ( 'NONE', ( #755 ), #145, .T. ) ;
#421 = ORIENTED_EDGE ( 'NONE', *, *, #194, .F. ) ;
#422 = CARTESIAN_POINT ( 'NONE',  ( -0.6614378277664482164, -16.87397535649228075, 1.249999999999995115 ) ) ;
#423 = CARTESIAN_POINT ( 'NONE',  ( -5.492282974637082482, -18.21714892958592458, -0.3284724590104296515 ) ) ;
#424 = EDGE_LOOP ( 'NONE', ( #649, #24, #164, #396, #288 ) ) ;
#425 = CARTESIAN_POINT ( 'NONE',  ( 2.399999999999999911, -7.988923044834432829, -3.662492017267153344 ) ) ;
#426 = CARTESIAN_POINT ( 'NONE',  ( 4.336808689942017736E-16, -10.00000000000000000, 0.5000000000000002220 ) ) ;
#427 = VERTEX_POINT ( 'NONE', #227 ) ;
#428 = VECTOR ( 'NONE', #81, 1000.000000000000000 ) ;
#429 = DIRECTION ( 'NONE',  ( 2.433606793669644042E-17, -1.000000000000000000, 0.000000000000000000 ) ) ;
#430 = EDGE_CURVE ( 'NONE', #344, #790, #784, .T. ) ;
#431 = APPROVAL_STATUS ( 'not_yet_approved' ) ;
#432 = EDGE_LOOP ( 'NONE', ( #805, #181 ) ) ;
#433 = DIRECTION ( 'NONE',  ( -1.000000000000000000, 0.000000000000000000, 0.000000000000000000 ) ) ;
#434 = CC_DESIGN_PERSON_AND_ORGANIZATION_ASSIGNMENT ( #313, #308, ( #804 ) ) ;
#435 = VERTEX_POINT ( 'NONE', #560 ) ;
#436 = DIRECTION ( 'NONE',  ( 0.000000000000000000, 0.000000000000000000, 1.000000000000000000 ) ) ;
#437 = DATE_AND_TIME ( #356, #91 ) ;
#438 = EDGE_CURVE ( 'NONE', #114, #790, #412, .T. ) ;
#439 = ORIENTED_EDGE ( 'NONE', *, *, #298, .F. ) ;
#440 = CYLINDRICAL_SURFACE ( 'NONE', #34, 1.249999999999993339 ) ;
#441 = CIRCLE ( 'NONE', #162, 1.249999999999994227 ) ;
#442 = LOCAL_TIME ( 10, 23, 9.000000000000000000, #258 ) ;
#443 = EDGE_LOOP ( 'NONE', ( #142, #667, #284, #299 ) ) ;
#444 = DIRECTION ( 'NONE',  ( -2.433606793669644042E-17, 1.000000000000000000, 0.000000000000000000 ) ) ;
#445 =( NAMED_UNIT ( * ) PLANE_ANGLE_UNIT ( ) SI_UNIT ( $, .RADIAN. ) );
#446 = APPROVAL ( #431, 'æœª' ) ;
#447 = ORIENTED_EDGE ( 'NONE', *, *, #730, .F. ) ;
#448 = ORIENTED_EDGE ( 'NONE', *, *, #276, .T. ) ;
#449 = CARTESIAN_POINT ( 'NONE',  ( -0.7953578873316283770, -17.58485819012708973, 1.111014901881890893 ) ) ;
#450 = MECHANICAL_CONTEXT ( 'NONE', #604, 'mechanical' ) ;
#451 = DIRECTION ( 'NONE',  ( 1.000000000000000000, 2.433606793669644042E-17, 0.000000000000000000 ) ) ;
#452 = ORIENTED_EDGE ( 'NONE', *, *, #500, .F. ) ;
#453 = FACE_OUTER_BOUND ( 'NONE', #424, .T. ) ;
#454 = APPROVAL_ROLE ( '' ) ;
#455 = DIRECTION ( 'NONE',  ( -1.000000000000000000, -2.433606793669644042E-17, 0.000000000000000000 ) ) ;
#456 = DIRECTION ( 'NONE',  ( -0.000000000000000000, 1.000000000000000000, -0.000000000000000000 ) ) ;
#457 = ADVANCED_FACE ( 'NONE', ( #764 ), #835, .F. ) ;
#458 = AXIS2_PLACEMENT_3D ( 'NONE', #666, #871, #266 ) ;
#459 = ORIENTED_EDGE ( 'NONE', *, *, #478, .T. ) ;
#460 = FACE_BOUND ( 'NONE', #432, .T. ) ;
#461 = APPROVAL_DATE_TIME ( #375, #185 ) ;
#462 = CARTESIAN_POINT ( 'NONE',  ( -5.356071321407141816, -17.00000000000000000, -1.249999999999990674 ) ) ;
#463 = DIRECTION ( 'NONE',  ( 1.000000000000000000, 0.000000000000000000, 0.000000000000000000 ) ) ;
#464 = EDGE_CURVE ( 'NONE', #641, #766, #63, .T. ) ;
#465 = VERTEX_POINT ( 'NONE', #692 ) ;
#466 = PLANE ( 'NONE',  #828 ) ;
#467 = COORDINATED_UNIVERSAL_TIME_OFFSET ( 8, 0, .AHEAD. ) ;
#468 = B_SPLINE_CURVE_WITH_KNOTS ( 'NONE', 3,
 ( #309, #725, #794, #734, #130, #184, #665, #2, #261, #808 ),
 .UNSPECIFIED., .F., .F.,
 ( 4, 2, 2, 2, 4 ),
 ( 0.003920913026497736126, 0.004411021889620359362, 0.004901130752742982599, 0.005391239615865604969, 0.005881348478988228205 ),
 .UNSPECIFIED. ) ;
#469 = CARTESIAN_POINT ( 'NONE',  ( 0.5000000000000024425, -10.00000000000000000, 0.000000000000000000 ) ) ;
#470 = CARTESIAN_POINT ( 'NONE',  ( -5.370745688765593329, -17.40379415539540631, 1.185797380212944008 ) ) ;
#471 = ORIENTED_EDGE ( 'NONE', *, *, #104, .F. ) ;
#472 = CARTESIAN_POINT ( 'NONE',  ( 2.400000000000000355, -7.955879943083330907, 3.517041912224918576 ) ) ;
#473 = DIRECTION ( 'NONE',  ( 2.433606793669644042E-17, -1.000000000000000000, 0.000000000000000000 ) ) ;
#474 = DIRECTION ( 'NONE',  ( 2.433606793669644042E-17, -1.000000000000000000, 0.000000000000000000 ) ) ;
#475 = AXIS2_PLACEMENT_3D ( 'NONE', #405, #555, #71 ) ;
#476 = VERTEX_POINT ( 'NONE', #363 ) ;
#477 = DIRECTION ( 'NONE',  ( 0.000000000000000000, 0.5150380749100555988, 0.8571673007021114454 ) ) ;
#478 = EDGE_CURVE ( 'NONE', #435, #92, #744, .T. ) ;
#479 = DIRECTION ( 'NONE',  ( -0.000000000000000000, 1.000000000000000000, -0.000000000000000000 ) ) ;
#480 = DIRECTION ( 'NONE',  ( 2.433606793669644042E-17, -1.000000000000000000, -0.000000000000000000 ) ) ;
#481 = ORIENTED_EDGE ( 'NONE', *, *, #438, .T. ) ;
#482 = CARTESIAN_POINT ( 'NONE',  ( 1.216803396834822021E-17, -0.5000000000000000000, 0.000000000000000000 ) ) ;
#483 = DIRECTION ( 'NONE',  ( 1.049727191138617586E-16, 0.5150380749100555988, -0.8571673007021114454 ) ) ;
#484 = ADVANCED_FACE ( 'NONE', ( #800 ), #816, .F. ) ;
#485 = CARTESIAN_POINT ( 'NONE',  ( 0.000000000000000000, -7.248924226215549105, 1.249999999999997780 ) ) ;
#486 = PLANE ( 'NONE',  #230 ) ;
#487 = LINE ( 'NONE', #278, #726 ) ;
#488 = VERTEX_POINT ( 'NONE', #65 ) ;
#489 = AXIS2_PLACEMENT_3D ( 'NONE', #839, #788, #182 ) ;
#490 = CARTESIAN_POINT ( 'NONE',  ( -0.9999999999999991118, -15.85435607626105003, 0.5000000000000002220 ) ) ;
#491 = AXIS2_PLACEMENT_3D ( 'NONE', #409, #612, #551 ) ;
#492 = DIRECTION ( 'NONE',  ( -2.433606793669644042E-17, 1.000000000000000000, 0.000000000000000000 ) ) ;
#493 = CONICAL_SURFACE ( 'NONE', #574, 1.249999999999997780, 1.029744258676652757 ) ;
#494 = ORIENTED_EDGE ( 'NONE', *, *, #736, .F. ) ;
#495 = CARTESIAN_POINT ( 'NONE',  ( -0.9999999999999995559, -10.00000000000000000, -0.5000000000000002220 ) ) ;
#496 = DIRECTION ( 'NONE',  ( -2.433606793669644042E-17, 1.000000000000000000, -0.000000000000000000 ) ) ;
#497 = CARTESIAN_POINT ( 'NONE',  ( 2.399999999999999911, 0.000000000000000000, 0.000000000000000000 ) ) ;
#498 = ORIENTED_EDGE ( 'NONE', *, *, #657, .T. ) ;
#499 = CARTESIAN_POINT ( 'NONE',  ( 1.216803396834822021E-17, -0.5000000000000000000, 0.000000000000000000 ) ) ;
#500 = EDGE_CURVE ( 'NONE', #841, #575, #291, .T. ) ;
#501 = DIRECTION ( 'NONE',  ( 2.433606793669644042E-17, -1.000000000000000000, 0.000000000000000000 ) ) ;
#502 = DIRECTION ( 'NONE',  ( 0.000000000000000000, 0.000000000000000000, 1.000000000000000000 ) ) ;
#503 = CARTESIAN_POINT ( 'NONE',  ( -5.500000000000001776, -15.75000000000000355, -0.1634264043666343313 ) ) ;
#504 = EDGE_CURVE ( 'NONE', #562, #297, #253, .T. ) ;
#505 = DIRECTION ( 'NONE',  ( 0.000000000000000000, 0.000000000000000000, 1.000000000000000000 ) ) ;
#506 = AXIS2_PLACEMENT_3D ( 'NONE', #158, #623, #17 ) ;
#507 = ORIENTED_EDGE ( 'NONE', *, *, #234, .F. ) ;
#508 = DIRECTION ( 'NONE',  ( -1.000000000000000000, 0.000000000000000000, 1.734723475976807094E-15 ) ) ;
#509 = ADVANCED_FACE ( 'NONE', ( #738 ), #320, .F. ) ;
#510 = ORIENTED_EDGE ( 'NONE', *, *, #634, .T. ) ;
#511 = DIRECTION ( 'NONE',  ( 2.433606793669644042E-17, -1.000000000000000000, -0.000000000000000000 ) ) ;
#512 = EDGE_CURVE ( 'NONE', #662, #232, #327, .T. ) ;
#513 = ORIENTED_EDGE ( 'NONE', *, *, #367, .T. ) ;
#514 = CARTESIAN_POINT ( 'NONE',  ( 0.000000000000000000, -7.248924226215549105, 0.000000000000000000 ) ) ;
#515 = CIRCLE ( 'NONE', #615, 4.000000000000000000 ) ;
#516 = CIRCLE ( 'NONE', #745, 5.500000000000000888 ) ;
#517 = ORIENTED_EDGE ( 'NONE', *, *, #430, .F. ) ;
#518 = CARTESIAN_POINT ( 'NONE',  ( -0.7520892660085066739, -16.52114184990239210, -1.160854108135088492 ) ) ;
#519 = APPROVAL_ROLE ( '' ) ;
#520 = VERTEX_POINT ( 'NONE', #382 ) ;
#521 = EDGE_LOOP ( 'NONE', ( #674, #702, #447, #330, #279, #361, #714 ) ) ;
#522 = CARTESIAN_POINT ( 'NONE',  ( -0.8795510563885053923, -16.21763780556713996, -0.9819992930163204958 ) ) ;
#523 = PERSON_AND_ORGANIZATION_ROLE ( 'creator' ) ;
#524 = DIRECTION ( 'NONE',  ( 2.433606793669644042E-17, -1.000000000000000000, -0.000000000000000000 ) ) ;
#525 = CARTESIAN_POINT ( 'NONE',  ( 4.867213587339288331E-16, -20.00000000000000000, 0.000000000000000000 ) ) ;
#526 = ORIENTED_EDGE ( 'NONE', *, *, #566, .T. ) ;
#527 = CARTESIAN_POINT ( 'NONE',  ( -0.7953578873316299314, -16.41514180987292093, -1.111014901881889338 ) ) ;
#528 = PERSON_AND_ORGANIZATION ( #613, #339 ) ;
#529 = LINE ( 'NONE', #191, #399 ) ;
#530 = CARTESIAN_POINT ( 'NONE',  ( -5.500000000000001776, -18.24999999999999645, 0.000000000000000000 ) ) ;
#531 = ORIENTED_EDGE ( 'NONE', *, *, #464, .F. ) ;
#532 = DIRECTION ( 'NONE',  ( 0.000000000000000000, 0.000000000000000000, 1.000000000000000000 ) ) ;
#533 = VECTOR ( 'NONE', #511, 1000.000000000000000 ) ;
#534 = CALENDAR_DATE ( 2026, 10, 1 ) ;
#535 = CARTESIAN_POINT ( 'NONE',  ( 1.500000000000000444, -10.00000000000000000, 0.000000000000000000 ) ) ;
#536 = DIRECTION ( 'NONE',  ( 0.000000000000000000, -1.000000000000000000, 0.000000000000000000 ) ) ;
#537 = ORIENTED_EDGE ( 'NONE', *, *, #464, .T. ) ;
#538 = FACE_OUTER_BOUND ( 'NONE', #778, .T. ) ;
#539 = DIRECTION ( 'NONE',  ( 0.000000000000000000, 0.000000000000000000, -1.000000000000000000 ) ) ;
#540 = EDGE_CURVE ( 'NONE', #746, #637, #874, .T. ) ;
#541 = VERTEX_POINT ( 'NONE', #676 ) ;
#542 = DIRECTION ( 'NONE',  ( 1.000000000000000000, 0.000000000000000000, 0.000000000000000000 ) ) ;
#543 = CARTESIAN_POINT ( 'NONE',  ( -5.465805125406086873, -18.09145200874909065, 0.6306735608442913810 ) ) ;
#544 = ORIENTED_EDGE ( 'NONE', *, *, #16, .F. ) ;
#545 = CARTESIAN_POINT ( 'NONE',  ( 2.399999999999999911, -0.3481476827883123737, -3.177307717940556664 ) ) ;
#546 = AXIS2_PLACEMENT_3D ( 'NONE', #70, #331, #508 ) ;
#547 = CARTESIAN_POINT ( 'NONE',  ( 2.399999999999999911, -8.000000000000000000, -3.806573262134853586 ) ) ;
#548 = CYLINDRICAL_SURFACE ( 'NONE', #78, 4.000000000000000000 ) ;
#549 = ORIENTED_EDGE ( 'NONE', *, *, #876, .T. ) ;
#550 = CARTESIAN_POINT ( 'NONE',  ( 5.500000000000000888, -8.000000000000000000, 6.735557395310443009E-16 ) ) ;
#551 = DIRECTION ( 'NONE',  ( 0.000000000000000000, 0.000000000000000000, 1.000000000000000000 ) ) ;
#552 = CARTESIAN_POINT ( 'NONE',  ( -5.409729572475360015, -17.76847024725739033, -0.9991864558489618187 ) ) ;
#553 = ORIENTED_EDGE ( 'NONE', *, *, #12, .T. ) ;
#554 = CARTESIAN_POINT ( 'NONE',  ( -0.9195334069180846059, -16.12908112860464982, 0.9048591796874736470 ) ) ;
#555 = DIRECTION ( 'NONE',  ( -2.433606793669644042E-17, 1.000000000000000000, -0.000000000000000000 ) ) ;
#556 = ORIENTED_EDGE ( 'NONE', *, *, #500, .T. ) ;
#557 = AXIS2_PLACEMENT_3D ( 'NONE', #335, #257, #532 ) ;
#558 = DIRECTION ( 'NONE',  ( -2.433606793669644042E-17, 1.000000000000000000, -0.000000000000000000 ) ) ;
#559 = AXIS2_PLACEMENT_3D ( 'NONE', #394, #588, #741 ) ;
#560 = CARTESIAN_POINT ( 'NONE',  ( 1.530808498934180724E-16, 1.402220585023716934E-15, -1.249999999999988898 ) ) ;
#561 = ADVANCED_FACE ( 'NONE', ( #599 ), #389, .F. ) ;
#562 = VERTEX_POINT ( 'NONE', #314 ) ;
#563 = CARTESIAN_POINT ( 'NONE',  ( -5.356071321407140040, -17.00000000000000000, 1.249999999999994227 ) ) ;
#564 = CARTESIAN_POINT ( 'NONE',  ( -0.7521265186049677087, -17.47898709044668308, -1.160815971708754946 ) ) ;
#565 = DIRECTION ( 'NONE',  ( 2.433606793669644042E-17, -1.000000000000000000, 0.000000000000000000 ) ) ;
#566 = EDGE_CURVE ( 'NONE', #42, #780, #608, .T. ) ;
#567 = ORIENTED_EDGE ( 'NONE', *, *, #247, .T. ) ;
#568 = DIRECTION ( 'NONE',  ( 0.000000000000000000, 0.000000000000000000, 1.000000000000000000 ) ) ;
#569 = CARTESIAN_POINT ( 'NONE',  ( -0.9999999999999993339, -15.85435607626105003, -0.5000000000000001110 ) ) ;
#570 = ORIENTED_EDGE ( 'NONE', *, *, #166, .T. ) ;
#571 = CARTESIAN_POINT ( 'NONE',  ( 0.000000000000000000, 0.000000000000000000, 0.000000000000000000 ) ) ;
#572 = AXIS2_PLACEMENT_3D ( 'NONE', #813, #384, #739 ) ;
#573 = AXIS2_PLACEMENT_3D ( 'NONE', #603, #479, #135 ) ;
#574 = AXIS2_PLACEMENT_3D ( 'NONE', #514, #712, #29 ) ;
#575 = VERTEX_POINT ( 'NONE', #858 ) ;
#576 = CARTESIAN_POINT ( 'NONE',  ( 6.770415483611661901E-16, -20.00000000000000000, -0.5000000000000002220 ) ) ;
#577 = EDGE_CURVE ( 'NONE', #635, #520, #529, .T. ) ;
#578 = ORIENTED_EDGE ( 'NONE', *, *, #166, .F. ) ;
#579 = ORIENTED_EDGE ( 'NONE', *, *, #104, .T. ) ;
#580 = ORIENTED_EDGE ( 'NONE', *, *, #270, .F. ) ;
#581 = CARTESIAN_POINT ( 'NONE',  ( -0.6843943612485046124, -16.75063365400366777, -1.230733039197961620 ) ) ;
#582 = FACE_OUTER_BOUND ( 'NONE', #872, .T. ) ;
#583 = ORIENTED_EDGE ( 'NONE', *, *, #224, .T. ) ;
#584 = AXIS2_PLACEMENT_3D ( 'NONE', #851, #238, #568 ) ;
#585 = VERTEX_POINT ( 'NONE', #863 ) ;
#586 = DIRECTION ( 'NONE',  ( 1.000000000000000000, 2.433606793669644042E-17, 0.000000000000000000 ) ) ;
#587 = CARTESIAN_POINT ( 'NONE',  ( 0.000000000000000000, 0.000000000000000000, 0.000000000000000000 ) ) ;
#588 = DIRECTION ( 'NONE',  ( -1.000000000000000000, -2.433606793669644042E-17, -0.000000000000000000 ) ) ;
#589 = CARTESIAN_POINT ( 'NONE',  ( -5.500000000000000000, -18.24999999999998934, 0.1656780581364962757 ) ) ;
#590 = ORIENTED_EDGE ( 'NONE', *, *, #838, .F. ) ;
#591 = CARTESIAN_POINT ( 'NONE',  ( 1.184488405239009206E-33, -4.867213587339288084E-17, 0.000000000000000000 ) ) ;
#592 = PERSON_AND_ORGANIZATION ( #613, #339 ) ;
#593 = CC_DESIGN_PERSON_AND_ORGANIZATION_ASSIGNMENT ( #50, #44, ( #804 ) ) ;
#594 = CARTESIAN_POINT ( 'NONE',  ( 2.399999999999999911, 0.000000000000000000, -3.200000000000000178 ) ) ;
#595 = CARTESIAN_POINT ( 'NONE',  ( -5.356071321407140040, -17.00000000000000000, 1.249999999999994227 ) ) ;
#596 = EDGE_LOOP ( 'NONE', ( #421, #448, #235, #341, #679, #481, #517 ) ) ;
#597 = DIRECTION ( 'NONE',  ( 1.000000000000000000, 0.000000000000000000, 0.000000000000000000 ) ) ;
#598 = APPLICATION_PROTOCOL_DEFINITION ( 'international standard', 'config_control_design', 1994, #604 ) ;
#599 = FACE_OUTER_BOUND ( 'NONE', #58, .T. ) ;
#600 = CARTESIAN_POINT ( 'NONE',  ( -5.409768628738548024, -17.76871750755525170, 0.9989543573049026737 ) ) ;
#601 = AXIS2_PLACEMENT_3D ( 'NONE', #54, #659, #49 ) ;
#602 = VERTEX_POINT ( 'NONE', #462 ) ;
#603 = CARTESIAN_POINT ( 'NONE',  ( 0.000000000000000000, 1.402220585023716934E-15, 0.000000000000000000 ) ) ;
#604 = APPLICATION_CONTEXT ( 'configuration controlled 3d designs of mechanical parts and assemblies' ) ;
#605 = CARTESIAN_POINT ( 'NONE',  ( 1.825205095252232877E-16, -7.500000000000000000, 0.000000000000000000 ) ) ;
#606 = APPROVAL ( #651, 'æœª' ) ;
#607 = ORIENTED_EDGE ( 'NONE', *, *, #12, .F. ) ;
#608 = LINE ( 'NONE', #594, #260 ) ;
#609 = DIRECTION ( 'NONE',  ( 1.000000000000000000, 0.000000000000000000, 0.000000000000000000 ) ) ;
#610 = ORIENTED_EDGE ( 'NONE', *, *, #160, .F. ) ;
#611 = DIRECTION ( 'NONE',  ( 2.433606793669644042E-17, -1.000000000000000000, 0.000000000000000000 ) ) ;
#612 = DIRECTION ( 'NONE',  ( -0.000000000000000000, 1.000000000000000000, -0.000000000000000000 ) ) ;
#613 = PERSON ( 'æœª', 'æœª', 'æœª', ('æœª'), ('æœª'), ('æœª') ) ;
#614 = CARTESIAN_POINT ( 'NONE',  ( -5.390842407069103892, -17.62937481546262930, -1.092194708365785027 ) ) ;
#615 = AXIS2_PLACEMENT_3D ( 'NONE', #742, #390, #262 ) ;
#616 = ORIENTED_EDGE ( 'NONE', *, *, #634, .F. ) ;
#617 = EDGE_CURVE ( 'NONE', #232, #662, #417, .T. ) ;
#618 = CARTESIAN_POINT ( 'NONE',  ( 5.500000000000002665, -20.00000000000000000, 0.000000000000000000 ) ) ;
#619 = CARTESIAN_POINT ( 'NONE',  ( -5.500000000000001776, -15.75000000000000711, 4.896506970361133537E-22 ) ) ;
#620 = ORIENTED_EDGE ( 'NONE', *, *, #577, .T. ) ;
#621 = EDGE_CURVE ( 'NONE', #114, #637, #468, .T. ) ;
#622 = LINE ( 'NONE', #76, #365 ) ;
#623 = DIRECTION ( 'NONE',  ( -2.433606793669644042E-17, 1.000000000000000000, -0.000000000000000000 ) ) ;
#624 = CARTESIAN_POINT ( 'NONE',  ( 2.400000000000000799, -7.644519613420289517, -3.220369129623863014 ) ) ;
#625 = DIRECTION ( 'NONE',  ( -1.000000000000000000, -2.433606793669644042E-17, 0.000000000000000000 ) ) ;
#626 = ORIENTED_EDGE ( 'NONE', *, *, #298, .T. ) ;
#627 = AXIS2_PLACEMENT_3D ( 'NONE', #426, #700, #87 ) ;
#628 = CARTESIAN_POINT ( 'NONE',  ( 2.399999999999999911, -8.000000000000000000, -3.733514387690793690 ) ) ;
#629 = CARTESIAN_POINT ( 'NONE',  ( -0.6614378277664527683, -17.12602464350772991, -1.249999999999991340 ) ) ;
#630 = ADVANCED_FACE ( 'NONE', ( #118 ), #268, .F. ) ;
#631 = EDGE_LOOP ( 'NONE', ( #348, #709, #36, #579 ) ) ;
#632 = DIRECTION ( 'NONE',  ( 1.000000000000000000, 2.710505431213761085E-17, 0.000000000000000000 ) ) ;
#633 = CARTESIAN_POINT ( 'NONE',  ( -0.6614378277664410000, -17.12609289819242164, 1.250000000000001998 ) ) ;
#634 = EDGE_CURVE ( 'NONE', #575, #269, #265, .T. ) ;
#635 = VERTEX_POINT ( 'NONE', #342 ) ;
#636 = CARTESIAN_POINT ( 'NONE',  ( -4.000000000000000000, -9.734427174678576168E-17, 0.000000000000000000 ) ) ;
#637 = VERTEX_POINT ( 'NONE', #563 ) ;
#638 = CARTESIAN_POINT ( 'NONE',  ( -5.409685185379493610, -16.23170804927437771, -0.9995584823694284582 ) ) ;
#639 = VECTOR ( 'NONE', #492, 1000.000000000000000 ) ;
#640 = TOROIDAL_SURFACE ( 'NONE', #761, 3.500000000000000000, 0.5000000000000000000 ) ;
#641 = VERTEX_POINT ( 'NONE', #153 ) ;
#642 = CARTESIAN_POINT ( 'NONE',  ( 9.360015879321586467E-16, -20.00000000000000000, -1.500000000000000222 ) ) ;
#643 = VERTEX_POINT ( 'NONE', #547 ) ;
#644 = DIRECTION ( 'NONE',  ( -2.433606793669644042E-17, 1.000000000000000000, -0.000000000000000000 ) ) ;
#645 = CARTESIAN_POINT ( 'NONE',  ( 0.000000000000000000, -7.248924226215549105, 1.249999999999997780 ) ) ;
#646 = ORIENTED_EDGE ( 'NONE', *, *, #55, .T. ) ;
#647 = ADVANCED_FACE ( 'NONE', ( #215, #141 ), #486, .F. ) ;
#648 = APPROVAL_DATE_TIME ( #437, #446 ) ;
#649 = ORIENTED_EDGE ( 'NONE', *, *, #722, .F. ) ;
#650 = CARTESIAN_POINT ( 'NONE',  ( 4.867213587339288331E-16, -20.00000000000000000, 0.000000000000000000 ) ) ;
#651 = APPROVAL_STATUS ( 'not_yet_approved' ) ;
#652 = B_SPLINE_CURVE_WITH_KNOTS ( 'NONE', 3,
 ( #809, #661, #864, #677, #66, #875, #735, #3 ),
 .UNSPECIFIED., .F., .F.,
 ( 4, 2, 2, 4 ),
 ( 0.000000000000000000, 0.0004534730275615728970, 0.0006802095413423588305, 0.0009069460551231448182 ),
 .UNSPECIFIED. ) ;
#653 = DIRECTION ( 'NONE',  ( -2.433606793669644042E-17, 1.000000000000000000, -0.000000000000000000 ) ) ;
#654 = AXIS2_PLACEMENT_3D ( 'NONE', #671, #52, #137 ) ;
#655 = CARTESIAN_POINT ( 'NONE',  ( 8.143212482486763891E-16, -10.00000000000000000, 1.500000000000000222 ) ) ;
#656 = AXIS2_PLACEMENT_3D ( 'NONE', #469, #206, #455 ) ;
#657 = EDGE_CURVE ( 'NONE', #122, #643, #277, .T. ) ;
#658 = ORIENTED_EDGE ( 'NONE', *, *, #4, .T. ) ;
#659 = DIRECTION ( 'NONE',  ( 2.433606793669644042E-17, -1.000000000000000000, 0.000000000000000000 ) ) ;
#660 = DIRECTION ( 'NONE',  ( 2.433606793669644042E-17, -1.000000000000000000, -0.000000000000000000 ) ) ;
#661 = CARTESIAN_POINT ( 'NONE',  ( 2.400000000000000355, 1.524659305057740610E-17, 2.700253162232622017 ) ) ;
#662 = VERTEX_POINT ( 'NONE', #833 ) ;
#663 = CARTESIAN_POINT ( 'NONE',  ( -0.6614378277661580041, -17.00000000000000000, -1.249999999999990674 ) ) ;
#664 = ADVANCED_FACE ( 'NONE', ( #767 ), #640, .T. ) ;
#665 = CARTESIAN_POINT ( 'NONE',  ( -5.391051240766384645, -16.36847286211435204, 1.091207568985328002 ) ) ;
#666 = CARTESIAN_POINT ( 'NONE',  ( 2.433606793669644165E-16, -10.00000000000000000, 0.000000000000000000 ) ) ;
#667 = ORIENTED_EDGE ( 'NONE', *, *, #61, .T. ) ;
#668 = CARTESIAN_POINT ( 'NONE',  ( 2.399999999999999911, -7.500000000000000000, 3.200000000000000178 ) ) ;
#669 = EDGE_CURVE ( 'NONE', #766, #92, #622, .T. ) ;
#670 = CARTESIAN_POINT ( 'NONE',  ( 4.336808689942017736E-16, -10.00000000000000000, -0.5000000000000002220 ) ) ;
#671 = CARTESIAN_POINT ( 'NONE',  ( 0.000000000000000000, 0.000000000000000000, 0.000000000000000000 ) ) ;
#672 = VECTOR ( 'NONE', #444, 1000.000000000000000 ) ;
#673 = AXIS2_PLACEMENT_3D ( 'NONE', #198, #59, #324 ) ;
#674 = ORIENTED_EDGE ( 'NONE', *, *, #302, .T. ) ;
#675 = CARTESIAN_POINT ( 'NONE',  ( 2.399999999999999911, -0.4231029082765265792, -3.199999999999999289 ) ) ;
#676 = CARTESIAN_POINT ( 'NONE',  ( -0.9999999999999995559, -10.00000000000000000, -0.5000000000000002220 ) ) ;
#677 = CARTESIAN_POINT ( 'NONE',  ( 2.399999999999999467, -0.1633128105284469000, 3.043006261657601907 ) ) ;
#678 = B_SPLINE_CURVE_WITH_KNOTS ( 'NONE', 3,
 ( #165, #301, #168, #843, #837, #710, #638, #37, #108, #783, #503, #33 ),
 .UNSPECIFIED., .F., .F.,
 ( 4, 2, 2, 2, 2, 4 ),
 ( 0.001960962860494963600, 0.002205956631245310166, 0.002450950401995656731, 0.002940937943496349863, 0.003430925484997042994, 0.003920913026497736126 ),
 .UNSPECIFIED. ) ;
#679 = ORIENTED_EDGE ( 'NONE', *, *, #815, .T. ) ;
#680 = FACE_OUTER_BOUND ( 'NONE', #443, .T. ) ;
#681 = CARTESIAN_POINT ( 'NONE',  ( -0.9999999999999993339, -15.85435607626105003, -0.5000000000000001110 ) ) ;
#682 = EDGE_LOOP ( 'NONE', ( #220, #513 ) ) ;
#683 = CARTESIAN_POINT ( 'NONE',  ( 2.399999999999999911, 9.734427174678569081E-18, -2.547547840571399824 ) ) ;
#684 = LINE ( 'NONE', #823, #138 ) ;
#685 = PRODUCT_RELATED_PRODUCT_CATEGORY ( 'detail', '', ( #332 ) ) ;
#686 = AXIS2_PLACEMENT_3D ( 'NONE', #605, #329, #609 ) ;
#687 = PLANE ( 'NONE',  #713 ) ;
#688 = ORIENTED_EDGE ( 'NONE', *, *, #385, .F. ) ;
#689 = B_SPLINE_CURVE_WITH_KNOTS ( 'NONE', 3,
 ( #595, #401, #310, #859, #470, #796, #600, #126, #543, #727, #589, #530 ),
 .UNSPECIFIED., .F., .F.,
 ( 4, 2, 2, 2, 2, 4 ),
 ( 0.005881348478988228205, 0.006126278236173388764, 0.006371207993358550190, 0.006861067507728872174, 0.007350927022099194158, 0.007840786536469515275 ),
 .UNSPECIFIED. ) ;
#690 = CARTESIAN_POINT ( 'NONE',  ( -0.7954336160458700400, -16.41495927623603990, 1.110913084389836492 ) ) ;
#691 = DIRECTION ( 'NONE',  ( -1.000000000000000000, 0.000000000000000000, 0.000000000000000000 ) ) ;
#692 = CARTESIAN_POINT ( 'NONE',  ( 5.500000000000002665, -20.00000000000000000, 6.735557395310445967E-16 ) ) ;
#693 = ORIENTED_EDGE ( 'NONE', *, *, #35, .T. ) ;
#694 = CARTESIAN_POINT ( 'NONE',  ( 2.399999999999999911, -7.944976471061673706, -3.524453869030506947 ) ) ;
#695 = ADVANCED_FACE ( 'NONE', ( #211 ), #242, .F. ) ;
#696 = LINE ( 'NONE', #822, #773 ) ;
#697 = APPLICATION_CONTEXT ( 'configuration controlled 3d designs of mechanical parts and assemblies' ) ;
#698 = CARTESIAN_POINT ( 'NONE',  ( 2.400000000000000355, -7.771731761506296188, -3.292713275110493942 ) ) ;
#699 = EDGE_CURVE ( 'NONE', #305, #541, #684, .T. ) ;
#700 = DIRECTION ( 'NONE',  ( 2.433606793669644042E-17, -1.000000000000000000, -0.000000000000000000 ) ) ;
#701 = VECTOR ( 'NONE', #456, 1000.000000000000000 ) ;
#702 = ORIENTED_EDGE ( 'NONE', *, *, #194, .T. ) ;
#703 = VECTOR ( 'NONE', #56, 1000.000000000000000 ) ;
#704 = AXIS2_PLACEMENT_3D ( 'NONE', #587, #318, #862 ) ;
#705 = CARTESIAN_POINT ( 'NONE',  ( -0.8795510563885045041, -17.78236219443285648, 0.9819992930163213840 ) ) ;
#706 = CARTESIAN_POINT ( 'NONE',  ( 0.000000000000000000, -7.248924226215549105, 0.000000000000000000 ) ) ;
#707 = CARTESIAN_POINT ( 'NONE',  ( 9.360015879321586467E-16, -20.00000000000000000, 1.500000000000000222 ) ) ;
#708 = EDGE_CURVE ( 'NONE', #269, #195, #756, .T. ) ;
#709 = ORIENTED_EDGE ( 'NONE', *, *, #504, .T. ) ;
#710 = CARTESIAN_POINT ( 'NONE',  ( -5.390983552330024686, -16.36911838259743845, -1.091531466435752273 ) ) ;
#711 = ORIENTED_EDGE ( 'NONE', *, *, #263, .T. ) ;
#712 = DIRECTION ( 'NONE',  ( -0.000000000000000000, 1.000000000000000000, -0.000000000000000000 ) ) ;
#713 = AXIS2_PLACEMENT_3D ( 'NONE', #873, #69, #611 ) ;
#714 = ORIENTED_EDGE ( 'NONE', *, *, #179, .F. ) ;
#715 = CARTESIAN_POINT ( 'NONE',  ( -0.9999999999999993339, -20.00000000000000000, 0.5000000000000002220 ) ) ;
#716 = DIRECTION ( 'NONE',  ( -2.433606793669644042E-17, 1.000000000000000000, -0.000000000000000000 ) ) ;
#717 = EDGE_CURVE ( 'NONE', #746, #860, #383, .T. ) ;
#718 = APPROVAL_ROLE ( '' ) ;
#719 = ORIENTED_EDGE ( 'NONE', *, *, #343, .F. ) ;
#720 = CARTESIAN_POINT ( 'NONE',  ( 0.000000000000000000, -7.248924226215549105, 0.000000000000000000 ) ) ;
#721 = DATE_AND_TIME ( #534, #209 ) ;
#722 = EDGE_CURVE ( 'NONE', #643, #780, #72, .T. ) ;
#723 = CARTESIAN_POINT ( 'NONE',  ( -0.6614378277661580041, -17.00000000000000000, -1.249999999999990674 ) ) ;
#724 = ORIENTED_EDGE ( 'NONE', *, *, #566, .F. ) ;
#725 = CARTESIAN_POINT ( 'NONE',  ( -5.500000000000003553, -15.75000000000001066, 0.1634668689800473362 ) ) ;
#726 = VECTOR ( 'NONE', #483, 1000.000000000000000 ) ;
#727 = CARTESIAN_POINT ( 'NONE',  ( -5.492164837603192851, -18.21660035422150159, 0.3300003119067470569 ) ) ;
#728 = VECTOR ( 'NONE', #11, 1000.000000000000000 ) ;
#729 = CIRCLE ( 'NONE', #762, 1.000000000000000000 ) ;
#730 = EDGE_CURVE ( 'NONE', #790, #344, #516, .T. ) ;
#731 = EDGE_LOOP ( 'NONE', ( #719, #740, #537 ) ) ;
#732 = CARTESIAN_POINT ( 'NONE',  ( -0.6843943612485012817, -17.24936634599633223, 1.230733039197964285 ) ) ;
#733 = COORDINATED_UNIVERSAL_TIME_OFFSET ( 8, 0, .AHEAD. ) ;
#734 = CARTESIAN_POINT ( 'NONE',  ( -5.465936655499682217, -15.90789567750998046, 0.6295824129803553326 ) ) ;
#735 = CARTESIAN_POINT ( 'NONE',  ( 2.400000000000000799, -0.4230857953469183141, 3.200000000000000622 ) ) ;
#736 = EDGE_CURVE ( 'NONE', #195, #841, #221, .T. ) ;
#737 = ORIENTED_EDGE ( 'NONE', *, *, #290, .T. ) ;
#738 = FACE_OUTER_BOUND ( 'NONE', #353, .T. ) ;
#739 = DIRECTION ( 'NONE',  ( -1.000000000000000000, 0.000000000000000000, 0.000000000000000000 ) ) ;
#740 = ORIENTED_EDGE ( 'NONE', *, *, #156, .T. ) ;
#741 = DIRECTION ( 'NONE',  ( 0.000000000000000000, -1.000000000000000000, 0.000000000000000000 ) ) ;
#742 = CARTESIAN_POINT ( 'NONE',  ( 1.216803396834822021E-17, -0.5000000000000000000, 0.000000000000000000 ) ) ;
#743 = AXIS2_PLACEMENT_3D ( 'NONE', #817, #204, #451 ) ;
#744 = CIRCLE ( 'NONE', #573, 1.249999999999988898 ) ;
#745 = AXIS2_PLACEMENT_3D ( 'NONE', #86, #558, #831 ) ;
#746 = VERTEX_POINT ( 'NONE', #285 ) ;
#747 = CARTESIAN_POINT ( 'NONE',  ( 2.400000000000000355, -7.573255257470267843, 3.200000000000000178 ) ) ;
#748 = CARTESIAN_POINT ( 'NONE',  ( 2.400000000000000355, -7.573517661252835431, -3.200000000000001954 ) ) ;
#749 = CARTESIAN_POINT ( 'NONE',  ( 2.399999999999999467, -8.000000000000000000, 3.806573262134857139 ) ) ;
#750 = VERTEX_POINT ( 'NONE', #681 ) ;
#751 = CARTESIAN_POINT ( 'NONE',  ( 2.399999999999999911, -0.4999999999999998890, -3.200000000000000178 ) ) ;
#752 = DIRECTION ( 'NONE',  ( 2.433606793669644042E-17, -1.000000000000000000, 0.000000000000000000 ) ) ;
#753 = CARTESIAN_POINT ( 'NONE',  ( -5.500000000000001776, -18.24999999999999645, 0.000000000000000000 ) ) ;
#754 = EDGE_CURVE ( 'NONE', #427, #305, #853, .T. ) ;
#755 = FACE_OUTER_BOUND ( 'NONE', #596, .T. ) ;
#756 = LINE ( 'NONE', #148, #829 ) ;
#757 = CARTESIAN_POINT ( 'NONE',  ( -5.356071321407141816, -17.00000000000000000, -1.249999999999990674 ) ) ;
#758 = DIRECTION ( 'NONE',  ( -1.000000000000000000, -2.433606793669644042E-17, 0.000000000000000000 ) ) ;
#759 = APPROVAL_PERSON_ORGANIZATION ( #246, #606, #519 ) ;
#760 = CIRCLE ( 'NONE', #364, 5.500000000000001776 ) ;
#761 = AXIS2_PLACEMENT_3D ( 'NONE', #482, #752, #280 ) ;
#762 = AXIS2_PLACEMENT_3D ( 'NONE', #576, #716, #433 ) ;
#763 = CARTESIAN_POINT ( 'NONE',  ( -0.6843507854686531333, -16.75078403075937317, 1.230777702781532090 ) ) ;
#764 = FACE_OUTER_BOUND ( 'NONE', #372, .T. ) ;
#765 = ADVANCED_FACE ( 'NONE', ( #100 ), #93, .F. ) ;
#766 = VERTEX_POINT ( 'NONE', #645 ) ;
#767 = FACE_OUTER_BOUND ( 'NONE', #32, .T. ) ;
#768 = CARTESIAN_POINT ( 'NONE',  ( -5.500000000000001776, -1.338483736518304685E-16, 0.000000000000000000 ) ) ;
#769 = DIRECTION ( 'NONE',  ( -1.000000000000000000, 0.000000000000000000, 0.000000000000000000 ) ) ;
#770 = ORIENTED_EDGE ( 'NONE', *, *, #699, .T. ) ;
#771 =( NAMED_UNIT ( * ) SI_UNIT ( $, .STERADIAN. ) SOLID_ANGLE_UNIT ( ) );
#772 = CARTESIAN_POINT ( 'NONE',  ( -0.9999999999999993339, -15.90485009872272926, -0.6156963400367296835 ) ) ;
#773 = VECTOR ( 'NONE', #85, 1000.000000000000000 ) ;
#774 = ORIENTED_EDGE ( 'NONE', *, *, #302, .F. ) ;
#775 = AXIS2_PLACEMENT_3D ( 'NONE', #670, #660, #400 ) ;
#776 = FACE_OUTER_BOUND ( 'NONE', #132, .T. ) ;
#777 = CARTESIAN_POINT ( 'NONE',  ( -0.9999999999999997780, -18.09514990127728140, 0.6156963400367301276 ) ) ;
#778 = EDGE_LOOP ( 'NONE', ( #316, #73, #610, #544, #373, #267, #452 ) ) ;
#779 = DIRECTION ( 'NONE',  ( -1.000000000000000000, -0.000000000000000000, -0.000000000000000000 ) ) ;
#780 = VERTEX_POINT ( 'NONE', #362 ) ;
#781 = CARTESIAN_POINT ( 'NONE',  ( -5.500000000000000888, -8.000000000000000000, 0.000000000000000000 ) ) ;
#782 = ORIENTED_EDGE ( 'NONE', *, *, #540, .T. ) ;
#783 = CARTESIAN_POINT ( 'NONE',  ( -5.492306711965769139, -15.78275734694742738, -0.3279221778329767800 ) ) ;
#784 = CIRCLE ( 'NONE', #506, 5.500000000000000888 ) ;
#785 = DATE_TIME_ROLE ( 'classification_date' ) ;
#786 = DESIGN_CONTEXT ( 'detailed design', #697, 'design' ) ;
#787 = ORIENTED_EDGE ( 'NONE', *, *, #512, .F. ) ;
#788 = DIRECTION ( 'NONE',  ( -2.433606793669644042E-17, 1.000000000000000000, -0.000000000000000000 ) ) ;
#789 = EDGE_CURVE ( 'NONE', #488, #201, #41, .T. ) ;
#790 = VERTEX_POINT ( 'NONE', #781 ) ;
#791 = ORIENTED_EDGE ( 'NONE', *, *, #67, .T. ) ;
#792 = CARTESIAN_POINT ( 'NONE',  ( -0.6614378277664443306, -16.87390710180757836, -1.249999999999998224 ) ) ;
#793 = PERSON_AND_ORGANIZATION ( #613, #339 ) ;
#794 = CARTESIAN_POINT ( 'NONE',  ( -5.492261140145734188, -15.78297051768611325, 0.3284891248037406508 ) ) ;
#795 = EDGE_CURVE ( 'NONE', #99, #602, #170, .T. ) ;
#796 = CARTESIAN_POINT ( 'NONE',  ( -5.390903652921929634, -17.63000322319515334, 1.091904998692302620 ) ) ;
#797 = ORIENTED_EDGE ( 'NONE', *, *, #67, .F. ) ;
#798 = DIRECTION ( 'NONE',  ( -1.000000000000000000, 0.000000000000000000, 0.000000000000000000 ) ) ;
#799 = APPROVAL_DATE_TIME ( #197, #606 ) ;
#800 = FACE_OUTER_BOUND ( 'NONE', #39, .T. ) ;
#801 = AXIS2_PLACEMENT_3D ( 'NONE', #720, #40, #312 ) ;
#802 = FACE_OUTER_BOUND ( 'NONE', #631, .T. ) ;
#803 = ADVANCED_FACE ( 'NONE', ( #776 ), #440, .F. ) ;
#804 = PRODUCT_DEFINITION_FORMATION_WITH_SPECIFIED_SOURCE ( 'ä»', '', #332, .NOT_KNOWN. ) ;
#805 = ORIENTED_EDGE ( 'NONE', *, *, #224, .F. ) ;
#806 = FACE_OUTER_BOUND ( 'NONE', #830, .T. ) ;
#807 = DATE_TIME_ROLE ( 'creation_date' ) ;
#808 = CARTESIAN_POINT ( 'NONE',  ( -5.356071321407140040, -17.00000000000000000, 1.249999999999994227 ) ) ;
#809 = CARTESIAN_POINT ( 'NONE',  ( 2.399999999999999911, 9.734427174678569081E-18, 2.547547840571399824 ) ) ;
#810 = EDGE_LOOP ( 'NONE', ( #386, #240 ) ) ;
#811 = DIRECTION ( 'NONE',  ( -1.000000000000000000, -2.433606793669644042E-17, 0.000000000000000000 ) ) ;
#812 = CARTESIAN_POINT ( 'NONE',  ( -0.9999999999999993339, -20.00000000000000000, 0.5000000000000002220 ) ) ;
#813 = CARTESIAN_POINT ( 'NONE',  ( 4.336808689942017736E-16, -10.00000000000000000, -0.5000000000000002220 ) ) ;
#814 = ORIENTED_EDGE ( 'NONE', *, *, #360, .T. ) ;
#815 = EDGE_CURVE ( 'NONE', #602, #114, #678, .T. ) ;
#816 = PLANE ( 'NONE',  #656 ) ;
#817 = CARTESIAN_POINT ( 'NONE',  ( 4.000000000000000000, -8.000000000000000000, 0.000000000000000000 ) ) ;
#818 = CIRCLE ( 'NONE', #686, 4.000000000000000000 ) ;
#819 = ORIENTED_EDGE ( 'NONE', *, *, #55, .F. ) ;
#820 = B_SPLINE_CURVE_WITH_KNOTS ( 'NONE', 3,
 ( #351, #629, #286, #564, #208, #369, #850, #187, #229, #110 ),
 .UNSPECIFIED., .F., .F.,
 ( 4, 2, 2, 2, 4 ),
 ( 0.001488190643723059578, 0.001860036913487636036, 0.002231883183252212494, 0.002603729453016788518, 0.002975575722781364976 ),
 .UNSPECIFIED. ) ;
#821 = CC_DESIGN_PERSON_AND_ORGANIZATION_ASSIGNMENT ( #592, #523, ( #346 ) ) ;
#822 = CARTESIAN_POINT ( 'NONE',  ( 5.500000000000001776, 1.338483736518304685E-16, 6.735557395310443995E-16 ) ) ;
#823 = CARTESIAN_POINT ( 'NONE',  ( -0.9999999999999995559, -10.00000000000000000, 1.118033988749895125 ) ) ;
#824 = EDGE_CURVE ( 'NONE', #488, #635, #231, .T. ) ;
#825 = ORIENTED_EDGE ( 'NONE', *, *, #98, .T. ) ;
#826 = CARTESIAN_POINT ( 'NONE',  ( -0.9802995886999058550, -15.97108991348492424, 0.7201484912743878475 ) ) ;
#827 = EDGE_CURVE ( 'NONE', #849, #195, #729, .T. ) ;
#828 = AXIS2_PLACEMENT_3D ( 'NONE', #128, #811, #565 ) ;
#829 = VECTOR ( 'NONE', #6, 1000.000000000000000 ) ;
#830 = EDGE_LOOP ( 'NONE', ( #322, #556, #510, #264 ) ) ;
#831 = DIRECTION ( 'NONE',  ( -1.000000000000000000, 0.000000000000000000, 0.000000000000000000 ) ) ;
#832 = CARTESIAN_POINT ( 'NONE',  ( -5.447158006064428015, -17.99845020739003587, -0.7694265902830774717 ) ) ;
#833 = CARTESIAN_POINT ( 'NONE',  ( 2.399999999999999911, 9.734427174678569081E-18, 2.547547840571399824 ) ) ;
#834 = CARTESIAN_POINT ( 'NONE',  ( -0.9195386323786634009, -17.87092038463033106, 0.9048786633985705929 ) ) ;
#835 = PLANE ( 'NONE',  #117 ) ;
#836 = ORIENTED_EDGE ( 'NONE', *, *, #717, .F. ) ;
#837 = CARTESIAN_POINT ( 'NONE',  ( -5.370713497693365035, -16.59655798096083856, -1.185948007554554096 ) ) ;
#838 = EDGE_CURVE ( 'NONE', #585, #849, #846, .T. ) ;
#839 = CARTESIAN_POINT ( 'NONE',  ( 4.867213587339288331E-16, -20.00000000000000000, 0.000000000000000000 ) ) ;
#840 = AXIS2_PLACEMENT_3D ( 'NONE', #650, #355, #173 ) ;
#841 = VERTEX_POINT ( 'NONE', #354 ) ;
#842 = VECTOR ( 'NONE', #218, 1000.000000000000000 ) ;
#843 = CARTESIAN_POINT ( 'NONE',  ( -5.365348947243950839, -16.67458597006613985, -1.209670094469915469 ) ) ;
#844 = CC_DESIGN_APPROVAL ( #185, ( #804 ) ) ;
#845 = ORIENTED_EDGE ( 'NONE', *, *, #789, .T. ) ;
#846 = LINE ( 'NONE', #236, #533 ) ;
#847 = VERTEX_POINT ( 'NONE', #707 ) ;
#848 = ADVANCED_FACE ( 'NONE', ( #582 ), #493, .F. ) ;
#849 = VERTEX_POINT ( 'NONE', #642 ) ;
#850 = CARTESIAN_POINT ( 'NONE',  ( -0.9195334069180850500, -17.87091887139535018, -0.9048591796874726478 ) ) ;
#851 = CARTESIAN_POINT ( 'NONE',  ( 0.000000000000000000, 0.000000000000000000, 0.000000000000000000 ) ) ;
#852 = AXIS2_PLACEMENT_3D ( 'NONE', #245, #379, #387 ) ;
#853 = CIRCLE ( 'NONE', #546, 1.000000000000000000 ) ;
#854 = B_SPLINE_CURVE_WITH_KNOTS ( 'NONE', 3,
 ( #753, #214, #423, #411, #832, #552, #614, #77, #149, #757 ),
 .UNSPECIFIED., .F., .F.,
 ( 4, 2, 2, 2, 4 ),
 ( 0.000000000000000000, 0.0004902407151237409000, 0.0009804814302474818000, 0.001470722145371222700, 0.001960962860494963600 ),
 .UNSPECIFIED. ) ;
#855 = EDGE_LOOP ( 'NONE', ( #10, #152, #620, #646 ) ) ;
#856 = PLANE ( 'NONE',  #398 ) ;
#857 = APPLICATION_PROTOCOL_DEFINITION ( 'international standard', 'config_control_design', 1994, #697 ) ;
#858 = CARTESIAN_POINT ( 'NONE',  ( -0.9999999999999991118, -18.14564392373895174, 0.5000000000000002220 ) ) ;
#859 = CARTESIAN_POINT ( 'NONE',  ( -5.365268752076517877, -17.32406959609350494, 1.210024319589816599 ) ) ;
#860 = VERTEX_POINT ( 'NONE', #103 ) ;
#861 = CARTESIAN_POINT ( 'NONE',  ( 1.500000000000000888, -20.00000000000000000, 0.000000000000000000 ) ) ;
#862 = DIRECTION ( 'NONE',  ( 1.000000000000000000, 0.000000000000000000, 0.000000000000000000 ) ) ;
#863 = CARTESIAN_POINT ( 'NONE',  ( 8.143212482486763891E-16, -10.00000000000000000, -1.500000000000000222 ) ) ;
#864 = CARTESIAN_POINT ( 'NONE',  ( 2.399999999999999911, -0.03592563157176003469, 2.852738628031935342 ) ) ;
#865 = ORIENTED_EDGE ( 'NONE', *, *, #282, .T. ) ;
#866 = CARTESIAN_POINT ( 'NONE',  ( -1.951563910473907981E-15, -8.000000000000000000, 0.000000000000000000 ) ) ;
#867 = PERSON_AND_ORGANIZATION_ROLE ( 'design_owner' ) ;
#868 = LOCAL_TIME ( 10, 23, 9.000000000000000000, #733 ) ;
#869 = DIRECTION ( 'NONE',  ( -1.000000000000000000, -0.000000000000000000, -0.000000000000000000 ) ) ;
#870 = CIRCLE ( 'NONE', #489, 5.500000000000001776 ) ;
#871 = DIRECTION ( 'NONE',  ( 2.433606793669644042E-17, -1.000000000000000000, -0.000000000000000000 ) ) ;
#872 = EDGE_LOOP ( 'NONE', ( #366, #402, #865 ) ) ;
#873 = CARTESIAN_POINT ( 'NONE',  ( -0.9999999999999995559, -10.00000000000000000, 1.118033988749895125 ) ) ;
#874 = LINE ( 'NONE', #125, #271 ) ;
#875 = CARTESIAN_POINT ( 'NONE',  ( 2.400000000000000355, -0.3479628346060220645, 3.177258681574631538 ) ) ;
#876 = EDGE_CURVE ( 'NONE', #201, #42, #192, .T. ) ;
ENDSEC;
END-ISO-10303-21;
