ISO-10303-21;
HEADER;
FILE_DESCRIPTION (( 'STEP AP214' ),
    '1' );
FILE_NAME ('JXS007.STEP',
    '2017-10-14T02:03:37',
    ( '' ),
    ( '' ),
    'SwSTEP 2.0',
    'SolidWorks 2014',
    '' );
FILE_SCHEMA (( 'AUTOMOTIVE_DESIGN' ));
ENDSEC;

DATA;
#1 = DIRECTION ( 'NONE',  ( -3.491481338843131800E-015, 0.0000000000000000000, 1.000000000000000000 ) ) ;
#2 = AXIS2_PLACEMENT_3D ( 'NONE', #347, #1174, #424 ) ;
#3 = CARTESIAN_POINT ( 'NONE',  ( -5.062647941322542700E-014, 0.0000000000000000000, 14.49999999999999300 ) ) ;
#4 = DIRECTION ( 'NONE',  ( 0.0000000000000000000, 0.0000000000000000000, 1.000000000000000000 ) ) ;
#5 = EDGE_LOOP ( 'NONE', ( #658, #645, #1093, #285 ) ) ;
#6 = ORIENTED_EDGE ( 'NONE', *, *, #1115, .F. ) ;
#7 = DIRECTION ( 'NONE',  ( 0.0000000000000000000, -1.000000000000000000, 0.0000000000000000000 ) ) ;
#8 = ORIENTED_EDGE ( 'NONE', *, *, #523, .F. ) ;
#9 = ORIENTED_EDGE ( 'NONE', *, *, #765, .T. ) ;
#10 = EDGE_CURVE ( 'NONE', #87, #662, #433, .T. ) ;
#11 = DIRECTION ( 'NONE',  ( -1.000000000000000000, -0.0000000000000000000, -0.0000000000000000000 ) ) ;
#12 = LINE ( 'NONE', #236, #775 ) ;
#13 = FACE_OUTER_BOUND ( 'NONE', #152, .T. ) ;
#14 = VERTEX_POINT ( 'NONE', #105 ) ;
#15 = CARTESIAN_POINT ( 'NONE',  ( -5.760944209091166900E-014, -19.50000000000000400, 16.49999999999998900 ) ) ;
#16 = EDGE_CURVE ( 'NONE', #647, #69, #716, .T. ) ;
#17 = CARTESIAN_POINT ( 'NONE',  ( -5.237222008264696900E-014, -12.50000000000000200, 14.99999999999999100 ) ) ;
#18 = AXIS2_PLACEMENT_3D ( 'NONE', #1157, #394, #30 ) ;
#19 = DIRECTION ( 'NONE',  ( 0.0000000000000000000, 0.0000000000000000000, 1.000000000000000000 ) ) ;
#20 = ORIENTED_EDGE ( 'NONE', *, *, #44, .T. ) ;
#21 = CARTESIAN_POINT ( 'NONE',  ( 1.999999999999933600, -12.50000000000000200, 18.99999999999999600 ) ) ;
#22 = ORIENTED_EDGE ( 'NONE', *, *, #162, .T. ) ;
#23 = DIRECTION ( 'NONE',  ( 0.0000000000000000000, 0.0000000000000000000, 1.000000000000000000 ) ) ;
#24 = CYLINDRICAL_SURFACE ( 'NONE', #1180, 1.500000000000001300 ) ;
#25 = VECTOR ( 'NONE', #861, 1000.000000000000000 ) ;
#26 = EDGE_CURVE ( 'NONE', #367, #449, #736, .T. ) ;
#27 = VECTOR ( 'NONE', #923, 1000.000000000000000 ) ;
#28 = CARTESIAN_POINT ( 'NONE',  ( 32.50000000000000000, -12.50000000000000000, -2.000000000000000000 ) ) ;
#29 = LINE ( 'NONE', #251, #1155 ) ;
#30 = DIRECTION ( 'NONE',  ( -3.469446951953611000E-015, 0.0000000000000000000, 1.000000000000000000 ) ) ;
#31 = AXIS2_PLACEMENT_3D ( 'NONE', #124, #133, #379 ) ;
#32 = DIRECTION ( 'NONE',  ( -3.491481338843133400E-015, 0.0000000000000000000, 1.000000000000000000 ) ) ;
#33 = CARTESIAN_POINT ( 'NONE',  ( 37.00000000000000000, -12.50000000000000200, 0.0000000000000000000 ) ) ;
#34 = EDGE_CURVE ( 'NONE', #315, #557, #474, .T. ) ;
#35 = DIRECTION ( 'NONE',  ( 1.000000000000000000, 0.0000000000000000000, 0.0000000000000000000 ) ) ;
#36 = EDGE_LOOP ( 'NONE', ( #467, #312 ) ) ;
#37 = DIRECTION ( 'NONE',  ( 1.000000000000000000, 0.0000000000000000000, 0.0000000000000000000 ) ) ;
#38 = ORIENTED_EDGE ( 'NONE', *, *, #710, .F. ) ;
#39 = EDGE_LOOP ( 'NONE', ( #1141, #96, #928, #401, #141 ) ) ;
#40 = ORIENTED_EDGE ( 'NONE', *, *, #97, .T. ) ;
#41 = DIRECTION ( 'NONE',  ( -3.504141421473149100E-015, 0.0000000000000000000, 1.000000000000000000 ) ) ;
#42 = LINE ( 'NONE', #508, #516 ) ;
#43 = DIRECTION ( 'NONE',  ( 0.0000000000000000000, -0.0000000000000000000, 1.000000000000000000 ) ) ;
#44 = EDGE_CURVE ( 'NONE', #1046, #130, #760, .T. ) ;
#45 = CYLINDRICAL_SURFACE ( 'NONE', #648, 3.999999999999998200 ) ;
#46 = FACE_OUTER_BOUND ( 'NONE', #602, .T. ) ;
#47 = VERTEX_POINT ( 'NONE', #850 ) ;
#48 = CARTESIAN_POINT ( 'NONE',  ( -5.237222008264696900E-014, -19.50000000000000400, 14.99999999999999100 ) ) ;
#49 = CARTESIAN_POINT ( 'NONE',  ( 15.50000000000000000, -12.50000000000000000, -2.000000000000000000 ) ) ;
#50 = DIRECTION ( 'NONE',  ( 0.0000000000000000000, 0.0000000000000000000, 1.000000000000000000 ) ) ;
#51 = CARTESIAN_POINT ( 'NONE',  ( -6.633814543801949600E-014, -12.50000000000000200, 18.99999999999998900 ) ) ;
#52 = EDGE_CURVE ( 'NONE', #744, #120, #1170, .T. ) ;
#53 = DIRECTION ( 'NONE',  ( -0.0000000000000000000, 1.000000000000000000, 0.0000000000000000000 ) ) ;
#54 = ORIENTED_EDGE ( 'NONE', *, *, #1086, .T. ) ;
#55 = AXIS2_PLACEMENT_3D ( 'NONE', #341, #616, #629 ) ;
#56 = ORIENTED_EDGE ( 'NONE', *, *, #749, .F. ) ;
#57 = VECTOR ( 'NONE', #1188, 1000.000000000000000 ) ;
#58 = CIRCLE ( 'NONE', #436, 1.500000000000001300 ) ;
#59 = LINE ( 'NONE', #559, #213 ) ;
#60 = DIRECTION ( 'NONE',  ( -3.491481338843135300E-015, 0.0000000000000000000, 1.000000000000000000 ) ) ;
#61 = VERTEX_POINT ( 'NONE', #571 ) ;
#62 = DIRECTION ( 'NONE',  ( 0.0000000000000000000, -1.000000000000000000, 0.0000000000000000000 ) ) ;
#63 = CARTESIAN_POINT ( 'NONE',  ( -9.776147748760774700E-014, 0.0000000000000000000, 27.99999999999999600 ) ) ;
#64 = CARTESIAN_POINT ( 'NONE',  ( 0.0000000000000000000, 0.0000000000000000000, 0.0000000000000000000 ) ) ;
#65 = PLANE ( 'NONE',  #332 ) ;
#66 = VERTEX_POINT ( 'NONE', #1142 ) ;
#67 = AXIS2_PLACEMENT_3D ( 'NONE', #1139, #383, #1143 ) ;
#68 = ORIENTED_EDGE ( 'NONE', *, *, #546, .T. ) ;
#69 = VERTEX_POINT ( 'NONE', #1131 ) ;
#70 = CARTESIAN_POINT ( 'NONE',  ( 2.736599999999997500, -25.00000000000000000, 0.7366000000000000300 ) ) ;
#71 = VERTEX_POINT ( 'NONE', #959 ) ;
#72 = PRODUCT_DEFINITION_FORMATION_WITH_SPECIFIED_SOURCE ( '任何', '', #967, .NOT_KNOWN. ) ;
#73 = DIRECTION ( 'NONE',  ( -3.469446951953615800E-015, 0.0000000000000000000, 1.000000000000000000 ) ) ;
#74 = LINE ( 'NONE', #708, #827 ) ;
#75 = CIRCLE ( 'NONE', #797, 2.736600000000000100 ) ;
#76 = VECTOR ( 'NONE', #110, 1000.000000000000000 ) ;
#77 = ORIENTED_EDGE ( 'NONE', *, *, #663, .F. ) ;
#78 = DIRECTION ( 'NONE',  ( 0.0000000000000000000, 0.0000000000000000000, 1.000000000000000000 ) ) ;
#79 = EDGE_CURVE ( 'NONE', #69, #647, #993, .T. ) ;
#80 = ADVANCED_FACE ( 'NONE', ( #13 ), #1144, .T. ) ;
#81 =( LENGTH_UNIT ( ) NAMED_UNIT ( * ) SI_UNIT ( .MILLI., .METRE. ) );
#82 = CARTESIAN_POINT ( 'NONE',  ( -2.269462870248032900E-014, -12.50000000000000200, 6.499999999999989300 ) ) ;
#83 = EDGE_CURVE ( 'NONE', #66, #375, #904, .T. ) ;
#84 = ORIENTED_EDGE ( 'NONE', *, *, #106, .F. ) ;
#85 = ADVANCED_FACE ( 'NONE', ( #504 ), #920, .F. ) ;
#86 = AXIS2_PLACEMENT_3D ( 'NONE', #676, #7, #113 ) ;
#87 = VERTEX_POINT ( 'NONE', #376 ) ;
#88 = CIRCLE ( 'NONE', #651, 2.736600000000000100 ) ;
#89 = DIRECTION ( 'NONE',  ( -1.000000000000000000, 0.0000000000000000000, 0.0000000000000000000 ) ) ;
#90 = LINE ( 'NONE', #256, #502 ) ;
#91 = ORIENTED_EDGE ( 'NONE', *, *, #611, .T. ) ;
#92 = PLANE ( 'NONE',  #600 ) ;
#93 = EDGE_CURVE ( 'NONE', #969, #427, #520, .T. ) ;
#94 = CARTESIAN_POINT ( 'NONE',  ( 24.49999999999999600, -12.50000000000000200, -2.000000000000000000 ) ) ;
#95 = ORIENTED_EDGE ( 'NONE', *, *, #910, .T. ) ;
#96 = ORIENTED_EDGE ( 'NONE', *, *, #374, .T. ) ;
#97 = EDGE_CURVE ( 'NONE', #69, #744, #594, .T. ) ;
#98 = ORIENTED_EDGE ( 'NONE', *, *, #83, .F. ) ;
#99 = CARTESIAN_POINT ( 'NONE',  ( 17.00000000000000000, -12.50000000000000000, -2.000000000000000000 ) ) ;
#100 = ORIENTED_EDGE ( 'NONE', *, *, #1161, .F. ) ;
#101 = CIRCLE ( 'NONE', #267, 1.500000000000001300 ) ;
#102 = CIRCLE ( 'NONE', #293, 1.500000000000001300 ) ;
#103 = CARTESIAN_POINT ( 'NONE',  ( 17.00000000000000000, -12.50000000000000000, -2.000000000000000000 ) ) ;
#104 = EDGE_LOOP ( 'NONE', ( #755, #901 ) ) ;
#105 = CARTESIAN_POINT ( 'NONE',  ( -2.269462870248032900E-014, -12.50000000000000200, 6.499999999999989300 ) ) ;
#106 = EDGE_CURVE ( 'NONE', #1166, #825, #653, .T. ) ;
#107 = DIRECTION ( 'NONE',  ( -1.000000000000000000, 0.0000000000000000000, -3.491481338843133400E-015 ) ) ;
#108 = AXIS2_PLACEMENT_3D ( 'NONE', #1040, #1029, #370 ) ;
#109 = CARTESIAN_POINT ( 'NONE',  ( 0.0000000000000000000, -25.00000000000000000, -6.982962677686266700E-015 ) ) ;
#110 = DIRECTION ( 'NONE',  ( 0.0000000000000000000, 0.0000000000000000000, 1.000000000000000000 ) ) ;
#111 = CARTESIAN_POINT ( 'NONE',  ( 25.50000000000000400, -5.500000000000000900, -2.000000000000000000 ) ) ;
#112 = ORIENTED_EDGE ( 'NONE', *, *, #847, .F. ) ;
#113 = DIRECTION ( 'NONE',  ( 0.0000000000000000000, -0.0000000000000000000, -1.000000000000000000 ) ) ;
#114 = VERTEX_POINT ( 'NONE', #970 ) ;
#115 = EDGE_CURVE ( 'NONE', #485, #273, #265, .T. ) ;
#116 = CYLINDRICAL_SURFACE ( 'NONE', #1025, 1.500000000000001300 ) ;
#117 = DIRECTION ( 'NONE',  ( -1.000000000000000000, 0.0000000000000000000, -3.491481338843133400E-015 ) ) ;
#118 = CYLINDRICAL_SURFACE ( 'NONE', #665, 3.999999999999998200 ) ;
#119 = FACE_BOUND ( 'NONE', #1118, .T. ) ;
#120 = VERTEX_POINT ( 'NONE', #597 ) ;
#121 = CARTESIAN_POINT ( 'NONE',  ( 1.999999999999997300, 0.0000000000000000000, 0.7365999999999973700 ) ) ;
#122 = CARTESIAN_POINT ( 'NONE',  ( 24.00000000000000000, -12.50000000000000000, -2.000000000000000000 ) ) ;
#123 = DIRECTION ( 'NONE',  ( 0.0000000000000000000, 0.0000000000000000000, 1.000000000000000000 ) ) ;
#124 = CARTESIAN_POINT ( 'NONE',  ( 24.49999999999999600, -12.50000000000000200, -2.000000000000000000 ) ) ;
#125 = ORIENTED_EDGE ( 'NONE', *, *, #1086, .F. ) ;
#126 = DIRECTION ( 'NONE',  ( 1.000000000000000000, 0.0000000000000000000, 0.0000000000000000000 ) ) ;
#127 = VERTEX_POINT ( 'NONE', #49 ) ;
#128 = ORIENTED_EDGE ( 'NONE', *, *, #593, .T. ) ;
#129 = CARTESIAN_POINT ( 'NONE',  ( 37.00000000000000000, -12.50000000000000200, -2.000000000000000000 ) ) ;
#130 = VERTEX_POINT ( 'NONE', #505 ) ;
#131 = AXIS2_PLACEMENT_3D ( 'NONE', #310, #304, #874 ) ;
#132 = LINE ( 'NONE', #657, #287 ) ;
#133 = DIRECTION ( 'NONE',  ( 0.0000000000000000000, 0.0000000000000000000, 1.000000000000000000 ) ) ;
#134 = CIRCLE ( 'NONE', #757, 1.500000000000001300 ) ;
#135 = EDGE_LOOP ( 'NONE', ( #343, #988, #713, #921 ) ) ;
#136 = EDGE_CURVE ( 'NONE', #439, #204, #247, .T. ) ;
#137 = CARTESIAN_POINT ( 'NONE',  ( 2.000000000000000000, 0.0000000000000000000, 0.0000000000000000000 ) ) ;
#138 = DIRECTION ( 'NONE',  ( -3.491481338843131800E-015, 0.0000000000000000000, 1.000000000000000000 ) ) ;
#139 = STYLED_ITEM ( 'NONE', ( #841 ), #327 ) ;
#140 = DIRECTION ( 'NONE',  ( -0.0000000000000000000, 1.000000000000000000, 0.0000000000000000000 ) ) ;
#141 = ORIENTED_EDGE ( 'NONE', *, *, #885, .T. ) ;
#142 = ORIENTED_EDGE ( 'NONE', *, *, #1137, .F. ) ;
#143 = DIRECTION ( 'NONE',  ( 0.0000000000000000000, 0.0000000000000000000, 1.000000000000000000 ) ) ;
#144 = CYLINDRICAL_SURFACE ( 'NONE', #906, 4.000000000000000000 ) ;
#145 = DIRECTION ( 'NONE',  ( -1.000000000000000000, -0.0000000000000000000, -3.491481338843133400E-015 ) ) ;
#146 = LINE ( 'NONE', #649, #1110 ) ;
#147 = AXIS2_PLACEMENT_3D ( 'NONE', #323, #581, #691 ) ;
#148 = EDGE_LOOP ( 'NONE', ( #659, #180, #20, #344 ) ) ;
#149 = APPLICATION_CONTEXT ( 'automotive_design' ) ;
#150 = EDGE_CURVE ( 'NONE', #241, #66, #1068, .T. ) ;
#151 = ORIENTED_EDGE ( 'NONE', *, *, #790, .T. ) ;
#152 = EDGE_LOOP ( 'NONE', ( #455, #698, #578, #1012 ) ) ;
#153 = ORIENTED_EDGE ( 'NONE', *, *, #617, .T. ) ;
#154 = ADVANCED_FACE ( 'NONE', ( #214 ), #313, .T. ) ;
#155 = VERTEX_POINT ( 'NONE', #682 ) ;
#156 = FACE_BOUND ( 'NONE', #622, .T. ) ;
#157 = DIRECTION ( 'NONE',  ( 0.0000000000000000000, 0.0000000000000000000, 1.000000000000000000 ) ) ;
#158 = CIRCLE ( 'NONE', #2, 1.500000000000001300 ) ;
#159 = ORIENTED_EDGE ( 'NONE', *, *, #374, .F. ) ;
#160 = DIRECTION ( 'NONE',  ( -1.000000000000000000, 0.0000000000000000000, 0.0000000000000000000 ) ) ;
#161 = DIRECTION ( 'NONE',  ( -1.000000000000000000, 0.0000000000000000000, -3.491481338843133400E-015 ) ) ;
#162 = EDGE_CURVE ( 'NONE', #595, #810, #461, .T. ) ;
#163 = ADVANCED_FACE ( 'NONE', ( #1211 ), #1183, .F. ) ;
#164 = AXIS2_PLACEMENT_3D ( 'NONE', #355, #627, #450 ) ;
#165 = ORIENTED_EDGE ( 'NONE', *, *, #443, .T. ) ;
#166 = EDGE_LOOP ( 'NONE', ( #837, #870, #731, #100 ) ) ;
#167 = CARTESIAN_POINT ( 'NONE',  ( -5.237222008264696900E-014, -12.50000000000000200, 14.99999999999999100 ) ) ;
#168 = LINE ( 'NONE', #322, #990 ) ;
#169 = CIRCLE ( 'NONE', #238, 4.000000000000000000 ) ;
#170 = LINE ( 'NONE', #51, #793 ) ;
#171 = ADVANCED_FACE ( 'NONE', ( #1039, #289, #979, #399, #448, #817 ), #232, .F. ) ;
#172 = VERTEX_POINT ( 'NONE', #1073 ) ;
#173 = DIRECTION ( 'NONE',  ( -3.491481338843133400E-015, 0.0000000000000000000, 1.000000000000000000 ) ) ;
#174 = EDGE_CURVE ( 'NONE', #61, #367, #369, .T. ) ;
#175 = AXIS2_PLACEMENT_3D ( 'NONE', #250, #525, #160 ) ;
#176 = EDGE_CURVE ( 'NONE', #47, #939, #624, .T. ) ;
#177 = ORIENTED_EDGE ( 'NONE', *, *, #1176, .T. ) ;
#178 = ORIENTED_EDGE ( 'NONE', *, *, #361, .F. ) ;
#179 = ORIENTED_EDGE ( 'NONE', *, *, #611, .F. ) ;
#180 = ORIENTED_EDGE ( 'NONE', *, *, #1100, .T. ) ;
#181 = LINE ( 'NONE', #373, #1154 ) ;
#182 = DIRECTION ( 'NONE',  ( -3.491481338843131400E-015, 0.0000000000000000000, 1.000000000000000000 ) ) ;
#183 = DIRECTION ( 'NONE',  ( -1.000000000000000000, -0.0000000000000000000, -3.491481338843133400E-015 ) ) ;
#184 = SURFACE_STYLE_FILL_AREA ( #936 ) ;
#185 = CIRCLE ( 'NONE', #1173, 12.50000000000000400 ) ;
#186 = DIRECTION ( 'NONE',  ( 0.0000000000000000000, -1.000000000000000000, 0.0000000000000000000 ) ) ;
#187 = STYLED_ITEM ( 'NONE', ( #1210 ), #592 ) ;
#188 = CARTESIAN_POINT ( 'NONE',  ( -5.760944209091166900E-014, -5.500000000000001800, 16.49999999999998900 ) ) ;
#189 = DIRECTION ( 'NONE',  ( -3.469446951953611000E-015, 0.0000000000000000000, 1.000000000000000000 ) ) ;
#190 = DIRECTION ( 'NONE',  ( 0.0000000000000000000, 0.0000000000000000000, 1.000000000000000000 ) ) ;
#191 = ORIENTED_EDGE ( 'NONE', *, *, #1076, .T. ) ;
#192 = ORIENTED_EDGE ( 'NONE', *, *, #593, .F. ) ;
#193 = EDGE_CURVE ( 'NONE', #705, #495, #689, .T. ) ;
#194 = ORIENTED_EDGE ( 'NONE', *, *, #264, .T. ) ;
#195 = CARTESIAN_POINT ( 'NONE',  ( 24.00000000000000000, -5.500000000000000900, -2.000000000000000000 ) ) ;
#196 = ORIENTED_EDGE ( 'NONE', *, *, #297, .F. ) ;
#197 = CYLINDRICAL_SURFACE ( 'NONE', #807, 4.000000000000000000 ) ;
#198 = LINE ( 'NONE', #606, #804 ) ;
#199 = DIRECTION ( 'NONE',  ( 0.0000000000000000000, 0.0000000000000000000, 1.000000000000000000 ) ) ;
#200 = EDGE_LOOP ( 'NONE', ( #742, #321, #179, #812, #1082 ) ) ;
#201 = DIRECTION ( 'NONE',  ( 0.0000000000000000000, 0.0000000000000000000, 1.000000000000000000 ) ) ;
#202 = CARTESIAN_POINT ( 'NONE',  ( 1.999999999999947600, -5.500000000000001800, 14.99999999999999600 ) ) ;
#203 = DIRECTION ( 'NONE',  ( 1.000000000000000000, 0.0000000000000000000, 0.0000000000000000000 ) ) ;
#204 = VERTEX_POINT ( 'NONE', #33 ) ;
#205 = DIRECTION ( 'NONE',  ( 0.0000000000000000000, 0.0000000000000000000, 1.000000000000000000 ) ) ;
#206 = VERTEX_POINT ( 'NONE', #1148 ) ;
#207 = AXIS2_PLACEMENT_3D ( 'NONE', #295, #19, #488 ) ;
#208 = ORIENTED_EDGE ( 'NONE', *, *, #226, .T. ) ;
#209 = DIRECTION ( 'NONE',  ( 0.0000000000000000000, 0.0000000000000000000, 1.000000000000000000 ) ) ;
#210 = DIRECTION ( 'NONE',  ( -0.0000000000000000000, 1.000000000000000000, -0.0000000000000000000 ) ) ;
#211 = FACE_OUTER_BOUND ( 'NONE', #604, .T. ) ;
#212 = DIRECTION ( 'NONE',  ( 3.491481338843133400E-015, -0.0000000000000000000, -1.000000000000000000 ) ) ;
#213 = VECTOR ( 'NONE', #849, 1000.000000000000000 ) ;
#214 = FACE_OUTER_BOUND ( 'NONE', #1119, .T. ) ;
#215 = DIRECTION ( 'NONE',  ( -1.000000000000000000, 0.0000000000000000000, 0.0000000000000000000 ) ) ;
#216 = DIRECTION ( 'NONE',  ( -1.000000000000000000, 0.0000000000000000000, -3.491481338843133400E-015 ) ) ;
#217 = CARTESIAN_POINT ( 'NONE',  ( 24.00000000000000000, -19.50000000000000000, -2.000000000000000000 ) ) ;
#218 = DIRECTION ( 'NONE',  ( -1.000000000000000000, 0.0000000000000000000, -3.491481338843133400E-015 ) ) ;
#219 = ORIENTED_EDGE ( 'NONE', *, *, #297, .T. ) ;
#220 = CARTESIAN_POINT ( 'NONE',  ( 22.50000000000000000, -19.50000000000000000, -2.000000000000000000 ) ) ;
#221 = CARTESIAN_POINT ( 'NONE',  ( 2.736599999999997500, 0.0000000000000000000, 0.7366000000000000300 ) ) ;
#222 = VERTEX_POINT ( 'NONE', #964 ) ;
#223 = EDGE_LOOP ( 'NONE', ( #159, #926, #440, #899 ) ) ;
#224 = DIRECTION ( 'NONE',  ( 0.0000000000000000000, 0.0000000000000000000, 1.000000000000000000 ) ) ;
#225 = ORIENTED_EDGE ( 'NONE', *, *, #1145, .T. ) ;
#226 = EDGE_CURVE ( 'NONE', #947, #222, #1198, .T. ) ;
#227 = AXIS2_PLACEMENT_3D ( 'NONE', #938, #107, #552 ) ;
#228 = CARTESIAN_POINT ( 'NONE',  ( -5.237222008264696200E-014, -5.500000000000001800, 14.99999999999998900 ) ) ;
#229 = LINE ( 'NONE', #1055, #446 ) ;
#230 = DIRECTION ( 'NONE',  ( -3.491481338843131400E-015, 0.0000000000000000000, 1.000000000000000000 ) ) ;
#231 = VECTOR ( 'NONE', #388, 1000.000000000000000 ) ;
#232 = PLANE ( 'NONE',  #271 ) ;
#233 = ORIENTED_EDGE ( 'NONE', *, *, #790, .F. ) ;
#234 = DIRECTION ( 'NONE',  ( -1.000000000000000000, 0.0000000000000000000, -3.491481338843133400E-015 ) ) ;
#235 = EDGE_CURVE ( 'NONE', #1166, #1035, #185, .T. ) ;
#236 = CARTESIAN_POINT ( 'NONE',  ( 20.00000000000000000, -12.50000000000000000, -2.000000000000000000 ) ) ;
#237 = DIRECTION ( 'NONE',  ( -3.504141421473149100E-015, 0.0000000000000000000, 1.000000000000000000 ) ) ;
#238 = AXIS2_PLACEMENT_3D ( 'NONE', #122, #778, #486 ) ;
#239 = CARTESIAN_POINT ( 'NONE',  ( 17.00000000000000000, -12.50000000000000000, -2.000000000000000000 ) ) ;
#240 = ADVANCED_FACE ( 'NONE', ( #946 ), #276, .F. ) ;
#241 = VERTEX_POINT ( 'NONE', #907 ) ;
#242 = ORIENTED_EDGE ( 'NONE', *, *, #953, .F. ) ;
#243 = DIRECTION ( 'NONE',  ( 0.0000000000000000000, 0.0000000000000000000, 1.000000000000000000 ) ) ;
#244 = CARTESIAN_POINT ( 'NONE',  ( 20.00000000000000000, -12.50000000000000000, 0.0000000000000000000 ) ) ;
#245 = FACE_BOUND ( 'NONE', #1147, .T. ) ;
#246 = LINE ( 'NONE', #809, #319 ) ;
#247 = LINE ( 'NONE', #129, #320 ) ;
#248 = ADVANCED_FACE ( 'NONE', ( #669 ), #889, .F. ) ;
#249 = DIRECTION ( 'NONE',  ( -1.000000000000000000, 0.0000000000000000000, -3.491481338843133400E-015 ) ) ;
#250 = CARTESIAN_POINT ( 'NONE',  ( 24.49999999999999600, -12.50000000000000200, 0.0000000000000000000 ) ) ;
#251 = CARTESIAN_POINT ( 'NONE',  ( 28.00000000000000000, -12.50000000000000000, -2.000000000000000000 ) ) ;
#252 = ADVANCED_FACE ( 'NONE', ( #415 ), #721, .F. ) ;
#253 = AXIS2_PLACEMENT_3D ( 'NONE', #337, #249, #987 ) ;
#254 = DIRECTION ( 'NONE',  ( -1.000000000000000000, 0.0000000000000000000, -3.491481338843133400E-015 ) ) ;
#255 = EDGE_LOOP ( 'NONE', ( #192, #1099, #1000, #1192 ) ) ;
#256 = CARTESIAN_POINT ( 'NONE',  ( 18.50000000000000400, -12.50000000000000000, -2.000000000000000000 ) ) ;
#257 = ORIENTED_EDGE ( 'NONE', *, *, #490, .F. ) ;
#258 = EDGE_LOOP ( 'NONE', ( #585, #971 ) ) ;
#259 = CIRCLE ( 'NONE', #707, 3.999999999999998200 ) ;
#260 = ADVANCED_FACE ( 'NONE', ( #46 ), #65, .T. ) ;
#261 = DIRECTION ( 'NONE',  ( -3.469446951953615400E-015, 0.0000000000000000000, 1.000000000000000000 ) ) ;
#262 = FACE_BOUND ( 'NONE', #1091, .T. ) ;
#263 = DIRECTION ( 'NONE',  ( 1.000000000000000000, 0.0000000000000000000, 0.0000000000000000000 ) ) ;
#264 = EDGE_CURVE ( 'NONE', #375, #454, #703, .T. ) ;
#265 = CIRCLE ( 'NONE', #147, 12.50000000000000400 ) ;
#266 = EDGE_LOOP ( 'NONE', ( #942, #1189 ) ) ;
#267 = AXIS2_PLACEMENT_3D ( 'NONE', #1184, #254, #352 ) ;
#268 = DIRECTION ( 'NONE',  ( 0.0000000000000000000, 0.0000000000000000000, 1.000000000000000000 ) ) ;
#269 = EDGE_CURVE ( 'NONE', #1112, #619, #877, .T. ) ;
#270 = CARTESIAN_POINT ( 'NONE',  ( 2.736599999999997500, 0.0000000000000000000, 0.7366000000000000300 ) ) ;
#271 = AXIS2_PLACEMENT_3D ( 'NONE', #1069, #309, #695 ) ;
#272 = ORIENTED_EDGE ( 'NONE', *, *, #566, .F. ) ;
#273 = VERTEX_POINT ( 'NONE', #435 ) ;
#274 = CIRCLE ( 'NONE', #509, 0.7366000000000000300 ) ;
#275 = CIRCLE ( 'NONE', #643, 12.49999999999999800 ) ;
#276 = CYLINDRICAL_SURFACE ( 'NONE', #576, 1.500000000000001300 ) ;
#277 = DIRECTION ( 'NONE',  ( 1.416100796715761100E-016, -1.000000000000000000, 0.0000000000000000000 ) ) ;
#278 = AXIS2_PLACEMENT_3D ( 'NONE', #863, #952, #386 ) ;
#279 = CARTESIAN_POINT ( 'NONE',  ( 24.00000000000000000, -12.50000000000000000, 0.0000000000000000000 ) ) ;
#280 = EDGE_CURVE ( 'NONE', #1019, #557, #29, .T. ) ;
#281 = DIRECTION ( 'NONE',  ( -3.469446951953615800E-015, 0.0000000000000000000, 1.000000000000000000 ) ) ;
#282 = ORIENTED_EDGE ( 'NONE', *, *, #1201, .T. ) ;
#283 = DIRECTION ( 'NONE',  ( 0.0000000000000000000, 0.0000000000000000000, 1.000000000000000000 ) ) ;
#284 = VERTEX_POINT ( 'NONE', #517 ) ;
#285 = ORIENTED_EDGE ( 'NONE', *, *, #566, .T. ) ;
#286 = DIRECTION ( 'NONE',  ( 1.000000000000000000, 0.0000000000000000000, 0.0000000000000000000 ) ) ;
#287 = VECTOR ( 'NONE', #944, 1000.000000000000000 ) ;
#288 = CARTESIAN_POINT ( 'NONE',  ( 1.999999999999949800, 0.0000000000000000000, 14.49999999999999800 ) ) ;
#289 = FACE_BOUND ( 'NONE', #543, .T. ) ;
#290 = EDGE_CURVE ( 'NONE', #662, #87, #158, .T. ) ;
#291 = LINE ( 'NONE', #579, #717 ) ;
#292 = CARTESIAN_POINT ( 'NONE',  ( 24.49999999999999600, -24.99999999999999600, -2.000000000000000000 ) ) ;
#293 = AXIS2_PLACEMENT_3D ( 'NONE', #924, #451, #263 ) ;
#294 = DIRECTION ( 'NONE',  ( -1.000000000000000000, 0.0000000000000000000, -3.491481338843133400E-015 ) ) ;
#295 = CARTESIAN_POINT ( 'NONE',  ( 17.00000000000000000, -12.50000000000000000, 0.0000000000000000000 ) ) ;
#296 = ORIENTED_EDGE ( 'NONE', *, *, #1022, .T. ) ;
#297 = EDGE_CURVE ( 'NONE', #696, #127, #134, .T. ) ;
#298 = DIRECTION ( 'NONE',  ( -1.000000000000000000, 0.0000000000000000000, -3.491481338843133400E-015 ) ) ;
#299 = DIRECTION ( 'NONE',  ( 0.0000000000000000000, -1.000000000000000000, 0.0000000000000000000 ) ) ;
#300 = ORIENTED_EDGE ( 'NONE', *, *, #1061, .T. ) ;
#301 = PRODUCT_RELATED_PRODUCT_CATEGORY ( 'part', '', ( #967 ) ) ;
#302 = LINE ( 'NONE', #28, #25 ) ;
#303 = LINE ( 'NONE', #746, #860 ) ;
#304 = DIRECTION ( 'NONE',  ( 0.0000000000000000000, 0.0000000000000000000, 1.000000000000000000 ) ) ;
#305 = DIRECTION ( 'NONE',  ( -1.000000000000000000, 0.0000000000000000000, -3.491481338843133400E-015 ) ) ;
#306 = ORIENTED_EDGE ( 'NONE', *, *, #1038, .F. ) ;
#307 = CARTESIAN_POINT ( 'NONE',  ( 31.00000000000000000, -12.50000000000000000, 0.0000000000000000000 ) ) ;
#308 = DIRECTION ( 'NONE',  ( -3.469446951953611000E-015, 0.0000000000000000000, 1.000000000000000000 ) ) ;
#309 = DIRECTION ( 'NONE',  ( -0.0000000000000000000, 0.0000000000000000000, -1.000000000000000000 ) ) ;
#310 = CARTESIAN_POINT ( 'NONE',  ( 24.00000000000000000, -5.500000000000000900, -2.000000000000000000 ) ) ;
#311 = CARTESIAN_POINT ( 'NONE',  ( -7.681258945454890900E-014, -12.50000000000000000, 21.99999999999999300 ) ) ;
#312 = ORIENTED_EDGE ( 'NONE', *, *, #353, .F. ) ;
#313 = PLANE ( 'NONE',  #513 ) ;
#314 = ORIENTED_EDGE ( 'NONE', *, *, #382, .F. ) ;
#315 = VERTEX_POINT ( 'NONE', #244 ) ;
#316 = COLOUR_RGB ( '',0.2509803921568627400, 0.2509803921568627400, 0.2509803921568627400 ) ;
#317 = CARTESIAN_POINT ( 'NONE',  ( -5.030698080332740600E-014, -12.50000000000000000, 14.49999999999999300 ) ) ;
#318 = FACE_OUTER_BOUND ( 'NONE', #410, .T. ) ;
#319 = VECTOR ( 'NONE', #145, 1000.000000000000000 ) ;
#320 = VECTOR ( 'NONE', #494, 1000.000000000000000 ) ;
#321 = ORIENTED_EDGE ( 'NONE', *, *, #989, .T. ) ;
#322 = CARTESIAN_POINT ( 'NONE',  ( -2.571825154191843100E-015, -0.0000000000000000000, 0.7365999999999904800 ) ) ;
#323 = CARTESIAN_POINT ( 'NONE',  ( -5.030698080332740600E-014, -12.50000000000000000, 14.49999999999999300 ) ) ;
#324 = EDGE_CURVE ( 'NONE', #916, #130, #170, .T. ) ;
#325 = DIRECTION ( 'NONE',  ( 1.000000000000000000, 0.0000000000000000000, 3.491481338843133400E-015 ) ) ;
#326 = CARTESIAN_POINT ( 'NONE',  ( -5.237222008264696900E-014, -19.50000000000000400, 14.99999999999999100 ) ) ;
#327 = ADVANCED_BREP_SHAPE_REPRESENTATION ( 'JXS007', ( #592, #484 ), #767 ) ;
#328 = ORIENTED_EDGE ( 'NONE', *, *, #685, .F. ) ;
#329 = DIRECTION ( 'NONE',  ( -3.469446951953615400E-015, 0.0000000000000000000, 1.000000000000000000 ) ) ;
#330 = ORIENTED_EDGE ( 'NONE', *, *, #348, .T. ) ;
#331 = EDGE_CURVE ( 'NONE', #1003, #846, #1138, .T. ) ;
#332 = AXIS2_PLACEMENT_3D ( 'NONE', #808, #1079, #1088 ) ;
#333 = DIRECTION ( 'NONE',  ( -1.000000000000000000, 0.0000000000000000000, -3.491481338843133400E-015 ) ) ;
#334 = CIRCLE ( 'NONE', #983, 12.50000000000000400 ) ;
#335 = DIRECTION ( 'NONE',  ( 1.000000000000000000, 0.0000000000000000000, 0.0000000000000000000 ) ) ;
#336 = VECTOR ( 'NONE', #545, 1000.000000000000000 ) ;
#337 = CARTESIAN_POINT ( 'NONE',  ( -5.237222008264696200E-014, -5.500000000000001800, 14.99999999999998900 ) ) ;
#338 = CARTESIAN_POINT ( 'NONE',  ( -2.793185071074503200E-014, -12.50000000000000200, 7.999999999999989300 ) ) ;
#339 = DIRECTION ( 'NONE',  ( 1.000000000000000000, 0.0000000000000000000, 0.0000000000000000000 ) ) ;
#340 = AXIS2_PLACEMENT_3D ( 'NONE', #771, #1043, #776 ) ;
#341 = CARTESIAN_POINT ( 'NONE',  ( -5.237222008264696900E-014, -19.50000000000000400, 14.99999999999999100 ) ) ;
#342 = DIRECTION ( 'NONE',  ( -3.491481338843135300E-015, 0.0000000000000000000, 1.000000000000000000 ) ) ;
#343 = ORIENTED_EDGE ( 'NONE', *, *, #226, .F. ) ;
#344 = ORIENTED_EDGE ( 'NONE', *, *, #324, .F. ) ;
#345 = ORIENTED_EDGE ( 'NONE', *, *, #443, .F. ) ;
#346 = ADVANCED_FACE ( 'NONE', ( #1127 ), #350, .F. ) ;
#347 = CARTESIAN_POINT ( 'NONE',  ( 17.00000000000000000, -12.50000000000000000, 0.0000000000000000000 ) ) ;
#348 = EDGE_CURVE ( 'NONE', #114, #1064, #963, .T. ) ;
#349 = CIRCLE ( 'NONE', #108, 1.500000000000001300 ) ;
#350 = CYLINDRICAL_SURFACE ( 'NONE', #722, 1.500000000000001300 ) ;
#351 = ORIENTED_EDGE ( 'NONE', *, *, #402, .F. ) ;
#352 = DIRECTION ( 'NONE',  ( -3.491481338843131400E-015, 0.0000000000000000000, 1.000000000000000000 ) ) ;
#353 = EDGE_CURVE ( 'NONE', #939, #47, #102, .T. ) ;
#354 = AXIS2_PLACEMENT_3D ( 'NONE', #103, #935, #286 ) ;
#355 = CARTESIAN_POINT ( 'NONE',  ( 24.49999999999999600, -12.50000000000000200, -2.000000000000000000 ) ) ;
#356 = ORIENTED_EDGE ( 'NONE', *, *, #1061, .F. ) ;
#357 = ORIENTED_EDGE ( 'NONE', *, *, #16, .T. ) ;
#358 = LINE ( 'NONE', #511, #858 ) ;
#359 = FACE_OUTER_BOUND ( 'NONE', #1065, .T. ) ;
#360 = DIRECTION ( 'NONE',  ( -0.0000000000000000000, 1.000000000000000000, 0.0000000000000000000 ) ) ;
#361 = EDGE_CURVE ( 'NONE', #789, #825, #845, .T. ) ;
#362 = FACE_OUTER_BOUND ( 'NONE', #469, .T. ) ;
#363 = EDGE_LOOP ( 'NONE', ( #1172, #9, #941, #407 ) ) ;
#364 = DIRECTION ( 'NONE',  ( -3.491481338843135300E-015, 0.0000000000000000000, 1.000000000000000000 ) ) ;
#365 = ORIENTED_EDGE ( 'NONE', *, *, #871, .T. ) ;
#366 = ORIENTED_EDGE ( 'NONE', *, *, #331, .F. ) ;
#367 = VERTEX_POINT ( 'NONE', #541 ) ;
#368 = VECTOR ( 'NONE', #912, 1000.000000000000000 ) ;
#369 = LINE ( 'NONE', #883, #934 ) ;
#370 = DIRECTION ( 'NONE',  ( 1.000000000000000000, 0.0000000000000000000, 0.0000000000000000000 ) ) ;
#371 = AXIS2_PLACEMENT_3D ( 'NONE', #583, #1044, #215 ) ;
#372 = ORIENTED_EDGE ( 'NONE', *, *, #402, .T. ) ;
#373 = CARTESIAN_POINT ( 'NONE',  ( 0.0000000000000000000, 0.0000000000000000000, 0.0000000000000000000 ) ) ;
#374 = EDGE_CURVE ( 'NONE', #960, #1177, #623, .T. ) ;
#375 = VERTEX_POINT ( 'NONE', #826 ) ;
#376 = CARTESIAN_POINT ( 'NONE',  ( 15.50000000000000000, -12.50000000000000000, 0.0000000000000000000 ) ) ;
#377 = AXIS2_PLACEMENT_3D ( 'NONE', #1125, #1028, #459 ) ;
#378 = ORIENTED_EDGE ( 'NONE', *, *, #406, .T. ) ;
#379 = DIRECTION ( 'NONE',  ( 1.000000000000000000, 0.0000000000000000000, 0.0000000000000000000 ) ) ;
#380 = VECTOR ( 'NONE', #836, 1000.000000000000000 ) ;
#381 = DIRECTION ( 'NONE',  ( 1.000000000000000000, 0.0000000000000000000, 0.0000000000000000000 ) ) ;
#382 = EDGE_CURVE ( 'NONE', #61, #273, #246, .T. ) ;
#383 = DIRECTION ( 'NONE',  ( 0.0000000000000000000, -1.000000000000000000, 0.0000000000000000000 ) ) ;
#384 = AXIS2_PLACEMENT_3D ( 'NONE', #977, #1060, #400 ) ;
#385 = CARTESIAN_POINT ( 'NONE',  ( 2.736599999999997900, -25.00000000000000000, -2.000000000000000000 ) ) ;
#386 = DIRECTION ( 'NONE',  ( 1.000000000000000000, 0.0000000000000000000, 0.0000000000000000000 ) ) ;
#387 = PLANE ( 'NONE',  #476 ) ;
#388 = DIRECTION ( 'NONE',  ( -1.000000000000000000, 0.0000000000000000000, -3.491481338843133400E-015 ) ) ;
#389 = ORIENTED_EDGE ( 'NONE', *, *, #685, .T. ) ;
#390 = AXIS2_PLACEMENT_3D ( 'NONE', #307, #472, #478 ) ;
#391 = CARTESIAN_POINT ( 'NONE',  ( 1.999999999999977600, -12.50000000000000200, 6.499999999999996400 ) ) ;
#392 = EDGE_LOOP ( 'NONE', ( #500, #568 ) ) ;
#393 = ORIENTED_EDGE ( 'NONE', *, *, #953, .T. ) ;
#394 = DIRECTION ( 'NONE',  ( -1.000000000000000000, 0.0000000000000000000, -3.491481338843133400E-015 ) ) ;
#395 = AXIS2_PLACEMENT_3D ( 'NONE', #1186, #243, #820 ) ;
#396 = CYLINDRICAL_SURFACE ( 'NONE', #956, 1.500000000000001300 ) ;
#397 = DIRECTION ( 'NONE',  ( -3.491481338843131400E-015, 0.0000000000000000000, 1.000000000000000000 ) ) ;
#398 = CARTESIAN_POINT ( 'NONE',  ( 2.736599999999997500, -25.00000000000000000, 0.0000000000000000000 ) ) ;
#399 = FACE_BOUND ( 'NONE', #531, .T. ) ;
#400 = DIRECTION ( 'NONE',  ( 1.000000000000000000, 0.0000000000000000000, 0.0000000000000000000 ) ) ;
#401 = ORIENTED_EDGE ( 'NONE', *, *, #1161, .T. ) ;
#402 = EDGE_CURVE ( 'NONE', #284, #789, #75, .T. ) ;
#403 = CARTESIAN_POINT ( 'NONE',  ( -3.840629472727444800E-014, -12.50000000000000200, 10.99999999999999300 ) ) ;
#404 = DIRECTION ( 'NONE',  ( 0.0000000000000000000, 0.0000000000000000000, 1.000000000000000000 ) ) ;
#405 = DIRECTION ( 'NONE',  ( -1.000000000000000000, 0.0000000000000000000, -3.491481338843133400E-015 ) ) ;
#406 = EDGE_CURVE ( 'NONE', #960, #172, #460, .T. ) ;
#407 = ORIENTED_EDGE ( 'NONE', *, *, #280, .F. ) ;
#408 = EDGE_LOOP ( 'NONE', ( #911, #128, #282, #819 ) ) ;
#409 = AXIS2_PLACEMENT_3D ( 'NONE', #421, #432, #342 ) ;
#410 = EDGE_LOOP ( 'NONE', ( #416, #530, #38, #306 ) ) ;
#411 = DIRECTION ( 'NONE',  ( -3.491481338843133400E-015, -0.0000000000000000000, 1.000000000000000000 ) ) ;
#412 = DIRECTION ( 'NONE',  ( 1.000000000000000000, 0.0000000000000000000, 0.0000000000000000000 ) ) ;
#413 = FACE_OUTER_BOUND ( 'NONE', #732, .T. ) ;
#414 = CIRCLE ( 'NONE', #1116, 1.500000000000001300 ) ;
#415 = FACE_OUTER_BOUND ( 'NONE', #834, .T. ) ;
#416 = ORIENTED_EDGE ( 'NONE', *, *, #480, .T. ) ;
#417 = CARTESIAN_POINT ( 'NONE',  ( 1.999999999999905900, -12.50000000000000000, 27.00000000000000400 ) ) ;
#418 = DIRECTION ( 'NONE',  ( -1.000000000000000000, 0.0000000000000000000, -3.491481338843133400E-015 ) ) ;
#419 = EDGE_CURVE ( 'NONE', #114, #705, #747, .T. ) ;
#420 = CARTESIAN_POINT ( 'NONE',  ( 1.999999999999949800, -12.50000000000000000, 14.49999999999999800 ) ) ;
#421 = CARTESIAN_POINT ( 'NONE',  ( -7.681258945454890900E-014, -12.50000000000000000, 21.99999999999999300 ) ) ;
#422 = APPLICATION_PROTOCOL_DEFINITION ( 'draft international standard', 'automotive_design', 1998, #149 ) ;
#423 = ORIENTED_EDGE ( 'NONE', *, *, #948, .T. ) ;
#424 = DIRECTION ( 'NONE',  ( 1.000000000000000000, 0.0000000000000000000, 0.0000000000000000000 ) ) ;
#425 = EDGE_LOOP ( 'NONE', ( #378, #300, #882, #393 ) ) ;
#426 = EDGE_CURVE ( 'NONE', #155, #939, #1037, .T. ) ;
#427 = VERTEX_POINT ( 'NONE', #1004 ) ;
#428 = ORIENTED_EDGE ( 'NONE', *, *, #796, .F. ) ;
#429 = FACE_BOUND ( 'NONE', #392, .T. ) ;
#430 = CARTESIAN_POINT ( 'NONE',  ( 1.999999999999949400, 0.0000000000000000000, 14.49999999999999800 ) ) ;
#431 = FACE_OUTER_BOUND ( 'NONE', #1128, .T. ) ;
#432 = DIRECTION ( 'NONE',  ( -1.000000000000000000, 0.0000000000000000000, -3.491481338843133400E-015 ) ) ;
#433 = CIRCLE ( 'NONE', #207, 1.500000000000001300 ) ;
#434 = DIRECTION ( 'NONE',  ( -1.000000000000000000, 0.0000000000000000000, -3.491481338843133400E-015 ) ) ;
#435 = CARTESIAN_POINT ( 'NONE',  ( -5.062647941322541500E-014, -25.00000000000000000, 14.49999999999998900 ) ) ;
#436 = AXIS2_PLACEMENT_3D ( 'NONE', #228, #333, #397 ) ;
#437 = CARTESIAN_POINT ( 'NONE',  ( 1.999999999999952700, -5.500000000000001800, 13.49999999999999500 ) ) ;
#438 = CARTESIAN_POINT ( 'NONE',  ( 37.00000000000000000, -12.50000000000000200, -2.000000000000000000 ) ) ;
#439 = VERTEX_POINT ( 'NONE', #438 ) ;
#440 = ORIENTED_EDGE ( 'NONE', *, *, #269, .T. ) ;
#441 = ORIENTED_EDGE ( 'NONE', *, *, #823, .T. ) ;
#442 = FILL_AREA_STYLE ('',( #1002 ) ) ;
#443 = EDGE_CURVE ( 'NONE', #696, #662, #90, .T. ) ;
#444 = CIRCLE ( 'NONE', #175, 12.49999999999999800 ) ;
#445 = ADVANCED_FACE ( 'NONE', ( #362 ), #1126, .F. ) ;
#446 = VECTOR ( 'NONE', #862, 1000.000000000000000 ) ;
#447 = AXIS2_PLACEMENT_3D ( 'NONE', #482, #199, #35 ) ;
#448 = FACE_BOUND ( 'NONE', #36, .T. ) ;
#449 = VERTEX_POINT ( 'NONE', #1024 ) ;
#450 = DIRECTION ( 'NONE',  ( -1.000000000000000000, 0.0000000000000000000, 0.0000000000000000000 ) ) ;
#451 = DIRECTION ( 'NONE',  ( 0.0000000000000000000, 0.0000000000000000000, 1.000000000000000000 ) ) ;
#452 = AXIS2_PLACEMENT_3D ( 'NONE', #510, #418, #1171 ) ;
#453 = CARTESIAN_POINT ( 'NONE',  ( -2.793185071074503200E-014, -12.50000000000000200, 7.999999999999989300 ) ) ;
#454 = VERTEX_POINT ( 'NONE', #632 ) ;
#455 = ORIENTED_EDGE ( 'NONE', *, *, #174, .F. ) ;
#456 = FACE_OUTER_BOUND ( 'NONE', #425, .T. ) ;
#457 = CIRCLE ( 'NONE', #371, 12.49999999999999800 ) ;
#458 = AXIS2_PLACEMENT_3D ( 'NONE', #565, #205, #1047 ) ;
#459 = DIRECTION ( 'NONE',  ( 1.000000000000000000, 0.0000000000000000000, 0.0000000000000000000 ) ) ;
#460 = LINE ( 'NONE', #816, #27 ) ;
#461 = CIRCLE ( 'NONE', #560, 1.500000000000001300 ) ;
#462 = PRESENTATION_LAYER_ASSIGNMENT (  '', '', ( #139 ) ) ;
#463 = CARTESIAN_POINT ( 'NONE',  ( 1.999999999999947600, -12.50000000000000200, 14.99999999999999800 ) ) ;
#464 = DIRECTION ( 'NONE',  ( -3.504141421473149100E-015, 0.0000000000000000000, 1.000000000000000000 ) ) ;
#465 = EDGE_CURVE ( 'NONE', #838, #916, #688, .T. ) ;
#466 = SURFACE_SIDE_STYLE ('',( #184 ) ) ;
#467 = ORIENTED_EDGE ( 'NONE', *, *, #176, .F. ) ;
#468 = ORIENTED_EDGE ( 'NONE', *, *, #737, .F. ) ;
#469 = EDGE_LOOP ( 'NONE', ( #872, #512, #194, #980 ) ) ;
#470 = CARTESIAN_POINT ( 'NONE',  ( 2.736599999999997500, -25.00000000000000000, 0.7366000000000000300 ) ) ;
#471 = CARTESIAN_POINT ( 'NONE',  ( 1.999999999999949800, -12.50000000000000000, 14.49999999999999800 ) ) ;
#472 = DIRECTION ( 'NONE',  ( 0.0000000000000000000, 0.0000000000000000000, 1.000000000000000000 ) ) ;
#473 = FACE_OUTER_BOUND ( 'NONE', #1020, .T. ) ;
#474 = CIRCLE ( 'NONE', #278, 4.000000000000000000 ) ;
#475 = CARTESIAN_POINT ( 'NONE',  ( 20.00000000000000000, -12.50000000000000000, -2.000000000000000000 ) ) ;
#476 = AXIS2_PLACEMENT_3D ( 'NONE', #1152, #492, #32 ) ;
#477 = ORIENTED_EDGE ( 'NONE', *, *, #324, .T. ) ;
#478 = DIRECTION ( 'NONE',  ( 1.000000000000000000, 0.0000000000000000000, 0.0000000000000000000 ) ) ;
#479 = CARTESIAN_POINT ( 'NONE',  ( -7.157536744628420200E-014, -12.50000000000000000, 20.49999999999998900 ) ) ;
#480 = EDGE_CURVE ( 'NONE', #619, #439, #275, .T. ) ;
#481 = DIRECTION ( 'NONE',  ( -1.000000000000000000, 0.0000000000000000000, -3.491481338843133400E-015 ) ) ;
#482 = CARTESIAN_POINT ( 'NONE',  ( 31.00000000000000000, -12.50000000000000000, -2.000000000000000000 ) ) ;
#483 = EDGE_LOOP ( 'NONE', ( #272, #661 ) ) ;
#484 = AXIS2_PLACEMENT_3D ( 'NONE', #64, #157, #631 ) ;
#485 = VERTEX_POINT ( 'NONE', #1190 ) ;
#486 = DIRECTION ( 'NONE',  ( 1.000000000000000000, 0.0000000000000000000, 0.0000000000000000000 ) ) ;
#487 = CYLINDRICAL_SURFACE ( 'NONE', #548, 12.50000000000000400 ) ;
#488 = DIRECTION ( 'NONE',  ( 1.000000000000000000, 0.0000000000000000000, 0.0000000000000000000 ) ) ;
#489 = VECTOR ( 'NONE', #728, 1000.000000000000000 ) ;
#490 = EDGE_CURVE ( 'NONE', #947, #14, #591, .T. ) ;
#491 = VECTOR ( 'NONE', #1085, 1000.000000000000000 ) ;
#492 = DIRECTION ( 'NONE',  ( -1.000000000000000000, 0.0000000000000000000, -3.491481338843133400E-015 ) ) ;
#493 = CARTESIAN_POINT ( 'NONE',  ( -4.713499807438226200E-014, -5.500000000000001800, 13.49999999999998800 ) ) ;
#494 = DIRECTION ( 'NONE',  ( 0.0000000000000000000, 0.0000000000000000000, 1.000000000000000000 ) ) ;
#495 = VERTEX_POINT ( 'NONE', #919 ) ;
#496 = AXIS2_PLACEMENT_3D ( 'NONE', #99, #1031, #930 ) ;
#497 = DIRECTION ( 'NONE',  ( 1.000000000000000000, 0.0000000000000000000, 3.491481338843133400E-015 ) ) ;
#498 = EDGE_LOOP ( 'NONE', ( #257, #1200, #683, #153 ) ) ;
#499 = ORIENTED_EDGE ( 'NONE', *, *, #673, .T. ) ;
#500 = ORIENTED_EDGE ( 'NONE', *, *, #617, .F. ) ;
#501 = UNCERTAINTY_MEASURE_WITH_UNIT (LENGTH_MEASURE( 1.000000000000000100E-005 ), #644, 'distance_accuracy_value', 'NONE');
#502 = VECTOR ( 'NONE', #268, 1000.000000000000000 ) ;
#503 = CIRCLE ( 'NONE', #131, 1.500000000000001300 ) ;
#504 = FACE_OUTER_BOUND ( 'NONE', #1204, .T. ) ;
#505 = CARTESIAN_POINT ( 'NONE',  ( -6.633814543801949600E-014, -12.50000000000000200, 18.99999999999998900 ) ) ;
#506 = ORIENTED_EDGE ( 'NONE', *, *, #885, .F. ) ;
#507 = EDGE_CURVE ( 'NONE', #439, #969, #1052, .T. ) ;
#508 = CARTESIAN_POINT ( 'NONE',  ( -3.840629472727444800E-014, -12.50000000000000200, 10.99999999999999300 ) ) ;
#509 = AXIS2_PLACEMENT_3D ( 'NONE', #1059, #299, #951 ) ;
#510 = CARTESIAN_POINT ( 'NONE',  ( -5.237222008264696900E-014, -19.50000000000000400, 14.99999999999999100 ) ) ;
#511 = CARTESIAN_POINT ( 'NONE',  ( 24.49999999999999600, -24.99999999999999600, -2.000000000000000000 ) ) ;
#512 = ORIENTED_EDGE ( 'NONE', *, *, #83, .T. ) ;
#513 = AXIS2_PLACEMENT_3D ( 'NONE', #1160, #140, #43 ) ;
#514 = ORIENTED_EDGE ( 'NONE', *, *, #673, .F. ) ;
#515 = CARTESIAN_POINT ( 'NONE',  ( 24.00000000000000000, -12.50000000000000000, -2.000000000000000000 ) ) ;
#516 = VECTOR ( 'NONE', #712, 1000.000000000000000 ) ;
#517 = CARTESIAN_POINT ( 'NONE',  ( 2.736599999999995300, 0.0000000000000000000, -2.000000000000000000 ) ) ;
#518 = FACE_OUTER_BOUND ( 'NONE', #1032, .T. ) ;
#519 = ADVANCED_FACE ( 'NONE', ( #431 ), #822, .F. ) ;
#520 = LINE ( 'NONE', #848, #76 ) ;
#521 = CARTESIAN_POINT ( 'NONE',  ( -5.760944209091166900E-014, -5.500000000000001800, 16.49999999999998900 ) ) ;
#522 = PRODUCT_DEFINITION_SHAPE ( 'NONE', 'NONE',  #888 ) ;
#523 = EDGE_CURVE ( 'NONE', #734, #47, #132, .T. ) ;
#524 = ADVANCED_FACE ( 'NONE', ( #1096 ), #45, .F. ) ;
#525 = DIRECTION ( 'NONE',  ( 0.0000000000000000000, 0.0000000000000000000, 1.000000000000000000 ) ) ;
#526 = AXIS2_PLACEMENT_3D ( 'NONE', #752, #294, #751 ) ;
#527 = ORIENTED_EDGE ( 'NONE', *, *, #1176, .F. ) ;
#528 = EDGE_LOOP ( 'NONE', ( #1070, #1066, #1149, #345 ) ) ;
#529 = EDGE_CURVE ( 'NONE', #943, #206, #349, .T. ) ;
#530 = ORIENTED_EDGE ( 'NONE', *, *, #136, .T. ) ;
#531 = EDGE_LOOP ( 'NONE', ( #801, #633 ) ) ;
#532 = FACE_OUTER_BOUND ( 'NONE', #498, .T. ) ;
#533 = APPLICATION_CONTEXT ( 'automotive_design' ) ;
#534 = CIRCLE ( 'NONE', #582, 1.500000000000001300 ) ;
#535 = VECTOR ( 'NONE', #190, 1000.000000000000000 ) ;
#536 = EDGE_LOOP ( 'NONE', ( #824, #499 ) ) ;
#537 = ADVANCED_FACE ( 'NONE', ( #719 ), #652, .T. ) ;
#538 = SURFACE_STYLE_USAGE ( .BOTH. , #1102 ) ;
#539 = DIRECTION ( 'NONE',  ( -1.000000000000000000, 0.0000000000000000000, -3.491481338843133400E-015 ) ) ;
#540 = AXIS2_PLACEMENT_3D ( 'NONE', #1014, #360, #741 ) ;
#541 = CARTESIAN_POINT ( 'NONE',  ( 1.999999999999997300, -25.00000000000000000, 0.7365999999999973700 ) ) ;
#542 = ADVANCED_FACE ( 'NONE', ( #844 ), #1111, .T. ) ;
#543 = EDGE_LOOP ( 'NONE', ( #897, #813 ) ) ;
#544 = ORIENTED_EDGE ( 'NONE', *, *, #743, .F. ) ;
#545 = DIRECTION ( 'NONE',  ( 0.0000000000000000000, 0.0000000000000000000, 1.000000000000000000 ) ) ;
#546 = EDGE_CURVE ( 'NONE', #1162, #1003, #574, .T. ) ;
#547 = FACE_BOUND ( 'NONE', #1075, .T. ) ;
#548 = AXIS2_PLACEMENT_3D ( 'NONE', #471, #183, #464 ) ;
#549 = CIRCLE ( 'NONE', #774, 3.999999999999998200 ) ;
#550 = ORIENTED_EDGE ( 'NONE', *, *, #97, .F. ) ;
#551 = EDGE_CURVE ( 'NONE', #916, #838, #549, .T. ) ;
#552 = DIRECTION ( 'NONE',  ( -3.469446951953611000E-015, 0.0000000000000000000, 1.000000000000000000 ) ) ;
#553 = CARTESIAN_POINT ( 'NONE',  ( 25.50000000000000400, -19.50000000000000000, 0.0000000000000000000 ) ) ;
#554 = EDGE_LOOP ( 'NONE', ( #423, #754 ) ) ;
#555 = EDGE_LOOP ( 'NONE', ( #514, #738, #1163, #8 ) ) ;
#556 = ORIENTED_EDGE ( 'NONE', *, *, #1137, .T. ) ;
#557 = VERTEX_POINT ( 'NONE', #929 ) ;
#558 = CYLINDRICAL_SURFACE ( 'NONE', #31, 12.50000000000000000 ) ;
#559 = CARTESIAN_POINT ( 'NONE',  ( 0.0000000000000000000, 0.0000000000000000000, -2.000000000000000000 ) ) ;
#560 = AXIS2_PLACEMENT_3D ( 'NONE', #700, #404, #37 ) ;
#561 = CIRCLE ( 'NONE', #881, 4.000000000000000000 ) ;
#562 = VECTOR ( 'NONE', #1134, 1000.000000000000000 ) ;
#563 = EDGE_LOOP ( 'NONE', ( #357, #913 ) ) ;
#564 = DIRECTION ( 'NONE',  ( 0.0000000000000000000, 0.0000000000000000000, 1.000000000000000000 ) ) ;
#565 = CARTESIAN_POINT ( 'NONE',  ( 31.00000000000000000, -12.50000000000000000, -2.000000000000000000 ) ) ;
#566 = EDGE_CURVE ( 'NONE', #557, #315, #561, .T. ) ;
#567 = CARTESIAN_POINT ( 'NONE',  ( 2.736599999999997500, 0.0000000000000000000, 0.0000000000000000000 ) ) ;
#568 = ORIENTED_EDGE ( 'NONE', *, *, #1206, .F. ) ;
#569 = CARTESIAN_POINT ( 'NONE',  ( 18.50000000000000400, -12.50000000000000000, 0.0000000000000000000 ) ) ;
#570 = EDGE_LOOP ( 'NONE', ( #142, #356, #1062, #372 ) ) ;
#571 = CARTESIAN_POINT ( 'NONE',  ( 1.999999999999949400, -25.00000000000000000, 14.49999999999999500 ) ) ;
#572 = LINE ( 'NONE', #706, #590 ) ;
#573 = CIRCLE ( 'NONE', #950, 1.500000000000001300 ) ;
#574 = CIRCLE ( 'NONE', #227, 1.500000000000001300 ) ;
#575 = CARTESIAN_POINT ( 'NONE',  ( 32.50000000000000000, -12.50000000000000000, -2.000000000000000000 ) ) ;
#576 = AXIS2_PLACEMENT_3D ( 'NONE', #714, #984, #60 ) ;
#577 = PLANE ( 'NONE',  #1202 ) ;
#578 = ORIENTED_EDGE ( 'NONE', *, *, #892, .T. ) ;
#579 = CARTESIAN_POINT ( 'NONE',  ( 15.50000000000000000, -12.50000000000000000, -2.000000000000000000 ) ) ;
#580 = DIRECTION ( 'NONE',  ( -1.000000000000000000, -0.0000000000000000000, -3.491481338843133400E-015 ) ) ;
#581 = DIRECTION ( 'NONE',  ( 1.000000000000000000, 0.0000000000000000000, 3.491481338843133400E-015 ) ) ;
#582 = AXIS2_PLACEMENT_3D ( 'NONE', #453, #1114, #182 ) ;
#583 = CARTESIAN_POINT ( 'NONE',  ( 24.49999999999999600, -12.50000000000000200, 0.0000000000000000000 ) ) ;
#584 = DIRECTION ( 'NONE',  ( 0.0000000000000000000, 0.0000000000000000000, 1.000000000000000000 ) ) ;
#585 = ORIENTED_EDGE ( 'NONE', *, *, #551, .T. ) ;
#586 = AXIS2_PLACEMENT_3D ( 'NONE', #1169, #613, #41 ) ;
#587 = ORIENTED_EDGE ( 'NONE', *, *, #1100, .F. ) ;
#588 = ORIENTED_EDGE ( 'NONE', *, *, #551, .F. ) ;
#589 = CARTESIAN_POINT ( 'NONE',  ( 1.999999999999942300, -5.500000000000001800, 16.49999999999999600 ) ) ;
#590 = VECTOR ( 'NONE', #1067, 1000.000000000000000 ) ;
#591 = LINE ( 'NONE', #82, #368 ) ;
#592 = MANIFOLD_SOLID_BREP ( '切除-拉伸1', #681 ) ;
#593 = EDGE_CURVE ( 'NONE', #1064, #495, #303, .T. ) ;
#594 = LINE ( 'NONE', #1056, #535 ) ;
#595 = VERTEX_POINT ( 'NONE', #553 ) ;
#596 = DIRECTION ( 'NONE',  ( 0.0000000000000000000, 0.0000000000000000000, 1.000000000000000000 ) ) ;
#597 = CARTESIAN_POINT ( 'NONE',  ( 32.50000000000000000, -12.50000000000000000, 0.0000000000000000000 ) ) ;
#598 = DIRECTION ( 'NONE',  ( -1.000000000000000000, 0.0000000000000000000, -3.491481338843133400E-015 ) ) ;
#599 = DIRECTION ( 'NONE',  ( 1.000000000000000000, 0.0000000000000000000, 0.0000000000000000000 ) ) ;
#600 = AXIS2_PLACEMENT_3D ( 'NONE', #833, #277, #1117 ) ;
#601 = CARTESIAN_POINT ( 'NONE',  ( 2.736599999999997900, -25.00000000000000000, -2.000000000000000000 ) ) ;
#602 = EDGE_LOOP ( 'NONE', ( #112, #506, #856, #91 ) ) ;
#603 = CARTESIAN_POINT ( 'NONE',  ( 24.00000000000000000, -5.500000000000000900, -2.000000000000000000 ) ) ;
#604 = EDGE_LOOP ( 'NONE', ( #620, #783, #233, #178, #225 ) ) ;
#605 = CIRCLE ( 'NONE', #1087, 1.500000000000001300 ) ;
#606 = CARTESIAN_POINT ( 'NONE',  ( 2.736599999999997500, -25.00000000000000000, 0.0000000000000000000 ) ) ;
#607 = VECTOR ( 'NONE', #210, 1000.000000000000000 ) ;
#608 = VECTOR ( 'NONE', #161, 1000.000000000000000 ) ;
#609 = CARTESIAN_POINT ( 'NONE',  ( 0.0000000000000000000, -25.00000000000000000, -2.000000000000000000 ) ) ;
#610 = ORIENTED_EDGE ( 'NONE', *, *, #972, .F. ) ;
#611 = EDGE_CURVE ( 'NONE', #969, #284, #59, .T. ) ;
#612 = ADVANCED_FACE ( 'NONE', ( #1007 ), #962, .F. ) ;
#613 = DIRECTION ( 'NONE',  ( -1.000000000000000000, -0.0000000000000000000, -3.491481338843133400E-015 ) ) ;
#614 = AXIS2_PLACEMENT_3D ( 'NONE', #195, #1063, #769 ) ;
#615 = DIRECTION ( 'NONE',  ( 1.000000000000000000, 0.0000000000000000000, 0.0000000000000000000 ) ) ;
#616 = DIRECTION ( 'NONE',  ( -1.000000000000000000, 0.0000000000000000000, -3.491481338843133400E-015 ) ) ;
#617 = EDGE_CURVE ( 'NONE', #715, #14, #534, .T. ) ;
#618 = ADVANCED_FACE ( 'NONE', ( #1182 ), #92, .T. ) ;
#619 = VERTEX_POINT ( 'NONE', #292 ) ;
#620 = ORIENTED_EDGE ( 'NONE', *, *, #892, .F. ) ;
#621 = ORIENTED_EDGE ( 'NONE', *, *, #989, .F. ) ;
#622 = EDGE_LOOP ( 'NONE', ( #884, #208 ) ) ;
#623 = LINE ( 'NONE', #1113, #489 ) ;
#624 = CIRCLE ( 'NONE', #1156, 1.500000000000001300 ) ;
#625 =( LENGTH_UNIT ( ) NAMED_UNIT ( * ) SI_UNIT ( .MILLI., .METRE. ) );
#626 = ORIENTED_EDGE ( 'NONE', *, *, #546, .F. ) ;
#627 = DIRECTION ( 'NONE',  ( 0.0000000000000000000, 0.0000000000000000000, 1.000000000000000000 ) ) ;
#628 = AXIS2_PLACEMENT_3D ( 'NONE', #326, #405, #788 ) ;
#629 = DIRECTION ( 'NONE',  ( -3.491481338843131400E-015, 0.0000000000000000000, 1.000000000000000000 ) ) ;
#630 = ADVANCED_FACE ( 'NONE', ( #933, #119, #777, #1081, #903, #830 ), #867, .T. ) ;
#631 = DIRECTION ( 'NONE',  ( 1.000000000000000000, 0.0000000000000000000, 0.0000000000000000000 ) ) ;
#632 = CARTESIAN_POINT ( 'NONE',  ( -8.204981146281361500E-014, -12.50000000000000000, 23.49999999999999300 ) ) ;
#633 = ORIENTED_EDGE ( 'NONE', *, *, #925, .F. ) ;
#634 = EDGE_CURVE ( 'NONE', #66, #241, #686, .T. ) ;
#635 = ORIENTED_EDGE ( 'NONE', *, *, #26, .T. ) ;
#636 = AXIS2_PLACEMENT_3D ( 'NONE', #420, #325, #237 ) ;
#637 = CIRCLE ( 'NONE', #724, 1.500000000000001300 ) ;
#638 = ADVANCED_FACE ( 'NONE', ( #456 ), #1098, .F. ) ;
#639 = LINE ( 'NONE', #680, #1095 ) ;
#640 = CARTESIAN_POINT ( 'NONE',  ( 1.999999999999947600, -12.50000000000000200, 14.99999999999999800 ) ) ;
#641 = CIRCLE ( 'NONE', #1094, 1.500000000000001300 ) ;
#642 = ORIENTED_EDGE ( 'NONE', *, *, #656, .F. ) ;
#643 = AXIS2_PLACEMENT_3D ( 'NONE', #1187, #78, #89 ) ;
#644 =( LENGTH_UNIT ( ) NAMED_UNIT ( * ) SI_UNIT ( .MILLI., .METRE. ) );
#645 = ORIENTED_EDGE ( 'NONE', *, *, #948, .F. ) ;
#646 = VERTEX_POINT ( 'NONE', #475 ) ;
#647 = VERTEX_POINT ( 'NONE', #575 ) ;
#648 = AXIS2_PLACEMENT_3D ( 'NONE', #167, #740, #1 ) ;
#649 = CARTESIAN_POINT ( 'NONE',  ( 25.50000000000000400, -19.50000000000000000, -2.000000000000000000 ) ) ;
#650 = LINE ( 'NONE', #109, #735 ) ;
#651 = AXIS2_PLACEMENT_3D ( 'NONE', #70, #815, #1178 ) ;
#652 = CYLINDRICAL_SURFACE ( 'NONE', #818, 12.50000000000000000 ) ;
#653 = LINE ( 'NONE', #288, #562 ) ;
#654 =( NAMED_UNIT ( * ) SI_UNIT ( $, .STERADIAN. ) SOLID_ANGLE_UNIT ( ) );
#655 = ORIENTED_EDGE ( 'NONE', *, *, #1053, .T. ) ;
#656 = EDGE_CURVE ( 'NONE', #1003, #1162, #641, .T. ) ;
#657 = CARTESIAN_POINT ( 'NONE',  ( 25.50000000000000400, -5.500000000000000900, -2.000000000000000000 ) ) ;
#658 = ORIENTED_EDGE ( 'NONE', *, *, #765, .F. ) ;
#659 = ORIENTED_EDGE ( 'NONE', *, *, #465, .F. ) ;
#660 = DIRECTION ( 'NONE',  ( 1.000000000000000000, 0.0000000000000000000, 0.0000000000000000000 ) ) ;
#661 = ORIENTED_EDGE ( 'NONE', *, *, #34, .F. ) ;
#662 = VERTEX_POINT ( 'NONE', #569 ) ;
#663 = EDGE_CURVE ( 'NONE', #127, #87, #291, .T. ) ;
#664 = CYLINDRICAL_SURFACE ( 'NONE', #586, 12.50000000000000400 ) ;
#665 = AXIS2_PLACEMENT_3D ( 'NONE', #17, #298, #1054 ) ;
#666 = CARTESIAN_POINT ( 'NONE',  ( 1.999999999999972200, -12.50000000000000200, 7.999999999999996400 ) ) ;
#667 = CYLINDRICAL_SURFACE ( 'NONE', #447, 1.500000000000001300 ) ;
#668 = CARTESIAN_POINT ( 'NONE',  ( 1.999999999999997300, -25.00000000000000000, 0.7365999999999973700 ) ) ;
#669 = FACE_OUTER_BOUND ( 'NONE', #255, .T. ) ;
#670 = ORIENTED_EDGE ( 'NONE', *, *, #79, .F. ) ;
#671 = CARTESIAN_POINT ( 'NONE',  ( -5.237222008264696200E-014, -5.500000000000001800, 14.99999999999998900 ) ) ;
#672 = CARTESIAN_POINT ( 'NONE',  ( 31.00000000000000000, -12.50000000000000000, 0.0000000000000000000 ) ) ;
#673 = EDGE_CURVE ( 'NONE', #155, #734, #945, .T. ) ;
#674 = DIRECTION ( 'NONE',  ( 1.000000000000000000, 0.0000000000000000000, 0.0000000000000000000 ) ) ;
#675 = DIRECTION ( 'NONE',  ( -3.491481338843135300E-015, 0.0000000000000000000, 1.000000000000000000 ) ) ;
#676 = CARTESIAN_POINT ( 'NONE',  ( 0.0000000000000000000, -25.00000000000000000, -6.982962677686266700E-015 ) ) ;
#677 = MECHANICAL_DESIGN_GEOMETRIC_PRESENTATION_REPRESENTATION (  '', ( #139 ), #840 ) ;
#678 = EDGE_LOOP ( 'NONE', ( #621, #527, #891, #351 ) ) ;
#679 = DIRECTION ( 'NONE',  ( 0.0000000000000000000, 0.0000000000000000000, 1.000000000000000000 ) ) ;
#680 = CARTESIAN_POINT ( 'NONE',  ( 1.999999999999905900, -12.50000000000000000, 27.00000000000000400 ) ) ;
#681 = CLOSED_SHELL ( 'NONE', ( #1105, #739, #1089, #922, #445, #524, #346, #1083, #85, #1199, #1101, #1010, #726, #821, #80, #618, #630, #171, #260, #537, #994, #612, #915, #163, #894, #1016, #519, #542, #638, #154, #718, #240, #1203, #248, #252, #828 ) ) ;
#682 = CARTESIAN_POINT ( 'NONE',  ( 22.50000000000000000, -5.500000000000000900, -2.000000000000000000 ) ) ;
#683 = ORIENTED_EDGE ( 'NONE', *, *, #1185, .T. ) ;
#684 = SHAPE_DEFINITION_REPRESENTATION ( #522, #327 ) ;
#685 = EDGE_CURVE ( 'NONE', #647, #120, #302, .T. ) ;
#686 = CIRCLE ( 'NONE', #1071, 1.500000000000001300 ) ;
#687 = VECTOR ( 'NONE', #411, 1000.000000000000000 ) ;
#688 = CIRCLE ( 'NONE', #692, 3.999999999999998200 ) ;
#689 = CIRCLE ( 'NONE', #628, 1.499999999999999600 ) ;
#690 = CARTESIAN_POINT ( 'NONE',  ( 25.50000000000000400, -19.50000000000000000, -2.000000000000000000 ) ) ;
#691 = DIRECTION ( 'NONE',  ( -3.491481338843133400E-015, 0.0000000000000000000, 1.000000000000000000 ) ) ;
#692 = AXIS2_PLACEMENT_3D ( 'NONE', #640, #1097, #73 ) ;
#693 = DIRECTION ( 'NONE',  ( 1.000000000000000000, 0.0000000000000000000, 0.0000000000000000000 ) ) ;
#694 = ORIENTED_EDGE ( 'NONE', *, *, #150, .F. ) ;
#695 = DIRECTION ( 'NONE',  ( -1.000000000000000000, 0.0000000000000000000, 0.0000000000000000000 ) ) ;
#696 = VERTEX_POINT ( 'NONE', #1146 ) ;
#697 = ORIENTED_EDGE ( 'NONE', *, *, #174, .T. ) ;
#698 = ORIENTED_EDGE ( 'NONE', *, *, #382, .T. ) ;
#699 = DIRECTION ( 'NONE',  ( 0.0000000000000000000, 0.0000000000000000000, -1.000000000000000000 ) ) ;
#700 = CARTESIAN_POINT ( 'NONE',  ( 24.00000000000000000, -19.50000000000000000, 0.0000000000000000000 ) ) ;
#701 = FACE_BOUND ( 'NONE', #258, .T. ) ;
#702 = EDGE_CURVE ( 'NONE', #734, #155, #503, .T. ) ;
#703 = CIRCLE ( 'NONE', #409, 1.500000000000001300 ) ;
#704 = DIRECTION ( 'NONE',  ( 0.0000000000000000000, 0.0000000000000000000, 1.000000000000000000 ) ) ;
#705 = VERTEX_POINT ( 'NONE', #15 ) ;
#706 = CARTESIAN_POINT ( 'NONE',  ( -2.388543190279488900E-015, 0.0000000000000000000, 0.7365999999999900400 ) ) ;
#707 = AXIS2_PLACEMENT_3D ( 'NONE', #798, #1074, #138 ) ;
#708 = CARTESIAN_POINT ( 'NONE',  ( -4.713499807438226200E-014, -5.500000000000001800, 13.49999999999998800 ) ) ;
#709 = DIRECTION ( 'NONE',  ( -1.000000000000000000, 0.0000000000000000000, -3.491481338843133400E-015 ) ) ;
#710 = EDGE_CURVE ( 'NONE', #1177, #204, #457, .T. ) ;
#711 = AXIS2_PLACEMENT_3D ( 'NONE', #470, #186, #842 ) ;
#712 = DIRECTION ( 'NONE',  ( -1.000000000000000000, 0.0000000000000000000, -3.491481338843133400E-015 ) ) ;
#713 = ORIENTED_EDGE ( 'NONE', *, *, #1206, .T. ) ;
#714 = CARTESIAN_POINT ( 'NONE',  ( -7.681258945454890900E-014, -12.50000000000000000, 21.99999999999999300 ) ) ;
#715 = VERTEX_POINT ( 'NONE', #955 ) ;
#716 = CIRCLE ( 'NONE', #729, 1.500000000000001300 ) ;
#717 = VECTOR ( 'NONE', #209, 1000.000000000000000 ) ;
#718 = ADVANCED_FACE ( 'NONE', ( #359 ), #118, .F. ) ;
#719 = FACE_OUTER_BOUND ( 'NONE', #166, .T. ) ;
#720 = CARTESIAN_POINT ( 'NONE',  ( 1.999999999999947600, -19.50000000000000400, 14.99999999999999800 ) ) ;
#721 = CYLINDRICAL_SURFACE ( 'NONE', #253, 1.500000000000001300 ) ;
#722 = AXIS2_PLACEMENT_3D ( 'NONE', #603, #802, #615 ) ;
#723 = DIRECTION ( 'NONE',  ( -3.491481338843131400E-015, 0.0000000000000000000, 1.000000000000000000 ) ) ;
#724 = AXIS2_PLACEMENT_3D ( 'NONE', #985, #598, #1072 ) ;
#725 = DIRECTION ( 'NONE',  ( -3.504141421473149100E-015, 0.0000000000000000000, 1.000000000000000000 ) ) ;
#726 = ADVANCED_FACE ( 'NONE', ( #245, #429, #1080, #1209, #1181, #211 ), #387, .T. ) ;
#727 =( NAMED_UNIT ( * ) PLANE_ANGLE_UNIT ( ) SI_UNIT ( $, .RADIAN. ) );
#728 = DIRECTION ( 'NONE',  ( 1.000000000000000000, 1.416100796715761100E-016, 0.0000000000000000000 ) ) ;
#729 = AXIS2_PLACEMENT_3D ( 'NONE', #1042, #23, #381 ) ;
#730 = ORIENTED_EDGE ( 'NONE', *, *, #235, .F. ) ;
#731 = ORIENTED_EDGE ( 'NONE', *, *, #93, .T. ) ;
#732 = EDGE_LOOP ( 'NONE', ( #986, #1121, #958, #314 ) ) ;
#733 = APPLICATION_PROTOCOL_DEFINITION ( 'draft international standard', 'automotive_design', 1998, #533 ) ;
#734 = VERTEX_POINT ( 'NONE', #111 ) ;
#735 = VECTOR ( 'NONE', #762, 1000.000000000000000 ) ;
#736 = LINE ( 'NONE', #668, #1009 ) ;
#737 = EDGE_CURVE ( 'NONE', #71, #367, #991, .T. ) ;
#738 = ORIENTED_EDGE ( 'NONE', *, *, #426, .T. ) ;
#739 = ADVANCED_FACE ( 'NONE', ( #759 ), #745, .F. ) ;
#740 = DIRECTION ( 'NONE',  ( -1.000000000000000000, 0.0000000000000000000, -3.491481338843133400E-015 ) ) ;
#741 = DIRECTION ( 'NONE',  ( 0.0000000000000000000, 0.0000000000000000000, 1.000000000000000000 ) ) ;
#742 = ORIENTED_EDGE ( 'NONE', *, *, #269, .F. ) ;
#743 = EDGE_CURVE ( 'NONE', #846, #999, #58, .T. ) ;
#744 = VERTEX_POINT ( 'NONE', #766 ) ;
#745 = CYLINDRICAL_SURFACE ( 'NONE', #854, 1.500000000000001300 ) ;
#746 = CARTESIAN_POINT ( 'NONE',  ( -4.713499807438227500E-014, -19.50000000000000400, 13.49999999999999100 ) ) ;
#747 = LINE ( 'NONE', #1197, #608 ) ;
#748 = VECTOR ( 'NONE', #998, 1000.000000000000000 ) ;
#749 = EDGE_CURVE ( 'NONE', #71, #1166, #932, .T. ) ;
#750 = DIRECTION ( 'NONE',  ( 1.000000000000000000, 0.0000000000000000000, 0.0000000000000000000 ) ) ;
#751 = DIRECTION ( 'NONE',  ( -3.491481338843133400E-015, 0.0000000000000000000, 1.000000000000000000 ) ) ;
#752 = CARTESIAN_POINT ( 'NONE',  ( 2.000000000000000000, 0.0000000000000000000, 0.0000000000000000000 ) ) ;
#753 = ORIENTED_EDGE ( 'NONE', *, *, #743, .T. ) ;
#754 = ORIENTED_EDGE ( 'NONE', *, *, #864, .T. ) ;
#755 = ORIENTED_EDGE ( 'NONE', *, *, #529, .T. ) ;
#756 = DIRECTION ( 'NONE',  ( -1.000000000000000000, 0.0000000000000000000, -3.491481338843133400E-015 ) ) ;
#757 = AXIS2_PLACEMENT_3D ( 'NONE', #239, #1092, #339 ) ;
#758 = ORIENTED_EDGE ( 'NONE', *, *, #16, .F. ) ;
#759 = FACE_OUTER_BOUND ( 'NONE', #954, .T. ) ;
#760 = CIRCLE ( 'NONE', #340, 3.999999999999998200 ) ;
#761 =( NAMED_UNIT ( * ) PLANE_ANGLE_UNIT ( ) SI_UNIT ( $, .RADIAN. ) );
#762 = DIRECTION ( 'NONE',  ( 3.491481338843133400E-015, 0.0000000000000000000, -1.000000000000000000 ) ) ;
#763 = EDGE_LOOP ( 'NONE', ( #811, #68 ) ) ;
#764 = DIRECTION ( 'NONE',  ( -1.000000000000000000, 0.0000000000000000000, -3.491481338843133400E-015 ) ) ;
#765 = EDGE_CURVE ( 'NONE', #646, #315, #12, .T. ) ;
#766 = CARTESIAN_POINT ( 'NONE',  ( 29.49999999999999600, -12.50000000000000000, 0.0000000000000000000 ) ) ;
#767 =( GEOMETRIC_REPRESENTATION_CONTEXT ( 3 ) GLOBAL_UNCERTAINTY_ASSIGNED_CONTEXT ( ( #982 ) ) GLOBAL_UNIT_ASSIGNED_CONTEXT ( ( #625, #727, #908 ) ) REPRESENTATION_CONTEXT ( 'NONE', 'WORKASPACE' ) );
#768 = CARTESIAN_POINT ( 'NONE',  ( 24.00000000000000000, -5.500000000000000900, -2.000000000000000000 ) ) ;
#769 = DIRECTION ( 'NONE',  ( 1.000000000000000000, 0.0000000000000000000, 0.0000000000000000000 ) ) ;
#770 = ORIENTED_EDGE ( 'NONE', *, *, #749, .T. ) ;
#771 = CARTESIAN_POINT ( 'NONE',  ( -5.237222008264696900E-014, -12.50000000000000200, 14.99999999999999100 ) ) ;
#772 = ORIENTED_EDGE ( 'NONE', *, *, #972, .T. ) ;
#773 = CYLINDRICAL_SURFACE ( 'NONE', #395, 1.500000000000001300 ) ;
#774 = AXIS2_PLACEMENT_3D ( 'NONE', #463, #1212, #281 ) ;
#775 = VECTOR ( 'NONE', #50, 1000.000000000000000 ) ;
#776 = DIRECTION ( 'NONE',  ( -3.491481338843131800E-015, 0.0000000000000000000, 1.000000000000000000 ) ) ;
#777 = FACE_BOUND ( 'NONE', #563, .T. ) ;
#778 = DIRECTION ( 'NONE',  ( 0.0000000000000000000, 0.0000000000000000000, 1.000000000000000000 ) ) ;
#779 = PRESENTATION_LAYER_ASSIGNMENT (  '', '', ( #187 ) ) ;
#780 = DIRECTION ( 'NONE',  ( -3.491481338843131400E-015, 0.0000000000000000000, 1.000000000000000000 ) ) ;
#781 = DIRECTION ( 'NONE',  ( 0.0000000000000000000, 0.0000000000000000000, 1.000000000000000000 ) ) ;
#782 = AXIS2_PLACEMENT_3D ( 'NONE', #997, #434, #261 ) ;
#783 = ORIENTED_EDGE ( 'NONE', *, *, #115, .F. ) ;
#784 = DIRECTION ( 'NONE',  ( 0.0000000000000000000, 0.0000000000000000000, -1.000000000000000000 ) ) ;
#785 = CARTESIAN_POINT ( 'NONE',  ( 1.999999999999952700, -19.50000000000000400, 13.49999999999999800 ) ) ;
#786 = ORIENTED_EDGE ( 'NONE', *, *, #1122, .T. ) ;
#787 = EDGE_LOOP ( 'NONE', ( #831, #1048 ) ) ;
#788 = DIRECTION ( 'NONE',  ( -3.491481338843131400E-015, 0.0000000000000000000, 1.000000000000000000 ) ) ;
#789 = VERTEX_POINT ( 'NONE', #792 ) ;
#790 = EDGE_CURVE ( 'NONE', #825, #485, #334, .T. ) ;
#791 = CIRCLE ( 'NONE', #1033, 0.7366000000000000300 ) ;
#792 = CARTESIAN_POINT ( 'NONE',  ( -2.602085213965210600E-015, 0.0000000000000000000, 0.7365999999999903700 ) ) ;
#793 = VECTOR ( 'NONE', #709, 1000.000000000000000 ) ;
#794 = EDGE_LOOP ( 'NONE', ( #6, #1150, #873, #1120 ) ) ;
#795 = DIRECTION ( 'NONE',  ( 0.0000000000000000000, 0.0000000000000000000, 1.000000000000000000 ) ) ;
#796 = EDGE_CURVE ( 'NONE', #960, #1112, #198, .T. ) ;
#797 = AXIS2_PLACEMENT_3D ( 'NONE', #270, #909, #1103 ) ;
#798 = CARTESIAN_POINT ( 'NONE',  ( -5.237222008264696900E-014, -12.50000000000000200, 14.99999999999999100 ) ) ;
#799 = DIRECTION ( 'NONE',  ( 1.000000000000000000, 0.0000000000000000000, 3.491481338843133400E-015 ) ) ;
#800 = ORIENTED_EDGE ( 'NONE', *, *, #150, .T. ) ;
#801 = ORIENTED_EDGE ( 'NONE', *, *, #162, .F. ) ;
#802 = DIRECTION ( 'NONE',  ( 0.0000000000000000000, 0.0000000000000000000, 1.000000000000000000 ) ) ;
#803 = PRODUCT_DEFINITION_CONTEXT ( 'detailed design', #149, 'design' ) ;
#804 = VECTOR ( 'NONE', #784, 1000.000000000000000 ) ;
#805 = EDGE_CURVE ( 'NONE', #206, #810, #902, .T. ) ;
#806 = ORIENTED_EDGE ( 'NONE', *, *, #523, .T. ) ;
#807 = AXIS2_PLACEMENT_3D ( 'NONE', #966, #781, #203 ) ;
#808 = CARTESIAN_POINT ( 'NONE',  ( 0.0000000000000000000, 0.0000000000000000000, -2.000000000000000000 ) ) ;
#809 = CARTESIAN_POINT ( 'NONE',  ( 1.999999999999949400, -25.00000000000000000, 14.49999999999999500 ) ) ;
#810 = VERTEX_POINT ( 'NONE', #937 ) ;
#811 = ORIENTED_EDGE ( 'NONE', *, *, #656, .T. ) ;
#812 = ORIENTED_EDGE ( 'NONE', *, *, #507, .F. ) ;
#813 = ORIENTED_EDGE ( 'NONE', *, *, #10, .F. ) ;
#814 = FACE_OUTER_BOUND ( 'NONE', #528, .T. ) ;
#815 = DIRECTION ( 'NONE',  ( 0.0000000000000000000, -1.000000000000000000, 0.0000000000000000000 ) ) ;
#816 = CARTESIAN_POINT ( 'NONE',  ( 2.736599999999997500, -25.00000000000000000, 0.0000000000000000000 ) ) ;
#817 = FACE_OUTER_BOUND ( 'NONE', #39, .T. ) ;
#818 = AXIS2_PLACEMENT_3D ( 'NONE', #94, #564, #750 ) ;
#819 = ORIENTED_EDGE ( 'NONE', *, *, #419, .F. ) ;
#820 = DIRECTION ( 'NONE',  ( 1.000000000000000000, 0.0000000000000000000, 0.0000000000000000000 ) ) ;
#821 = ADVANCED_FACE ( 'NONE', ( #1008, #156, #701, #262, #547, #473 ), #1129, .F. ) ;
#822 = PLANE ( 'NONE',  #540 ) ;
#823 = EDGE_CURVE ( 'NONE', #127, #696, #961, .T. ) ;
#824 = ORIENTED_EDGE ( 'NONE', *, *, #702, .T. ) ;
#825 = VERTEX_POINT ( 'NONE', #3 ) ;
#826 = CARTESIAN_POINT ( 'NONE',  ( -7.157536744628420200E-014, -12.50000000000000000, 20.49999999999998900 ) ) ;
#827 = VECTOR ( 'NONE', #234, 1000.000000000000000 ) ;
#828 = ADVANCED_FACE ( 'NONE', ( #1051 ), #487, .T. ) ;
#829 = VECTOR ( 'NONE', #704, 1000.000000000000000 ) ;
#830 = FACE_OUTER_BOUND ( 'NONE', #200, .T. ) ;
#831 = ORIENTED_EDGE ( 'NONE', *, *, #1015, .F. ) ;
#832 = MECHANICAL_DESIGN_GEOMETRIC_PRESENTATION_REPRESENTATION (  '', ( #187 ), #893 ) ;
#833 = CARTESIAN_POINT ( 'NONE',  ( 0.0000000000000000000, -25.00000000000000000, -2.000000000000000000 ) ) ;
#834 = EDGE_LOOP ( 'NONE', ( #125, #642, #1208, #753 ) ) ;
#835 = AXIS2_PLACEMENT_3D ( 'NONE', #857, #123, #660 ) ;
#836 = DIRECTION ( 'NONE',  ( 0.0000000000000000000, 0.0000000000000000000, -1.000000000000000000 ) ) ;
#837 = ORIENTED_EDGE ( 'NONE', *, *, #136, .F. ) ;
#838 = VERTEX_POINT ( 'NONE', #940 ) ;
#839 = EDGE_LOOP ( 'NONE', ( #77, #196, #165, #1036 ) ) ;
#840 =( GEOMETRIC_REPRESENTATION_CONTEXT ( 3 ) GLOBAL_UNCERTAINTY_ASSIGNED_CONTEXT ( ( #1107 ) ) GLOBAL_UNIT_ASSIGNED_CONTEXT ( ( #81, #895, #1195 ) ) REPRESENTATION_CONTEXT ( 'NONE', 'WORKASPACE' ) );
#841 = PRESENTATION_STYLE_ASSIGNMENT (( #538 ) ) ;
#842 = DIRECTION ( 'NONE',  ( -1.000000000000000000, 0.0000000000000000000, -3.486435400815770900E-015 ) ) ;
#843 = DIRECTION ( 'NONE',  ( -1.000000000000000000, 0.0000000000000000000, -3.491481338843133400E-015 ) ) ;
#844 = FACE_OUTER_BOUND ( 'NONE', #678, .T. ) ;
#845 = LINE ( 'NONE', #63, #876 ) ;
#846 = VERTEX_POINT ( 'NONE', #188 ) ;
#847 = EDGE_CURVE ( 'NONE', #172, #284, #1168, .T. ) ;
#848 = CARTESIAN_POINT ( 'NONE',  ( 24.49999999999999600, -3.469446951953614200E-015, -2.000000000000000000 ) ) ;
#849 = DIRECTION ( 'NONE',  ( -1.000000000000000000, -0.0000000000000000000, -0.0000000000000000000 ) ) ;
#850 = CARTESIAN_POINT ( 'NONE',  ( 25.50000000000000400, -5.500000000000000900, 0.0000000000000000000 ) ) ;
#851 = EDGE_CURVE ( 'NONE', #222, #947, #573, .T. ) ;
#852 = ORIENTED_EDGE ( 'NONE', *, *, #52, .T. ) ;
#853 = DIRECTION ( 'NONE',  ( -1.000000000000000000, 0.0000000000000000000, -3.491481338843133400E-015 ) ) ;
#854 = AXIS2_PLACEMENT_3D ( 'NONE', #671, #117, #780 ) ;
#855 = CARTESIAN_POINT ( 'NONE',  ( -2.793185071074503200E-014, -12.50000000000000200, 7.999999999999989300 ) ) ;
#856 = ORIENTED_EDGE ( 'NONE', *, *, #93, .F. ) ;
#857 = CARTESIAN_POINT ( 'NONE',  ( 31.00000000000000000, -12.50000000000000000, -2.000000000000000000 ) ) ;
#858 = VECTOR ( 'NONE', #968, 1000.000000000000000 ) ;
#859 = LINE ( 'NONE', #385, #607 ) ;
#860 = VECTOR ( 'NONE', #756, 1000.000000000000000 ) ;
#861 = DIRECTION ( 'NONE',  ( 0.0000000000000000000, 0.0000000000000000000, 1.000000000000000000 ) ) ;
#862 = DIRECTION ( 'NONE',  ( -1.000000000000000000, 0.0000000000000000000, -3.491481338843133400E-015 ) ) ;
#863 = CARTESIAN_POINT ( 'NONE',  ( 24.00000000000000000, -12.50000000000000000, 0.0000000000000000000 ) ) ;
#864 = EDGE_CURVE ( 'NONE', #646, #1019, #978, .T. ) ;
#865 = CARTESIAN_POINT ( 'NONE',  ( 24.49999999999999600, -12.50000000000000200, -2.000000000000000000 ) ) ;
#866 = CARTESIAN_POINT ( 'NONE',  ( 24.49999999999999600, -3.469446951953614200E-015, -2.000000000000000000 ) ) ;
#867 = PLANE ( 'NONE',  #1030 ) ;
#868 = CARTESIAN_POINT ( 'NONE',  ( 28.00000000000000000, -12.50000000000000000, -2.000000000000000000 ) ) ;
#869 = ORIENTED_EDGE ( 'NONE', *, *, #176, .T. ) ;
#870 = ORIENTED_EDGE ( 'NONE', *, *, #507, .T. ) ;
#871 = EDGE_CURVE ( 'NONE', #943, #595, #146, .T. ) ;
#872 = ORIENTED_EDGE ( 'NONE', *, *, #634, .F. ) ;
#873 = ORIENTED_EDGE ( 'NONE', *, *, #925, .T. ) ;
#874 = DIRECTION ( 'NONE',  ( 1.000000000000000000, 0.0000000000000000000, 0.0000000000000000000 ) ) ;
#875 = CARTESIAN_POINT ( 'NONE',  ( 1.999999999999972200, -12.50000000000000200, 7.999999999999996400 ) ) ;
#876 = VECTOR ( 'NONE', #173, 1000.000000000000000 ) ;
#877 = LINE ( 'NONE', #609, #491 ) ;
#878 = ORIENTED_EDGE ( 'NONE', *, *, #235, .T. ) ;
#879 = DIRECTION ( 'NONE',  ( 1.000000000000000000, 0.0000000000000000000, 0.0000000000000000000 ) ) ;
#880 = DIRECTION ( 'NONE',  ( -3.469446951953611000E-015, 0.0000000000000000000, 1.000000000000000000 ) ) ;
#881 = AXIS2_PLACEMENT_3D ( 'NONE', #279, #4, #1207 ) ;
#882 = ORIENTED_EDGE ( 'NONE', *, *, #737, .T. ) ;
#883 = CARTESIAN_POINT ( 'NONE',  ( 2.000000000000000000, -25.00000000000000000, 0.0000000000000000000 ) ) ;
#884 = ORIENTED_EDGE ( 'NONE', *, *, #851, .T. ) ;
#885 = EDGE_CURVE ( 'NONE', #427, #172, #181, .T. ) ;
#886 = FACE_OUTER_BOUND ( 'NONE', #135, .T. ) ;
#887 = DIRECTION ( 'NONE',  ( -0.0000000000000000000, 1.000000000000000000, -0.0000000000000000000 ) ) ;
#888 = PRODUCT_DEFINITION ( '未知', '', #72, #803 ) ;
#889 = CYLINDRICAL_SURFACE ( 'NONE', #452, 1.499999999999999600 ) ;
#890 = DIRECTION ( 'NONE',  ( -1.000000000000000000, 0.0000000000000000000, -3.491481338843133400E-015 ) ) ;
#891 = ORIENTED_EDGE ( 'NONE', *, *, #1145, .F. ) ;
#892 = EDGE_CURVE ( 'NONE', #273, #449, #650, .T. ) ;
#893 =( GEOMETRIC_REPRESENTATION_CONTEXT ( 3 ) GLOBAL_UNCERTAINTY_ASSIGNED_CONTEXT ( ( #501 ) ) GLOBAL_UNIT_ASSIGNED_CONTEXT ( ( #644, #761, #654 ) ) REPRESENTATION_CONTEXT ( 'NONE', 'WORKASPACE' ) );
#894 = ADVANCED_FACE ( 'NONE', ( #518 ), #1196, .F. ) ;
#895 =( NAMED_UNIT ( * ) PLANE_ANGLE_UNIT ( ) SI_UNIT ( $, .RADIAN. ) );
#896 = DIRECTION ( 'NONE',  ( 0.0000000000000000000, 0.0000000000000000000, 1.000000000000000000 ) ) ;
#897 = ORIENTED_EDGE ( 'NONE', *, *, #290, .F. ) ;
#898 = ORIENTED_EDGE ( 'NONE', *, *, #264, .F. ) ;
#899 = ORIENTED_EDGE ( 'NONE', *, *, #1038, .T. ) ;
#900 = DIRECTION ( 'NONE',  ( -1.000000000000000000, 0.0000000000000000000, -3.491481338843133400E-015 ) ) ;
#901 = ORIENTED_EDGE ( 'NONE', *, *, #1115, .T. ) ;
#902 = LINE ( 'NONE', #220, #829 ) ;
#903 = FACE_BOUND ( 'NONE', #536, .T. ) ;
#904 = LINE ( 'NONE', #479, #231 ) ;
#905 = CARTESIAN_POINT ( 'NONE',  ( -3.316907271900973500E-014, -12.50000000000000200, 9.499999999999991100 ) ) ;
#906 = AXIS2_PLACEMENT_3D ( 'NONE', #515, #143, #879 ) ;
#907 = CARTESIAN_POINT ( 'NONE',  ( 1.999999999999918100, -12.50000000000000000, 23.50000000000000000 ) ) ;
#908 =( NAMED_UNIT ( * ) SI_UNIT ( $, .STERADIAN. ) SOLID_ANGLE_UNIT ( ) );
#909 = DIRECTION ( 'NONE',  ( -0.0000000000000000000, 1.000000000000000000, -0.0000000000000000000 ) ) ;
#910 = EDGE_CURVE ( 'NONE', #241, #454, #229, .T. ) ;
#911 = ORIENTED_EDGE ( 'NONE', *, *, #1122, .F. ) ;
#912 = DIRECTION ( 'NONE',  ( -1.000000000000000000, 0.0000000000000000000, -3.491481338843133400E-015 ) ) ;
#913 = ORIENTED_EDGE ( 'NONE', *, *, #79, .T. ) ;
#914 = ORIENTED_EDGE ( 'NONE', *, *, #529, .F. ) ;
#915 = ADVANCED_FACE ( 'NONE', ( #1023 ), #667, .F. ) ;
#916 = VERTEX_POINT ( 'NONE', #21 ) ;
#917 = FACE_OUTER_BOUND ( 'NONE', #363, .T. ) ;
#918 = VECTOR ( 'NONE', #965, 1000.000000000000000 ) ;
#919 = CARTESIAN_POINT ( 'NONE',  ( -4.713499807438227500E-014, -19.50000000000000400, 13.49999999999999100 ) ) ;
#920 = CYLINDRICAL_SURFACE ( 'NONE', #835, 1.500000000000001300 ) ;
#921 = ORIENTED_EDGE ( 'NONE', *, *, #1185, .F. ) ;
#922 = ADVANCED_FACE ( 'NONE', ( #886 ), #396, .F. ) ;
#923 = DIRECTION ( 'NONE',  ( -0.0000000000000000000, 1.000000000000000000, -0.0000000000000000000 ) ) ;
#924 = CARTESIAN_POINT ( 'NONE',  ( 24.00000000000000000, -5.500000000000000900, 0.0000000000000000000 ) ) ;
#925 = EDGE_CURVE ( 'NONE', #810, #595, #1123, .T. ) ;
#926 = ORIENTED_EDGE ( 'NONE', *, *, #796, .T. ) ;
#927 = AXIS2_PLACEMENT_3D ( 'NONE', #672, #201, #335 ) ;
#928 = ORIENTED_EDGE ( 'NONE', *, *, #710, .T. ) ;
#929 = CARTESIAN_POINT ( 'NONE',  ( 28.00000000000000000, -12.50000000000000000, 0.0000000000000000000 ) ) ;
#930 = DIRECTION ( 'NONE',  ( 1.000000000000000000, 0.0000000000000000000, 0.0000000000000000000 ) ) ;
#931 = ORIENTED_EDGE ( 'NONE', *, *, #634, .T. ) ;
#932 = LINE ( 'NONE', #137, #687 ) ;
#933 = FACE_BOUND ( 'NONE', #554, .T. ) ;
#934 = VECTOR ( 'NONE', #212, 1000.000000000000000 ) ;
#935 = DIRECTION ( 'NONE',  ( 0.0000000000000000000, 0.0000000000000000000, 1.000000000000000000 ) ) ;
#936 = FILL_AREA_STYLE ('',( #1027 ) ) ;
#937 = CARTESIAN_POINT ( 'NONE',  ( 22.50000000000000000, -19.50000000000000000, 0.0000000000000000000 ) ) ;
#938 = CARTESIAN_POINT ( 'NONE',  ( 1.999999999999947600, -5.500000000000001800, 14.99999999999999600 ) ) ;
#939 = VERTEX_POINT ( 'NONE', #1140 ) ;
#940 = CARTESIAN_POINT ( 'NONE',  ( 1.999999999999961400, -12.50000000000000200, 11.00000000000000000 ) ) ;
#941 = ORIENTED_EDGE ( 'NONE', *, *, #34, .T. ) ;
#942 = ORIENTED_EDGE ( 'NONE', *, *, #193, .F. ) ;
#943 = VERTEX_POINT ( 'NONE', #690 ) ;
#944 = DIRECTION ( 'NONE',  ( 0.0000000000000000000, 0.0000000000000000000, 1.000000000000000000 ) ) ;
#945 = CIRCLE ( 'NONE', #1109, 1.500000000000001300 ) ;
#946 = FACE_OUTER_BOUND ( 'NONE', #1041, .T. ) ;
#947 = VERTEX_POINT ( 'NONE', #391 ) ;
#948 = EDGE_CURVE ( 'NONE', #1019, #646, #169, .T. ) ;
#949 = CARTESIAN_POINT ( 'NONE',  ( 1.999999999999923200, -12.50000000000000000, 22.00000000000000000 ) ) ;
#950 = AXIS2_PLACEMENT_3D ( 'NONE', #666, #843, #189 ) ;
#951 = DIRECTION ( 'NONE',  ( 0.0000000000000000000, 0.0000000000000000000, -1.000000000000000000 ) ) ;
#952 = DIRECTION ( 'NONE',  ( 0.0000000000000000000, 0.0000000000000000000, 1.000000000000000000 ) ) ;
#953 = EDGE_CURVE ( 'NONE', #367, #960, #274, .T. ) ;
#954 = EDGE_LOOP ( 'NONE', ( #626, #54, #191, #366 ) ) ;
#955 = CARTESIAN_POINT ( 'NONE',  ( -3.316907271900973500E-014, -12.50000000000000200, 9.499999999999991100 ) ) ;
#956 = AXIS2_PLACEMENT_3D ( 'NONE', #855, #305, #957 ) ;
#957 = DIRECTION ( 'NONE',  ( -3.491481338843131400E-015, 0.0000000000000000000, 1.000000000000000000 ) ) ;
#958 = ORIENTED_EDGE ( 'NONE', *, *, #115, .T. ) ;
#959 = CARTESIAN_POINT ( 'NONE',  ( 1.999999999999997300, 0.0000000000000000000, 0.7365999999999973700 ) ) ;
#960 = VERTEX_POINT ( 'NONE', #398 ) ;
#961 = CIRCLE ( 'NONE', #496, 1.500000000000001300 ) ;
#962 = CYLINDRICAL_SURFACE ( 'NONE', #354, 1.500000000000001300 ) ;
#963 = CIRCLE ( 'NONE', #1006, 1.499999999999999600 ) ;
#964 = CARTESIAN_POINT ( 'NONE',  ( 1.999999999999967100, -12.50000000000000200, 9.499999999999998200 ) ) ;
#965 = DIRECTION ( 'NONE',  ( -0.0000000000000000000, -1.000000000000000000, -0.0000000000000000000 ) ) ;
#966 = CARTESIAN_POINT ( 'NONE',  ( 24.00000000000000000, -12.50000000000000000, -2.000000000000000000 ) ) ;
#967 = PRODUCT ( 'JXS007', 'JXS007', '', ( #1011 ) ) ;
#968 = DIRECTION ( 'NONE',  ( 0.0000000000000000000, 0.0000000000000000000, 1.000000000000000000 ) ) ;
#969 = VERTEX_POINT ( 'NONE', #866 ) ;
#970 = CARTESIAN_POINT ( 'NONE',  ( 1.999999999999942300, -19.50000000000000400, 16.49999999999999600 ) ) ;
#971 = ORIENTED_EDGE ( 'NONE', *, *, #465, .T. ) ;
#972 = EDGE_CURVE ( 'NONE', #454, #375, #414, .T. ) ;
#973 = ORIENTED_EDGE ( 'NONE', *, *, #805, .F. ) ;
#974 = ORIENTED_EDGE ( 'NONE', *, *, #1076, .F. ) ;
#975 = SURFACE_STYLE_FILL_AREA ( #442 ) ;
#976 = FACE_OUTER_BOUND ( 'NONE', #794, .T. ) ;
#977 = CARTESIAN_POINT ( 'NONE',  ( 24.00000000000000000, -19.50000000000000000, -2.000000000000000000 ) ) ;
#978 = CIRCLE ( 'NONE', #377, 4.000000000000000000 ) ;
#979 = FACE_BOUND ( 'NONE', #787, .T. ) ;
#980 = ORIENTED_EDGE ( 'NONE', *, *, #910, .F. ) ;
#981 = DIRECTION ( 'NONE',  ( 0.0000000000000000000, 0.0000000000000000000, 1.000000000000000000 ) ) ;
#982 = UNCERTAINTY_MEASURE_WITH_UNIT (LENGTH_MEASURE( 1.000000000000000100E-005 ), #625, 'distance_accuracy_value', 'NONE');
#983 = AXIS2_PLACEMENT_3D ( 'NONE', #317, #497, #1158 ) ;
#984 = DIRECTION ( 'NONE',  ( -1.000000000000000000, 0.0000000000000000000, -3.491481338843133400E-015 ) ) ;
#985 = CARTESIAN_POINT ( 'NONE',  ( -5.237222008264696200E-014, -5.500000000000001800, 14.99999999999998900 ) ) ;
#986 = ORIENTED_EDGE ( 'NONE', *, *, #1022, .F. ) ;
#987 = DIRECTION ( 'NONE',  ( -3.491481338843131400E-015, 0.0000000000000000000, 1.000000000000000000 ) ) ;
#988 = ORIENTED_EDGE ( 'NONE', *, *, #490, .T. ) ;
#989 = EDGE_CURVE ( 'NONE', #1112, #284, #859, .T. ) ;
#990 = VECTOR ( 'NONE', #62, 1000.000000000000000 ) ;
#991 = LINE ( 'NONE', #121, #918 ) ;
#992 = COLOUR_RGB ( '',0.2509803921568627400, 0.2509803921568627400, 0.2509803921568627400 ) ;
#993 = CIRCLE ( 'NONE', #458, 1.500000000000001300 ) ;
#994 = ADVANCED_FACE ( 'NONE', ( #1136 ), #197, .F. ) ;
#995 = CARTESIAN_POINT ( 'NONE',  ( 1.999999999999949800, -12.50000000000000000, 14.49999999999999800 ) ) ;
#996 = EDGE_CURVE ( 'NONE', #1035, #485, #639, .T. ) ;
#997 = CARTESIAN_POINT ( 'NONE',  ( 1.999999999999947600, -19.50000000000000400, 14.99999999999999800 ) ) ;
#998 = DIRECTION ( 'NONE',  ( -1.000000000000000000, 0.0000000000000000000, -3.491481338843133400E-015 ) ) ;
#999 = VERTEX_POINT ( 'NONE', #493 ) ;
#1000 = ORIENTED_EDGE ( 'NONE', *, *, #419, .T. ) ;
#1001 = ORIENTED_EDGE ( 'NONE', *, *, #44, .F. ) ;
#1002 = FILL_AREA_STYLE_COLOUR ( '', #316 ) ;
#1003 = VERTEX_POINT ( 'NONE', #589 ) ;
#1004 = CARTESIAN_POINT ( 'NONE',  ( 24.49999999999999600, -3.469446951953614200E-015, 0.0000000000000000000 ) ) ;
#1005 = FACE_OUTER_BOUND ( 'NONE', #570, .T. ) ;
#1006 = AXIS2_PLACEMENT_3D ( 'NONE', #720, #890, #329 ) ;
#1007 = FACE_OUTER_BOUND ( 'NONE', #839, .T. ) ;
#1008 = FACE_BOUND ( 'NONE', #763, .T. ) ;
#1009 = VECTOR ( 'NONE', #764, 1000.000000000000000 ) ;
#1010 = ADVANCED_FACE ( 'NONE', ( #318 ), #558, .T. ) ;
#1011 = PRODUCT_CONTEXT ( 'NONE', #533, 'mechanical' ) ;
#1012 = ORIENTED_EDGE ( 'NONE', *, *, #26, .F. ) ;
#1013 = CARTESIAN_POINT ( 'NONE',  ( -7.681258945454890900E-014, -12.50000000000000000, 21.99999999999999300 ) ) ;
#1014 = CARTESIAN_POINT ( 'NONE',  ( 2.736599999999997500, -25.00000000000000000, 0.7366000000000000300 ) ) ;
#1015 = EDGE_CURVE ( 'NONE', #120, #744, #1135, .T. ) ;
#1016 = ADVANCED_FACE ( 'NONE', ( #1005 ), #577, .T. ) ;
#1017 = AXIS2_PLACEMENT_3D ( 'NONE', #48, #1084, #230 ) ;
#1018 = CARTESIAN_POINT ( 'NONE',  ( 22.50000000000000000, -5.500000000000000900, -2.000000000000000000 ) ) ;
#1019 = VERTEX_POINT ( 'NONE', #868 ) ;
#1020 = EDGE_LOOP ( 'NONE', ( #878, #296, #697, #468, #770 ) ) ;
#1021 = CIRCLE ( 'NONE', #55, 1.499999999999999600 ) ;
#1022 = EDGE_CURVE ( 'NONE', #1035, #61, #1194, .T. ) ;
#1023 = FACE_OUTER_BOUND ( 'NONE', #1151, .T. ) ;
#1024 = CARTESIAN_POINT ( 'NONE',  ( -2.579390169135185100E-015, -25.00000000000000000, 0.7365999999999904800 ) ) ;
#1025 = AXIS2_PLACEMENT_3D ( 'NONE', #217, #981, #412 ) ;
#1026 = ORIENTED_EDGE ( 'NONE', *, *, #702, .F. ) ;
#1027 = FILL_AREA_STYLE_COLOUR ( '', #992 ) ;
#1028 = DIRECTION ( 'NONE',  ( 0.0000000000000000000, 0.0000000000000000000, 1.000000000000000000 ) ) ;
#1029 = DIRECTION ( 'NONE',  ( 0.0000000000000000000, 0.0000000000000000000, 1.000000000000000000 ) ) ;
#1030 = AXIS2_PLACEMENT_3D ( 'NONE', #865, #1133, #1058 ) ;
#1031 = DIRECTION ( 'NONE',  ( 0.0000000000000000000, 0.0000000000000000000, 1.000000000000000000 ) ) ;
#1032 = EDGE_LOOP ( 'NONE', ( #1175, #1026, #806, #869 ) ) ;
#1033 = AXIS2_PLACEMENT_3D ( 'NONE', #221, #887, #699 ) ;
#1034 = EDGE_LOOP ( 'NONE', ( #973, #914, #365, #22 ) ) ;
#1035 = VERTEX_POINT ( 'NONE', #417 ) ;
#1036 = ORIENTED_EDGE ( 'NONE', *, *, #290, .T. ) ;
#1037 = LINE ( 'NONE', #1018, #336 ) ;
#1038 = EDGE_CURVE ( 'NONE', #619, #1177, #358, .T. ) ;
#1039 = FACE_BOUND ( 'NONE', #483, .T. ) ;
#1040 = CARTESIAN_POINT ( 'NONE',  ( 24.00000000000000000, -19.50000000000000000, -2.000000000000000000 ) ) ;
#1041 = EDGE_LOOP ( 'NONE', ( #98, #694, #95, #772 ) ) ;
#1042 = CARTESIAN_POINT ( 'NONE',  ( 31.00000000000000000, -12.50000000000000000, -2.000000000000000000 ) ) ;
#1043 = DIRECTION ( 'NONE',  ( -1.000000000000000000, 0.0000000000000000000, -3.491481338843133400E-015 ) ) ;
#1044 = DIRECTION ( 'NONE',  ( 0.0000000000000000000, 0.0000000000000000000, 1.000000000000000000 ) ) ;
#1045 = CARTESIAN_POINT ( 'NONE',  ( 2.736599999999997500, 0.0000000000000000000, 0.7366000000000000300 ) ) ;
#1046 = VERTEX_POINT ( 'NONE', #403 ) ;
#1047 = DIRECTION ( 'NONE',  ( 1.000000000000000000, 0.0000000000000000000, 0.0000000000000000000 ) ) ;
#1048 = ORIENTED_EDGE ( 'NONE', *, *, #52, .F. ) ;
#1049 = LINE ( 'NONE', #905, #57 ) ;
#1050 = DIRECTION ( 'NONE',  ( -3.469446951953611000E-015, 0.0000000000000000000, 1.000000000000000000 ) ) ;
#1051 = FACE_OUTER_BOUND ( 'NONE', #1164, .T. ) ;
#1052 = CIRCLE ( 'NONE', #164, 12.49999999999999800 ) ;
#1053 = EDGE_CURVE ( 'NONE', #130, #1046, #259, .T. ) ;
#1054 = DIRECTION ( 'NONE',  ( -3.491481338843131800E-015, 0.0000000000000000000, 1.000000000000000000 ) ) ;
#1055 = CARTESIAN_POINT ( 'NONE',  ( -8.204981146281361500E-014, -12.50000000000000000, 23.49999999999999300 ) ) ;
#1056 = CARTESIAN_POINT ( 'NONE',  ( 29.49999999999999600, -12.50000000000000000, -2.000000000000000000 ) ) ;
#1057 = AXIS2_PLACEMENT_3D ( 'NONE', #1153, #584, #126 ) ;
#1058 = DIRECTION ( 'NONE',  ( -1.000000000000000000, 0.0000000000000000000, 0.0000000000000000000 ) ) ;
#1059 = CARTESIAN_POINT ( 'NONE',  ( 2.736599999999997500, -25.00000000000000000, 0.7366000000000000300 ) ) ;
#1060 = DIRECTION ( 'NONE',  ( 0.0000000000000000000, 0.0000000000000000000, 1.000000000000000000 ) ) ;
#1061 = EDGE_CURVE ( 'NONE', #172, #71, #791, .T. ) ;
#1062 = ORIENTED_EDGE ( 'NONE', *, *, #847, .T. ) ;
#1063 = DIRECTION ( 'NONE',  ( 0.0000000000000000000, 0.0000000000000000000, 1.000000000000000000 ) ) ;
#1064 = VERTEX_POINT ( 'NONE', #785 ) ;
#1065 = EDGE_LOOP ( 'NONE', ( #587, #588, #477, #655 ) ) ;
#1066 = ORIENTED_EDGE ( 'NONE', *, *, #663, .T. ) ;
#1067 = DIRECTION ( 'NONE',  ( -1.000000000000000000, 0.0000000000000000000, -3.491481338843133400E-015 ) ) ;
#1068 = CIRCLE ( 'NONE', #18, 1.500000000000001300 ) ;
#1069 = CARTESIAN_POINT ( 'NONE',  ( 24.49999999999999600, -12.50000000000000200, 0.0000000000000000000 ) ) ;
#1070 = ORIENTED_EDGE ( 'NONE', *, *, #823, .F. ) ;
#1071 = AXIS2_PLACEMENT_3D ( 'NONE', #949, #853, #308 ) ;
#1072 = DIRECTION ( 'NONE',  ( -3.491481338843131400E-015, 0.0000000000000000000, 1.000000000000000000 ) ) ;
#1073 = CARTESIAN_POINT ( 'NONE',  ( 2.736599999999997500, 0.0000000000000000000, 0.0000000000000000000 ) ) ;
#1074 = DIRECTION ( 'NONE',  ( -1.000000000000000000, 0.0000000000000000000, -3.491481338843133400E-015 ) ) ;
#1075 = EDGE_LOOP ( 'NONE', ( #330, #786 ) ) ;
#1076 = EDGE_CURVE ( 'NONE', #999, #846, #637, .T. ) ;
#1077 = ORIENTED_EDGE ( 'NONE', *, *, #106, .T. ) ;
#1078 = CIRCLE ( 'NONE', #782, 1.499999999999999600 ) ;
#1079 = DIRECTION ( 'NONE',  ( 0.0000000000000000000, 1.000000000000000000, 0.0000000000000000000 ) ) ;
#1080 = FACE_BOUND ( 'NONE', #1104, .T. ) ;
#1081 = FACE_BOUND ( 'NONE', #104, .T. ) ;
#1082 = ORIENTED_EDGE ( 'NONE', *, *, #480, .F. ) ;
#1083 = ADVANCED_FACE ( 'NONE', ( #976 ), #116, .F. ) ;
#1084 = DIRECTION ( 'NONE',  ( -1.000000000000000000, 0.0000000000000000000, -3.491481338843133400E-015 ) ) ;
#1085 = DIRECTION ( 'NONE',  ( 1.000000000000000000, 1.416100796715761100E-016, 0.0000000000000000000 ) ) ;
#1086 = EDGE_CURVE ( 'NONE', #1162, #999, #74, .T. ) ;
#1087 = AXIS2_PLACEMENT_3D ( 'NONE', #1159, #596, #693 ) ;
#1088 = DIRECTION ( 'NONE',  ( 0.0000000000000000000, -0.0000000000000000000, 1.000000000000000000 ) ) ;
#1089 = ADVANCED_FACE ( 'NONE', ( #1167 ), #1108, .F. ) ;
#1090 = CARTESIAN_POINT ( 'NONE',  ( 24.49999999999999600, -24.99999999999999600, 0.0000000000000000000 ) ) ;
#1091 = EDGE_LOOP ( 'NONE', ( #800, #931 ) ) ;
#1092 = DIRECTION ( 'NONE',  ( 0.0000000000000000000, 0.0000000000000000000, 1.000000000000000000 ) ) ;
#1093 = ORIENTED_EDGE ( 'NONE', *, *, #280, .T. ) ;
#1094 = AXIS2_PLACEMENT_3D ( 'NONE', #202, #481, #1050 ) ;
#1095 = VECTOR ( 'NONE', #580, 1000.000000000000000 ) ;
#1096 = FACE_OUTER_BOUND ( 'NONE', #148, .T. ) ;
#1097 = DIRECTION ( 'NONE',  ( -1.000000000000000000, 0.0000000000000000000, -3.491481338843133400E-015 ) ) ;
#1098 = CYLINDRICAL_SURFACE ( 'NONE', #67, 0.7366000000000000300 ) ;
#1099 = ORIENTED_EDGE ( 'NONE', *, *, #348, .F. ) ;
#1100 = EDGE_CURVE ( 'NONE', #838, #1046, #42, .T. ) ;
#1101 = ADVANCED_FACE ( 'NONE', ( #917 ), #144, .F. ) ;
#1102 = SURFACE_SIDE_STYLE ('',( #975 ) ) ;
#1103 = DIRECTION ( 'NONE',  ( 0.0000000000000000000, 0.0000000000000000000, -1.000000000000000000 ) ) ;
#1104 = EDGE_LOOP ( 'NONE', ( #1132, #1001 ) ) ;
#1105 = ADVANCED_FACE ( 'NONE', ( #413 ), #664, .T. ) ;
#1106 = EDGE_LOOP ( 'NONE', ( #610, #898 ) ) ;
#1107 = UNCERTAINTY_MEASURE_WITH_UNIT (LENGTH_MEASURE( 1.000000000000000100E-005 ), #81, 'distance_accuracy_value', 'NONE');
#1108 = CYLINDRICAL_SURFACE ( 'NONE', #1017, 1.499999999999999600 ) ;
#1109 = AXIS2_PLACEMENT_3D ( 'NONE', #768, #679, #674 ) ;
#1110 = VECTOR ( 'NONE', #283, 1000.000000000000000 ) ;
#1111 = CYLINDRICAL_SURFACE ( 'NONE', #711, 2.736600000000000100 ) ;
#1112 = VERTEX_POINT ( 'NONE', #601 ) ;
#1113 = CARTESIAN_POINT ( 'NONE',  ( 0.0000000000000000000, -25.00000000000000000, 0.0000000000000000000 ) ) ;
#1114 = DIRECTION ( 'NONE',  ( -1.000000000000000000, 0.0000000000000000000, -3.491481338843133400E-015 ) ) ;
#1115 = EDGE_CURVE ( 'NONE', #206, #943, #605, .T. ) ;
#1116 = AXIS2_PLACEMENT_3D ( 'NONE', #311, #216, #675 ) ;
#1117 = DIRECTION ( 'NONE',  ( 1.000000000000000000, 1.416100796715761100E-016, 0.0000000000000000000 ) ) ;
#1118 = EDGE_LOOP ( 'NONE', ( #219, #441 ) ) ;
#1119 = EDGE_LOOP ( 'NONE', ( #84, #56, #556, #1191 ) ) ;
#1120 = ORIENTED_EDGE ( 'NONE', *, *, #871, .F. ) ;
#1121 = ORIENTED_EDGE ( 'NONE', *, *, #996, .T. ) ;
#1122 = EDGE_CURVE ( 'NONE', #1064, #114, #1078, .T. ) ;
#1123 = CIRCLE ( 'NONE', #1057, 1.500000000000001300 ) ;
#1124 = SURFACE_STYLE_USAGE ( .BOTH. , #466 ) ;
#1125 = CARTESIAN_POINT ( 'NONE',  ( 24.00000000000000000, -12.50000000000000000, -2.000000000000000000 ) ) ;
#1126 = CYLINDRICAL_SURFACE ( 'NONE', #1130, 1.500000000000001300 ) ;
#1127 = FACE_OUTER_BOUND ( 'NONE', #555, .T. ) ;
#1128 = EDGE_LOOP ( 'NONE', ( #242, #635, #177, #428 ) ) ;
#1129 = PLANE ( 'NONE',  #526 ) ;
#1130 = AXIS2_PLACEMENT_3D ( 'NONE', #1013, #539, #364 ) ;
#1131 = CARTESIAN_POINT ( 'NONE',  ( 29.49999999999999600, -12.50000000000000000, -2.000000000000000000 ) ) ;
#1132 = ORIENTED_EDGE ( 'NONE', *, *, #1053, .F. ) ;
#1133 = DIRECTION ( 'NONE',  ( -0.0000000000000000000, 0.0000000000000000000, -1.000000000000000000 ) ) ;
#1134 = DIRECTION ( 'NONE',  ( -1.000000000000000000, -0.0000000000000000000, -3.491481338843133400E-015 ) ) ;
#1135 = CIRCLE ( 'NONE', #927, 1.500000000000001300 ) ;
#1136 = FACE_OUTER_BOUND ( 'NONE', #5, .T. ) ;
#1137 = EDGE_CURVE ( 'NONE', #71, #789, #572, .T. ) ;
#1138 = LINE ( 'NONE', #521, #748 ) ;
#1139 = CARTESIAN_POINT ( 'NONE',  ( 2.736599999999997500, -25.00000000000000000, 0.7366000000000000300 ) ) ;
#1140 = CARTESIAN_POINT ( 'NONE',  ( 22.50000000000000000, -5.500000000000000900, 0.0000000000000000000 ) ) ;
#1141 = ORIENTED_EDGE ( 'NONE', *, *, #406, .F. ) ;
#1142 = CARTESIAN_POINT ( 'NONE',  ( 1.999999999999928500, -12.50000000000000000, 20.49999999999999600 ) ) ;
#1143 = DIRECTION ( 'NONE',  ( -1.000000000000000000, 0.0000000000000000000, -3.532562060772753900E-015 ) ) ;
#1144 = PLANE ( 'NONE',  #86 ) ;
#1145 = EDGE_CURVE ( 'NONE', #789, #449, #168, .T. ) ;
#1146 = CARTESIAN_POINT ( 'NONE',  ( 18.50000000000000400, -12.50000000000000000, -2.000000000000000000 ) ) ;
#1147 = EDGE_LOOP ( 'NONE', ( #544, #974 ) ) ;
#1148 = CARTESIAN_POINT ( 'NONE',  ( 22.50000000000000000, -19.50000000000000000, -2.000000000000000000 ) ) ;
#1149 = ORIENTED_EDGE ( 'NONE', *, *, #10, .T. ) ;
#1150 = ORIENTED_EDGE ( 'NONE', *, *, #805, .T. ) ;
#1151 = EDGE_LOOP ( 'NONE', ( #550, #758, #389, #1205 ) ) ;
#1152 = CARTESIAN_POINT ( 'NONE',  ( 0.0000000000000000000, 0.0000000000000000000, -6.982962677686266700E-015 ) ) ;
#1153 = CARTESIAN_POINT ( 'NONE',  ( 24.00000000000000000, -19.50000000000000000, 0.0000000000000000000 ) ) ;
#1154 = VECTOR ( 'NONE', #11, 1000.000000000000000 ) ;
#1155 = VECTOR ( 'NONE', #896, 1000.000000000000000 ) ;
#1156 = AXIS2_PLACEMENT_3D ( 'NONE', #1165, #224, #599 ) ;
#1157 = CARTESIAN_POINT ( 'NONE',  ( 1.999999999999923200, -12.50000000000000000, 22.00000000000000000 ) ) ;
#1158 = DIRECTION ( 'NONE',  ( -3.491481338843133400E-015, 0.0000000000000000000, 1.000000000000000000 ) ) ;
#1159 = CARTESIAN_POINT ( 'NONE',  ( 24.00000000000000000, -19.50000000000000000, -2.000000000000000000 ) ) ;
#1160 = CARTESIAN_POINT ( 'NONE',  ( -9.757819552369539900E-014, 0.0000000000000000000, 27.99999999999999600 ) ) ;
#1161 = EDGE_CURVE ( 'NONE', #204, #427, #444, .T. ) ;
#1162 = VERTEX_POINT ( 'NONE', #437 ) ;
#1163 = ORIENTED_EDGE ( 'NONE', *, *, #353, .T. ) ;
#1164 = EDGE_LOOP ( 'NONE', ( #1179, #730, #1077, #151 ) ) ;
#1165 = CARTESIAN_POINT ( 'NONE',  ( 24.00000000000000000, -5.500000000000000900, 0.0000000000000000000 ) ) ;
#1166 = VERTEX_POINT ( 'NONE', #430 ) ;
#1167 = FACE_OUTER_BOUND ( 'NONE', #408, .T. ) ;
#1168 = LINE ( 'NONE', #567, #380 ) ;
#1169 = CARTESIAN_POINT ( 'NONE',  ( 1.999999999999949800, -12.50000000000000000, 14.49999999999999800 ) ) ;
#1170 = CIRCLE ( 'NONE', #390, 1.500000000000001300 ) ;
#1171 = DIRECTION ( 'NONE',  ( -3.491481338843131400E-015, 0.0000000000000000000, 1.000000000000000000 ) ) ;
#1172 = ORIENTED_EDGE ( 'NONE', *, *, #864, .F. ) ;
#1173 = AXIS2_PLACEMENT_3D ( 'NONE', #995, #799, #725 ) ;
#1174 = DIRECTION ( 'NONE',  ( 0.0000000000000000000, 0.0000000000000000000, 1.000000000000000000 ) ) ;
#1175 = ORIENTED_EDGE ( 'NONE', *, *, #426, .F. ) ;
#1176 = EDGE_CURVE ( 'NONE', #449, #1112, #88, .T. ) ;
#1177 = VERTEX_POINT ( 'NONE', #1090 ) ;
#1178 = DIRECTION ( 'NONE',  ( 0.0000000000000000000, 0.0000000000000000000, -1.000000000000000000 ) ) ;
#1179 = ORIENTED_EDGE ( 'NONE', *, *, #996, .F. ) ;
#1180 = AXIS2_PLACEMENT_3D ( 'NONE', #338, #900, #723 ) ;
#1181 = FACE_BOUND ( 'NONE', #266, .T. ) ;
#1182 = FACE_OUTER_BOUND ( 'NONE', #223, .T. ) ;
#1183 = CYLINDRICAL_SURFACE ( 'NONE', #384, 1.500000000000001300 ) ;
#1184 = CARTESIAN_POINT ( 'NONE',  ( -2.793185071074503200E-014, -12.50000000000000200, 7.999999999999989300 ) ) ;
#1185 = EDGE_CURVE ( 'NONE', #222, #715, #1049, .T. ) ;
#1186 = CARTESIAN_POINT ( 'NONE',  ( 17.00000000000000000, -12.50000000000000000, -2.000000000000000000 ) ) ;
#1187 = CARTESIAN_POINT ( 'NONE',  ( 24.49999999999999600, -12.50000000000000200, -2.000000000000000000 ) ) ;
#1188 = DIRECTION ( 'NONE',  ( -1.000000000000000000, 0.0000000000000000000, -3.491481338843133400E-015 ) ) ;
#1189 = ORIENTED_EDGE ( 'NONE', *, *, #1201, .F. ) ;
#1190 = CARTESIAN_POINT ( 'NONE',  ( -9.395049753886657900E-014, -12.50000000000000000, 26.99999999999999600 ) ) ;
#1191 = ORIENTED_EDGE ( 'NONE', *, *, #361, .T. ) ;
#1192 = ORIENTED_EDGE ( 'NONE', *, *, #193, .T. ) ;
#1193 = AXIS2_PLACEMENT_3D ( 'NONE', #875, #218, #880 ) ;
#1194 = CIRCLE ( 'NONE', #636, 12.50000000000000400 ) ;
#1195 =( NAMED_UNIT ( * ) SI_UNIT ( $, .STERADIAN. ) SOLID_ANGLE_UNIT ( ) );
#1196 = CYLINDRICAL_SURFACE ( 'NONE', #614, 1.500000000000001300 ) ;
#1197 = CARTESIAN_POINT ( 'NONE',  ( -5.760944209091166900E-014, -19.50000000000000400, 16.49999999999998900 ) ) ;
#1198 = CIRCLE ( 'NONE', #1193, 1.500000000000001300 ) ;
#1199 = ADVANCED_FACE ( 'NONE', ( #814 ), #773, .F. ) ;
#1200 = ORIENTED_EDGE ( 'NONE', *, *, #851, .F. ) ;
#1201 = EDGE_CURVE ( 'NONE', #495, #705, #1021, .T. ) ;
#1202 = AXIS2_PLACEMENT_3D ( 'NONE', #1045, #53, #795 ) ;
#1203 = ADVANCED_FACE ( 'NONE', ( #532 ), #24, .F. ) ;
#1204 = EDGE_LOOP ( 'NONE', ( #670, #40, #852, #328 ) ) ;
#1205 = ORIENTED_EDGE ( 'NONE', *, *, #1015, .T. ) ;
#1206 = EDGE_CURVE ( 'NONE', #14, #715, #101, .T. ) ;
#1207 = DIRECTION ( 'NONE',  ( 1.000000000000000000, 0.0000000000000000000, 0.0000000000000000000 ) ) ;
#1208 = ORIENTED_EDGE ( 'NONE', *, *, #331, .T. ) ;
#1209 = FACE_BOUND ( 'NONE', #1106, .T. ) ;
#1210 = PRESENTATION_STYLE_ASSIGNMENT (( #1124 ) ) ;
#1211 = FACE_OUTER_BOUND ( 'NONE', #1034, .T. ) ;
#1212 = DIRECTION ( 'NONE',  ( -1.000000000000000000, 0.0000000000000000000, -3.491481338843133400E-015 ) ) ;
ENDSEC;
END-ISO-10303-21;
