ISO-10303-21;
HEADER;
FILE_DESCRIPTION (( 'STEP AP214' ),
    '1' );
FILE_NAME ('±­Ê½Öá³Ð.STEP',
    '2017-10-14T06:06:43',
    ( '' ),
    ( '' ),
    'SwSTEP 2.0',
    'SolidWorks 2014',
    '' );
FILE_SCHEMA (( 'AUTOMOTIVE_DESIGN' ));
ENDSEC;

DATA;
#1 = DIRECTION ( 'NONE',  ( -0.0000000000000000000, 1.000000000000000000, -0.0000000000000000000 ) ) ;
#2 = DIRECTION ( 'NONE',  ( -0.0000000000000000000, 1.000000000000000000, -0.0000000000000000000 ) ) ;
#3 = FILL_AREA_STYLE ('',( #167 ) ) ;
#4 = ORIENTED_EDGE ( 'NONE', *, *, #48, .F. ) ;
#5 = AXIS2_PLACEMENT_3D ( 'NONE', #163, #196, #73 ) ;
#6 = CARTESIAN_POINT ( 'NONE',  ( 0.0000000000000000000, 0.0000000000000000000, 0.0000000000000000000 ) ) ;
#7 = COLOUR_RGB ( '',1.000000000000000000, 1.000000000000000000, 1.000000000000000000 ) ;
#8 = MANIFOLD_SOLID_BREP ( 'Ðý×ª1', #16 ) ;
#9 = AXIS2_PLACEMENT_3D ( 'NONE', #147, #101, #121 ) ;
#10 =( LENGTH_UNIT ( ) NAMED_UNIT ( * ) SI_UNIT ( .MILLI., .METRE. ) );
#11 = DIRECTION ( 'NONE',  ( -0.0000000000000000000, 1.000000000000000000, -0.0000000000000000000 ) ) ;
#12 =( NAMED_UNIT ( * ) SI_UNIT ( $, .STERADIAN. ) SOLID_ANGLE_UNIT ( ) );
#13 = CARTESIAN_POINT ( 'NONE',  ( 4.898587196589412800E-016, 0.0000000000000000000, -4.000000000000000000 ) ) ;
#14 = FACE_OUTER_BOUND ( 'NONE', #80, .T. ) ;
#15 = APPLICATION_CONTEXT ( 'automotive_design' ) ;
#16 = CLOSED_SHELL ( 'NONE', ( #261, #65, #109, #63, #211, #267, #42, #219, #67 ) ) ;
#17 = EDGE_CURVE ( 'NONE', #55, #94, #92, .T. ) ;
#18 = APPLICATION_PROTOCOL_DEFINITION ( 'draft international standard', 'automotive_design', 1998, #15 ) ;
#19 = CIRCLE ( 'NONE', #289, 1.500000000000000400 ) ;
#20 = EDGE_CURVE ( 'NONE', #102, #182, #124, .T. ) ;
#21 = SURFACE_SIDE_STYLE ('',( #271 ) ) ;
#22 = CARTESIAN_POINT ( 'NONE',  ( 0.0000000000000000000, -4.000000000000000000, 0.0000000000000000000 ) ) ;
#23 = LINE ( 'NONE', #206, #292 ) ;
#24 = PRODUCT_DEFINITION ( 'Î´Öª', '', #237, #227 ) ;
#25 = LINE ( 'NONE', #51, #36 ) ;
#26 = EDGE_CURVE ( 'NONE', #190, #55, #25, .T. ) ;
#27 = SHAPE_DEFINITION_REPRESENTATION ( #122, #195 ) ;
#28 = AXIS2_PLACEMENT_3D ( 'NONE', #179, #31, #117 ) ;
#29 = CARTESIAN_POINT ( 'NONE',  ( 1.836970198721030400E-016, 0.0000000000000000000, -1.500000000000000400 ) ) ;
#30 = AXIS2_PLACEMENT_3D ( 'NONE', #198, #76, #200 ) ;
#31 = DIRECTION ( 'NONE',  ( -0.0000000000000000000, 1.000000000000000000, -0.0000000000000000000 ) ) ;
#32 = ORIENTED_EDGE ( 'NONE', *, *, #140, .F. ) ;
#33 = CARTESIAN_POINT ( 'NONE',  ( 0.0000000000000000000, 0.0000000000000000000, 0.0000000000000000000 ) ) ;
#34 = CYLINDRICAL_SURFACE ( 'NONE', #85, 4.000000000000000000 ) ;
#35 = EDGE_CURVE ( 'NONE', #148, #116, #185, .T. ) ;
#36 = VECTOR ( 'NONE', #275, 1000.000000000000000 ) ;
#37 = DIRECTION ( 'NONE',  ( 0.0000000000000000000, 0.0000000000000000000, 1.000000000000000000 ) ) ;
#38 = EDGE_CURVE ( 'NONE', #176, #156, #74, .T. ) ;
#39 = DIRECTION ( 'NONE',  ( 0.0000000000000000000, 0.0000000000000000000, 1.000000000000000000 ) ) ;
#40 = DIRECTION ( 'NONE',  ( -0.0000000000000000000, 1.000000000000000000, 0.0000000000000000000 ) ) ;
#41 = COLOUR_RGB ( '',1.000000000000000000, 1.000000000000000000, 1.000000000000000000 ) ;
#42 = ADVANCED_FACE ( 'NONE', ( #270 ), #164, .T. ) ;
#43 = AXIS2_PLACEMENT_3D ( 'NONE', #84, #172, #39 ) ;
#44 = PRESENTATION_LAYER_ASSIGNMENT (  '', '', ( #152 ) ) ;
#45 = DIRECTION ( 'NONE',  ( 0.0000000000000000000, -1.000000000000000000, 0.0000000000000000000 ) ) ;
#46 = ORIENTED_EDGE ( 'NONE', *, *, #119, .T. ) ;
#47 = AXIS2_PLACEMENT_3D ( 'NONE', #238, #165, #194 ) ;
#48 = EDGE_CURVE ( 'NONE', #176, #148, #70, .T. ) ;
#49 = EDGE_LOOP ( 'NONE', ( #168, #293 ) ) ;
#50 = EDGE_CURVE ( 'NONE', #94, #55, #114, .T. ) ;
#51 = CARTESIAN_POINT ( 'NONE',  ( 6.123233995736767300E-016, 0.0000000000000000000, -5.000000000000000900 ) ) ;
#52 = LINE ( 'NONE', #153, #283 ) ;
#53 = STYLED_ITEM ( 'NONE', ( #204 ), #8 ) ;
#54 = CARTESIAN_POINT ( 'NONE',  ( 0.0000000000000000000, -4.000000000000000000, 5.000000000000000900 ) ) ;
#55 = VERTEX_POINT ( 'NONE', #89 ) ;
#56 = AXIS2_PLACEMENT_3D ( 'NONE', #235, #264, #286 ) ;
#57 = CARTESIAN_POINT ( 'NONE',  ( 0.0000000000000000000, -3.000000000000000400, 0.0000000000000000000 ) ) ;
#58 = AXIS2_PLACEMENT_3D ( 'NONE', #103, #2, #104 ) ;
#59 = CARTESIAN_POINT ( 'NONE',  ( 0.0000000000000000000, -4.000000000000000000, 0.0000000000000000000 ) ) ;
#60 = CARTESIAN_POINT ( 'NONE',  ( 0.0000000000000000000, -3.000000000000000400, 0.0000000000000000000 ) ) ;
#61 = DIRECTION ( 'NONE',  ( -0.0000000000000000000, 1.000000000000000000, -0.0000000000000000000 ) ) ;
#62 = SURFACE_STYLE_USAGE ( .BOTH. , #21 ) ;
#63 = ADVANCED_FACE ( 'NONE', ( #273, #203 ), #138, .F. ) ;
#64 = EDGE_CURVE ( 'NONE', #116, #156, #177, .T. ) ;
#65 = ADVANCED_FACE ( 'NONE', ( #100 ), #277, .T. ) ;
#66 = EDGE_CURVE ( 'NONE', #208, #182, #19, .T. ) ;
#67 = ADVANCED_FACE ( 'NONE', ( #221 ), #225, .F. ) ;
#68 = PRESENTATION_STYLE_ASSIGNMENT (( #62 ) ) ;
#69 = ORIENTED_EDGE ( 'NONE', *, *, #17, .T. ) ;
#70 = CIRCLE ( 'NONE', #253, 4.000000000000000000 ) ;
#71 = EDGE_CURVE ( 'NONE', #148, #176, #146, .T. ) ;
#72 = ORIENTED_EDGE ( 'NONE', *, *, #20, .F. ) ;
#73 = DIRECTION ( 'NONE',  ( 0.0000000000000000000, 0.0000000000000000000, 1.000000000000000000 ) ) ;
#74 = LINE ( 'NONE', #105, #276 ) ;
#75 =( GEOMETRIC_REPRESENTATION_CONTEXT ( 3 ) GLOBAL_UNCERTAINTY_ASSIGNED_CONTEXT ( ( #278 ) ) GLOBAL_UNIT_ASSIGNED_CONTEXT ( ( #268, #137, #134 ) ) REPRESENTATION_CONTEXT ( 'NONE', 'WORKASPACE' ) );
#76 = DIRECTION ( 'NONE',  ( -0.0000000000000000000, 1.000000000000000000, -0.0000000000000000000 ) ) ;
#77 = CIRCLE ( 'NONE', #112, 5.000000000000000900 ) ;
#78 = ORIENTED_EDGE ( 'NONE', *, *, #110, .T. ) ;
#79 = CARTESIAN_POINT ( 'NONE',  ( 1.836970198721030400E-016, -4.000000000000000900, -1.500000000000000400 ) ) ;
#80 = EDGE_LOOP ( 'NONE', ( #259, #250, #252, #83 ) ) ;
#81 = FACE_OUTER_BOUND ( 'NONE', #131, .T. ) ;
#82 = DIRECTION ( 'NONE',  ( -0.0000000000000000000, 1.000000000000000000, -0.0000000000000000000 ) ) ;
#83 = ORIENTED_EDGE ( 'NONE', *, *, #64, .F. ) ;
#84 = CARTESIAN_POINT ( 'NONE',  ( 0.0000000000000000000, -4.000000000000000900, 0.0000000000000000000 ) ) ;
#85 = AXIS2_PLACEMENT_3D ( 'NONE', #6, #82, #279 ) ;
#86 = FILL_AREA_STYLE_COLOUR ( '', #41 ) ;
#87 = AXIS2_PLACEMENT_3D ( 'NONE', #181, #40, #130 ) ;
#88 = DIRECTION ( 'NONE',  ( 0.0000000000000000000, 0.0000000000000000000, 1.000000000000000000 ) ) ;
#89 = CARTESIAN_POINT ( 'NONE',  ( 6.123233995736767300E-016, -3.000000000000000400, -5.000000000000000900 ) ) ;
#90 = EDGE_CURVE ( 'NONE', #240, #102, #91, .T. ) ;
#91 = CIRCLE ( 'NONE', #43, 1.500000000000000400 ) ;
#92 = CIRCLE ( 'NONE', #222, 5.000000000000000900 ) ;
#93 = DIRECTION ( 'NONE',  ( -0.0000000000000000000, 1.000000000000000000, -0.0000000000000000000 ) ) ;
#94 = VERTEX_POINT ( 'NONE', #184 ) ;
#95 = EDGE_CURVE ( 'NONE', #182, #208, #193, .T. ) ;
#96 = UNCERTAINTY_MEASURE_WITH_UNIT (LENGTH_MEASURE( 1.000000000000000100E-005 ), #10, 'distance_accuracy_value', 'NONE');
#97 = CARTESIAN_POINT ( 'NONE',  ( 0.0000000000000000000, 0.0000000000000000000, 0.0000000000000000000 ) ) ;
#98 = PRESENTATION_LAYER_ASSIGNMENT (  '', '', ( #53 ) ) ;
#99 = DIRECTION ( 'NONE',  ( 0.0000000000000000000, 0.0000000000000000000, 1.000000000000000000 ) ) ;
#100 = FACE_OUTER_BOUND ( 'NONE', #113, .T. ) ;
#101 = DIRECTION ( 'NONE',  ( -0.0000000000000000000, 1.000000000000000000, -0.0000000000000000000 ) ) ;
#102 = VERTEX_POINT ( 'NONE', #79 ) ;
#103 = CARTESIAN_POINT ( 'NONE',  ( 0.0000000000000000000, 0.0000000000000000000, 0.0000000000000000000 ) ) ;
#104 = DIRECTION ( 'NONE',  ( 0.0000000000000000000, 0.0000000000000000000, 1.000000000000000000 ) ) ;
#105 = CARTESIAN_POINT ( 'NONE',  ( 0.0000000000000000000, 0.0000000000000000000, 4.000000000000000000 ) ) ;
#106 = AXIS2_PLACEMENT_3D ( 'NONE', #22, #157, #88 ) ;
#107 = DIRECTION ( 'NONE',  ( -0.0000000000000000000, 1.000000000000000000, -0.0000000000000000000 ) ) ;
#108 = DIRECTION ( 'NONE',  ( 1.000000000000000000, 0.0000000000000000000, 0.0000000000000000000 ) ) ;
#109 = ADVANCED_FACE ( 'NONE', ( #81 ), #34, .T. ) ;
#110 = EDGE_CURVE ( 'NONE', #240, #208, #23, .T. ) ;
#111 = CARTESIAN_POINT ( 'NONE',  ( 0.0000000000000000000, -3.000000000000000400, 0.0000000000000000000 ) ) ;
#112 = AXIS2_PLACEMENT_3D ( 'NONE', #59, #229, #99 ) ;
#113 = EDGE_LOOP ( 'NONE', ( #46, #217, #232, #254 ) ) ;
#114 = CIRCLE ( 'NONE', #149, 5.000000000000000900 ) ;
#115 = ORIENTED_EDGE ( 'NONE', *, *, #35, .T. ) ;
#116 = VERTEX_POINT ( 'NONE', #188 ) ;
#117 = DIRECTION ( 'NONE',  ( 0.0000000000000000000, 0.0000000000000000000, 1.000000000000000000 ) ) ;
#118 = ORIENTED_EDGE ( 'NONE', *, *, #90, .T. ) ;
#119 = EDGE_CURVE ( 'NONE', #141, #190, #77, .T. ) ;
#120 = AXIS2_PLACEMENT_3D ( 'NONE', #186, #281, #187 ) ;
#121 = DIRECTION ( 'NONE',  ( 0.0000000000000000000, 0.0000000000000000000, 1.000000000000000000 ) ) ;
#122 = PRODUCT_DEFINITION_SHAPE ( 'NONE', 'NONE',  #24 ) ;
#123 = SURFACE_SIDE_STYLE ('',( #257 ) ) ;
#124 = LINE ( 'NONE', #29, #189 ) ;
#125 = CYLINDRICAL_SURFACE ( 'NONE', #120, 4.000000000000000000 ) ;
#126 = DIRECTION ( 'NONE',  ( -0.0000000000000000000, 1.000000000000000000, -0.0000000000000000000 ) ) ;
#127 = PRODUCT_RELATED_PRODUCT_CATEGORY ( 'part', '', ( #256 ) ) ;
#128 =( NAMED_UNIT ( * ) PLANE_ANGLE_UNIT ( ) SI_UNIT ( $, .RADIAN. ) );
#129 = CIRCLE ( 'NONE', #9, 1.500000000000000400 ) ;
#130 = DIRECTION ( 'NONE',  ( 0.0000000000000000000, 0.0000000000000000000, 1.000000000000000000 ) ) ;
#131 = EDGE_LOOP ( 'NONE', ( #139, #115, #32, #246 ) ) ;
#132 =( NAMED_UNIT ( * ) SI_UNIT ( $, .STERADIAN. ) SOLID_ANGLE_UNIT ( ) );
#133 = ORIENTED_EDGE ( 'NONE', *, *, #64, .T. ) ;
#134 =( NAMED_UNIT ( * ) SI_UNIT ( $, .STERADIAN. ) SOLID_ANGLE_UNIT ( ) );
#135 = EDGE_LOOP ( 'NONE', ( #118, #272 ) ) ;
#136 = VECTOR ( 'NONE', #174, 1000.000000000000000 ) ;
#137 =( NAMED_UNIT ( * ) PLANE_ANGLE_UNIT ( ) SI_UNIT ( $, .RADIAN. ) );
#138 = PLANE ( 'NONE',  #47 ) ;
#139 = ORIENTED_EDGE ( 'NONE', *, *, #48, .T. ) ;
#140 = EDGE_CURVE ( 'NONE', #156, #116, #214, .T. ) ;
#141 = VERTEX_POINT ( 'NONE', #54 ) ;
#142 = AXIS2_PLACEMENT_3D ( 'NONE', #266, #287, #108 ) ;
#143 = ORIENTED_EDGE ( 'NONE', *, *, #20, .T. ) ;
#144 = DIRECTION ( 'NONE',  ( -0.0000000000000000000, 1.000000000000000000, -0.0000000000000000000 ) ) ;
#145 = CARTESIAN_POINT ( 'NONE',  ( 0.0000000000000000000, 0.0000000000000000000, 1.500000000000000400 ) ) ;
#146 = CIRCLE ( 'NONE', #285, 4.000000000000000000 ) ;
#147 = CARTESIAN_POINT ( 'NONE',  ( 0.0000000000000000000, -4.000000000000000900, 0.0000000000000000000 ) ) ;
#148 = VERTEX_POINT ( 'NONE', #251 ) ;
#149 = AXIS2_PLACEMENT_3D ( 'NONE', #291, #93, #161 ) ;
#150 = CARTESIAN_POINT ( 'NONE',  ( 4.000000000000000000, -3.000000000000000400, 0.0000000000000000000 ) ) ;
#151 = ORIENTED_EDGE ( 'NONE', *, *, #17, .F. ) ;
#152 = STYLED_ITEM ( 'NONE', ( #68 ), #195 ) ;
#153 = CARTESIAN_POINT ( 'NONE',  ( 0.0000000000000000000, 0.0000000000000000000, 5.000000000000000900 ) ) ;
#154 = PRODUCT_CONTEXT ( 'NONE', #288, 'mechanical' ) ;
#155 = FILL_AREA_STYLE ('',( #86 ) ) ;
#156 = VERTEX_POINT ( 'NONE', #202 ) ;
#157 = DIRECTION ( 'NONE',  ( -0.0000000000000000000, 1.000000000000000000, -0.0000000000000000000 ) ) ;
#158 = ORIENTED_EDGE ( 'NONE', *, *, #66, .T. ) ;
#159 = CYLINDRICAL_SURFACE ( 'NONE', #56, 1.500000000000000400 ) ;
#160 = ORIENTED_EDGE ( 'NONE', *, *, #243, .T. ) ;
#161 = DIRECTION ( 'NONE',  ( 0.0000000000000000000, 0.0000000000000000000, 1.000000000000000000 ) ) ;
#162 = EDGE_LOOP ( 'NONE', ( #263, #133 ) ) ;
#163 = CARTESIAN_POINT ( 'NONE',  ( 0.0000000000000000000, 0.0000000000000000000, 0.0000000000000000000 ) ) ;
#164 = CYLINDRICAL_SURFACE ( 'NONE', #180, 5.000000000000000900 ) ;
#165 = DIRECTION ( 'NONE',  ( 0.0000000000000000000, -1.000000000000000000, 0.0000000000000000000 ) ) ;
#166 = ORIENTED_EDGE ( 'NONE', *, *, #110, .F. ) ;
#167 = FILL_AREA_STYLE_COLOUR ( '', #7 ) ;
#168 = ORIENTED_EDGE ( 'NONE', *, *, #119, .F. ) ;
#169 = EDGE_CURVE ( 'NONE', #102, #240, #129, .T. ) ;
#170 = CARTESIAN_POINT ( 'NONE',  ( 6.123233995736767300E-016, -4.000000000000000000, -5.000000000000000900 ) ) ;
#171 = MECHANICAL_DESIGN_GEOMETRIC_PRESENTATION_REPRESENTATION (  '', ( #53 ), #224 ) ;
#172 = DIRECTION ( 'NONE',  ( -0.0000000000000000000, 1.000000000000000000, -0.0000000000000000000 ) ) ;
#173 = DIRECTION ( 'NONE',  ( -0.0000000000000000000, 1.000000000000000000, -0.0000000000000000000 ) ) ;
#174 = DIRECTION ( 'NONE',  ( -0.0000000000000000000, 1.000000000000000000, -0.0000000000000000000 ) ) ;
#175 = ORIENTED_EDGE ( 'NONE', *, *, #26, .F. ) ;
#176 = VERTEX_POINT ( 'NONE', #255 ) ;
#177 = CIRCLE ( 'NONE', #28, 4.000000000000000000 ) ;
#178 = MECHANICAL_DESIGN_GEOMETRIC_PRESENTATION_REPRESENTATION (  '', ( #152 ), #75 ) ;
#179 = CARTESIAN_POINT ( 'NONE',  ( 0.0000000000000000000, 0.0000000000000000000, 0.0000000000000000000 ) ) ;
#180 = AXIS2_PLACEMENT_3D ( 'NONE', #260, #126, #215 ) ;
#181 = CARTESIAN_POINT ( 'NONE',  ( 5.000000000000000900, -4.000000000000000000, 0.0000000000000000000 ) ) ;
#182 = VERTEX_POINT ( 'NONE', #258 ) ;
#183 = EDGE_LOOP ( 'NONE', ( #210, #143, #245, #166 ) ) ;
#184 = CARTESIAN_POINT ( 'NONE',  ( 0.0000000000000000000, -3.000000000000000400, 5.000000000000000900 ) ) ;
#185 = LINE ( 'NONE', #13, #136 ) ;
#186 = CARTESIAN_POINT ( 'NONE',  ( 0.0000000000000000000, 0.0000000000000000000, 0.0000000000000000000 ) ) ;
#187 = DIRECTION ( 'NONE',  ( 0.0000000000000000000, 0.0000000000000000000, 1.000000000000000000 ) ) ;
#188 = CARTESIAN_POINT ( 'NONE',  ( 4.898587196589412800E-016, 0.0000000000000000000, -4.000000000000000000 ) ) ;
#189 = VECTOR ( 'NONE', #247, 1000.000000000000000 ) ;
#190 = VERTEX_POINT ( 'NONE', #170 ) ;
#191 = UNCERTAINTY_MEASURE_WITH_UNIT (LENGTH_MEASURE( 1.000000000000000100E-005 ), #216, 'distance_accuracy_value', 'NONE');
#192 = DIRECTION ( 'NONE',  ( 0.0000000000000000000, -0.0000000000000000000, -1.000000000000000000 ) ) ;
#193 = CIRCLE ( 'NONE', #269, 1.500000000000000400 ) ;
#194 = DIRECTION ( 'NONE',  ( 0.0000000000000000000, -0.0000000000000000000, -1.000000000000000000 ) ) ;
#195 = ADVANCED_BREP_SHAPE_REPRESENTATION ( '±­Ê½Öá³Ð', ( #8, #142 ), #274 ) ;
#196 = DIRECTION ( 'NONE',  ( -0.0000000000000000000, 1.000000000000000000, -0.0000000000000000000 ) ) ;
#197 = ORIENTED_EDGE ( 'NONE', *, *, #66, .F. ) ;
#198 = CARTESIAN_POINT ( 'NONE',  ( 0.0000000000000000000, 0.0000000000000000000, 0.0000000000000000000 ) ) ;
#199 = EDGE_LOOP ( 'NONE', ( #72, #236, #78, #158 ) ) ;
#200 = DIRECTION ( 'NONE',  ( 0.0000000000000000000, 0.0000000000000000000, 1.000000000000000000 ) ) ;
#201 = EDGE_LOOP ( 'NONE', ( #197, #282 ) ) ;
#202 = CARTESIAN_POINT ( 'NONE',  ( 0.0000000000000000000, 0.0000000000000000000, 4.000000000000000000 ) ) ;
#203 = FACE_OUTER_BOUND ( 'NONE', #162, .T. ) ;
#204 = PRESENTATION_STYLE_ASSIGNMENT (( #284 ) ) ;
#205 = ORIENTED_EDGE ( 'NONE', *, *, #50, .T. ) ;
#206 = CARTESIAN_POINT ( 'NONE',  ( 0.0000000000000000000, 0.0000000000000000000, 1.500000000000000400 ) ) ;
#207 = DIRECTION ( 'NONE',  ( -0.0000000000000000000, 1.000000000000000000, -0.0000000000000000000 ) ) ;
#208 = VERTEX_POINT ( 'NONE', #145 ) ;
#209 = PLANE ( 'NONE',  #231 ) ;
#210 = ORIENTED_EDGE ( 'NONE', *, *, #169, .F. ) ;
#211 = ADVANCED_FACE ( 'NONE', ( #14 ), #125, .T. ) ;
#212 = ORIENTED_EDGE ( 'NONE', *, *, #71, .F. ) ;
#213 =( NAMED_UNIT ( * ) PLANE_ANGLE_UNIT ( ) SI_UNIT ( $, .RADIAN. ) );
#214 = CIRCLE ( 'NONE', #58, 4.000000000000000000 ) ;
#215 = DIRECTION ( 'NONE',  ( 0.0000000000000000000, 0.0000000000000000000, 1.000000000000000000 ) ) ;
#216 =( LENGTH_UNIT ( ) NAMED_UNIT ( * ) SI_UNIT ( .MILLI., .METRE. ) );
#217 = ORIENTED_EDGE ( 'NONE', *, *, #26, .T. ) ;
#218 = FACE_BOUND ( 'NONE', #244, .T. ) ;
#219 = ADVANCED_FACE ( 'NONE', ( #242, #241 ), #228, .F. ) ;
#220 = DIRECTION ( 'NONE',  ( -0.0000000000000000000, 1.000000000000000000, -0.0000000000000000000 ) ) ;
#221 = FACE_OUTER_BOUND ( 'NONE', #199, .T. ) ;
#222 = AXIS2_PLACEMENT_3D ( 'NONE', #60, #207, #233 ) ;
#223 = EDGE_LOOP ( 'NONE', ( #205, #69 ) ) ;
#224 =( GEOMETRIC_REPRESENTATION_CONTEXT ( 3 ) GLOBAL_UNCERTAINTY_ASSIGNED_CONTEXT ( ( #96 ) ) GLOBAL_UNIT_ASSIGNED_CONTEXT ( ( #10, #128, #12 ) ) REPRESENTATION_CONTEXT ( 'NONE', 'WORKASPACE' ) );
#225 = CYLINDRICAL_SURFACE ( 'NONE', #30, 1.500000000000000400 ) ;
#226 = EDGE_LOOP ( 'NONE', ( #175, #294, #160, #151 ) ) ;
#227 = PRODUCT_DEFINITION_CONTEXT ( 'detailed design', #15, 'design' ) ;
#228 = PLANE ( 'NONE',  #87 ) ;
#229 = DIRECTION ( 'NONE',  ( -0.0000000000000000000, 1.000000000000000000, -0.0000000000000000000 ) ) ;
#230 = FACE_OUTER_BOUND ( 'NONE', #183, .T. ) ;
#231 = AXIS2_PLACEMENT_3D ( 'NONE', #150, #45, #192 ) ;
#232 = ORIENTED_EDGE ( 'NONE', *, *, #50, .F. ) ;
#233 = DIRECTION ( 'NONE',  ( 0.0000000000000000000, 0.0000000000000000000, 1.000000000000000000 ) ) ;
#234 = CARTESIAN_POINT ( 'NONE',  ( 0.0000000000000000000, -4.000000000000000900, 1.500000000000000400 ) ) ;
#235 = CARTESIAN_POINT ( 'NONE',  ( 0.0000000000000000000, 0.0000000000000000000, 0.0000000000000000000 ) ) ;
#236 = ORIENTED_EDGE ( 'NONE', *, *, #90, .F. ) ;
#237 = PRODUCT_DEFINITION_FORMATION_WITH_SPECIFIED_SOURCE ( 'ÈÎºÎ', '', #256, .NOT_KNOWN. ) ;
#238 = CARTESIAN_POINT ( 'NONE',  ( 1.500000000000000400, 0.0000000000000000000, 0.0000000000000000000 ) ) ;
#239 = APPLICATION_PROTOCOL_DEFINITION ( 'draft international standard', 'automotive_design', 1998, #288 ) ;
#240 = VERTEX_POINT ( 'NONE', #234 ) ;
#241 = FACE_BOUND ( 'NONE', #135, .T. ) ;
#242 = FACE_OUTER_BOUND ( 'NONE', #49, .T. ) ;
#243 = EDGE_CURVE ( 'NONE', #141, #94, #52, .T. ) ;
#244 = EDGE_LOOP ( 'NONE', ( #4, #212 ) ) ;
#245 = ORIENTED_EDGE ( 'NONE', *, *, #95, .T. ) ;
#246 = ORIENTED_EDGE ( 'NONE', *, *, #38, .F. ) ;
#247 = DIRECTION ( 'NONE',  ( -0.0000000000000000000, 1.000000000000000000, -0.0000000000000000000 ) ) ;
#248 = CIRCLE ( 'NONE', #106, 5.000000000000000900 ) ;
#249 = DIRECTION ( 'NONE',  ( 0.0000000000000000000, 0.0000000000000000000, 1.000000000000000000 ) ) ;
#250 = ORIENTED_EDGE ( 'NONE', *, *, #71, .T. ) ;
#251 = CARTESIAN_POINT ( 'NONE',  ( 4.898587196589412800E-016, -3.000000000000000400, -4.000000000000000000 ) ) ;
#252 = ORIENTED_EDGE ( 'NONE', *, *, #38, .T. ) ;
#253 = AXIS2_PLACEMENT_3D ( 'NONE', #111, #107, #265 ) ;
#254 = ORIENTED_EDGE ( 'NONE', *, *, #243, .F. ) ;
#255 = CARTESIAN_POINT ( 'NONE',  ( 0.0000000000000000000, -3.000000000000000400, 4.000000000000000000 ) ) ;
#256 = PRODUCT ( '±­Ê½Öá³Ð', '±­Ê½Öá³Ð', '', ( #154 ) ) ;
#257 = SURFACE_STYLE_FILL_AREA ( #3 ) ;
#258 = CARTESIAN_POINT ( 'NONE',  ( 1.836970198721030400E-016, 0.0000000000000000000, -1.500000000000000400 ) ) ;
#259 = ORIENTED_EDGE ( 'NONE', *, *, #35, .F. ) ;
#260 = CARTESIAN_POINT ( 'NONE',  ( 0.0000000000000000000, 0.0000000000000000000, 0.0000000000000000000 ) ) ;
#261 = ADVANCED_FACE ( 'NONE', ( #230 ), #159, .F. ) ;
#262 = EDGE_CURVE ( 'NONE', #190, #141, #248, .T. ) ;
#263 = ORIENTED_EDGE ( 'NONE', *, *, #140, .T. ) ;
#264 = DIRECTION ( 'NONE',  ( -0.0000000000000000000, 1.000000000000000000, -0.0000000000000000000 ) ) ;
#265 = DIRECTION ( 'NONE',  ( 0.0000000000000000000, 0.0000000000000000000, 1.000000000000000000 ) ) ;
#266 = CARTESIAN_POINT ( 'NONE',  ( 0.0000000000000000000, 0.0000000000000000000, 0.0000000000000000000 ) ) ;
#267 = ADVANCED_FACE ( 'NONE', ( #218, #290 ), #209, .F. ) ;
#268 =( LENGTH_UNIT ( ) NAMED_UNIT ( * ) SI_UNIT ( .MILLI., .METRE. ) );
#269 = AXIS2_PLACEMENT_3D ( 'NONE', #33, #11, #280 ) ;
#270 = FACE_OUTER_BOUND ( 'NONE', #226, .T. ) ;
#271 = SURFACE_STYLE_FILL_AREA ( #155 ) ;
#272 = ORIENTED_EDGE ( 'NONE', *, *, #169, .T. ) ;
#273 = FACE_BOUND ( 'NONE', #201, .T. ) ;
#274 =( GEOMETRIC_REPRESENTATION_CONTEXT ( 3 ) GLOBAL_UNCERTAINTY_ASSIGNED_CONTEXT ( ( #191 ) ) GLOBAL_UNIT_ASSIGNED_CONTEXT ( ( #216, #213, #132 ) ) REPRESENTATION_CONTEXT ( 'NONE', 'WORKASPACE' ) );
#275 = DIRECTION ( 'NONE',  ( -0.0000000000000000000, 1.000000000000000000, -0.0000000000000000000 ) ) ;
#276 = VECTOR ( 'NONE', #220, 1000.000000000000000 ) ;
#277 = CYLINDRICAL_SURFACE ( 'NONE', #5, 5.000000000000000900 ) ;
#278 = UNCERTAINTY_MEASURE_WITH_UNIT (LENGTH_MEASURE( 1.000000000000000100E-005 ), #268, 'distance_accuracy_value', 'NONE');
#279 = DIRECTION ( 'NONE',  ( 0.0000000000000000000, 0.0000000000000000000, 1.000000000000000000 ) ) ;
#280 = DIRECTION ( 'NONE',  ( 0.0000000000000000000, 0.0000000000000000000, 1.000000000000000000 ) ) ;
#281 = DIRECTION ( 'NONE',  ( -0.0000000000000000000, 1.000000000000000000, -0.0000000000000000000 ) ) ;
#282 = ORIENTED_EDGE ( 'NONE', *, *, #95, .F. ) ;
#283 = VECTOR ( 'NONE', #61, 1000.000000000000000 ) ;
#284 = SURFACE_STYLE_USAGE ( .BOTH. , #123 ) ;
#285 = AXIS2_PLACEMENT_3D ( 'NONE', #57, #144, #37 ) ;
#286 = DIRECTION ( 'NONE',  ( 0.0000000000000000000, 0.0000000000000000000, 1.000000000000000000 ) ) ;
#287 = DIRECTION ( 'NONE',  ( 0.0000000000000000000, 0.0000000000000000000, 1.000000000000000000 ) ) ;
#288 = APPLICATION_CONTEXT ( 'automotive_design' ) ;
#289 = AXIS2_PLACEMENT_3D ( 'NONE', #97, #1, #249 ) ;
#290 = FACE_OUTER_BOUND ( 'NONE', #223, .T. ) ;
#291 = CARTESIAN_POINT ( 'NONE',  ( 0.0000000000000000000, -3.000000000000000400, 0.0000000000000000000 ) ) ;
#292 = VECTOR ( 'NONE', #173, 1000.000000000000000 ) ;
#293 = ORIENTED_EDGE ( 'NONE', *, *, #262, .F. ) ;
#294 = ORIENTED_EDGE ( 'NONE', *, *, #262, .T. ) ;
ENDSEC;
END-ISO-10303-21;
