  0
SECTION
  2
HEADER
  9
$ACADVER
  1
AC1015
  9
$ACADMAINTVER
 70
     6
  9
$DWGCODEPAGE
  3
ANSI_936
  9
$INSBASE
 10
0.0
 20
0.0
 30
0.0
  9
$EXTMIN
 10
0.0
 20
0.0
 30
0.0
  9
$EXTMAX
 10
297.0
 20
210.0
 30
0.0
  9
$LIMMIN
 10
0.0
 20
0.0
  9
$LIMMAX
 10
297.0
 20
210.0
  9
$ORTHOMODE
 70
     0
  9
$REGENMODE
 70
     1
  9
$FILLMODE
 70
     1
  9
$QTEXTMODE
 70
     0
  9
$MIRRTEXT
 70
     1
  9
$LTSCALE
 40
1.0
  9
$ATTMODE
 70
     1
  9
$TEXTSIZE
 40
3.5
  9
$TRACEWID
 40
1.0
  9
$TEXTSTYLE
  7
Standard
  9
$CLAYER
  8
0
  9
$CELTYPE
  6
ByLayer
  9
$CECOLOR
 62
   256
  9
$CELTSCALE
 40
1.0
  9
$DISPSILH
 70
     0
  9
$DIMSCALE
 40
1.0
  9
$DIMASZ
 40
4.08
  9
$DIMEXO
 40
0.0
  9
$DIMDLI
 40
3.75
  9
$DIMRND
 40
0.0
  9
$DIMDLE
 40
0.0
  9
$DIMEXE
 40
2.0
  9
$DIMTP
 40
0.0
  9
$DIMTM
 40
0.0
  9
$DIMTXT
 40
3.5
  9
$DIMCEN
 40
2.5
  9
$DIMTSZ
 40
0.0
  9
$DIMTOL
 70
     0
  9
$DIMLIM
 70
     0
  9
$DIMTIH
 70
     1
  9
$DIMTOH
 70
     1
  9
$DIMSE1
 70
     0
  9
$DIMSE2
 70
     0
  9
$DIMTAD
 70
     1
  9
$DIMZIN
 70
     0
  9
$DIMBLK
  1

  9
$DIMASO
 70
     1
  9
$DIMSHO
 70
     1
  9
$DIMPOST
  1

  9
$DIMAPOST
  1

  9
$DIMALT
 70
     0
  9
$DIMALTD
 70
     3
  9
$DIMALTF
 40
0.0393700787
  9
$DIMLFAC
 40
2.0
  9
$DIMTOFL
 70
     1
  9
$DIMTVP
 40
0.0
  9
$DIMTIX
 70
     0
  9
$DIMSOXD
 70
     0
  9
$DIMSAH
 70
     0
  9
$DIMBLK1
  1

  9
$DIMBLK2
  1

  9
$DIMSTYLE
  2
ISO-25
  9
$DIMCLRD
 70
     0
  9
$DIMCLRE
 70
     0
  9
$DIMCLRT
 70
     0
  9
$DIMTFAC
 40
1.0
  9
$DIMGAP
 40
1.524
  9
$DIMJUST
 70
     0
  9
$DIMSD1
 70
     0
  9
$DIMSD2
 70
     0
  9
$DIMTOLJ
 70
     0
  9
$DIMTZIN
 70
     0
  9
$DIMALTZ
 70
     0
  9
$DIMALTTZ
 70
     0
  9
$DIMUPT
 70
     0
  9
$DIMDEC
 70
     2
  9
$DIMTDEC
 70
     2
  9
$DIMALTU
 70
     2
  9
$DIMALTTD
 70
     3
  9
$DIMTXSTY
  7
Standard
  9
$DIMAUNIT
 70
     0
  9
$DIMADEC
 70
     2
  9
$DIMALTRND
 40
0.0
  9
$DIMAZIN
 70
     0
  9
$DIMDSEP
 70
    44
  9
$DIMATFIT
 70
     3
  9
$DIMFRAC
 70
     0
  9
$DIMLDRBLK
  1

  9
$DIMLUNIT
 70
     2
  9
$DIMLWD
 70
    -2
  9
$DIMLWE
 70
    -2
  9
$DIMTMOVE
 70
     0
  9
$LUNITS
 70
     2
  9
$LUPREC
 70
     2
  9
$SKETCHINC
 40
1.0
  9
$FILLETRAD
 40
10.0
  9
$AUNITS
 70
     0
  9
$AUPREC
 70
     2
  9
$MENU
  1
.
  9
$ELEVATION
 40
0.0
  9
$PELEVATION
 40
0.0
  9
$THICKNESS
 40
0.0
  9
$LIMCHECK
 70
     0
  9
$CHAMFERA
 40
0.0
  9
$CHAMFERB
 40
0.0
  9
$CHAMFERC
 40
0.0
  9
$CHAMFERD
 40
0.0
  9
$SKPOLY
 70
     0
  9
$TDCREATE
 40
2458347.726903426
  9
$TDUCREATE
 40
2458347.393570093
  9
$TDUPDATE
 40
2458347.726909132
  9
$TDUUPDATE
 40
2458347.393575799
  9
$TDINDWG
 40
0.0000000116
  9
$TDUSRTIMER
 40
0.0000000116
  9
$USRTIMER
 70
     1
  9
$ANGBASE
 50
0.0
  9
$ANGDIR
 70
     0
  9
$PDMODE
 70
     0
  9
$PDSIZE
 40
-1.0
  9
$PLINEWID
 40
0.0
  9
$SPLFRAME
 70
     0
  9
$SPLINETYPE
 70
     6
  9
$SPLINESEGS
 70
     8
  9
$HANDSEED
  5
2C9
  9
$SURFTAB1
 70
     6
  9
$SURFTAB2
 70
     6
  9
$SURFTYPE
 70
     6
  9
$SURFU
 70
     6
  9
$SURFV
 70
     6
  9
$UCSBASE
  2

  9
$UCSNAME
  2

  9
$UCSORG
 10
0.0
 20
0.0
 30
0.0
  9
$UCSXDIR
 10
1.0
 20
0.0
 30
0.0
  9
$UCSYDIR
 10
0.0
 20
1.0
 30
0.0
  9
$UCSORTHOREF
  2

  9
$UCSORTHOVIEW
 70
     0
  9
$UCSORGTOP
 10
0.0
 20
0.0
 30
0.0
  9
$UCSORGBOTTOM
 10
0.0
 20
0.0
 30
0.0
  9
$UCSORGLEFT
 10
0.0
 20
0.0
 30
0.0
  9
$UCSORGRIGHT
 10
0.0
 20
0.0
 30
0.0
  9
$UCSORGFRONT
 10
0.0
 20
0.0
 30
0.0
  9
$UCSORGBACK
 10
0.0
 20
0.0
 30
0.0
  9
$PUCSBASE
  2

  9
$PUCSNAME
  2

  9
$PUCSORG
 10
0.0
 20
0.0
 30
0.0
  9
$PUCSXDIR
 10
1.0
 20
0.0
 30
0.0
  9
$PUCSYDIR
 10
0.0
 20
1.0
 30
0.0
  9
$PUCSORTHOREF
  2

  9
$PUCSORTHOVIEW
 70
     0
  9
$PUCSORGTOP
 10
0.0
 20
0.0
 30
0.0
  9
$PUCSORGBOTTOM
 10
0.0
 20
0.0
 30
0.0
  9
$PUCSORGLEFT
 10
0.0
 20
0.0
 30
0.0
  9
$PUCSORGRIGHT
 10
0.0
 20
0.0
 30
0.0
  9
$PUCSORGFRONT
 10
0.0
 20
0.0
 30
0.0
  9
$PUCSORGBACK
 10
0.0
 20
0.0
 30
0.0
  9
$USERI1
 70
     0
  9
$USERI2
 70
     0
  9
$USERI3
 70
     0
  9
$USERI4
 70
     0
  9
$USERI5
 70
     0
  9
$USERR1
 40
0.0
  9
$USERR2
 40
0.0
  9
$USERR3
 40
0.0
  9
$USERR4
 40
0.0
  9
$USERR5
 40
0.0
  9
$WORLDVIEW
 70
     1
  9
$SHADEDGE
 70
     3
  9
$SHADEDIF
 70
    70
  9
$TILEMODE
 70
     1
  9
$MAXACTVP
 70
    64
  9
$PINSBASE
 10
0.0
 20
0.0
 30
0.0
  9
$PLIMCHECK
 70
     0
  9
$PEXTMIN
 10
1.0000000000E+20
 20
1.0000000000E+20
 30
1.0000000000E+20
  9
$PEXTMAX
 10
-1.0000000000E+20
 20
-1.0000000000E+20
 30
-1.0000000000E+20
  9
$PLIMMIN
 10
0.0
 20
0.0
  9
$PLIMMAX
 10
420.0
 20
297.0
  9
$UNITMODE
 70
     0
  9
$VISRETAIN
 70
     1
  9
$PLINEGEN
 70
     0
  9
$PSLTSCALE
 70
     1
  9
$TREEDEPTH
 70
  3020
  9
$CMLSTYLE
  2
Standard
  9
$CMLJUST
 70
     0
  9
$CMLSCALE
 40
20.0
  9
$PROXYGRAPHICS
 70
     1
  9
$MEASUREMENT
 70
     1
  9
$CELWEIGHT
370
    -1
  9
$ENDCAPS
280
     0
  9
$JOINSTYLE
280
     0
  9
$LWDISPLAY
290
     1
  9
$INSUNITS
 70
     4
  9
$HYPERLINKBASE
  1

  9
$STYLESHEET
  1

  9
$XEDIT
290
     1
  9
$CEPSNTYPE
380
     0
  9
$PSTYLEMODE
290
     1
  9
$FINGERPRINTGUID
  2
{0FD081FB-B3BE-435A-8E12-ABD88E895770}
  9
$VERSIONGUID
  2
{FAEB1C32-E019-11D5-929B-00C0DF256EC4}
  9
$EXTNAMES
290
     1
  9
$PSVPSCALE
 40
0.0
  9
$OLESTARTUP
290
     0
  0
ENDSEC
  0
SECTION
  2
CLASSES
  0
CLASS
  1
ACDBDICTIONARYWDFLT
  2
AcDbDictionaryWithDefault
  3
ObjectDBX Classes
 90
        0
280
     0
281
     0
  0
CLASS
  1
VISUALSTYLE
  2
AcDbVisualStyle
  3
ObjectDBX Classes
 90
     4095
280
     0
281
     0
  0
CLASS
  1
MATERIAL
  2
AcDbMaterial
  3
ObjectDBX Classes
 90
     1153
280
     0
281
     0
  0
CLASS
  1
SCALE
  2
AcDbScale
  3
ObjectDBX Classes
 90
     1153
280
     0
281
     0
  0
CLASS
  1
TABLESTYLE
  2
AcDbTableStyle
  3
ObjectDBX Classes
 90
     4095
280
     0
281
     0
  0
CLASS
  1
MLEADERSTYLE
  2
AcDbMLeaderStyle
  3
ACDB_MLEADERSTYLE_CLASS
 90
     4095
280
     0
281
     0
  0
CLASS
  1
SUN
  2
AcDbSun
  3
SCENEOE
 90
     1153
280
     0
281
     0
  0
CLASS
  1
ACDBPLACEHOLDER
  2
AcDbPlaceHolder
  3
ObjectDBX Classes
 90
        0
280
     0
281
     0
  0
CLASS
  1
LAYOUT
  2
AcDbLayout
  3
ObjectDBX Classes
 90
        0
280
     0
281
     0
  0
ENDSEC
  0
SECTION
  2
TABLES
  0
TABLE
  2
VPORT
  5
8
330
0
100
AcDbSymbolTable
 70
     1
  0
VPORT
  5
29
330
8
100
AcDbSymbolTableRecord
100
AcDbViewportTableRecord
  2
*Active
 70
     0
 10
0.0
 20
0.0
 11
1.0
 21
1.0
 12
148.5
 22
105.0
 13
0.0
 23
0.0
 14
10.0
 24
10.0
 15
10.0
 25
10.0
 16
0.0
 26
0.0
 36
1.0
 17
0.0
 27
0.0
 37
0.0
 40
210.0
 41
1.4142857143
 42
50.0
 43
0.0
 44
0.0
 50
0.0
 51
0.0
 71
     0
 72
  2000
 73
     1
 74
     3
 75
     0
 76
     0
 77
     0
 78
     0
281
     0
 65
     1
110
0.0
120
0.0
130
0.0
111
1.0
121
0.0
131
0.0
112
0.0
122
1.0
132
0.0
 79
     0
146
0.0
  0
ENDTAB
  0
TABLE
  2
LTYPE
  5
5
330
0
100
AcDbSymbolTable
 70
     6
  0
LTYPE
  5
14
330
5
100
AcDbSymbolTableRecord
100
AcDbLinetypeTableRecord
  2
ByBlock
 70
     0
  3

 72
    65
 73
     0
 40
0.0
  0
LTYPE
  5
15
330
5
100
AcDbSymbolTableRecord
100
AcDbLinetypeTableRecord
  2
ByLayer
 70
     0
  3

 72
    65
 73
     0
 40
0.0
  0
LTYPE
  5
16
330
5
100
AcDbSymbolTableRecord
100
AcDbLinetypeTableRecord
  2
Continuous
 70
     0
  3
Solid line
 72
    65
 73
     0
 40
0.0
  0
LTYPE
  5
6E
330
5
100
AcDbSymbolTableRecord
100
AcDbLinetypeTableRecord
  2
HIDDEN
 70
     0
  3
Hidden __ __ __ __ __ __ __ __ __ __ __ __ __ __
 72
    65
 73
     2
 40
1.905
 49
1.27
 74
     0
 49
-0.635
 74
     0
  0
LTYPE
  5
6F
330
5
100
AcDbSymbolTableRecord
100
AcDbLinetypeTableRecord
  2
PHANTOM
 70
     0
  3
Phantom ______  __  __  ______  __  __  ______
 72
    65
 73
     6
 40
12.7
 49
6.35
 74
     0
 49
-1.27
 74
     0
 49
1.27
 74
     0
 49
-1.27
 74
     0
 49
1.27
 74
     0
 49
-1.27
 74
     0
  0
LTYPE
  5
70
330
5
100
AcDbSymbolTableRecord
100
AcDbLinetypeTableRecord
  2
CENTER
 70
     0
  3
Center ____ _ ____ _ ____ _ ____ _ ____ _ ____
 72
    65
 73
     4
 40
10.16
 49
6.35
 74
     0
 49
-1.27
 74
     0
 49
1.27
 74
     0
 49
-1.27
 74
     0
  0
LTYPE
  5
71
330
5
100
AcDbSymbolTableRecord
100
AcDbLinetypeTableRecord
  2
CENTERX2
 70
     0
  3
Center (2x) ________  __  ________  __  _____
 72
    65
 73
     4
 40
20.32
 49
12.7
 74
     0
 49
-2.54
 74
     0
 49
2.54
 74
     0
 49
-2.54
 74
     0
  0
LTYPE
  5
72
330
5
100
AcDbSymbolTableRecord
100
AcDbLinetypeTableRecord
  2
DOT2
 70
     0
  3
Dot (.5x) ........................................
 72
    65
 73
     2
 40
0.635
 49
0.0
 74
     0
 49
-0.635
 74
     0
  0
ENDTAB
  0
TABLE
  2
LAYER
  5
2
330
0
100
AcDbSymbolTable
 70
    14
  0
LAYER
  5
10
330
2
100
AcDbSymbolTableRecord
100
AcDbLayerTableRecord
  2
0
 70
     0
 62
     7
  6
Continuous
370
    -3
390
F
  0
LAYER
  5
73
330
2
100
AcDbSymbolTableRecord
100
AcDbLayerTableRecord
  2
´ÖÊµÏß²ã
 70
     0
 62
     7
  6
Continuous
370
    25
390
F
  0
LAYER
  5
74
330
2
100
AcDbSymbolTableRecord
100
AcDbLayerTableRecord
  2
Ï¸ÊµÏß²ã
 70
     0
 62
     7
  6
Continuous
370
    -3
390
F
  0
LAYER
  5
75
330
2
100
AcDbSymbolTableRecord
100
AcDbLayerTableRecord
  2
ÖÐÐÄÏß²ã
 70
     0
 62
     7
  6
CENTERX2
370
    -3
390
F
  0
LAYER
  5
76
330
2
100
AcDbSymbolTableRecord
100
AcDbLayerTableRecord
  2
ÐéÏß²ã
 70
     0
 62
     7
  6
HIDDEN
370
    -3
390
F
  0
LAYER
  5
77
330
2
100
AcDbSymbolTableRecord
100
AcDbLayerTableRecord
  2
Ë«µã»®Ïß²ã
 70
     0
 62
     7
  6
PHANTOM
370
    -3
390
F
  0
LAYER
  5
78
330
2
100
AcDbSymbolTableRecord
100
AcDbLayerTableRecord
  2
µã»®Ïß²ã
 70
     0
 62
     7
  6
CENTER
370
    -3
390
F
  0
LAYER
  5
79
330
2
100
AcDbSymbolTableRecord
100
AcDbLayerTableRecord
  2
Í¼¿ò
 70
     0
 62
     7
  6
Continuous
370
    -3
390
F
  0
LAYER
  5
7A
330
2
100
AcDbSymbolTableRecord
100
AcDbLayerTableRecord
  2
ÂÖÀªÊµÏß²ã
 70
     0
 62
     7
  6
Continuous
370
    50
390
F
  0
LAYER
  5
7B
330
2
100
AcDbSymbolTableRecord
100
AcDbLayerTableRecord
  2
Ï¸Ïß²ã
 70
     0
 62
     4
  6
Continuous
370
    25
390
F
  0
LAYER
  5
7C
330
2
100
AcDbSymbolTableRecord
100
AcDbLayerTableRecord
  2
ÆÊÃæÏß²ã
 70
     0
 62
     2
  6
Continuous
370
    25
390
F
  0
LAYER
  5
7D
330
2
100
AcDbSymbolTableRecord
100
AcDbLayerTableRecord
  2
ÎÄ×Ö²ã
 70
     0
 62
     3
  6
Continuous
370
    25
390
F
  0
LAYER
  5
7E
330
2
100
AcDbSymbolTableRecord
100
AcDbLayerTableRecord
  2
±ê×¢²ã
 70
     0
 62
     4
  6
Continuous
370
    25
390
F
  0
LAYER
  5
7F
330
2
100
AcDbSymbolTableRecord
100
AcDbLayerTableRecord
  2
·ûºÅ±ê×¢²ã
 70
     0
 62
    31
  6
Continuous
370
    25
390
F
  0
ENDTAB
  0
TABLE
  2
STYLE
  5
3
330
0
100
AcDbSymbolTable
 70
     7
  0
STYLE
  5
11
330
3
100
AcDbSymbolTableRecord
100
AcDbTextStyleTableRecord
  2
Standard
 70
     0
 40
0.0
 41
1.0
 50
0.0
 71
     0
 42
3.5
  3
txt
  4

  0
STYLE
  5
C3
330
3
100
AcDbSymbolTableRecord
100
AcDbTextStyleTableRecord
  2
SLDTEXTSTYLE0
 70
     0
 40
0.0
 41
0.7
 50
0.0
 71
     0
 42
3.5
  3
TXT
  4
bigfont
  0
STYLE
  5
CA
330
3
100
AcDbSymbolTableRecord
100
AcDbTextStyleTableRecord
  2
SLDTEXTSTYLE1
 70
     0
 40
0.0
 41
0.6
 50
0.0
 71
     0
 42
3.5
  3
TXT
  4
bigfont
  0
STYLE
  5
CD
330
3
100
AcDbSymbolTableRecord
100
AcDbTextStyleTableRecord
  2
SLDTEXTSTYLE2
 70
     0
 40
0.0
 41
0.6142857143
 50
0.0
 71
     0
 42
3.5
  3
TXT
  4
bigfont
  0
STYLE
  5
D2
330
3
100
AcDbSymbolTableRecord
100
AcDbTextStyleTableRecord
  2
SLDTEXTSTYLE3
 70
     0
 40
0.0
 41
0.62
 50
0.0
 71
     0
 42
3.5
  3
TXT
  4
bigfont
  0
STYLE
  5
DF
330
3
100
AcDbSymbolTableRecord
100
AcDbTextStyleTableRecord
  2
SLDTEXTSTYLE4
 70
     0
 40
0.0
 41
0.5666666667
 50
0.0
 71
     0
 42
3.5
  3
TXT
  4
bigfont
  0
STYLE
  5
E1
330
3
100
AcDbSymbolTableRecord
100
AcDbTextStyleTableRecord
  2
SLDTEXTSTYLE5
 70
     0
 40
0.0
 41
0.7
 50
0.0
 71
     0
 42
3.5
  3
TXT
  4

  0
ENDTAB
  0
TABLE
  2
VIEW
  5
6
330
0
100
AcDbSymbolTable
 70
     0
  0
ENDTAB
  0
TABLE
  2
UCS
  5
7
330
0
100
AcDbSymbolTable
 70
     0
  0
ENDTAB
  0
TABLE
  2
APPID
  5
9
330
0
100
AcDbSymbolTable
 70
     1
  0
APPID
  5
12
330
9
100
AcDbSymbolTableRecord
100
AcDbRegAppTableRecord
  2
ACAD
 70
     0
  0
ENDTAB
  0
TABLE
  2
DIMSTYLE
  5
A
330
0
100
AcDbSymbolTable
 70
     5
100
AcDbDimStyleTable
  0
DIMSTYLE
105
27
330
A
100
AcDbSymbolTableRecord
100
AcDbDimStyleTableRecord
  2
ISO-25
 70
     0
 41
2.5
 42
0.625
 43
3.75
 44
1.25
 73
     0
 74
     0
 77
     1
 78
     8
140
2.5
141
2.5
143
0.0393700787
147
0.625
171
     3
172
     1
178
     0
271
     2
272
     2
274
     3
278
    44
283
     0
284
     8
340
11
  0
DIMSTYLE
105
118
102
{ACAD_REACTORS
330
117
330
139
330
142
330
14B
330
154
102
}
330
A
100
AcDbSymbolTableRecord
100
AcDbDimStyleTableRecord
  2
SLDDIMSTYLE0
 70
     0
 41
4.08
 44
0.0
 45
0.000000001
 73
     0
 74
     0
 77
     2
 78
    12
 79
     3
140
3.5
141
0.0
144
2.0
147
0.875
172
     1
173
     1
178
     0
271
     2
272
     2
276
     2
284
    12
340
E1
341
119
343
119
  0
DIMSTYLE
105
125
102
{ACAD_REACTORS
330
124
330
12F
102
}
330
A
100
AcDbSymbolTableRecord
100
AcDbDimStyleTableRecord
  2
SLDDIMSTYLE1
 70
     0
 41
4.08
 44
0.0
 45
0.000000001
 73
     0
 74
     0
 77
     2
 78
     4
 79
     1
140
3.5
144
2.0
147
0.875
173
     1
178
     0
271
     2
272
     2
276
     2
284
    12
340
E1
  0
DIMSTYLE
105
15E
102
{ACAD_REACTORS
330
15D
330
2A9
330
2BD
102
}
330
A
100
AcDbSymbolTableRecord
100
AcDbDimStyleTableRecord
  2
SLDDIMSTYLE2
 70
     0
 41
4.08
 44
0.0
 45
0.000000001
 73
     0
 74
     0
 77
     2
 78
    12
 79
     3
140
3.5
144
2.0
147
0.875
172
     1
173
     1
178
     0
271
     2
272
     2
276
     2
284
    12
289
     0
340
E1
  0
DIMSTYLE
105
169
102
{ACAD_REACTORS
330
168
102
}
330
A
100
AcDbSymbolTableRecord
100
AcDbDimStyleTableRecord
  2
SLDDIMSTYLE3
 70
     0
 41
4.08
 44
0.0
 45
0.000000001
 73
     0
 74
     0
 77
     2
 78
     4
 79
     1
140
3.5
144
2.0
147
0.875
172
     1
173
     1
178
     0
271
     2
272
     2
276
     2
284
    12
289
     0
340
E1
  0
ENDTAB
  0
TABLE
  2
BLOCK_RECORD
  5
1
330
0
100
AcDbSymbolTable
 70
    38
  0
BLOCK_RECORD
  5
1F
330
1
100
AcDbSymbolTableRecord
100
AcDbBlockTableRecord
  2
*Model_Space
340
22
  0
BLOCK_RECORD
  5
1B
330
1
100
AcDbSymbolTableRecord
100
AcDbBlockTableRecord
  2
*Paper_Space
340
1E
  0
BLOCK_RECORD
  5
23
330
1
100
AcDbSymbolTableRecord
100
AcDbBlockTableRecord
  2
*Paper_Space0
340
26
  0
BLOCK_RECORD
  5
119
330
1
100
AcDbSymbolTableRecord
100
AcDbBlockTableRecord
  2
_NONE
340
0
  0
BLOCK_RECORD
  5
11C
330
1
100
AcDbSymbolTableRecord
100
AcDbBlockTableRecord
  2
_D
340
0
  0
BLOCK_RECORD
  5
126
330
1
100
AcDbSymbolTableRecord
100
AcDbBlockTableRecord
  2
_D_1
340
0
  0
BLOCK_RECORD
  5
130
330
1
100
AcDbSymbolTableRecord
100
AcDbBlockTableRecord
  2
_D_2
340
0
  0
BLOCK_RECORD
  5
13A
330
1
100
AcDbSymbolTableRecord
100
AcDbBlockTableRecord
  2
_D_3
340
0
  0
BLOCK_RECORD
  5
143
330
1
100
AcDbSymbolTableRecord
100
AcDbBlockTableRecord
  2
_D_4
340
0
  0
BLOCK_RECORD
  5
14C
330
1
100
AcDbSymbolTableRecord
100
AcDbBlockTableRecord
  2
_D_5
340
0
  0
BLOCK_RECORD
  5
155
330
1
100
AcDbSymbolTableRecord
100
AcDbBlockTableRecord
  2
_D_6
340
0
  0
BLOCK_RECORD
  5
15F
330
1
100
AcDbSymbolTableRecord
100
AcDbBlockTableRecord
  2
_D_7
340
0
  0
BLOCK_RECORD
  5
16A
330
1
100
AcDbSymbolTableRecord
100
AcDbBlockTableRecord
  2
_D_8
340
0
  0
BLOCK_RECORD
  5
173
330
1
100
AcDbSymbolTableRecord
100
AcDbBlockTableRecord
  2
SW_CENTERMARKSYMBOL_0
340
0
102
{BLKREFS
331
17E
102
}
  0
BLOCK_RECORD
  5
17F
330
1
100
AcDbSymbolTableRecord
100
AcDbBlockTableRecord
  2
SW_CENTERMARKSYMBOL_1
340
0
102
{BLKREFS
331
18A
102
}
  0
BLOCK_RECORD
  5
18B
330
1
100
AcDbSymbolTableRecord
100
AcDbBlockTableRecord
  2
SW_CENTERMARKSYMBOL_2
340
0
102
{BLKREFS
331
196
102
}
  0
BLOCK_RECORD
  5
197
330
1
100
AcDbSymbolTableRecord
100
AcDbBlockTableRecord
  2
SW_CENTERMARKSYMBOL_3
340
0
102
{BLKREFS
331
1A2
102
}
  0
BLOCK_RECORD
  5
1A3
330
1
100
AcDbSymbolTableRecord
100
AcDbBlockTableRecord
  2
SW_CENTERMARKSYMBOL_4
340
0
102
{BLKREFS
331
1AE
102
}
  0
BLOCK_RECORD
  5
1AF
330
1
100
AcDbSymbolTableRecord
100
AcDbBlockTableRecord
  2
SW_CENTERMARKSYMBOL_5
340
0
102
{BLKREFS
331
1BA
102
}
  0
BLOCK_RECORD
  5
1BB
330
1
100
AcDbSymbolTableRecord
100
AcDbBlockTableRecord
  2
SW_CENTERMARKSYMBOL_6
340
0
102
{BLKREFS
331
1C6
102
}
  0
BLOCK_RECORD
  5
1C7
330
1
100
AcDbSymbolTableRecord
100
AcDbBlockTableRecord
  2
SW_CENTERMARKSYMBOL_7
340
0
102
{BLKREFS
331
1D2
102
}
  0
BLOCK_RECORD
  5
1D3
330
1
100
AcDbSymbolTableRecord
100
AcDbBlockTableRecord
  2
SW_CENTERMARKSYMBOL_8
340
0
102
{BLKREFS
331
1DE
102
}
  0
BLOCK_RECORD
  5
1DF
330
1
100
AcDbSymbolTableRecord
100
AcDbBlockTableRecord
  2
SW_CENTERMARKSYMBOL_9
340
0
102
{BLKREFS
331
1EA
102
}
  0
BLOCK_RECORD
  5
1EB
330
1
100
AcDbSymbolTableRecord
100
AcDbBlockTableRecord
  2
SW_CENTERMARKSYMBOL_10
340
0
102
{BLKREFS
331
1F6
102
}
  0
BLOCK_RECORD
  5
1F7
330
1
100
AcDbSymbolTableRecord
100
AcDbBlockTableRecord
  2
SW_CENTERMARKSYMBOL_11
340
0
102
{BLKREFS
331
202
102
}
  0
BLOCK_RECORD
  5
203
330
1
100
AcDbSymbolTableRecord
100
AcDbBlockTableRecord
  2
SW_CENTERMARKSYMBOL_12
340
0
102
{BLKREFS
331
20E
102
}
  0
BLOCK_RECORD
  5
20F
330
1
100
AcDbSymbolTableRecord
100
AcDbBlockTableRecord
  2
SW_CENTERMARKSYMBOL_13
340
0
102
{BLKREFS
331
21A
102
}
  0
BLOCK_RECORD
  5
21B
330
1
100
AcDbSymbolTableRecord
100
AcDbBlockTableRecord
  2
SW_CENTERMARKSYMBOL_14
340
0
102
{BLKREFS
331
226
102
}
  0
BLOCK_RECORD
  5
227
330
1
100
AcDbSymbolTableRecord
100
AcDbBlockTableRecord
  2
SW_CENTERMARKSYMBOL_15
340
0
102
{BLKREFS
331
232
102
}
  0
BLOCK_RECORD
  5
233
330
1
100
AcDbSymbolTableRecord
100
AcDbBlockTableRecord
  2
SW_CENTERMARKSYMBOL_16
340
0
102
{BLKREFS
331
23E
102
}
  0
BLOCK_RECORD
  5
23F
330
1
100
AcDbSymbolTableRecord
100
AcDbBlockTableRecord
  2
SW_CENTERMARKSYMBOL_17
340
0
102
{BLKREFS
331
24A
102
}
  0
BLOCK_RECORD
  5
24B
330
1
100
AcDbSymbolTableRecord
100
AcDbBlockTableRecord
  2
SW_CENTERMARKSYMBOL_18
340
0
102
{BLKREFS
331
256
102
}
  0
BLOCK_RECORD
  5
257
330
1
100
AcDbSymbolTableRecord
100
AcDbBlockTableRecord
  2
SW_CENTERMARKSYMBOL_19
340
0
102
{BLKREFS
331
262
102
}
  0
BLOCK_RECORD
  5
263
330
1
100
AcDbSymbolTableRecord
100
AcDbBlockTableRecord
  2
SW_CENTERMARKSYMBOL_20
340
0
102
{BLKREFS
331
26E
102
}
  0
BLOCK_RECORD
  5
26F
330
1
100
AcDbSymbolTableRecord
100
AcDbBlockTableRecord
  2
SW_CENTERMARKSYMBOL_21
340
0
102
{BLKREFS
331
27A
102
}
  0
BLOCK_RECORD
  5
27B
330
1
100
AcDbSymbolTableRecord
100
AcDbBlockTableRecord
  2
SW_CENTERMARKSYMBOL_22
340
0
102
{BLKREFS
331
286
102
}
  0
BLOCK_RECORD
  5
287
330
1
100
AcDbSymbolTableRecord
100
AcDbBlockTableRecord
  2
SW_CENTERMARKSYMBOL_23
340
0
102
{BLKREFS
331
292
102
}
  0
BLOCK_RECORD
  5
293
330
1
100
AcDbSymbolTableRecord
100
AcDbBlockTableRecord
  2
SW_CENTERMARKSYMBOL_24
340
0
102
{BLKREFS
331
29E
102
}
  0
BLOCK_RECORD
  5
2AA
330
1
100
AcDbSymbolTableRecord
100
AcDbBlockTableRecord
  2
_D_9
340
0
  0
BLOCK_RECORD
  5
2BE
330
1
100
AcDbSymbolTableRecord
100
AcDbBlockTableRecord
  2
_D_10
340
0
  0
ENDTAB
  0
ENDSEC
  0
SECTION
  2
BLOCKS
  0
BLOCK
  5
20
330
1F
100
AcDbEntity
  8
0
100
AcDbBlockBegin
  2
*Model_Space
 70
     0
 10
0.0
 20
0.0
 30
0.0
  3
*Model_Space
  1

  0
ENDBLK
  5
21
330
1F
100
AcDbEntity
  8
0
100
AcDbBlockEnd
  0
BLOCK
  5
1C
330
1B
100
AcDbEntity
 67
     1
  8
0
100
AcDbBlockBegin
  2
*Paper_Space
 70
     0
 10
0.0
 20
0.0
 30
0.0
  3
*Paper_Space
  1

  0
ENDBLK
  5
1D
330
1B
100
AcDbEntity
 67
     1
  8
0
100
AcDbBlockEnd
  0
BLOCK
  5
24
330
23
100
AcDbEntity
  8
0
100
AcDbBlockBegin
  2
*Paper_Space0
 70
     0
 10
0.0
 20
0.0
 30
0.0
  3
*Paper_Space0
  1

  0
ENDBLK
  5
25
330
23
100
AcDbEntity
  8
0
100
AcDbBlockEnd
  0
BLOCK
  5
11A
330
119
100
AcDbEntity
  8
0
100
AcDbBlockBegin
  2
_NONE
 70
     0
 10
0.0
 20
0.0
 30
0.0
  3
_NONE
  1

  0
ENDBLK
  5
11B
330
119
100
AcDbEntity
  8
0
100
AcDbBlockEnd
  0
BLOCK
  5
11D
330
11C
100
AcDbEntity
  8
0
100
AcDbBlockBegin
  2
_D
 70
     0
 10
0.0
 20
0.0
 30
0.0
  3
_D
  1

  0
SOLID
  5
11F
330
11C
100
AcDbEntity
  8
Í¼¿ò
100
AcDbTrace
 10
78.3455509348
 20
171.8659451616
 30
0.0
 11
82.0146074121
 21
173.7213396121
 31
0.0
 12
81.447607341
 22
174.5644095495
 32
0.0
 13
81.447607341
 23
174.5644095495
 33
0.0
  0
LINE
  5
120
330
11C
100
AcDbEntity
  8
Í¼¿ò
100
AcDbLine
 10
78.3455509348
 20
171.8659451616
 30
0.0
 11
85.3428960184
 21
176.5719546909
 31
0.0
  0
LINE
  5
121
330
11C
100
AcDbEntity
  8
Í¼¿ò
100
AcDbLine
 10
78.3455509348
 20
171.8659451616
 30
0.0
 11
71.7072049707
 21
167.401377673
 31
0.0
  0
MTEXT
  5
122
330
11C
100
AcDbEntity
  8
Í¼¿ò
100
AcDbMText
 10
76.9171647353
 20
176.2307189912
 30
0.0
 40
3.5
 41
0.0
 71
     1
 72
     1
  1
%%c
  7
SLDTEXTSTYLE5
 11
0.8297932455211812
 21
0.5580709360712353
 31
0.0
 73
     1
 44
1.0
  0
MTEXT
  5
123
330
11C
100
AcDbEntity
  8
Í¼¿ò
100
AcDbMText
 10
80.3396430926
 20
178.5149053492
 30
0.0
 40
3.5
 41
0.0
 71
     1
 72
     1
  1
16
  7
SLDTEXTSTYLE5
 11
0.8297932455211812
 21
0.5580709360712353
 31
0.0
 73
     1
 44
1.0
  0
ENDBLK
  5
11E
330
11C
100
AcDbEntity
  8
0
100
AcDbBlockEnd
  0
BLOCK
  5
127
330
126
100
AcDbEntity
  8
0
100
AcDbBlockBegin
  2
_D_1
 70
     0
 10
0.0
 20
0.0
 30
0.0
  3
_D_1
  1

  0
SOLID
  5
129
330
126
100
AcDbEntity
  8
Í¼¿ò
100
AcDbTrace
 10
62.6456834166
 20
178.8836614173
 30
0.0
 11
62.1376834166
 21
174.8036614173
 31
0.0
 12
63.1536834166
 22
174.8036614173
 32
0.0
 13
63.1536834166
 23
174.8036614173
 33
0.0
  0
SOLID
  5
12A
330
126
100
AcDbEntity
  8
Í¼¿ò
100
AcDbTrace
 10
62.6456834166
 20
117.1336614173
 30
0.0
 11
63.1536834166
 21
121.2136614173
 31
0.0
 12
62.1376834166
 22
121.2136614173
 32
0.0
 13
62.1376834166
 23
121.2136614173
 33
0.0
  0
LINE
  5
12B
330
126
100
AcDbEntity
  8
Í¼¿ò
100
AcDbLine
 10
69.6953423981
 20
178.8836614173
 30
0.0
 11
60.6456834166
 21
178.8836614173
 31
0.0
  0
LINE
  5
12C
330
126
100
AcDbEntity
  8
Í¼¿ò
100
AcDbLine
 10
69.6953423981
 20
117.1336614173
 30
0.0
 11
60.6456834166
 21
117.1336614173
 31
0.0
  0
LINE
  5
12D
330
126
100
AcDbEntity
  8
Í¼¿ò
100
AcDbLine
 10
62.6456834166
 20
178.8836614173
 30
0.0
 11
62.6456834166
 21
117.1336614173
 31
0.0
  0
MTEXT
  5
12E
330
126
100
AcDbEntity
  8
Í¼¿ò
100
AcDbMText
 10
58.1339460945
 20
133.1408441861
 30
0.0
 40
3.5
 41
0.0
 71
     1
 72
     1
  1
123.50
  7
SLDTEXTSTYLE5
 11
-7.044195017643634E-15
 21
1.0
 31
0.0
 73
     1
 44
1.0
  0
ENDBLK
  5
128
330
126
100
AcDbEntity
  8
0
100
AcDbBlockEnd
  0
BLOCK
  5
131
330
130
100
AcDbEntity
  8
0
100
AcDbBlockBegin
  2
_D_2
 70
     0
 10
0.0
 20
0.0
 30
0.0
  3
_D_2
  1

  0
SOLID
  5
133
330
130
100
AcDbEntity
  8
Í¼¿ò
100
AcDbTrace
 10
65.4013779528
 20
112.8884392379
 30
0.0
 11
69.4813779528
 21
112.3804392379
 31
0.0
 12
69.4813779528
 22
113.3964392379
 32
0.0
 13
69.4813779528
 23
113.3964392379
 33
0.0
  0
SOLID
  5
134
330
130
100
AcDbEntity
  8
Í¼¿ò
100
AcDbTrace
 10
97.1513779528
 20
112.8884392379
 30
0.0
 11
93.0713779528
 21
113.3964392379
 31
0.0
 12
93.0713779528
 22
112.3804392379
 32
0.0
 13
93.0713779528
 23
112.3804392379
 33
0.0
  0
LINE
  5
135
330
130
100
AcDbEntity
  8
Í¼¿ò
100
AcDbLine
 10
65.4013779528
 20
121.4276258627
 30
0.0
 11
65.4013779528
 21
110.8884392379
 31
0.0
  0
LINE
  5
136
330
130
100
AcDbEntity
  8
Í¼¿ò
100
AcDbLine
 10
97.1513779528
 20
121.4276258627
 30
0.0
 11
97.1513779528
 21
110.8884392379
 31
0.0
  0
LINE
  5
137
330
130
100
AcDbEntity
  8
Í¼¿ò
100
AcDbLine
 10
65.4013779528
 20
112.8884392379
 30
0.0
 11
97.1513779528
 21
112.8884392379
 31
0.0
  0
MTEXT
  5
138
330
130
100
AcDbEntity
  8
Í¼¿ò
100
AcDbMText
 10
84.0375681277
 20
117.40017656
 30
0.0
 40
3.5
 41
0.0
 71
     1
 72
     1
  1
63.50
  7
SLDTEXTSTYLE5
 73
     1
 44
1.0
  0
ENDBLK
  5
132
330
130
100
AcDbEntity
  8
0
100
AcDbBlockEnd
  0
BLOCK
  5
13B
330
13A
100
AcDbEntity
  8
0
100
AcDbBlockBegin
  2
_D_3
 70
     0
 10
0.0
 20
0.0
 30
0.0
  3
_D_3
  1

  0
SOLID
  5
13D
330
13A
100
AcDbEntity
  8
Í¼¿ò
100
AcDbTrace
 10
77.8889105925
 20
142.0784207516
 30
0.0
 11
81.2739493053
 21
144.4120824479
 31
0.0
 12
80.5983411099
 22
145.1709036167
 32
0.0
 13
80.5983411099
 23
145.1709036167
 33
0.0
  0
LINE
  5
13E
330
13A
100
AcDbEntity
  8
Í¼¿ò
100
AcDbLine
 10
77.8889105925
 20
142.0784207516
 30
0.0
 11
82.8005149969
 21
146.451414448
 31
0.0
  0
LINE
  5
13F
330
13A
100
AcDbEntity
  8
Í¼¿ò
100
AcDbLine
 10
77.8889105925
 20
142.0784207516
 30
0.0
 11
71.9139407588
 21
136.7586711817
 31
0.0
  0
MTEXT
  5
140
330
13A
100
AcDbEntity
  8
Í¼¿ò
100
AcDbMText
 10
74.5329356429
 20
144.9367093428
 30
0.0
 40
3.5
 41
0.0
 71
     1
 72
     1
  1
%%c
  7
SLDTEXTSTYLE5
 11
0.7468712292055831
 21
0.664968696244373
 31
0.0
 73
     1
 44
1.0
  0
MTEXT
  5
141
330
13A
100
AcDbEntity
  8
Í¼¿ò
100
AcDbMText
 10
77.6157747418
 20
147.661955848
 30
0.0
 40
3.5
 41
0.0
 71
     1
 72
     1
  1
16
  7
SLDTEXTSTYLE5
 11
0.7468712292055831
 21
0.664968696244373
 31
0.0
 73
     1
 44
1.0
  0
ENDBLK
  5
13C
330
13A
100
AcDbEntity
  8
0
100
AcDbBlockEnd
  0
BLOCK
  5
144
330
143
100
AcDbEntity
  8
0
100
AcDbBlockBegin
  2
_D_4
 70
     0
 10
0.0
 20
0.0
 30
0.0
  3
_D_4
  1

  0
SOLID
  5
146
330
143
100
AcDbEntity
  8
Í¼¿ò
100
AcDbTrace
 10
83.0420614367
 20
160.5730025877
 30
0.0
 11
86.8826484013
 21
162.0407749705
 31
0.0
 12
86.4054630867
 22
162.9377421803
 32
0.0
 13
86.4054630867
 23
162.9377421803
 33
0.0
  0
LINE
  5
147
330
143
100
AcDbEntity
  8
Í¼¿ò
100
AcDbLine
 10
83.0420614367
 20
160.5730025877
 30
0.0
 11
89.8602908967
 21
164.2002912265
 31
0.0
  0
LINE
  5
148
330
143
100
AcDbEntity
  8
Í¼¿ò
100
AcDbLine
 10
83.0420614367
 20
160.5730025877
 30
0.0
 11
79.5106944688
 21
158.6943202469
 31
0.0
  0
MTEXT
  5
149
330
143
100
AcDbEntity
  8
Í¼¿ò
100
AcDbMText
 10
82.82657496
 20
165.4005382968
 30
0.0
 40
3.5
 41
0.0
 71
     1
 72
     1
  1
%%c
  7
SLDTEXTSTYLE5
 11
0.8828417419852795
 21
0.4696705852066926
 31
0.0
 73
     1
 44
1.0
  0
MTEXT
  5
14A
330
143
100
AcDbEntity
  8
Í¼¿ò
100
AcDbMText
 10
86.4660421317
 20
167.3202112195
 30
0.0
 40
3.5
 41
0.0
 71
     1
 72
     1
  1
8
  7
SLDTEXTSTYLE5
 11
0.8828417419852795
 21
0.4696705852066926
 31
0.0
 73
     1
 44
1.0
  0
ENDBLK
  5
145
330
143
100
AcDbEntity
  8
0
100
AcDbBlockEnd
  0
BLOCK
  5
14D
330
14C
100
AcDbEntity
  8
0
100
AcDbBlockBegin
  2
_D_5
 70
     0
 10
0.0
 20
0.0
 30
0.0
  3
_D_5
  1

  0
SOLID
  5
14F
330
14C
100
AcDbEntity
  8
Í¼¿ò
100
AcDbTrace
 10
77.1974333541
 20
160.1104455945
 30
0.0
 11
74.3709165532
 21
163.0962899935
 31
0.0
 12
73.7250329212
 22
162.3120130438
 32
0.0
 13
73.7250329212
 23
162.3120130438
 33
0.0
  0
LINE
  5
150
330
14C
100
AcDbEntity
  8
Í¼¿ò
100
AcDbLine
 10
77.1974333541
 20
160.1104455945
 30
0.0
 11
73.3761502465
 21
163.257426025
 31
0.0
  0
LINE
  5
151
330
14C
100
AcDbEntity
  8
Í¼¿ò
100
AcDbLine
 10
77.1974333541
 20
160.1104455945
 30
0.0
 11
78.3553225514
 21
159.1568772401
 31
0.0
  0
MTEXT
  5
152
330
14C
100
AcDbEntity
  8
Í¼¿ò
100
AcDbMText
 10
75.9135669648
 20
166.3385343625
 30
0.0
 40
3.5
 41
0.0
 71
     1
 72
     1
  1
%%c
  7
SLDTEXTSTYLE5
 11
0.7719261315841348
 21
-0.6357122362968587
 31
0.0
 73
     1
 44
1.0
  0
MTEXT
  5
153
330
14C
100
AcDbEntity
  8
Í¼¿ò
100
AcDbMText
 10
79.0805309498
 20
163.7115199846
 30
0.0
 40
3.5
 41
0.0
 71
     1
 72
     1
  1
3
  7
SLDTEXTSTYLE5
 11
0.7719261315841348
 21
-0.6357122362968587
 31
0.0
 73
     1
 44
1.0
  0
ENDBLK
  5
14E
330
14C
100
AcDbEntity
  8
0
100
AcDbBlockEnd
  0
BLOCK
  5
156
330
155
100
AcDbEntity
  8
0
100
AcDbBlockBegin
  2
_D_6
 70
     0
 10
0.0
 20
0.0
 30
0.0
  3
_D_6
  1

  0
SOLID
  5
158
330
155
100
AcDbEntity
  8
Í¼¿ò
100
AcDbTrace
 10
68.6900702981
 20
159.6110810176
 30
0.0
 11
68.324464224
 21
163.7062972755
 31
0.0
 12
67.3314059101
 22
163.4916086983
 32
0.0
 13
67.3314059101
 23
163.4916086983
 33
0.0
  0
LINE
  5
159
330
155
100
AcDbEntity
  8
Í¼¿ò
100
AcDbLine
 10
68.6900702981
 20
159.6110810176
 30
0.0
 11
67.5631487795
 21
164.8237420639
 31
0.0
  0
LINE
  5
15A
330
155
100
AcDbEntity
  8
Í¼¿ò
100
AcDbLine
 10
68.6900702981
 20
159.6110810176
 30
0.0
 11
69.1126856074
 21
157.656241817
 31
0.0
  0
MTEXT
  5
15B
330
155
100
AcDbEntity
  8
Í¼¿ò
100
AcDbMText
 10
71.5696305352
 20
165.6899005316
 30
0.0
 40
3.5
 41
0.0
 71
     1
 72
     1
  1
%%c
  7
SLDTEXTSTYLE5
 11
0.2113076546732852
 21
-0.9774196003132307
 31
0.0
 73
     1
 44
1.0
  0
MTEXT
  5
15C
330
155
100
AcDbEntity
  8
Í¼¿ò
100
AcDbMText
 10
72.4248414958
 20
161.6650428152
 30
0.0
 40
3.5
 41
0.0
 71
     1
 72
     1
  1
4
  7
SLDTEXTSTYLE5
 11
0.2113076546732852
 21
-0.9774196003132307
 31
0.0
 73
     1
 44
1.0
  0
ENDBLK
  5
157
330
155
100
AcDbEntity
  8
0
100
AcDbBlockEnd
  0
BLOCK
  5
160
330
15F
100
AcDbEntity
  8
0
100
AcDbBlockBegin
  2
_D_7
 70
     0
 10
0.0
 20
0.0
 30
0.0
  3
_D_7
  1

  0
SOLID
  5
162
330
15F
100
AcDbEntity
  8
Í¼¿ò
100
AcDbTrace
 10
75.0263779528
 20
167.4191847903
 30
0.0
 11
70.9463779528
 21
167.9271847903
 31
0.0
 12
70.9463779528
 22
166.9111847903
 32
0.0
 13
70.9463779528
 23
166.9111847903
 33
0.0
  0
SOLID
  5
163
330
15F
100
AcDbEntity
  8
Í¼¿ò
100
AcDbTrace
 10
87.5263779528
 20
167.4191847903
 30
0.0
 11
91.6063779528
 21
166.9111847903
 31
0.0
 12
91.6063779528
 22
167.9271847903
 32
0.0
 13
91.6063779528
 23
167.9271847903
 33
0.0
  0
LINE
  5
164
330
15F
100
AcDbEntity
  8
Í¼¿ò
100
AcDbLine
 10
75.0263779528
 20
167.4191847903
 30
0.0
 11
68.6763779528
 21
167.4191847903
 31
0.0
  0
LINE
  5
165
330
15F
100
AcDbEntity
  8
Í¼¿ò
100
AcDbLine
 10
75.0263779528
 20
167.4191847903
 30
0.0
 11
87.5263779528
 21
167.4191847903
 31
0.0
  0
LINE
  5
166
330
15F
100
AcDbEntity
  8
Í¼¿ò
100
AcDbLine
 10
87.5263779528
 20
167.4191847903
 30
0.0
 11
93.8763779528
 21
167.4191847903
 31
0.0
  0
MTEXT
  5
167
330
15F
100
AcDbEntity
  8
Í¼¿ò
100
AcDbMText
 10
79.6892187788
 20
171.9309221123
 30
0.0
 40
3.5
 41
0.0
 71
     1
 72
     1
  1
25
  7
SLDTEXTSTYLE5
 73
     1
 44
1.0
  0
ENDBLK
  5
161
330
15F
100
AcDbEntity
  8
0
100
AcDbBlockEnd
  0
BLOCK
  5
16B
330
16A
100
AcDbEntity
  8
0
100
AcDbBlockBegin
  2
_D_8
 70
     0
 10
0.0
 20
0.0
 30
0.0
  3
_D_8
  1

  0
SOLID
  5
16D
330
16A
100
AcDbEntity
  8
Í¼¿ò
100
AcDbTrace
 10
74.9014256757
 20
130.1294670512
 30
0.0
 11
70.8214256757
 21
130.6374670512
 31
0.0
 12
70.8214256757
 22
129.6214670512
 32
0.0
 13
70.8214256757
 23
129.6214670512
 33
0.0
  0
SOLID
  5
16E
330
16A
100
AcDbEntity
  8
Í¼¿ò
100
AcDbTrace
 10
87.6513779528
 20
130.1294670512
 30
0.0
 11
91.7313779528
 21
129.6214670512
 31
0.0
 12
91.7313779528
 22
130.6374670512
 32
0.0
 13
91.7313779528
 23
130.6374670512
 33
0.0
  0
LINE
  5
16F
330
16A
100
AcDbEntity
  8
Í¼¿ò
100
AcDbLine
 10
74.9014256757
 20
130.1294670512
 30
0.0
 11
68.5514256757
 21
130.1294670512
 31
0.0
  0
LINE
  5
170
330
16A
100
AcDbEntity
  8
Í¼¿ò
100
AcDbLine
 10
74.9014256757
 20
130.1294670512
 30
0.0
 11
87.6513779528
 21
130.1294670512
 31
0.0
  0
LINE
  5
171
330
16A
100
AcDbEntity
  8
Í¼¿ò
100
AcDbLine
 10
87.6513779528
 20
130.1294670512
 30
0.0
 11
94.0013779528
 21
130.1294670512
 31
0.0
  0
MTEXT
  5
172
330
16A
100
AcDbEntity
  8
Í¼¿ò
100
AcDbMText
 10
77.3653795505
 20
134.6412043732
 30
0.0
 40
3.5
 41
0.0
 71
     1
 72
     1
  1
25.50
  7
SLDTEXTSTYLE5
 73
     1
 44
1.0
  0
ENDBLK
  5
16C
330
16A
100
AcDbEntity
  8
0
100
AcDbBlockEnd
  0
BLOCK
  5
174
330
173
100
AcDbEntity
  8
0
100
AcDbBlockBegin
  2
SW_CENTERMARKSYMBOL_0
 70
     0
 10
0.0
 20
0.0
 30
0.0
  3
SW_CENTERMARKSYMBOL_0
  1

  0
LINE
  5
176
330
173
100
AcDbEntity
  8
Í¼¿ò
 62
     0
100
AcDbLine
 10
0.0
 20
0.0
 30
0.0
 11
0.0
 21
1.25
 31
0.0
  0
LINE
  5
177
330
173
100
AcDbEntity
  8
Í¼¿ò
 62
     0
100
AcDbLine
 10
0.0
 20
0.0
 30
0.0
 11
-1.25
 21
0.0
 31
0.0
  0
LINE
  5
178
330
173
100
AcDbEntity
  8
Í¼¿ò
 62
     0
100
AcDbLine
 10
0.0
 20
0.0
 30
0.0
 11
0.0
 21
-1.25
 31
0.0
  0
LINE
  5
179
330
173
100
AcDbEntity
  8
Í¼¿ò
 62
     0
100
AcDbLine
 10
0.0
 20
0.0
 30
0.0
 11
1.25
 21
0.0
 31
0.0
  0
LINE
  5
17A
330
173
100
AcDbEntity
  8
Í¼¿ò
 62
     0
100
AcDbLine
 10
0.0
 20
2.5
 30
0.0
 11
0.0
 21
5.25
 31
0.0
  0
LINE
  5
17B
330
173
100
AcDbEntity
  8
Í¼¿ò
 62
     0
100
AcDbLine
 10
-2.5
 20
0.0
 30
0.0
 11
-5.25
 21
0.0
 31
0.0
  0
LINE
  5
17C
330
173
100
AcDbEntity
  8
Í¼¿ò
 62
     0
100
AcDbLine
 10
0.0
 20
-2.5
 30
0.0
 11
0.0
 21
-5.25
 31
0.0
  0
LINE
  5
17D
330
173
100
AcDbEntity
  8
Í¼¿ò
 62
     0
100
AcDbLine
 10
2.5
 20
0.0
 30
0.0
 11
5.25
 21
0.0
 31
0.0
  0
ENDBLK
  5
175
330
173
100
AcDbEntity
  8
0
100
AcDbBlockEnd
  0
BLOCK
  5
180
330
17F
100
AcDbEntity
  8
0
100
AcDbBlockBegin
  2
SW_CENTERMARKSYMBOL_1
 70
     0
 10
0.0
 20
0.0
 30
0.0
  3
SW_CENTERMARKSYMBOL_1
  1

  0
LINE
  5
182
330
17F
100
AcDbEntity
  8
Í¼¿ò
 62
     0
100
AcDbLine
 10
0.0
 20
0.0
 30
0.0
 11
0.0
 21
1.25
 31
0.0
  0
LINE
  5
183
330
17F
100
AcDbEntity
  8
Í¼¿ò
 62
     0
100
AcDbLine
 10
0.0
 20
0.0
 30
0.0
 11
-1.25
 21
0.0
 31
0.0
  0
LINE
  5
184
330
17F
100
AcDbEntity
  8
Í¼¿ò
 62
     0
100
AcDbLine
 10
0.0
 20
0.0
 30
0.0
 11
0.0
 21
-1.25
 31
0.0
  0
LINE
  5
185
330
17F
100
AcDbEntity
  8
Í¼¿ò
 62
     0
100
AcDbLine
 10
0.0
 20
0.0
 30
0.0
 11
1.25
 21
0.0
 31
0.0
  0
LINE
  5
186
330
17F
100
AcDbEntity
  8
Í¼¿ò
 62
     0
100
AcDbLine
 10
0.0
 20
2.5
 30
0.0
 11
0.0
 21
5.25
 31
0.0
  0
LINE
  5
187
330
17F
100
AcDbEntity
  8
Í¼¿ò
 62
     0
100
AcDbLine
 10
-2.5
 20
0.0
 30
0.0
 11
-5.25
 21
0.0
 31
0.0
  0
LINE
  5
188
330
17F
100
AcDbEntity
  8
Í¼¿ò
 62
     0
100
AcDbLine
 10
0.0
 20
-2.5
 30
0.0
 11
0.0
 21
-5.25
 31
0.0
  0
LINE
  5
189
330
17F
100
AcDbEntity
  8
Í¼¿ò
 62
     0
100
AcDbLine
 10
2.5
 20
0.0
 30
0.0
 11
5.25
 21
0.0
 31
0.0
  0
ENDBLK
  5
181
330
17F
100
AcDbEntity
  8
0
100
AcDbBlockEnd
  0
BLOCK
  5
18C
330
18B
100
AcDbEntity
  8
0
100
AcDbBlockBegin
  2
SW_CENTERMARKSYMBOL_2
 70
     0
 10
0.0
 20
0.0
 30
0.0
  3
SW_CENTERMARKSYMBOL_2
  1

  0
LINE
  5
18E
330
18B
100
AcDbEntity
  8
Í¼¿ò
 62
     0
100
AcDbLine
 10
0.0
 20
0.0
 30
0.0
 11
0.0
 21
1.25
 31
0.0
  0
LINE
  5
18F
330
18B
100
AcDbEntity
  8
Í¼¿ò
 62
     0
100
AcDbLine
 10
0.0
 20
0.0
 30
0.0
 11
-1.25
 21
0.0
 31
0.0
  0
LINE
  5
190
330
18B
100
AcDbEntity
  8
Í¼¿ò
 62
     0
100
AcDbLine
 10
0.0
 20
0.0
 30
0.0
 11
0.0
 21
-1.25
 31
0.0
  0
LINE
  5
191
330
18B
100
AcDbEntity
  8
Í¼¿ò
 62
     0
100
AcDbLine
 10
0.0
 20
0.0
 30
0.0
 11
1.25
 21
0.0
 31
0.0
  0
LINE
  5
192
330
18B
100
AcDbEntity
  8
Í¼¿ò
 62
     0
100
AcDbLine
 10
0.0
 20
2.5
 30
0.0
 11
0.0
 21
5.25
 31
0.0
  0
LINE
  5
193
330
18B
100
AcDbEntity
  8
Í¼¿ò
 62
     0
100
AcDbLine
 10
-2.5
 20
0.0
 30
0.0
 11
-5.25
 21
0.0
 31
0.0
  0
LINE
  5
194
330
18B
100
AcDbEntity
  8
Í¼¿ò
 62
     0
100
AcDbLine
 10
0.0
 20
-2.5
 30
0.0
 11
0.0
 21
-5.25
 31
0.0
  0
LINE
  5
195
330
18B
100
AcDbEntity
  8
Í¼¿ò
 62
     0
100
AcDbLine
 10
2.5
 20
0.0
 30
0.0
 11
5.25
 21
0.0
 31
0.0
  0
ENDBLK
  5
18D
330
18B
100
AcDbEntity
  8
0
100
AcDbBlockEnd
  0
BLOCK
  5
198
330
197
100
AcDbEntity
  8
0
100
AcDbBlockBegin
  2
SW_CENTERMARKSYMBOL_3
 70
     0
 10
0.0
 20
0.0
 30
0.0
  3
SW_CENTERMARKSYMBOL_3
  1

  0
LINE
  5
19A
330
197
100
AcDbEntity
  8
Í¼¿ò
 62
     0
100
AcDbLine
 10
0.0
 20
0.0
 30
0.0
 11
0.0
 21
1.25
 31
0.0
  0
LINE
  5
19B
330
197
100
AcDbEntity
  8
Í¼¿ò
 62
     0
100
AcDbLine
 10
0.0
 20
0.0
 30
0.0
 11
-1.25
 21
0.0
 31
0.0
  0
LINE
  5
19C
330
197
100
AcDbEntity
  8
Í¼¿ò
 62
     0
100
AcDbLine
 10
0.0
 20
0.0
 30
0.0
 11
0.0
 21
-1.25
 31
0.0
  0
LINE
  5
19D
330
197
100
AcDbEntity
  8
Í¼¿ò
 62
     0
100
AcDbLine
 10
0.0
 20
0.0
 30
0.0
 11
1.25
 21
0.0
 31
0.0
  0
LINE
  5
19E
330
197
100
AcDbEntity
  8
Í¼¿ò
 62
     0
100
AcDbLine
 10
0.0
 20
2.5
 30
0.0
 11
0.0
 21
5.25
 31
0.0
  0
LINE
  5
19F
330
197
100
AcDbEntity
  8
Í¼¿ò
 62
     0
100
AcDbLine
 10
-2.5
 20
0.0
 30
0.0
 11
-5.25
 21
0.0
 31
0.0
  0
LINE
  5
1A0
330
197
100
AcDbEntity
  8
Í¼¿ò
 62
     0
100
AcDbLine
 10
0.0
 20
-2.5
 30
0.0
 11
0.0
 21
-5.25
 31
0.0
  0
LINE
  5
1A1
330
197
100
AcDbEntity
  8
Í¼¿ò
 62
     0
100
AcDbLine
 10
2.5
 20
0.0
 30
0.0
 11
5.25
 21
0.0
 31
0.0
  0
ENDBLK
  5
199
330
197
100
AcDbEntity
  8
0
100
AcDbBlockEnd
  0
BLOCK
  5
1A4
330
1A3
100
AcDbEntity
  8
0
100
AcDbBlockBegin
  2
SW_CENTERMARKSYMBOL_4
 70
     0
 10
0.0
 20
0.0
 30
0.0
  3
SW_CENTERMARKSYMBOL_4
  1

  0
LINE
  5
1A6
330
1A3
100
AcDbEntity
  8
Í¼¿ò
 62
     0
100
AcDbLine
 10
0.0
 20
0.0
 30
0.0
 11
0.0
 21
1.25
 31
0.0
  0
LINE
  5
1A7
330
1A3
100
AcDbEntity
  8
Í¼¿ò
 62
     0
100
AcDbLine
 10
0.0
 20
0.0
 30
0.0
 11
-1.25
 21
0.0
 31
0.0
  0
LINE
  5
1A8
330
1A3
100
AcDbEntity
  8
Í¼¿ò
 62
     0
100
AcDbLine
 10
0.0
 20
0.0
 30
0.0
 11
0.0
 21
-1.25
 31
0.0
  0
LINE
  5
1A9
330
1A3
100
AcDbEntity
  8
Í¼¿ò
 62
     0
100
AcDbLine
 10
0.0
 20
0.0
 30
0.0
 11
1.25
 21
0.0
 31
0.0
  0
LINE
  5
1AA
330
1A3
100
AcDbEntity
  8
Í¼¿ò
 62
     0
100
AcDbLine
 10
0.0
 20
2.5
 30
0.0
 11
0.0
 21
5.25
 31
0.0
  0
LINE
  5
1AB
330
1A3
100
AcDbEntity
  8
Í¼¿ò
 62
     0
100
AcDbLine
 10
-2.5
 20
0.0
 30
0.0
 11
-5.25
 21
0.0
 31
0.0
  0
LINE
  5
1AC
330
1A3
100
AcDbEntity
  8
Í¼¿ò
 62
     0
100
AcDbLine
 10
0.0
 20
-2.5
 30
0.0
 11
0.0
 21
-5.25
 31
0.0
  0
LINE
  5
1AD
330
1A3
100
AcDbEntity
  8
Í¼¿ò
 62
     0
100
AcDbLine
 10
2.5
 20
0.0
 30
0.0
 11
5.25
 21
0.0
 31
0.0
  0
ENDBLK
  5
1A5
330
1A3
100
AcDbEntity
  8
0
100
AcDbBlockEnd
  0
BLOCK
  5
1B0
330
1AF
100
AcDbEntity
  8
0
100
AcDbBlockBegin
  2
SW_CENTERMARKSYMBOL_5
 70
     0
 10
0.0
 20
0.0
 30
0.0
  3
SW_CENTERMARKSYMBOL_5
  1

  0
LINE
  5
1B2
330
1AF
100
AcDbEntity
  8
Í¼¿ò
 62
     0
100
AcDbLine
 10
0.0
 20
0.0
 30
0.0
 11
0.0
 21
1.25
 31
0.0
  0
LINE
  5
1B3
330
1AF
100
AcDbEntity
  8
Í¼¿ò
 62
     0
100
AcDbLine
 10
0.0
 20
0.0
 30
0.0
 11
-1.25
 21
0.0
 31
0.0
  0
LINE
  5
1B4
330
1AF
100
AcDbEntity
  8
Í¼¿ò
 62
     0
100
AcDbLine
 10
0.0
 20
0.0
 30
0.0
 11
0.0
 21
-1.25
 31
0.0
  0
LINE
  5
1B5
330
1AF
100
AcDbEntity
  8
Í¼¿ò
 62
     0
100
AcDbLine
 10
0.0
 20
0.0
 30
0.0
 11
1.25
 21
0.0
 31
0.0
  0
LINE
  5
1B6
330
1AF
100
AcDbEntity
  8
Í¼¿ò
 62
     0
100
AcDbLine
 10
0.0
 20
2.5
 30
0.0
 11
0.0
 21
5.25
 31
0.0
  0
LINE
  5
1B7
330
1AF
100
AcDbEntity
  8
Í¼¿ò
 62
     0
100
AcDbLine
 10
-2.5
 20
0.0
 30
0.0
 11
-5.25
 21
0.0
 31
0.0
  0
LINE
  5
1B8
330
1AF
100
AcDbEntity
  8
Í¼¿ò
 62
     0
100
AcDbLine
 10
0.0
 20
-2.5
 30
0.0
 11
0.0
 21
-5.25
 31
0.0
  0
LINE
  5
1B9
330
1AF
100
AcDbEntity
  8
Í¼¿ò
 62
     0
100
AcDbLine
 10
2.5
 20
0.0
 30
0.0
 11
5.25
 21
0.0
 31
0.0
  0
ENDBLK
  5
1B1
330
1AF
100
AcDbEntity
  8
0
100
AcDbBlockEnd
  0
BLOCK
  5
1BC
330
1BB
100
AcDbEntity
  8
0
100
AcDbBlockBegin
  2
SW_CENTERMARKSYMBOL_6
 70
     0
 10
0.0
 20
0.0
 30
0.0
  3
SW_CENTERMARKSYMBOL_6
  1

  0
LINE
  5
1BE
330
1BB
100
AcDbEntity
  8
Í¼¿ò
 62
     0
100
AcDbLine
 10
0.0
 20
0.0
 30
0.0
 11
0.0
 21
1.25
 31
0.0
  0
LINE
  5
1BF
330
1BB
100
AcDbEntity
  8
Í¼¿ò
 62
     0
100
AcDbLine
 10
0.0
 20
0.0
 30
0.0
 11
-1.25
 21
0.0
 31
0.0
  0
LINE
  5
1C0
330
1BB
100
AcDbEntity
  8
Í¼¿ò
 62
     0
100
AcDbLine
 10
0.0
 20
0.0
 30
0.0
 11
0.0
 21
-1.25
 31
0.0
  0
LINE
  5
1C1
330
1BB
100
AcDbEntity
  8
Í¼¿ò
 62
     0
100
AcDbLine
 10
0.0
 20
0.0
 30
0.0
 11
1.25
 21
0.0
 31
0.0
  0
LINE
  5
1C2
330
1BB
100
AcDbEntity
  8
Í¼¿ò
 62
     0
100
AcDbLine
 10
0.0
 20
1.25
 30
0.0
 11
0.0
 21
2.25
 31
0.0
  0
LINE
  5
1C3
330
1BB
100
AcDbEntity
  8
Í¼¿ò
 62
     0
100
AcDbLine
 10
-1.25
 20
0.0
 30
0.0
 11
-2.25
 21
0.0
 31
0.0
  0
LINE
  5
1C4
330
1BB
100
AcDbEntity
  8
Í¼¿ò
 62
     0
100
AcDbLine
 10
0.0
 20
-1.25
 30
0.0
 11
0.0
 21
-2.25
 31
0.0
  0
LINE
  5
1C5
330
1BB
100
AcDbEntity
  8
Í¼¿ò
 62
     0
100
AcDbLine
 10
1.25
 20
0.0
 30
0.0
 11
2.25
 21
0.0
 31
0.0
  0
ENDBLK
  5
1BD
330
1BB
100
AcDbEntity
  8
0
100
AcDbBlockEnd
  0
BLOCK
  5
1C8
330
1C7
100
AcDbEntity
  8
0
100
AcDbBlockBegin
  2
SW_CENTERMARKSYMBOL_7
 70
     0
 10
0.0
 20
0.0
 30
0.0
  3
SW_CENTERMARKSYMBOL_7
  1

  0
LINE
  5
1CA
330
1C7
100
AcDbEntity
  8
Í¼¿ò
 62
     0
100
AcDbLine
 10
0.0
 20
0.0
 30
0.0
 11
0.0
 21
1.25
 31
0.0
  0
LINE
  5
1CB
330
1C7
100
AcDbEntity
  8
Í¼¿ò
 62
     0
100
AcDbLine
 10
0.0
 20
0.0
 30
0.0
 11
-1.25
 21
0.0
 31
0.0
  0
LINE
  5
1CC
330
1C7
100
AcDbEntity
  8
Í¼¿ò
 62
     0
100
AcDbLine
 10
0.0
 20
0.0
 30
0.0
 11
0.0
 21
-1.25
 31
0.0
  0
LINE
  5
1CD
330
1C7
100
AcDbEntity
  8
Í¼¿ò
 62
     0
100
AcDbLine
 10
0.0
 20
0.0
 30
0.0
 11
1.25
 21
0.0
 31
0.0
  0
LINE
  5
1CE
330
1C7
100
AcDbEntity
  8
Í¼¿ò
 62
     0
100
AcDbLine
 10
0.0
 20
1.25
 30
0.0
 11
0.0
 21
2.25
 31
0.0
  0
LINE
  5
1CF
330
1C7
100
AcDbEntity
  8
Í¼¿ò
 62
     0
100
AcDbLine
 10
-1.25
 20
0.0
 30
0.0
 11
-2.25
 21
0.0
 31
0.0
  0
LINE
  5
1D0
330
1C7
100
AcDbEntity
  8
Í¼¿ò
 62
     0
100
AcDbLine
 10
0.0
 20
-1.25
 30
0.0
 11
0.0
 21
-2.25
 31
0.0
  0
LINE
  5
1D1
330
1C7
100
AcDbEntity
  8
Í¼¿ò
 62
     0
100
AcDbLine
 10
1.25
 20
0.0
 30
0.0
 11
2.25
 21
0.0
 31
0.0
  0
ENDBLK
  5
1C9
330
1C7
100
AcDbEntity
  8
0
100
AcDbBlockEnd
  0
BLOCK
  5
1D4
330
1D3
100
AcDbEntity
  8
0
100
AcDbBlockBegin
  2
SW_CENTERMARKSYMBOL_8
 70
     0
 10
0.0
 20
0.0
 30
0.0
  3
SW_CENTERMARKSYMBOL_8
  1

  0
LINE
  5
1D6
330
1D3
100
AcDbEntity
  8
Í¼¿ò
 62
     0
100
AcDbLine
 10
0.0
 20
0.0
 30
0.0
 11
0.0
 21
1.25
 31
0.0
  0
LINE
  5
1D7
330
1D3
100
AcDbEntity
  8
Í¼¿ò
 62
     0
100
AcDbLine
 10
0.0
 20
0.0
 30
0.0
 11
-1.25
 21
0.0
 31
0.0
  0
LINE
  5
1D8
330
1D3
100
AcDbEntity
  8
Í¼¿ò
 62
     0
100
AcDbLine
 10
0.0
 20
0.0
 30
0.0
 11
0.0
 21
-1.25
 31
0.0
  0
LINE
  5
1D9
330
1D3
100
AcDbEntity
  8
Í¼¿ò
 62
     0
100
AcDbLine
 10
0.0
 20
0.0
 30
0.0
 11
1.25
 21
0.0
 31
0.0
  0
LINE
  5
1DA
330
1D3
100
AcDbEntity
  8
Í¼¿ò
 62
     0
100
AcDbLine
 10
0.0
 20
1.25
 30
0.0
 11
0.0
 21
2.25
 31
0.0
  0
LINE
  5
1DB
330
1D3
100
AcDbEntity
  8
Í¼¿ò
 62
     0
100
AcDbLine
 10
-1.25
 20
0.0
 30
0.0
 11
-2.25
 21
0.0
 31
0.0
  0
LINE
  5
1DC
330
1D3
100
AcDbEntity
  8
Í¼¿ò
 62
     0
100
AcDbLine
 10
0.0
 20
-1.25
 30
0.0
 11
0.0
 21
-2.25
 31
0.0
  0
LINE
  5
1DD
330
1D3
100
AcDbEntity
  8
Í¼¿ò
 62
     0
100
AcDbLine
 10
1.25
 20
0.0
 30
0.0
 11
2.25
 21
0.0
 31
0.0
  0
ENDBLK
  5
1D5
330
1D3
100
AcDbEntity
  8
0
100
AcDbBlockEnd
  0
BLOCK
  5
1E0
330
1DF
100
AcDbEntity
  8
0
100
AcDbBlockBegin
  2
SW_CENTERMARKSYMBOL_9
 70
     0
 10
0.0
 20
0.0
 30
0.0
  3
SW_CENTERMARKSYMBOL_9
  1

  0
LINE
  5
1E2
330
1DF
100
AcDbEntity
  8
Í¼¿ò
 62
     0
100
AcDbLine
 10
0.0
 20
0.0
 30
0.0
 11
0.0
 21
1.25
 31
0.0
  0
LINE
  5
1E3
330
1DF
100
AcDbEntity
  8
Í¼¿ò
 62
     0
100
AcDbLine
 10
0.0
 20
0.0
 30
0.0
 11
-1.25
 21
0.0
 31
0.0
  0
LINE
  5
1E4
330
1DF
100
AcDbEntity
  8
Í¼¿ò
 62
     0
100
AcDbLine
 10
0.0
 20
0.0
 30
0.0
 11
0.0
 21
-1.25
 31
0.0
  0
LINE
  5
1E5
330
1DF
100
AcDbEntity
  8
Í¼¿ò
 62
     0
100
AcDbLine
 10
0.0
 20
0.0
 30
0.0
 11
1.25
 21
0.0
 31
0.0
  0
LINE
  5
1E6
330
1DF
100
AcDbEntity
  8
Í¼¿ò
 62
     0
100
AcDbLine
 10
0.0
 20
1.25
 30
0.0
 11
0.0
 21
2.25
 31
0.0
  0
LINE
  5
1E7
330
1DF
100
AcDbEntity
  8
Í¼¿ò
 62
     0
100
AcDbLine
 10
-1.25
 20
0.0
 30
0.0
 11
-2.25
 21
0.0
 31
0.0
  0
LINE
  5
1E8
330
1DF
100
AcDbEntity
  8
Í¼¿ò
 62
     0
100
AcDbLine
 10
0.0
 20
-1.25
 30
0.0
 11
0.0
 21
-2.25
 31
0.0
  0
LINE
  5
1E9
330
1DF
100
AcDbEntity
  8
Í¼¿ò
 62
     0
100
AcDbLine
 10
1.25
 20
0.0
 30
0.0
 11
2.25
 21
0.0
 31
0.0
  0
ENDBLK
  5
1E1
330
1DF
100
AcDbEntity
  8
0
100
AcDbBlockEnd
  0
BLOCK
  5
1EC
330
1EB
100
AcDbEntity
  8
0
100
AcDbBlockBegin
  2
SW_CENTERMARKSYMBOL_10
 70
     0
 10
0.0
 20
0.0
 30
0.0
  3
SW_CENTERMARKSYMBOL_10
  1

  0
LINE
  5
1EE
330
1EB
100
AcDbEntity
  8
Í¼¿ò
 62
     0
100
AcDbLine
 10
0.0
 20
0.0
 30
0.0
 11
0.0
 21
1.25
 31
0.0
  0
LINE
  5
1EF
330
1EB
100
AcDbEntity
  8
Í¼¿ò
 62
     0
100
AcDbLine
 10
0.0
 20
0.0
 30
0.0
 11
-1.25
 21
0.0
 31
0.0
  0
LINE
  5
1F0
330
1EB
100
AcDbEntity
  8
Í¼¿ò
 62
     0
100
AcDbLine
 10
0.0
 20
0.0
 30
0.0
 11
0.0
 21
-1.25
 31
0.0
  0
LINE
  5
1F1
330
1EB
100
AcDbEntity
  8
Í¼¿ò
 62
     0
100
AcDbLine
 10
0.0
 20
0.0
 30
0.0
 11
1.25
 21
0.0
 31
0.0
  0
LINE
  5
1F2
330
1EB
100
AcDbEntity
  8
Í¼¿ò
 62
     0
100
AcDbLine
 10
0.0
 20
2.5
 30
0.0
 11
0.0
 21
3.25
 31
0.0
  0
LINE
  5
1F3
330
1EB
100
AcDbEntity
  8
Í¼¿ò
 62
     0
100
AcDbLine
 10
-2.5
 20
0.0
 30
0.0
 11
-3.25
 21
0.0
 31
0.0
  0
LINE
  5
1F4
330
1EB
100
AcDbEntity
  8
Í¼¿ò
 62
     0
100
AcDbLine
 10
0.0
 20
-2.5
 30
0.0
 11
0.0
 21
-3.25
 31
0.0
  0
LINE
  5
1F5
330
1EB
100
AcDbEntity
  8
Í¼¿ò
 62
     0
100
AcDbLine
 10
2.5
 20
0.0
 30
0.0
 11
3.25
 21
0.0
 31
0.0
  0
ENDBLK
  5
1ED
330
1EB
100
AcDbEntity
  8
0
100
AcDbBlockEnd
  0
BLOCK
  5
1F8
330
1F7
100
AcDbEntity
  8
0
100
AcDbBlockBegin
  2
SW_CENTERMARKSYMBOL_11
 70
     0
 10
0.0
 20
0.0
 30
0.0
  3
SW_CENTERMARKSYMBOL_11
  1

  0
LINE
  5
1FA
330
1F7
100
AcDbEntity
  8
Í¼¿ò
 62
     0
100
AcDbLine
 10
0.0
 20
0.0
 30
0.0
 11
0.0
 21
1.25
 31
0.0
  0
LINE
  5
1FB
330
1F7
100
AcDbEntity
  8
Í¼¿ò
 62
     0
100
AcDbLine
 10
0.0
 20
0.0
 30
0.0
 11
-1.25
 21
0.0
 31
0.0
  0
LINE
  5
1FC
330
1F7
100
AcDbEntity
  8
Í¼¿ò
 62
     0
100
AcDbLine
 10
0.0
 20
0.0
 30
0.0
 11
0.0
 21
-1.25
 31
0.0
  0
LINE
  5
1FD
330
1F7
100
AcDbEntity
  8
Í¼¿ò
 62
     0
100
AcDbLine
 10
0.0
 20
0.0
 30
0.0
 11
1.25
 21
0.0
 31
0.0
  0
LINE
  5
1FE
330
1F7
100
AcDbEntity
  8
Í¼¿ò
 62
     0
100
AcDbLine
 10
0.0
 20
2.5
 30
0.0
 11
0.0
 21
3.25
 31
0.0
  0
LINE
  5
1FF
330
1F7
100
AcDbEntity
  8
Í¼¿ò
 62
     0
100
AcDbLine
 10
-2.5
 20
0.0
 30
0.0
 11
-3.25
 21
0.0
 31
0.0
  0
LINE
  5
200
330
1F7
100
AcDbEntity
  8
Í¼¿ò
 62
     0
100
AcDbLine
 10
0.0
 20
-2.5
 30
0.0
 11
0.0
 21
-3.25
 31
0.0
  0
LINE
  5
201
330
1F7
100
AcDbEntity
  8
Í¼¿ò
 62
     0
100
AcDbLine
 10
2.5
 20
0.0
 30
0.0
 11
3.25
 21
0.0
 31
0.0
  0
ENDBLK
  5
1F9
330
1F7
100
AcDbEntity
  8
0
100
AcDbBlockEnd
  0
BLOCK
  5
204
330
203
100
AcDbEntity
  8
0
100
AcDbBlockBegin
  2
SW_CENTERMARKSYMBOL_12
 70
     0
 10
0.0
 20
0.0
 30
0.0
  3
SW_CENTERMARKSYMBOL_12
  1

  0
LINE
  5
206
330
203
100
AcDbEntity
  8
Í¼¿ò
 62
     0
100
AcDbLine
 10
0.0
 20
0.0
 30
0.0
 11
0.0
 21
1.25
 31
0.0
  0
LINE
  5
207
330
203
100
AcDbEntity
  8
Í¼¿ò
 62
     0
100
AcDbLine
 10
0.0
 20
0.0
 30
0.0
 11
-1.25
 21
0.0
 31
0.0
  0
LINE
  5
208
330
203
100
AcDbEntity
  8
Í¼¿ò
 62
     0
100
AcDbLine
 10
0.0
 20
0.0
 30
0.0
 11
0.0
 21
-1.25
 31
0.0
  0
LINE
  5
209
330
203
100
AcDbEntity
  8
Í¼¿ò
 62
     0
100
AcDbLine
 10
0.0
 20
0.0
 30
0.0
 11
1.25
 21
0.0
 31
0.0
  0
LINE
  5
20A
330
203
100
AcDbEntity
  8
Í¼¿ò
 62
     0
100
AcDbLine
 10
0.0
 20
2.5
 30
0.0
 11
0.0
 21
3.25
 31
0.0
  0
LINE
  5
20B
330
203
100
AcDbEntity
  8
Í¼¿ò
 62
     0
100
AcDbLine
 10
-2.5
 20
0.0
 30
0.0
 11
-3.25
 21
0.0
 31
0.0
  0
LINE
  5
20C
330
203
100
AcDbEntity
  8
Í¼¿ò
 62
     0
100
AcDbLine
 10
0.0
 20
-2.5
 30
0.0
 11
0.0
 21
-3.25
 31
0.0
  0
LINE
  5
20D
330
203
100
AcDbEntity
  8
Í¼¿ò
 62
     0
100
AcDbLine
 10
2.5
 20
0.0
 30
0.0
 11
3.25
 21
0.0
 31
0.0
  0
ENDBLK
  5
205
330
203
100
AcDbEntity
  8
0
100
AcDbBlockEnd
  0
BLOCK
  5
210
330
20F
100
AcDbEntity
  8
0
100
AcDbBlockBegin
  2
SW_CENTERMARKSYMBOL_13
 70
     0
 10
0.0
 20
0.0
 30
0.0
  3
SW_CENTERMARKSYMBOL_13
  1

  0
LINE
  5
212
330
20F
100
AcDbEntity
  8
Í¼¿ò
 62
     0
100
AcDbLine
 10
0.0
 20
0.0
 30
0.0
 11
0.0
 21
1.25
 31
0.0
  0
LINE
  5
213
330
20F
100
AcDbEntity
  8
Í¼¿ò
 62
     0
100
AcDbLine
 10
0.0
 20
0.0
 30
0.0
 11
-1.25
 21
0.0
 31
0.0
  0
LINE
  5
214
330
20F
100
AcDbEntity
  8
Í¼¿ò
 62
     0
100
AcDbLine
 10
0.0
 20
0.0
 30
0.0
 11
0.0
 21
-1.25
 31
0.0
  0
LINE
  5
215
330
20F
100
AcDbEntity
  8
Í¼¿ò
 62
     0
100
AcDbLine
 10
0.0
 20
0.0
 30
0.0
 11
1.25
 21
0.0
 31
0.0
  0
LINE
  5
216
330
20F
100
AcDbEntity
  8
Í¼¿ò
 62
     0
100
AcDbLine
 10
0.0
 20
1.25
 30
0.0
 11
0.0
 21
2.0
 31
0.0
  0
LINE
  5
217
330
20F
100
AcDbEntity
  8
Í¼¿ò
 62
     0
100
AcDbLine
 10
-1.25
 20
0.0
 30
0.0
 11
-2.0
 21
0.0
 31
0.0
  0
LINE
  5
218
330
20F
100
AcDbEntity
  8
Í¼¿ò
 62
     0
100
AcDbLine
 10
0.0
 20
-1.25
 30
0.0
 11
0.0
 21
-2.0
 31
0.0
  0
LINE
  5
219
330
20F
100
AcDbEntity
  8
Í¼¿ò
 62
     0
100
AcDbLine
 10
1.25
 20
0.0
 30
0.0
 11
2.0
 21
0.0
 31
0.0
  0
ENDBLK
  5
211
330
20F
100
AcDbEntity
  8
0
100
AcDbBlockEnd
  0
BLOCK
  5
21C
330
21B
100
AcDbEntity
  8
0
100
AcDbBlockBegin
  2
SW_CENTERMARKSYMBOL_14
 70
     0
 10
0.0
 20
0.0
 30
0.0
  3
SW_CENTERMARKSYMBOL_14
  1

  0
LINE
  5
21E
330
21B
100
AcDbEntity
  8
Í¼¿ò
 62
     0
100
AcDbLine
 10
0.0
 20
0.0
 30
0.0
 11
0.0
 21
1.25
 31
0.0
  0
LINE
  5
21F
330
21B
100
AcDbEntity
  8
Í¼¿ò
 62
     0
100
AcDbLine
 10
0.0
 20
0.0
 30
0.0
 11
-1.25
 21
0.0
 31
0.0
  0
LINE
  5
220
330
21B
100
AcDbEntity
  8
Í¼¿ò
 62
     0
100
AcDbLine
 10
0.0
 20
0.0
 30
0.0
 11
0.0
 21
-1.25
 31
0.0
  0
LINE
  5
221
330
21B
100
AcDbEntity
  8
Í¼¿ò
 62
     0
100
AcDbLine
 10
0.0
 20
0.0
 30
0.0
 11
1.25
 21
0.0
 31
0.0
  0
LINE
  5
222
330
21B
100
AcDbEntity
  8
Í¼¿ò
 62
     0
100
AcDbLine
 10
0.0
 20
1.25
 30
0.0
 11
0.0
 21
2.0
 31
0.0
  0
LINE
  5
223
330
21B
100
AcDbEntity
  8
Í¼¿ò
 62
     0
100
AcDbLine
 10
-1.25
 20
0.0
 30
0.0
 11
-2.0
 21
0.0
 31
0.0
  0
LINE
  5
224
330
21B
100
AcDbEntity
  8
Í¼¿ò
 62
     0
100
AcDbLine
 10
0.0
 20
-1.25
 30
0.0
 11
0.0
 21
-2.0
 31
0.0
  0
LINE
  5
225
330
21B
100
AcDbEntity
  8
Í¼¿ò
 62
     0
100
AcDbLine
 10
1.25
 20
0.0
 30
0.0
 11
2.0
 21
0.0
 31
0.0
  0
ENDBLK
  5
21D
330
21B
100
AcDbEntity
  8
0
100
AcDbBlockEnd
  0
BLOCK
  5
228
330
227
100
AcDbEntity
  8
0
100
AcDbBlockBegin
  2
SW_CENTERMARKSYMBOL_15
 70
     0
 10
0.0
 20
0.0
 30
0.0
  3
SW_CENTERMARKSYMBOL_15
  1

  0
LINE
  5
22A
330
227
100
AcDbEntity
  8
Í¼¿ò
 62
     0
100
AcDbLine
 10
0.0
 20
0.0
 30
0.0
 11
0.0
 21
1.25
 31
0.0
  0
LINE
  5
22B
330
227
100
AcDbEntity
  8
Í¼¿ò
 62
     0
100
AcDbLine
 10
0.0
 20
0.0
 30
0.0
 11
-1.25
 21
0.0
 31
0.0
  0
LINE
  5
22C
330
227
100
AcDbEntity
  8
Í¼¿ò
 62
     0
100
AcDbLine
 10
0.0
 20
0.0
 30
0.0
 11
0.0
 21
-1.25
 31
0.0
  0
LINE
  5
22D
330
227
100
AcDbEntity
  8
Í¼¿ò
 62
     0
100
AcDbLine
 10
0.0
 20
0.0
 30
0.0
 11
1.25
 21
0.0
 31
0.0
  0
LINE
  5
22E
330
227
100
AcDbEntity
  8
Í¼¿ò
 62
     0
100
AcDbLine
 10
0.0
 20
1.25
 30
0.0
 11
0.0
 21
2.0
 31
0.0
  0
LINE
  5
22F
330
227
100
AcDbEntity
  8
Í¼¿ò
 62
     0
100
AcDbLine
 10
-1.25
 20
0.0
 30
0.0
 11
-2.0
 21
0.0
 31
0.0
  0
LINE
  5
230
330
227
100
AcDbEntity
  8
Í¼¿ò
 62
     0
100
AcDbLine
 10
0.0
 20
-1.25
 30
0.0
 11
0.0
 21
-2.0
 31
0.0
  0
LINE
  5
231
330
227
100
AcDbEntity
  8
Í¼¿ò
 62
     0
100
AcDbLine
 10
1.25
 20
0.0
 30
0.0
 11
2.0
 21
0.0
 31
0.0
  0
ENDBLK
  5
229
330
227
100
AcDbEntity
  8
0
100
AcDbBlockEnd
  0
BLOCK
  5
234
330
233
100
AcDbEntity
  8
0
100
AcDbBlockBegin
  2
SW_CENTERMARKSYMBOL_16
 70
     0
 10
0.0
 20
0.0
 30
0.0
  3
SW_CENTERMARKSYMBOL_16
  1

  0
LINE
  5
236
330
233
100
AcDbEntity
  8
Í¼¿ò
 62
     0
100
AcDbLine
 10
0.0
 20
0.0
 30
0.0
 11
0.0
 21
1.25
 31
0.0
  0
LINE
  5
237
330
233
100
AcDbEntity
  8
Í¼¿ò
 62
     0
100
AcDbLine
 10
0.0
 20
0.0
 30
0.0
 11
-1.25
 21
0.0
 31
0.0
  0
LINE
  5
238
330
233
100
AcDbEntity
  8
Í¼¿ò
 62
     0
100
AcDbLine
 10
0.0
 20
0.0
 30
0.0
 11
0.0
 21
-1.25
 31
0.0
  0
LINE
  5
239
330
233
100
AcDbEntity
  8
Í¼¿ò
 62
     0
100
AcDbLine
 10
0.0
 20
0.0
 30
0.0
 11
1.25
 21
0.0
 31
0.0
  0
LINE
  5
23A
330
233
100
AcDbEntity
  8
Í¼¿ò
 62
     0
100
AcDbLine
 10
0.0
 20
1.25
 30
0.0
 11
0.0
 21
2.0
 31
0.0
  0
LINE
  5
23B
330
233
100
AcDbEntity
  8
Í¼¿ò
 62
     0
100
AcDbLine
 10
-1.25
 20
0.0
 30
0.0
 11
-2.0
 21
0.0
 31
0.0
  0
LINE
  5
23C
330
233
100
AcDbEntity
  8
Í¼¿ò
 62
     0
100
AcDbLine
 10
0.0
 20
-1.25
 30
0.0
 11
0.0
 21
-2.0
 31
0.0
  0
LINE
  5
23D
330
233
100
AcDbEntity
  8
Í¼¿ò
 62
     0
100
AcDbLine
 10
1.25
 20
0.0
 30
0.0
 11
2.0
 21
0.0
 31
0.0
  0
ENDBLK
  5
235
330
233
100
AcDbEntity
  8
0
100
AcDbBlockEnd
  0
BLOCK
  5
240
330
23F
100
AcDbEntity
  8
0
100
AcDbBlockBegin
  2
SW_CENTERMARKSYMBOL_17
 70
     0
 10
0.0
 20
0.0
 30
0.0
  3
SW_CENTERMARKSYMBOL_17
  1

  0
LINE
  5
242
330
23F
100
AcDbEntity
  8
Í¼¿ò
 62
     0
100
AcDbLine
 10
0.0
 20
0.0
 30
0.0
 11
0.0
 21
1.25
 31
0.0
  0
LINE
  5
243
330
23F
100
AcDbEntity
  8
Í¼¿ò
 62
     0
100
AcDbLine
 10
0.0
 20
0.0
 30
0.0
 11
-1.25
 21
0.0
 31
0.0
  0
LINE
  5
244
330
23F
100
AcDbEntity
  8
Í¼¿ò
 62
     0
100
AcDbLine
 10
0.0
 20
0.0
 30
0.0
 11
0.0
 21
-1.25
 31
0.0
  0
LINE
  5
245
330
23F
100
AcDbEntity
  8
Í¼¿ò
 62
     0
100
AcDbLine
 10
0.0
 20
0.0
 30
0.0
 11
1.25
 21
0.0
 31
0.0
  0
LINE
  5
246
330
23F
100
AcDbEntity
  8
Í¼¿ò
 62
     0
100
AcDbLine
 10
0.0
 20
1.25
 30
0.0
 11
0.0
 21
2.0
 31
0.0
  0
LINE
  5
247
330
23F
100
AcDbEntity
  8
Í¼¿ò
 62
     0
100
AcDbLine
 10
-1.25
 20
0.0
 30
0.0
 11
-2.0
 21
0.0
 31
0.0
  0
LINE
  5
248
330
23F
100
AcDbEntity
  8
Í¼¿ò
 62
     0
100
AcDbLine
 10
0.0
 20
-1.25
 30
0.0
 11
0.0
 21
-2.0
 31
0.0
  0
LINE
  5
249
330
23F
100
AcDbEntity
  8
Í¼¿ò
 62
     0
100
AcDbLine
 10
1.25
 20
0.0
 30
0.0
 11
2.0
 21
0.0
 31
0.0
  0
ENDBLK
  5
241
330
23F
100
AcDbEntity
  8
0
100
AcDbBlockEnd
  0
BLOCK
  5
24C
330
24B
100
AcDbEntity
  8
0
100
AcDbBlockBegin
  2
SW_CENTERMARKSYMBOL_18
 70
     0
 10
0.0
 20
0.0
 30
0.0
  3
SW_CENTERMARKSYMBOL_18
  1

  0
LINE
  5
24E
330
24B
100
AcDbEntity
  8
Í¼¿ò
 62
     0
100
AcDbLine
 10
0.0
 20
0.0
 30
0.0
 11
0.0
 21
1.25
 31
0.0
  0
LINE
  5
24F
330
24B
100
AcDbEntity
  8
Í¼¿ò
 62
     0
100
AcDbLine
 10
0.0
 20
0.0
 30
0.0
 11
-1.25
 21
0.0
 31
0.0
  0
LINE
  5
250
330
24B
100
AcDbEntity
  8
Í¼¿ò
 62
     0
100
AcDbLine
 10
0.0
 20
0.0
 30
0.0
 11
0.0
 21
-1.25
 31
0.0
  0
LINE
  5
251
330
24B
100
AcDbEntity
  8
Í¼¿ò
 62
     0
100
AcDbLine
 10
0.0
 20
0.0
 30
0.0
 11
1.25
 21
0.0
 31
0.0
  0
LINE
  5
252
330
24B
100
AcDbEntity
  8
Í¼¿ò
 62
     0
100
AcDbLine
 10
0.0
 20
1.25
 30
0.0
 11
0.0
 21
2.0
 31
0.0
  0
LINE
  5
253
330
24B
100
AcDbEntity
  8
Í¼¿ò
 62
     0
100
AcDbLine
 10
-1.25
 20
0.0
 30
0.0
 11
-2.0
 21
0.0
 31
0.0
  0
LINE
  5
254
330
24B
100
AcDbEntity
  8
Í¼¿ò
 62
     0
100
AcDbLine
 10
0.0
 20
-1.25
 30
0.0
 11
0.0
 21
-2.0
 31
0.0
  0
LINE
  5
255
330
24B
100
AcDbEntity
  8
Í¼¿ò
 62
     0
100
AcDbLine
 10
1.25
 20
0.0
 30
0.0
 11
2.0
 21
0.0
 31
0.0
  0
ENDBLK
  5
24D
330
24B
100
AcDbEntity
  8
0
100
AcDbBlockEnd
  0
BLOCK
  5
258
330
257
100
AcDbEntity
  8
0
100
AcDbBlockBegin
  2
SW_CENTERMARKSYMBOL_19
 70
     0
 10
0.0
 20
0.0
 30
0.0
  3
SW_CENTERMARKSYMBOL_19
  1

  0
LINE
  5
25A
330
257
100
AcDbEntity
  8
Í¼¿ò
 62
     0
100
AcDbLine
 10
0.0
 20
0.0
 30
0.0
 11
0.0
 21
1.25
 31
0.0
  0
LINE
  5
25B
330
257
100
AcDbEntity
  8
Í¼¿ò
 62
     0
100
AcDbLine
 10
0.0
 20
0.0
 30
0.0
 11
-1.25
 21
0.0
 31
0.0
  0
LINE
  5
25C
330
257
100
AcDbEntity
  8
Í¼¿ò
 62
     0
100
AcDbLine
 10
0.0
 20
0.0
 30
0.0
 11
0.0
 21
-1.25
 31
0.0
  0
LINE
  5
25D
330
257
100
AcDbEntity
  8
Í¼¿ò
 62
     0
100
AcDbLine
 10
0.0
 20
0.0
 30
0.0
 11
1.25
 21
0.0
 31
0.0
  0
LINE
  5
25E
330
257
100
AcDbEntity
  8
Í¼¿ò
 62
     0
100
AcDbLine
 10
0.0
 20
1.25
 30
0.0
 11
0.0
 21
2.0
 31
0.0
  0
LINE
  5
25F
330
257
100
AcDbEntity
  8
Í¼¿ò
 62
     0
100
AcDbLine
 10
-1.25
 20
0.0
 30
0.0
 11
-2.0
 21
0.0
 31
0.0
  0
LINE
  5
260
330
257
100
AcDbEntity
  8
Í¼¿ò
 62
     0
100
AcDbLine
 10
0.0
 20
-1.25
 30
0.0
 11
0.0
 21
-2.0
 31
0.0
  0
LINE
  5
261
330
257
100
AcDbEntity
  8
Í¼¿ò
 62
     0
100
AcDbLine
 10
1.25
 20
0.0
 30
0.0
 11
2.0
 21
0.0
 31
0.0
  0
ENDBLK
  5
259
330
257
100
AcDbEntity
  8
0
100
AcDbBlockEnd
  0
BLOCK
  5
264
330
263
100
AcDbEntity
  8
0
100
AcDbBlockBegin
  2
SW_CENTERMARKSYMBOL_20
 70
     0
 10
0.0
 20
0.0
 30
0.0
  3
SW_CENTERMARKSYMBOL_20
  1

  0
LINE
  5
266
330
263
100
AcDbEntity
  8
Í¼¿ò
 62
     0
100
AcDbLine
 10
0.0
 20
0.0
 30
0.0
 11
0.0
 21
1.25
 31
0.0
  0
LINE
  5
267
330
263
100
AcDbEntity
  8
Í¼¿ò
 62
     0
100
AcDbLine
 10
0.0
 20
0.0
 30
0.0
 11
-1.25
 21
0.0
 31
0.0
  0
LINE
  5
268
330
263
100
AcDbEntity
  8
Í¼¿ò
 62
     0
100
AcDbLine
 10
0.0
 20
0.0
 30
0.0
 11
0.0
 21
-1.25
 31
0.0
  0
LINE
  5
269
330
263
100
AcDbEntity
  8
Í¼¿ò
 62
     0
100
AcDbLine
 10
0.0
 20
0.0
 30
0.0
 11
1.25
 21
0.0
 31
0.0
  0
LINE
  5
26A
330
263
100
AcDbEntity
  8
Í¼¿ò
 62
     0
100
AcDbLine
 10
0.0
 20
1.25
 30
0.0
 11
0.0
 21
2.0
 31
0.0
  0
LINE
  5
26B
330
263
100
AcDbEntity
  8
Í¼¿ò
 62
     0
100
AcDbLine
 10
-1.25
 20
0.0
 30
0.0
 11
-2.0
 21
0.0
 31
0.0
  0
LINE
  5
26C
330
263
100
AcDbEntity
  8
Í¼¿ò
 62
     0
100
AcDbLine
 10
0.0
 20
-1.25
 30
0.0
 11
0.0
 21
-2.0
 31
0.0
  0
LINE
  5
26D
330
263
100
AcDbEntity
  8
Í¼¿ò
 62
     0
100
AcDbLine
 10
1.25
 20
0.0
 30
0.0
 11
2.0
 21
0.0
 31
0.0
  0
ENDBLK
  5
265
330
263
100
AcDbEntity
  8
0
100
AcDbBlockEnd
  0
BLOCK
  5
270
330
26F
100
AcDbEntity
  8
0
100
AcDbBlockBegin
  2
SW_CENTERMARKSYMBOL_21
 70
     0
 10
0.0
 20
0.0
 30
0.0
  3
SW_CENTERMARKSYMBOL_21
  1

  0
LINE
  5
272
330
26F
100
AcDbEntity
  8
Í¼¿ò
 62
     0
100
AcDbLine
 10
0.0
 20
0.0
 30
0.0
 11
0.0
 21
1.25
 31
0.0
  0
LINE
  5
273
330
26F
100
AcDbEntity
  8
Í¼¿ò
 62
     0
100
AcDbLine
 10
0.0
 20
0.0
 30
0.0
 11
-1.25
 21
0.0
 31
0.0
  0
LINE
  5
274
330
26F
100
AcDbEntity
  8
Í¼¿ò
 62
     0
100
AcDbLine
 10
0.0
 20
0.0
 30
0.0
 11
0.0
 21
-1.25
 31
0.0
  0
LINE
  5
275
330
26F
100
AcDbEntity
  8
Í¼¿ò
 62
     0
100
AcDbLine
 10
0.0
 20
0.0
 30
0.0
 11
1.25
 21
0.0
 31
0.0
  0
LINE
  5
276
330
26F
100
AcDbEntity
  8
Í¼¿ò
 62
     0
100
AcDbLine
 10
0.0
 20
1.25
 30
0.0
 11
0.0
 21
2.0
 31
0.0
  0
LINE
  5
277
330
26F
100
AcDbEntity
  8
Í¼¿ò
 62
     0
100
AcDbLine
 10
-1.25
 20
0.0
 30
0.0
 11
-2.0
 21
0.0
 31
0.0
  0
LINE
  5
278
330
26F
100
AcDbEntity
  8
Í¼¿ò
 62
     0
100
AcDbLine
 10
0.0
 20
-1.25
 30
0.0
 11
0.0
 21
-2.0
 31
0.0
  0
LINE
  5
279
330
26F
100
AcDbEntity
  8
Í¼¿ò
 62
     0
100
AcDbLine
 10
1.25
 20
0.0
 30
0.0
 11
2.0
 21
0.0
 31
0.0
  0
ENDBLK
  5
271
330
26F
100
AcDbEntity
  8
0
100
AcDbBlockEnd
  0
BLOCK
  5
27C
330
27B
100
AcDbEntity
  8
0
100
AcDbBlockBegin
  2
SW_CENTERMARKSYMBOL_22
 70
     0
 10
0.0
 20
0.0
 30
0.0
  3
SW_CENTERMARKSYMBOL_22
  1

  0
LINE
  5
27E
330
27B
100
AcDbEntity
  8
Í¼¿ò
 62
     0
100
AcDbLine
 10
0.0
 20
0.0
 30
0.0
 11
0.0
 21
1.25
 31
0.0
  0
LINE
  5
27F
330
27B
100
AcDbEntity
  8
Í¼¿ò
 62
     0
100
AcDbLine
 10
0.0
 20
0.0
 30
0.0
 11
-1.25
 21
0.0
 31
0.0
  0
LINE
  5
280
330
27B
100
AcDbEntity
  8
Í¼¿ò
 62
     0
100
AcDbLine
 10
0.0
 20
0.0
 30
0.0
 11
0.0
 21
-1.25
 31
0.0
  0
LINE
  5
281
330
27B
100
AcDbEntity
  8
Í¼¿ò
 62
     0
100
AcDbLine
 10
0.0
 20
0.0
 30
0.0
 11
1.25
 21
0.0
 31
0.0
  0
LINE
  5
282
330
27B
100
AcDbEntity
  8
Í¼¿ò
 62
     0
100
AcDbLine
 10
0.0
 20
1.25
 30
0.0
 11
0.0
 21
2.0
 31
0.0
  0
LINE
  5
283
330
27B
100
AcDbEntity
  8
Í¼¿ò
 62
     0
100
AcDbLine
 10
-1.25
 20
0.0
 30
0.0
 11
-2.0
 21
0.0
 31
0.0
  0
LINE
  5
284
330
27B
100
AcDbEntity
  8
Í¼¿ò
 62
     0
100
AcDbLine
 10
0.0
 20
-1.25
 30
0.0
 11
0.0
 21
-2.0
 31
0.0
  0
LINE
  5
285
330
27B
100
AcDbEntity
  8
Í¼¿ò
 62
     0
100
AcDbLine
 10
1.25
 20
0.0
 30
0.0
 11
2.0
 21
0.0
 31
0.0
  0
ENDBLK
  5
27D
330
27B
100
AcDbEntity
  8
0
100
AcDbBlockEnd
  0
BLOCK
  5
288
330
287
100
AcDbEntity
  8
0
100
AcDbBlockBegin
  2
SW_CENTERMARKSYMBOL_23
 70
     0
 10
0.0
 20
0.0
 30
0.0
  3
SW_CENTERMARKSYMBOL_23
  1

  0
LINE
  5
28A
330
287
100
AcDbEntity
  8
Í¼¿ò
 62
     0
100
AcDbLine
 10
0.0
 20
0.0
 30
0.0
 11
0.0
 21
1.25
 31
0.0
  0
LINE
  5
28B
330
287
100
AcDbEntity
  8
Í¼¿ò
 62
     0
100
AcDbLine
 10
0.0
 20
0.0
 30
0.0
 11
-1.25
 21
0.0
 31
0.0
  0
LINE
  5
28C
330
287
100
AcDbEntity
  8
Í¼¿ò
 62
     0
100
AcDbLine
 10
0.0
 20
0.0
 30
0.0
 11
0.0
 21
-1.25
 31
0.0
  0
LINE
  5
28D
330
287
100
AcDbEntity
  8
Í¼¿ò
 62
     0
100
AcDbLine
 10
0.0
 20
0.0
 30
0.0
 11
1.25
 21
0.0
 31
0.0
  0
LINE
  5
28E
330
287
100
AcDbEntity
  8
Í¼¿ò
 62
     0
100
AcDbLine
 10
0.0
 20
1.25
 30
0.0
 11
0.0
 21
2.0
 31
0.0
  0
LINE
  5
28F
330
287
100
AcDbEntity
  8
Í¼¿ò
 62
     0
100
AcDbLine
 10
-1.25
 20
0.0
 30
0.0
 11
-2.0
 21
0.0
 31
0.0
  0
LINE
  5
290
330
287
100
AcDbEntity
  8
Í¼¿ò
 62
     0
100
AcDbLine
 10
0.0
 20
-1.25
 30
0.0
 11
0.0
 21
-2.0
 31
0.0
  0
LINE
  5
291
330
287
100
AcDbEntity
  8
Í¼¿ò
 62
     0
100
AcDbLine
 10
1.25
 20
0.0
 30
0.0
 11
2.0
 21
0.0
 31
0.0
  0
ENDBLK
  5
289
330
287
100
AcDbEntity
  8
0
100
AcDbBlockEnd
  0
BLOCK
  5
294
330
293
100
AcDbEntity
  8
0
100
AcDbBlockBegin
  2
SW_CENTERMARKSYMBOL_24
 70
     0
 10
0.0
 20
0.0
 30
0.0
  3
SW_CENTERMARKSYMBOL_24
  1

  0
LINE
  5
296
330
293
100
AcDbEntity
  8
Í¼¿ò
 62
     0
100
AcDbLine
 10
0.0
 20
0.0
 30
0.0
 11
0.0
 21
1.25
 31
0.0
  0
LINE
  5
297
330
293
100
AcDbEntity
  8
Í¼¿ò
 62
     0
100
AcDbLine
 10
0.0
 20
0.0
 30
0.0
 11
-1.25
 21
0.0
 31
0.0
  0
LINE
  5
298
330
293
100
AcDbEntity
  8
Í¼¿ò
 62
     0
100
AcDbLine
 10
0.0
 20
0.0
 30
0.0
 11
0.0
 21
-1.25
 31
0.0
  0
LINE
  5
299
330
293
100
AcDbEntity
  8
Í¼¿ò
 62
     0
100
AcDbLine
 10
0.0
 20
0.0
 30
0.0
 11
1.25
 21
0.0
 31
0.0
  0
LINE
  5
29A
330
293
100
AcDbEntity
  8
Í¼¿ò
 62
     0
100
AcDbLine
 10
0.0
 20
1.25
 30
0.0
 11
0.0
 21
2.0
 31
0.0
  0
LINE
  5
29B
330
293
100
AcDbEntity
  8
Í¼¿ò
 62
     0
100
AcDbLine
 10
-1.25
 20
0.0
 30
0.0
 11
-2.0
 21
0.0
 31
0.0
  0
LINE
  5
29C
330
293
100
AcDbEntity
  8
Í¼¿ò
 62
     0
100
AcDbLine
 10
0.0
 20
-1.25
 30
0.0
 11
0.0
 21
-2.0
 31
0.0
  0
LINE
  5
29D
330
293
100
AcDbEntity
  8
Í¼¿ò
 62
     0
100
AcDbLine
 10
1.25
 20
0.0
 30
0.0
 11
2.0
 21
0.0
 31
0.0
  0
ENDBLK
  5
295
330
293
100
AcDbEntity
  8
0
100
AcDbBlockEnd
  0
BLOCK
  5
2AB
330
2AA
100
AcDbEntity
  8
0
100
AcDbBlockBegin
  2
_D_9
 70
     0
 10
0.0
 20
0.0
 30
0.0
  3
_D_9
  1

  0
SOLID
  5
2AD
330
2AA
100
AcDbEntity
  8
Í¼¿ò
100
AcDbTrace
 10
172.094488189
 20
150.0055366971
 30
0.0
 11
168.014488189
 21
150.5135366971
 31
0.0
 12
168.014488189
 22
149.4975366971
 32
0.0
 13
168.014488189
 23
149.4975366971
 33
0.0
  0
SOLID
  5
2AE
330
2AA
100
AcDbEntity
  8
Í¼¿ò
100
AcDbTrace
 10
173.094488189
 20
150.0055366971
 30
0.0
 11
177.174488189
 21
149.4975366971
 31
0.0
 12
177.174488189
 22
150.5135366971
 32
0.0
 13
177.174488189
 23
150.5135366971
 33
0.0
  0
LINE
  5
2AF
330
2AA
100
AcDbEntity
  8
Í¼¿ò
100
AcDbLine
 10
172.094488189
 20
150.0055366971
 30
0.0
 11
165.744488189
 21
150.0055366971
 31
0.0
  0
LINE
  5
2B0
330
2AA
100
AcDbEntity
  8
Í¼¿ò
100
AcDbLine
 10
172.094488189
 20
150.0055366971
 30
0.0
 11
173.094488189
 21
150.0055366971
 31
0.0
  0
LINE
  5
2B1
330
2AA
100
AcDbEntity
  8
Í¼¿ò
100
AcDbLine
 10
173.094488189
 20
150.0055366971
 30
0.0
 11
176.4000138885
 21
150.0055366971
 31
0.0
  0
MTEXT
  5
2B2
330
2AA
100
AcDbEntity
  8
Í¼¿ò
100
AcDbMText
 10
174.863902774
 20
154.5172740191
 30
0.0
 40
3.5
 41
0.0
 71
     1
 72
     1
  1
2
  7
SLDTEXTSTYLE5
 73
     1
 44
1.0
  0
ENDBLK
  5
2AC
330
2AA
100
AcDbEntity
  8
0
100
AcDbBlockEnd
  0
BLOCK
  5
2BF
330
2BE
100
AcDbEntity
  8
0
100
AcDbBlockBegin
  2
_D_10
 70
     0
 10
0.0
 20
0.0
 30
0.0
  3
_D_10
  1

  0
SOLID
  5
2C1
330
2BE
100
AcDbEntity
  8
Í¼¿ò
100
AcDbTrace
 10
103.2406525474
 20
83.9354330709
 30
0.0
 11
103.7486525474
 21
88.0154330709
 31
0.0
 12
102.7326525474
 22
88.0154330709
 32
0.0
 13
102.7326525474
 23
88.0154330709
 33
0.0
  0
SOLID
  5
2C2
330
2BE
100
AcDbEntity
  8
Í¼¿ò
100
AcDbTrace
 10
103.2406525474
 20
82.9354330709
 30
0.0
 11
102.7326525474
 21
78.8554330709
 31
0.0
 12
103.7486525474
 22
78.8554330709
 32
0.0
 13
103.7486525474
 23
78.8554330709
 33
0.0
  0
LINE
  5
2C3
330
2BE
100
AcDbEntity
  8
Í¼¿ò
100
AcDbLine
 10
97.1513779528
 20
83.9354330709
 30
0.0
 11
105.2406525474
 21
83.9354330709
 31
0.0
  0
LINE
  5
2C4
330
2BE
100
AcDbEntity
  8
Í¼¿ò
100
AcDbLine
 10
89.2763779528
 20
82.9354330709
 30
0.0
 11
105.2406525474
 21
82.9354330709
 31
0.0
  0
LINE
  5
2C5
330
2BE
100
AcDbEntity
  8
Í¼¿ò
100
AcDbLine
 10
103.2406525474
 20
83.9354330709
 30
0.0
 11
103.2406525474
 21
85.116269011
 31
0.0
  0
LINE
  5
2C6
330
2BE
100
AcDbEntity
  8
Í¼¿ò
100
AcDbLine
 10
103.2406525474
 20
83.9354330709
 30
0.0
 11
103.2406525474
 21
82.9354330709
 31
0.0
  0
LINE
  5
2C7
330
2BE
100
AcDbEntity
  8
Í¼¿ò
100
AcDbLine
 10
103.2406525474
 20
82.9354330709
 30
0.0
 11
103.2406525474
 21
76.5854330709
 31
0.0
  0
MTEXT
  5
2C8
330
2BE
100
AcDbEntity
  8
Í¼¿ò
100
AcDbMText
 10
98.7289152254
 20
83.5801578965
 30
0.0
 40
3.5
 41
0.0
 71
     1
 72
     1
  1
2
  7
SLDTEXTSTYLE5
 11
-7.044195017643634E-15
 21
1.0
 31
0.0
 73
     1
 44
1.0
  0
ENDBLK
  5
2C0
330
2BE
100
AcDbEntity
  8
0
100
AcDbBlockEnd
  0
ENDSEC
  0
SECTION
  2
ENTITIES
  0
LINE
  5
80
330
1F
100
AcDbEntity
  8
Í¼¿ò
100
AcDbLine
 10
0.0
 20
66.2206215398
 30
0.0
 11
25.0
 21
66.2206215398
 31
0.0
  0
LINE
  5
81
330
1F
100
AcDbEntity
  8
Í¼¿ò
370
    25
100
AcDbLine
 10
112.0
 20
61.0
 30
0.0
 11
112.0
 21
5.0
 31
0.0
  0
LINE
  5
82
330
1F
100
AcDbEntity
  8
Í¼¿ò
  6
Continuous
370
    25
100
AcDbLine
 10
25.0
 20
5.0
 30
0.0
 11
25.0
 21
205.0
 31
0.0
  0
LINE
  5
83
330
1F
100
AcDbEntity
  8
Í¼¿ò
  6
Continuous
370
    25
100
AcDbLine
 10
25.0
 20
205.0
 30
0.0
 11
292.0
 21
205.0
 31
0.0
  0
LINE
  5
84
330
1F
100
AcDbEntity
  8
Í¼¿ò
  6
Continuous
370
    25
100
AcDbLine
 10
292.0
 20
5.0
 30
0.0
 11
292.0
 21
205.0
 31
0.0
  0
LINE
  5
85
330
1F
100
AcDbEntity
  8
Í¼¿ò
100
AcDbLine
 10
0.0
 20
71.2206215398
 30
0.0
 11
25.0
 21
71.2206215398
 31
0.0
  0
LINE
  5
86
330
1F
100
AcDbEntity
  8
Í¼¿ò
100
AcDbLine
 10
0.0
 20
53.4300278229
 30
0.0
 11
25.0
 21
53.4300278229
 31
0.0
  0
LINE
  5
87
330
1F
100
AcDbEntity
  8
Í¼¿ò
100
AcDbLine
 10
0.0
 20
58.4300278229
 30
0.0
 11
25.0
 21
58.4300278229
 31
0.0
  0
LINE
  5
88
330
1F
100
AcDbEntity
  8
Í¼¿ò
100
AcDbLine
 10
0.0
 20
40.4300278229
 30
0.0
 11
25.0
 21
40.4300278229
 31
0.0
  0
LINE
  5
89
330
1F
100
AcDbEntity
  8
Í¼¿ò
100
AcDbLine
 10
0.0
 20
45.4300278229
 30
0.0
 11
25.0
 21
45.4300278229
 31
0.0
  0
LINE
  5
8A
330
1F
100
AcDbEntity
  8
Í¼¿ò
100
AcDbLine
 10
0.0
 20
27.4300278229
 30
0.0
 11
25.0
 21
27.4300278229
 31
0.0
  0
LINE
  5
8B
330
1F
100
AcDbEntity
  8
Í¼¿ò
100
AcDbLine
 10
0.0
 20
32.4300278229
 30
0.0
 11
25.0
 21
32.4300278229
 31
0.0
  0
LINE
  5
8C
330
1F
100
AcDbEntity
  8
Í¼¿ò
100
AcDbLine
 10
0.0
 20
19.4300278229
 30
0.0
 11
25.0
 21
19.4300278229
 31
0.0
  0
LINE
  5
8D
330
1F
100
AcDbEntity
  8
Í¼¿ò
100
AcDbLine
 10
0.0
 20
14.4300278229
 30
0.0
 11
25.0
 21
14.4300278229
 31
0.0
  0
LINE
  5
8E
330
1F
100
AcDbEntity
  8
Í¼¿ò
370
    25
100
AcDbLine
 10
0.0
 20
105.0
 30
0.0
 11
30.0
 21
105.0
 31
0.0
  0
LINE
  5
8F
330
1F
100
AcDbEntity
  8
Í¼¿ò
100
AcDbLine
 10
0.0
 20
84.2206215398
 30
0.0
 11
25.0
 21
84.2206215398
 31
0.0
  0
LINE
  5
90
330
1F
100
AcDbEntity
  8
Í¼¿ò
100
AcDbLine
 10
0.0
 20
79.2206215398
 30
0.0
 11
25.0
 21
79.2206215398
 31
0.0
  0
LINE
  5
91
330
1F
100
AcDbEntity
  8
Í¼¿ò
100
AcDbLine
 10
0.0
 20
5.0
 30
0.0
 11
25.0
 21
5.0
 31
0.0
  0
LINE
  5
92
330
1F
100
AcDbEntity
  8
Í¼¿ò
100
AcDbLine
 10
58.5
 20
0.0
 30
0.0
 11
58.5
 21
5.0
 31
0.0
  0
LINE
  5
93
330
1F
100
AcDbEntity
  8
Í¼¿ò
370
    25
100
AcDbLine
 10
297.0
 20
105.0
 30
0.0
 11
287.0
 21
105.0
 31
0.0
  0
LINE
  5
94
330
1F
100
AcDbEntity
  8
Í¼¿ò
100
AcDbLine
 10
108.5
 20
0.0
 30
0.0
 11
108.5
 21
5.0
 31
0.0
  0
LINE
  5
95
330
1F
100
AcDbEntity
  8
Í¼¿ò
100
AcDbLine
 10
0.0
 20
155.0
 30
0.0
 11
25.0
 21
155.0
 31
0.0
  0
LINE
  5
96
330
1F
100
AcDbEntity
  8
Í¼¿ò
370
    25
100
AcDbLine
 10
158.5
 20
0.0
 30
0.0
 11
158.5
 21
5.0
 31
0.0
  0
LINE
  5
97
330
1F
100
AcDbEntity
  8
Í¼¿ò
100
AcDbLine
 10
208.5
 20
0.0
 30
0.0
 11
208.5
 21
5.0
 31
0.0
  0
LINE
  5
98
330
1F
100
AcDbEntity
  8
Í¼¿ò
100
AcDbLine
 10
258.5
 20
0.0
 30
0.0
 11
258.5
 21
5.0
 31
0.0
  0
LINE
  5
99
330
1F
100
AcDbEntity
  8
Í¼¿ò
100
AcDbLine
 10
258.5
 20
210.0
 30
0.0
 11
258.5
 21
205.0
 31
0.0
  0
LINE
  5
9A
330
1F
100
AcDbEntity
  8
´ÖÊµÏß²ã
100
AcDbLine
 10
25.0
 20
191.0
 30
0.0
 11
85.0
 21
191.0
 31
0.0
  0
LINE
  5
9B
330
1F
100
AcDbEntity
  8
´ÖÊµÏß²ã
100
AcDbLine
 10
85.0
 20
191.0
 30
0.0
 11
85.0
 21
205.0
 31
0.0
  0
LINE
  5
9C
330
1F
100
AcDbEntity
  8
Í¼¿ò
100
AcDbLine
 10
297.0
 20
155.0
 30
0.0
 11
292.0
 21
155.0
 31
0.0
  0
LINE
  5
9D
330
1F
100
AcDbEntity
  8
Í¼¿ò
100
AcDbLine
 10
297.0
 20
55.0
 30
0.0
 11
292.0
 21
55.0
 31
0.0
  0
LINE
  5
9E
330
1F
100
AcDbEntity
  8
Í¼¿ò
100
AcDbLine
 10
208.5
 20
210.0
 30
0.0
 11
208.5
 21
205.0
 31
0.0
  0
LINE
  5
9F
330
1F
100
AcDbEntity
  8
Í¼¿ò
100
AcDbLine
 10
0.0
 20
0.0
 30
0.0
 11
0.0
 21
210.0
 31
0.0
  0
LINE
  5
A0
330
1F
100
AcDbEntity
  8
Í¼¿ò
100
AcDbLine
 10
0.0
 20
210.0
 30
0.0
 11
297.0
 21
210.0
 31
0.0
  0
LINE
  5
A1
330
1F
100
AcDbEntity
  8
Í¼¿ò
100
AcDbLine
 10
297.0
 20
0.0
 30
0.0
 11
297.0
 21
210.0
 31
0.0
  0
LINE
  5
A2
330
1F
100
AcDbEntity
  8
Í¼¿ò
100
AcDbLine
 10
0.0
 20
0.0
 30
0.0
 11
297.0
 21
0.0
 31
0.0
  0
LINE
  5
A3
330
1F
100
AcDbEntity
  8
Í¼¿ò
370
    25
100
AcDbLine
 10
158.5
 20
210.0
 30
0.0
 11
158.5
 21
200.0
 31
0.0
  0
LINE
  5
A4
330
1F
100
AcDbEntity
  8
Í¼¿ò
100
AcDbLine
 10
108.5
 20
210.0
 30
0.0
 11
108.5
 21
205.0
 31
0.0
  0
LINE
  5
A5
330
1F
100
AcDbEntity
  8
Í¼¿ò
100
AcDbLine
 10
58.5
 20
210.0
 30
0.0
 11
58.5
 21
205.0
 31
0.0
  0
LINE
  5
A6
330
1F
100
AcDbEntity
  8
Í¼¿ò
370
    25
100
AcDbLine
 10
192.0000170091
 20
12.1660858974
 30
0.0
 11
292.0000382705
 21
12.1660858974
 31
0.0
  0
LINE
  5
A7
330
1F
100
AcDbEntity
  8
Í¼¿ò
370
    25
100
AcDbLine
 10
218.000022537
 20
12.1660858974
 30
0.0
 11
218.000022537
 21
5.0
 31
0.0
  0
LINE
  5
A8
330
1F
100
AcDbEntity
  8
Í¼¿ò
370
    25
100
AcDbLine
 10
230.0
 20
43.0
 30
0.0
 11
230.0
 21
24.0
 31
0.0
  0
LINE
  5
A9
330
1F
100
AcDbEntity
  8
Í¼¿ò
370
    25
100
AcDbLine
 10
218.000022537
 20
43.0691220229
 30
0.0
 11
218.000022537
 21
24.0691220229
 31
0.0
  0
LINE
  5
AA
330
1F
100
AcDbEntity
  8
Í¼¿ò
100
AcDbLine
 10
211.5
 20
33.0
 30
0.0
 11
211.5
 21
24.0
 31
0.0
  0
LINE
  5
AB
330
1F
100
AcDbEntity
  8
Í¼¿ò
100
AcDbLine
 10
205.0
 20
33.0
 30
0.0
 11
205.0
 21
24.0
 31
0.0
  0
LINE
  5
AC
330
1F
100
AcDbEntity
  8
Í¼¿ò
100
AcDbLine
 10
198.5
 20
33.0
 30
0.0
 11
198.5
 21
24.0
 31
0.0
  0
LINE
  5
AD
330
1F
100
AcDbEntity
  8
Í¼¿ò
370
    25
100
AcDbLine
 10
191.9798763677
 20
43.0521609977
 30
0.0
 11
291.9798763677
 21
43.0521609977
 31
0.0
  0
LINE
  5
AE
330
1F
100
AcDbEntity
  8
Í¼¿ò
370
    25
100
AcDbLine
 10
192.0151988559
 20
33.0000041251
 30
0.0
 11
240.691914676
 21
33.0000041251
 31
0.0
  0
LINE
  5
AF
330
1F
100
AcDbEntity
  8
Í¼¿ò
370
    25
100
AcDbLine
 10
192.0
 20
24.0
 30
0.0
 11
292.0
 21
24.0
 31
0.0
  0
LINE
  5
B0
330
1F
100
AcDbEntity
  8
Í¼¿ò
370
    25
100
AcDbLine
 10
148.0
 20
61.0
 30
0.0
 11
148.0
 21
33.0
 31
0.0
  0
LINE
  5
B1
330
1F
100
AcDbEntity
  8
Í¼¿ò
370
    25
100
AcDbLine
 10
132.0
 20
61.0
 30
0.0
 11
132.0
 21
33.0
 31
0.0
  0
LINE
  5
B2
330
1F
100
AcDbEntity
  8
Í¼¿ò
370
    25
100
AcDbLine
 10
122.0
 20
61.0
 30
0.0
 11
122.0
 21
33.0
 31
0.0
  0
LINE
  5
B3
330
1F
100
AcDbEntity
  8
Í¼¿ò
370
    25
100
AcDbLine
 10
240.691914676
 20
61.0000082502
 30
0.0
 11
240.691914676
 21
5.0
 31
0.0
  0
LINE
  5
B4
330
1F
100
AcDbEntity
  8
Í¼¿ò
370
    25
100
AcDbLine
 10
191.9681386682
 20
61.0521571706
 30
0.0
 11
192.0046899747
 21
5.0
 31
0.0
  0
LINE
  5
B5
330
1F
100
AcDbEntity
  8
Í¼¿ò
370
    25
100
AcDbLine
 10
176.0
 20
61.0
 30
0.0
 11
176.0
 21
5.0
 31
0.0
  0
LINE
  5
B6
330
1F
100
AcDbEntity
  8
Í¼¿ò
370
    25
100
AcDbLine
 10
164.0
 20
61.0
 30
0.0
 11
164.0
 21
5.0
 31
0.0
  0
LINE
  5
B7
330
1F
100
AcDbEntity
  8
Í¼¿ò
370
    25
100
AcDbLine
 10
152.0
 20
33.0
 30
0.0
 11
152.0
 21
5.0
 31
0.0
  0
LINE
  5
B8
330
1F
100
AcDbEntity
  8
Í¼¿ò
370
    25
100
AcDbLine
 10
136.0
 20
33.0
 30
0.0
 11
136.0
 21
5.0
 31
0.0
  0
LINE
  5
B9
330
1F
100
AcDbEntity
  8
Í¼¿ò
370
    25
100
AcDbLine
 10
124.0
 20
33.0
 30
0.0
 11
124.0
 21
5.0
 31
0.0
  0
LINE
  5
BA
330
1F
100
AcDbEntity
  8
Í¼¿ò
100
AcDbLine
 10
112.0
 20
54.0
 30
0.0
 11
192.0
 21
54.0
 31
0.0
  0
LINE
  5
BB
330
1F
100
AcDbEntity
  8
Í¼¿ò
100
AcDbLine
 10
112.0
 20
47.0
 30
0.0
 11
192.0
 21
47.0
 31
0.0
  0
LINE
  5
BC
330
1F
100
AcDbEntity
  8
Í¼¿ò
370
    25
100
AcDbLine
 10
112.0
 20
40.0
 30
0.0
 11
192.0
 21
40.0
 31
0.0
  0
LINE
  5
BD
330
1F
100
AcDbEntity
  8
Í¼¿ò
370
    25
100
AcDbLine
 10
112.0
 20
33.0
 30
0.0
 11
192.0
 21
33.0
 31
0.0
  0
LINE
  5
BE
330
1F
100
AcDbEntity
  8
Í¼¿ò
370
    25
100
AcDbLine
 10
112.0
 20
26.0
 30
0.0
 11
192.0
 21
26.0
 31
0.0
  0
LINE
  5
BF
330
1F
100
AcDbEntity
  8
Í¼¿ò
370
    25
100
AcDbLine
 10
112.0
 20
19.0
 30
0.0
 11
192.0
 21
19.0
 31
0.0
  0
LINE
  5
C0
330
1F
100
AcDbEntity
  8
Í¼¿ò
370
    25
100
AcDbLine
 10
112.0
 20
12.1660858974
 30
0.0
 11
192.0000170091
 21
12.1660858974
 31
0.0
  0
LINE
  5
C1
330
1F
100
AcDbEntity
  8
Í¼¿ò
370
    25
100
AcDbLine
 10
112.0
 20
61.0
 30
0.0
 11
292.0
 21
61.0
 31
0.0
  0
LINE
  5
C2
330
1F
100
AcDbEntity
  8
Í¼¿ò
370
    25
100
AcDbLine
 10
25.0
 20
5.0
 30
0.0
 11
292.0
 21
5.0
 31
0.0
  0
MTEXT
  5
C4
330
1F
100
AcDbEntity
  8
Í¼¿ò
100
AcDbMText
 10
243.6406191092
 20
10.5314267093
 30
0.0
 40
3.5
 41
0.0
 71
     1
 72
     1
  1
\M+191D6\M+191E3
  7
SLDTEXTSTYLE0
 73
     1
 44
1.0
  0
MTEXT
  5
C5
330
1F
100
AcDbEntity
  8
Í¼¿ò
100
AcDbMText
 10
224.3389171655
 20
10.5314267093
 30
0.0
 40
3.5
 41
0.0
 71
     2
 72
     1
  1
\M+194C5\M+1967B
  7
SLDTEXTSTYLE0
 73
     1
 44
1.0
  0
MTEXT
  5
C6
330
1F
100
AcDbEntity
  8
Í¼¿ò
100
AcDbMText
 10
159.7357194573
 20
17.3992894211
 30
0.0
 40
3.5
 41
0.0
 71
     2
 72
     1
  1
Éó\M+18A6A
  7
SLDTEXTSTYLE0
 73
     1
 44
1.0
  0
MTEXT
  5
C7
330
1F
100
AcDbEntity
  8
Í¼¿ò
100
AcDbMText
 10
159.7357194573
 20
24.6426250298
 30
0.0
 40
3.5
 41
0.0
 71
     2
 72
     1
  1
\M+18D48ÒÕ
  7
SLDTEXTSTYLE0
 73
     1
 44
1.0
  0
MTEXT
  5
C8
330
1F
100
AcDbEntity
  8
Í¼¿ò
100
AcDbMText
 10
237.6192730827
 20
39.8054182779
 30
0.0
 40
3.5
 41
0.0
 71
     2
 72
     1
  1
\M+194E4\M+197E1
  7
SLDTEXTSTYLE0
 73
     1
 44
1.0
  0
MTEXT
  5
C9
330
1F
100
AcDbEntity
  8
Í¼¿ò
100
AcDbMText
 10
225.7720861627
 20
39.8054182779
 30
0.0
 40
3.5
 41
0.0
 71
     2
 72
     1
  1
ÖÊ\M+197CA
  7
SLDTEXTSTYLE0
 73
     1
 44
1.0
  0
MTEXT
  5
CB
330
1F
100
AcDbEntity
  8
Í¼¿ò
100
AcDbMText
 10
213.5086885786
 20
10.2618073794
 30
0.0
 40
3.5
 41
0.0
 71
     2
 72
     1
  1
\M+191E6  ÕÅ
  7
SLDTEXTSTYLE1
 73
     1
 44
1.0
  0
MTEXT
  5
CC
330
1F
100
AcDbEntity
  8
Í¼¿ò
100
AcDbMText
 10
200.4812524133
 20
10.2618073794
 30
0.0
 40
3.5
 41
0.0
 71
     2
 72
     1
  1
\M+18BA4  ÕÅ
  7
SLDTEXTSTYLE1
 73
     1
 44
1.0
  0
MTEXT
  5
CE
330
1F
100
AcDbEntity
  8
Í¼¿ò
100
AcDbMText
 10
208.7235748489
 20
39.8054182779
 30
0.0
 40
3.5
 41
0.0
 71
     2
 72
     1
  1
½× \M+19269 ±ê ¼Ç
  7
SLDTEXTSTYLE2
 73
     1
 44
1.0
  0
MTEXT
  5
CF
330
1F
100
AcDbEntity
  8
Í¼¿ò
100
AcDbMText
 10
159.7381499764
 20
10.5229052471
 30
0.0
 40
3.5
 41
0.0
 71
     2
 72
     1
  1
\M+194E1\M+18F79
  7
SLDTEXTSTYLE0
 73
     1
 44
1.0
  0
MTEXT
  5
D0
330
1F
100
AcDbEntity
  8
Í¼¿ò
100
AcDbMText
 10
160.6131501329
 20
31.4917095915
 30
0.0
 40
3.5
 41
0.0
 71
     2
 72
     1
  1
±ê\M+18F79\M+189BB
  7
SLDTEXTSTYLE0
 73
     1
 44
1.0
  0
MTEXT
  5
D1
330
1F
100
AcDbEntity
  8
Í¼¿ò
100
AcDbMText
 10
121.5061559095
 20
17.3992894211
 30
0.0
 40
3.5
 41
0.0
 71
     2
 72
     1
  1
\M+18EE5\M+18AC7Éè¼Æ
  7
SLDTEXTSTYLE0
 73
     1
 44
1.0
  0
MTEXT
  5
D3
330
1F
100
AcDbEntity
  8
Í¼¿ò
100
AcDbMText
 10
186.5889603422
 20
38.4172162139
 30
0.0
 40
3.5
 41
0.0
 71
     2
 72
     1
  1
\M+1944E \M+18C8E \M+193FA
  7
SLDTEXTSTYLE3
 73
     1
 44
1.0
  0
MTEXT
  5
D4
330
1F
100
AcDbEntity
  8
Í¼¿ò
100
AcDbMText
 10
171.4764977113
 20
38.4172162139
 30
0.0
 40
3.5
 41
0.0
 71
     2
 72
     1
  1
Ç©\M+196BC
  7
SLDTEXTSTYLE0
 73
     1
 44
1.0
  0
MTEXT
  5
D5
330
1F
100
AcDbEntity
  8
Í¼¿ò
100
AcDbMText
 10
160.9367206206
 20
38.4172162139
 30
0.0
 40
3.5
 41
0.0
 71
     2
 72
     1
  1
\M+18D58\M+189FC\M+195B6\M+18C8F\M+18D86
  7
SLDTEXTSTYLE0
 73
     1
 44
1.0
  0
MTEXT
  5
D6
330
1F
100
AcDbEntity
  8
Í¼¿ò
100
AcDbMText
 10
141.6086203993
 20
38.4172162139
 30
0.0
 40
3.5
 41
0.0
 71
     2
 72
     1
  1
\M+195AA\M+18BE6
  7
SLDTEXTSTYLE0
 73
     1
 44
1.0
  0
MTEXT
  5
D7
330
1F
100
AcDbEntity
  8
Í¼¿ò
100
AcDbMText
 10
129.0871843894
 20
38.4172162139
 30
0.0
 40
3.5
 41
0.0
 71
     2
 72
     1
  1
´¦\M+19094
  7
SLDTEXTSTYLE0
 73
     1
 44
1.0
  0
MTEXT
  5
D8
330
1F
100
AcDbEntity
  8
Í¼¿ò
100
AcDbMText
 10
118.6973288173
 20
38.4172162139
 30
0.0
 40
3.5
 41
0.0
 71
     2
 72
     1
  1
±ê¼Ç
  7
SLDTEXTSTYLE0
 73
     1
 44
1.0
  0
MTEXT
  5
D9
330
1F
100
AcDbEntity
  8
Í¼¿ò
100
AcDbMText
 10
120.1470083087
 20
31.5581484012
 30
0.0
 40
3.5
 41
0.0
 71
     2
 72
     1
  1
Éè¼Æ
  7
SLDTEXTSTYLE0
 73
     1
 44
1.0
  0
MTEXT
  5
DA
330
1F
100
AcDbEntity
  8
Í¼¿ò
100
AcDbMText
 10
120.1470083087
 20
24.6789984356
 30
0.0
 40
3.5
 41
0.0
 71
     2
 72
     1
  1
\M+18D5A\M+18A6A
  7
SLDTEXTSTYLE0
 73
     1
 44
1.0
  0
MTEXT
  5
DB
330
1F
100
AcDbEntity
  8
Í¼¿ò
100
AcDbMText
 10
7.083635907
 20
83.5790514849
 30
0.0
 40
3.5
 41
0.0
 71
     1
 72
     1
  1
\M+197EB\M+18C8F\M+191E3\M+18D86
  7
SLDTEXTSTYLE0
 73
     1
 44
1.0
  0
MTEXT
  5
DC
330
1F
100
AcDbEntity
  8
Í¼¿ò
100
AcDbMText
 10
2.4961355509
 20
70.4725494122
 30
0.0
 40
3.5
 41
0.0
 71
     1
 72
     1
  1
\M+18ED8(\M+192CA)\M+19770\M+18C8F\M+1936F¼Ç
  7
SLDTEXTSTYLE0
 73
     1
 44
1.0
  0
MTEXT
  5
DD
330
1F
100
AcDbEntity
  8
Í¼¿ò
100
AcDbMText
 10
6.1940533475
 20
57.8238481283
 30
0.0
 40
3.5
 41
0.0
 71
     1
 72
     1
  1
\M+18B8C\M+192EAÍ¼×Ü\M+18D86
  7
SLDTEXTSTYLE0
 73
     1
 44
1.0
  0
MTEXT
  5
DE
330
1F
100
AcDbEntity
  8
Í¼¿ò
100
AcDbMText
 10
4.9471781955
 20
44.7655004492
 30
0.0
 40
3.5
 41
0.0
 71
     1
 72
     1
  1
\M+192EA Í¼ ×Ü \M+18D86
  7
SLDTEXTSTYLE2
 73
     1
 44
1.0
  0
MTEXT
  5
E0
330
1F
100
AcDbEntity
  8
Í¼¿ò
100
AcDbMText
 10
13.809740121
 20
18.4134739438
 30
0.0
 40
3.5
 41
0.0
 71
     2
 72
     1
  1
\M+193FA    \M+18AFA
  7
SLDTEXTSTYLE4
 73
     1
 44
1.0
  0
MTEXT
  5
E2
330
1F
100
AcDbEntity
  8
Í¼¿ò
100
AcDbMText
 10
235.8581619611
 20
31.5205321757
 30
0.0
 40
3.5
 41
0.0
 71
     2
 72
     1
  1
1:2
  7
SLDTEXTSTYLE5
 73
     1
 44
1.0
  0
MTEXT
  5
E3
330
1F
100
AcDbEntity
  8
Í¼¿ò
100
AcDbMText
 10
29.7944444427
 20
4.4864278646
 30
0.0
 40
3.5
 41
0.0
 71
     2
 72
     1
  1
1
  7
SLDTEXTSTYLE5
 73
     1
 44
1.0
  0
MTEXT
  5
E4
330
1F
100
AcDbEntity
  8
Í¼¿ò
100
AcDbMText
 10
13.32031252
 20
131.9864278646
 30
0.0
 40
3.5
 41
0.0
 71
     2
 72
     1
  1
B
  7
SLDTEXTSTYLE5
 73
     1
 44
1.0
  0
MTEXT
  5
E5
330
1F
100
AcDbEntity
  8
Í¼¿ò
100
AcDbMText
 10
13.32031252
 20
184.4864278646
 30
0.0
 40
3.5
 41
0.0
 71
     2
 72
     1
  1
A
  7
SLDTEXTSTYLE5
 73
     1
 44
1.0
  0
MTEXT
  5
E6
330
1F
100
AcDbEntity
  8
Í¼¿ò
100
AcDbMText
 10
294.92968752
 20
29.4864278646
 30
0.0
 40
3.5
 41
0.0
 71
     2
 72
     1
  1
D
  7
SLDTEXTSTYLE5
 73
     1
 44
1.0
  0
MTEXT
  5
E7
330
1F
100
AcDbEntity
  8
Í¼¿ò
100
AcDbMText
 10
295.4272569427
 20
82.0426708343
 30
0.0
 40
3.5
 41
0.0
 71
     2
 72
     1
  1
C
  7
SLDTEXTSTYLE5
 73
     1
 44
1.0
  0
MTEXT
  5
E8
330
1F
100
AcDbEntity
  8
Í¼¿ò
100
AcDbMText
 10
295.32031252
 20
131.9864278646
 30
0.0
 40
3.5
 41
0.0
 71
     2
 72
     1
  1
B
  7
SLDTEXTSTYLE5
 73
     1
 44
1.0
  0
MTEXT
  5
E9
330
1F
100
AcDbEntity
  8
Í¼¿ò
100
AcDbMText
 10
295.32031252
 20
184.4864278646
 30
0.0
 40
3.5
 41
0.0
 71
     2
 72
     1
  1
A
  7
SLDTEXTSTYLE5
 73
     1
 44
1.0
  0
MTEXT
  5
EA
330
1F
100
AcDbEntity
  8
Í¼¿ò
100
AcDbMText
 10
13.809740121
 20
31.7635246519
 30
0.0
 40
3.5
 41
0.0
 71
     2
 72
     1
  1
Ç©    \M+18E9A
  7
SLDTEXTSTYLE4
 73
     1
 44
1.0
  0
MTEXT
  5
EB
330
1F
100
AcDbEntity
  8
Í¼¿ò
100
AcDbMText
 10
84.0444444427
 20
4.4864278646
 30
0.0
 40
3.5
 41
0.0
 71
     2
 72
     1
  1
2
  7
SLDTEXTSTYLE5
 73
     1
 44
1.0
  0
MTEXT
  5
EC
330
1F
100
AcDbEntity
  8
Í¼¿ò
100
AcDbMText
 10
234.0444444427
 20
4.4864278646
 30
0.0
 40
3.5
 41
0.0
 71
     2
 72
     1
  1
5
  7
SLDTEXTSTYLE5
 73
     1
 44
1.0
  0
MTEXT
  5
ED
330
1F
100
AcDbEntity
  8
Í¼¿ò
100
AcDbMText
 10
184.0444444427
 20
4.4864278646
 30
0.0
 40
3.5
 41
0.0
 71
     2
 72
     1
  1
4
  7
SLDTEXTSTYLE5
 73
     1
 44
1.0
  0
MTEXT
  5
EE
330
1F
100
AcDbEntity
  8
Í¼¿ò
100
AcDbMText
 10
134.0444444427
 20
4.4864278646
 30
0.0
 40
3.5
 41
0.0
 71
     2
 72
     1
  1
3
  7
SLDTEXTSTYLE5
 73
     1
 44
1.0
  0
MTEXT
  5
EF
330
1F
100
AcDbEntity
  8
Í¼¿ò
100
AcDbMText
 10
278.29687502
 20
4.4864278646
 30
0.0
 40
3.5
 41
0.0
 71
     2
 72
     1
  1
6
  7
SLDTEXTSTYLE5
 73
     1
 44
1.0
  0
MTEXT
  5
F0
330
1F
100
AcDbEntity
  8
Í¼¿ò
100
AcDbMText
 10
278.29687502
 20
209.4864278646
 30
0.0
 40
3.5
 41
0.0
 71
     2
 72
     1
  1
6
  7
SLDTEXTSTYLE5
 73
     1
 44
1.0
  0
MTEXT
  5
F1
330
1F
100
AcDbEntity
  8
Í¼¿ò
100
AcDbMText
 10
184.0444444427
 20
209.4864278646
 30
0.0
 40
3.5
 41
0.0
 71
     2
 72
     1
  1
4
  7
SLDTEXTSTYLE5
 73
     1
 44
1.0
  0
MTEXT
  5
F2
330
1F
100
AcDbEntity
  8
Í¼¿ò
100
AcDbMText
 10
84.0444444427
 20
209.4864278646
 30
0.0
 40
3.5
 41
0.0
 71
     2
 72
     1
  1
2
  7
SLDTEXTSTYLE5
 73
     1
 44
1.0
  0
MTEXT
  5
F3
330
1F
100
AcDbEntity
  8
Í¼¿ò
100
AcDbMText
 10
234.0444444427
 20
209.4864278646
 30
0.0
 40
3.5
 41
0.0
 71
     2
 72
     1
  1
5
  7
SLDTEXTSTYLE5
 73
     1
 44
1.0
  0
MTEXT
  5
F4
330
1F
100
AcDbEntity
  8
Í¼¿ò
100
AcDbMText
 10
29.7944444427
 20
209.4864278646
 30
0.0
 40
3.5
 41
0.0
 71
     2
 72
     1
  1
1
  7
SLDTEXTSTYLE5
 73
     1
 44
1.0
  0
MTEXT
  5
F5
330
1F
100
AcDbEntity
  8
Í¼¿ò
100
AcDbMText
 10
134.0444444427
 20
209.4864278646
 30
0.0
 40
3.5
 41
0.0
 71
     2
 72
     1
  1
3
  7
SLDTEXTSTYLE5
 73
     1
 44
1.0
  0
CIRCLE
  5
F6
330
1F
100
AcDbEntity
  8
0
  6
Continuous
 62
     7
370
    25
100
AcDbCircle
 10
72.5263779528
 20
153.6336614173
 30
0.0
 40
0.75
  0
CIRCLE
  5
F7
330
1F
100
AcDbEntity
  8
0
  6
Continuous
 62
     7
370
    25
100
AcDbCircle
 10
79.5263779528
 20
153.6336614173
 30
0.0
 40
0.75
  0
CIRCLE
  5
F8
330
1F
100
AcDbEntity
  8
0
  6
Continuous
 62
     7
370
    25
100
AcDbCircle
 10
86.5263779528
 20
150.1336614173
 30
0.0
 40
0.7500000000000142
  0
CIRCLE
  5
F9
330
1F
100
AcDbEntity
  8
0
  6
Continuous
 62
     7
370
    25
100
AcDbCircle
 10
77.7763779528
 20
159.6336614173
 30
0.0
 40
0.75
  0
CIRCLE
  5
FA
330
1F
100
AcDbEntity
  8
0
  6
Continuous
 62
     7
370
    25
100
AcDbCircle
 10
84.7763779528
 20
159.6336614173
 30
0.0
 40
0.75
  0
CIRCLE
  5
FB
330
1F
100
AcDbEntity
  8
0
  6
Continuous
 62
     7
370
    25
100
AcDbCircle
 10
76.0263779528
 20
157.1336614173
 30
0.0
 40
0.75
  0
CIRCLE
  5
FC
330
1F
100
AcDbEntity
  8
0
  6
Continuous
 62
     7
370
    25
100
AcDbCircle
 10
86.5263779528
 20
153.6336614173
 30
0.0
 40
2.0
  0
CIRCLE
  5
FD
330
1F
100
AcDbEntity
  8
0
  6
Continuous
 62
     7
370
    25
100
AcDbCircle
 10
81.2763779528
 20
159.6336614173
 30
0.0
 40
2.000000000000014
  0
CIRCLE
  5
FE
330
1F
100
AcDbEntity
  8
0
  6
Continuous
 62
     7
370
    25
100
AcDbCircle
 10
68.9013779528
 20
158.6336614173
 30
0.0
 40
1.0
  0
CIRCLE
  5
FF
330
1F
100
AcDbEntity
  8
0
  6
Continuous
 62
     7
370
    25
100
AcDbCircle
 10
93.6513779528
 20
158.6336614173
 30
0.0
 40
1.0
  0
CIRCLE
  5
100
330
1F
100
AcDbEntity
  8
0
  6
Continuous
 62
     7
370
    25
100
AcDbCircle
 10
87.6513779528
 20
139.3836614173
 30
0.0
 40
4.0
  0
CIRCLE
  5
101
330
1F
100
AcDbEntity
  8
0
  6
Continuous
 62
     7
370
    25
100
AcDbCircle
 10
74.9014256757
 20
126.6685459667
 30
0.0
 40
3.999999999999986
  0
CIRCLE
  5
102
330
1F
100
AcDbEntity
  8
0
  6
Continuous
 62
     7
370
    25
100
AcDbCircle
 10
75.0263779528
 20
169.6336614173
 30
0.0
 40
4.0
  0
LINE
  5
103
330
1F
100
AcDbEntity
  8
0
  6
Continuous
 62
     7
370
    25
100
AcDbLine
 10
65.4013774461
 20
174.5896965236
 30
0.0
 11
65.4013774461
 21
121.4276265324
 31
0.0
  0
ARC
  5
104
330
1F
100
AcDbEntity
  8
0
  6
Continuous
 62
     7
370
    25
100
AcDbCircle
 10
69.6953423981
 20
174.589696972
 30
0.0
 40
4.293964445343633
100
AcDbArc
 50
90.0
 51
180.0
  0
LINE
  5
105
330
1F
100
AcDbEntity
  8
0
  6
Continuous
 62
     7
370
    25
100
AcDbLine
 10
92.8574132836
 20
178.8836616994
 30
0.0
 11
69.6953426219
 21
178.8836616994
 31
0.0
  0
ARC
  5
106
330
1F
100
AcDbEntity
  8
0
  6
Continuous
 62
     7
370
    25
100
AcDbCircle
 10
92.8574135074
 20
174.589696972
 30
0.0
 40
4.293964445343647
100
AcDbArc
 50
0.0
 51
90.0
  0
LINE
  5
107
330
1F
100
AcDbEntity
  8
0
  6
Continuous
 62
     7
370
    25
100
AcDbLine
 10
97.1513784594
 20
121.4276265324
 30
0.0
 11
97.1513784594
 21
174.5896965236
 31
0.0
  0
ARC
  5
108
330
1F
100
AcDbEntity
  8
0
  6
Continuous
 62
     7
370
    25
100
AcDbCircle
 10
92.8574135074
 20
121.4276258627
 30
0.0
 40
4.293964445343619
100
AcDbArc
 50
270.0
 51
0.0
  0
LINE
  5
109
330
1F
100
AcDbEntity
  8
0
  6
Continuous
 62
     7
370
    25
100
AcDbLine
 10
69.6953426219
 20
117.1336613566
 30
0.0
 11
92.8574132836
 21
117.1336613566
 31
0.0
  0
ARC
  5
10A
330
1F
100
AcDbEntity
  8
0
  6
Continuous
 62
     7
370
    25
100
AcDbCircle
 10
69.6953423981
 20
121.4276258627
 30
0.0
 40
4.293964445343633
100
AcDbArc
 50
180.0
 51
270.0
  0
CIRCLE
  5
10B
330
1F
100
AcDbEntity
  8
0
  6
Continuous
 62
     7
370
    25
100
AcDbCircle
 10
87.5263779528
 20
169.6336614173
 30
0.0
 40
4.0
  0
CIRCLE
  5
10C
330
1F
100
AcDbEntity
  8
0
  6
Continuous
 62
     7
370
    25
100
AcDbCircle
 10
87.6513779528
 20
126.6336614173
 30
0.0
 40
4.0
  0
CIRCLE
  5
10D
330
1F
100
AcDbEntity
  8
0
  6
Continuous
 62
     7
370
    25
100
AcDbCircle
 10
74.9014256757
 20
139.4185459667
 30
0.0
 40
3.999999999999986
  0
CIRCLE
  5
10E
330
1F
100
AcDbEntity
  8
0
  6
Continuous
 62
     7
370
    25
100
AcDbCircle
 10
93.6513779528
 20
153.6336614173
 30
0.0
 40
1.0
  0
CIRCLE
  5
10F
330
1F
100
AcDbEntity
  8
0
  6
Continuous
 62
     7
370
    25
100
AcDbCircle
 10
76.0263779528
 20
153.6336614173
 30
0.0
 40
2.0
  0
CIRCLE
  5
110
330
1F
100
AcDbEntity
  8
0
  6
Continuous
 62
     7
370
    25
100
AcDbCircle
 10
86.5263779528
 20
157.1336614173
 30
0.0
 40
0.75
  0
CIRCLE
  5
111
330
1F
100
AcDbEntity
  8
0
  6
Continuous
 62
     7
370
    25
100
AcDbCircle
 10
81.2763779528
 20
163.1336614173
 30
0.0
 40
0.75
  0
CIRCLE
  5
112
330
1F
100
AcDbEntity
  8
0
  6
Continuous
 62
     7
370
    25
100
AcDbCircle
 10
81.2763779528
 20
156.1336614173
 30
0.0
 40
0.75
  0
CIRCLE
  5
113
330
1F
100
AcDbEntity
  8
0
  6
Continuous
 62
     7
370
    25
100
AcDbCircle
 10
90.0263779528
 20
153.6336614173
 30
0.0
 40
0.75
  0
CIRCLE
  5
114
330
1F
100
AcDbEntity
  8
0
  6
Continuous
 62
     7
370
    25
100
AcDbCircle
 10
83.0263779528
 20
153.6336614173
 30
0.0
 40
0.75
  0
CIRCLE
  5
115
330
1F
100
AcDbEntity
  8
0
  6
Continuous
 62
     7
370
    25
100
AcDbCircle
 10
76.0263779528
 20
150.1336614173
 30
0.0
 40
0.75
  0
CIRCLE
  5
116
330
1F
100
AcDbEntity
  8
0
  6
Continuous
 62
     7
370
    25
100
AcDbCircle
 10
68.9013779528
 20
153.6336614173
 30
0.0
 40
1.0
  0
DIMENSION
  5
117
330
1F
100
AcDbEntity
  8
Í¼¿ò
100
AcDbDimension
  2
_D
 10
71.7072049707
 20
167.401377673
 30
0.0
 11
82.6685496581
 21
174.7733473059
 31
0.0
 70
   163
  1
<>
 71
     1
 42
-1.0
  3
SLDDIMSTYLE0
100
AcDbDiametricDimension
 15
78.3455509348
 25
171.8659451616
 35
0.0
 40
0.0
  0
DIMENSION
  5
124
330
1F
100
AcDbEntity
  8
Í¼¿ò
100
AcDbDimension
  2
_D_1
 10
62.6456834166
 20
117.1336614173
 30
0.0
 11
62.6456834166
 21
137.7467470106
 31
0.0
 70
   160
  1
<>
 71
     2
 42
-1.0
  3
SLDDIMSTYLE1
100
AcDbAlignedDimension
 13
69.6953423981
 23
178.8836614173
 33
0.0
 14
69.6953423981
 24
117.1336614173
 34
0.0
 50
90.0
100
AcDbRotatedDimension
  0
DIMENSION
  5
12F
330
1F
100
AcDbEntity
  8
Í¼¿ò
100
AcDbDimension
  2
_D_2
 10
97.1513779528
 20
112.8884392379
 30
0.0
 11
87.8729849923
 21
112.8884392379
 31
0.0
 70
   160
  1
<>
 71
     2
 42
-1.0
  3
SLDDIMSTYLE1
100
AcDbAlignedDimension
 13
65.4013779528
 23
121.4276258627
 33
0.0
 14
97.1513779528
 24
121.4276258627
 34
0.0
100
AcDbRotatedDimension
  0
DIMENSION
  5
139
330
1F
100
AcDbEntity
  8
Í¼¿ò
100
AcDbDimension
  2
_D_3
 10
71.9139407588
 20
136.7586711817
 30
0.0
 11
80.4489130177
 21
144.3576922345
 31
0.0
 70
   163
  1
<>
 71
     1
 42
-1.0
  3
SLDDIMSTYLE0
100
AcDbDiametricDimension
 15
77.8889105925
 25
142.0784207516
 35
0.0
 40
0.0
  0
DIMENSION
  5
142
330
1F
100
AcDbEntity
  8
Í¼¿ò
100
AcDbDimension
  2
_D_4
 10
79.5106944688
 20
158.6943202469
 30
0.0
 11
87.7621877986
 21
163.0841079613
 31
0.0
 70
   163
  1
<>
 71
     1
 42
-1.0
  3
SLDDIMSTYLE0
100
AcDbDiametricDimension
 15
83.0420614367
 25
160.5730025877
 35
0.0
 40
0.0
  0
DIMENSION
  5
14B
330
1F
100
AcDbEntity
  8
Í¼¿ò
100
AcDbDimension
  2
_D_5
 10
78.3553225514
 20
159.1568772401
 30
0.0
 11
75.0051240008
 21
161.915918814
 31
0.0
 70
   163
  1
<>
 71
     1
 42
-1.0
  3
SLDDIMSTYLE0
100
AcDbDiametricDimension
 15
77.1974333541
 25
160.1104455945
 35
0.0
 40
0.0
  0
DIMENSION
  5
154
330
1F
100
AcDbEntity
  8
Í¼¿ò
100
AcDbDimension
  2
_D_6
 10
69.1126856074
 20
157.656241817
 30
0.0
 11
68.0199168249
 21
162.7109830454
 31
0.0
 70
   163
  1
<>
 71
     1
 42
-1.0
  3
SLDDIMSTYLE0
100
AcDbDiametricDimension
 15
68.6900702981
 25
159.6110810176
 35
0.0
 40
0.0
  0
DIMENSION
  5
15D
330
1F
100
AcDbEntity
  8
Í¼¿ò
100
AcDbDimension
  2
_D_7
 10
87.5263779528
 20
167.4191847903
 30
0.0
 11
81.2253298933
 21
167.4191847903
 31
0.0
 70
   160
  1
<>
 71
     2
 42
-1.0
  3
SLDDIMSTYLE2
100
AcDbAlignedDimension
 13
75.0263779528
 23
164.3836614173
 33
0.0
 14
87.5263779528
 24
164.3836614173
 34
0.0
100
AcDbRotatedDimension
  0
DIMENSION
  5
168
330
1F
100
AcDbEntity
  8
Í¼¿ò
100
AcDbDimension
  2
_D_8
 10
87.6513779528
 20
130.1294670512
 30
0.0
 11
81.2032267014
 21
130.1294670512
 31
0.0
 70
   160
  1
<>
 71
     2
 42
-1.0
  3
SLDDIMSTYLE3
100
AcDbAlignedDimension
 13
74.9014256757
 23
131.9185459667
 33
0.0
 14
87.6513779528
 24
131.8836614173
 34
0.0
100
AcDbRotatedDimension
  0
INSERT
  5
17E
330
1F
100
AcDbEntity
  8
Í¼¿ò
100
AcDbBlockReference
  2
SW_CENTERMARKSYMBOL_0
 10
75.0263779528
 20
169.6336614173
 30
0.0
  0
INSERT
  5
18A
330
1F
100
AcDbEntity
  8
Í¼¿ò
100
AcDbBlockReference
  2
SW_CENTERMARKSYMBOL_1
 10
87.5263779528
 20
169.6336614173
 30
0.0
  0
INSERT
  5
196
330
1F
100
AcDbEntity
  8
Í¼¿ò
100
AcDbBlockReference
  2
SW_CENTERMARKSYMBOL_2
 10
74.9014256757
 20
126.6685459667
 30
0.0
  0
INSERT
  5
1A2
330
1F
100
AcDbEntity
  8
Í¼¿ò
100
AcDbBlockReference
  2
SW_CENTERMARKSYMBOL_3
 10
87.6513779528
 20
126.6336614173
 30
0.0
  0
INSERT
  5
1AE
330
1F
100
AcDbEntity
  8
Í¼¿ò
100
AcDbBlockReference
  2
SW_CENTERMARKSYMBOL_4
 10
87.6513779528
 20
139.3836614173
 30
0.0
  0
INSERT
  5
1BA
330
1F
100
AcDbEntity
  8
Í¼¿ò
100
AcDbBlockReference
  2
SW_CENTERMARKSYMBOL_5
 10
74.9014256757
 20
139.4185459667
 30
0.0
  0
INSERT
  5
1C6
330
1F
100
AcDbEntity
  8
Í¼¿ò
100
AcDbBlockReference
  2
SW_CENTERMARKSYMBOL_6
 10
93.6513779528
 20
158.6336614173
 30
0.0
  0
INSERT
  5
1D2
330
1F
100
AcDbEntity
  8
Í¼¿ò
100
AcDbBlockReference
  2
SW_CENTERMARKSYMBOL_7
 10
93.6513779528
 20
153.6336614173
 30
0.0
  0
INSERT
  5
1DE
330
1F
100
AcDbEntity
  8
Í¼¿ò
100
AcDbBlockReference
  2
SW_CENTERMARKSYMBOL_8
 10
68.9013779528
 20
158.6336614173
 30
0.0
  0
INSERT
  5
1EA
330
1F
100
AcDbEntity
  8
Í¼¿ò
100
AcDbBlockReference
  2
SW_CENTERMARKSYMBOL_9
 10
68.9013779528
 20
153.6336614173
 30
0.0
  0
INSERT
  5
1F6
330
1F
100
AcDbEntity
  8
Í¼¿ò
100
AcDbBlockReference
  2
SW_CENTERMARKSYMBOL_10
 10
81.2763779528
 20
159.6336614173
 30
0.0
  0
INSERT
  5
202
330
1F
100
AcDbEntity
  8
Í¼¿ò
100
AcDbBlockReference
  2
SW_CENTERMARKSYMBOL_11
 10
76.0263779528
 20
153.6336614173
 30
0.0
  0
INSERT
  5
20E
330
1F
100
AcDbEntity
  8
Í¼¿ò
100
AcDbBlockReference
  2
SW_CENTERMARKSYMBOL_12
 10
86.5263779528
 20
153.6336614173
 30
0.0
  0
INSERT
  5
21A
330
1F
100
AcDbEntity
  8
Í¼¿ò
100
AcDbBlockReference
  2
SW_CENTERMARKSYMBOL_13
 10
86.5263779528
 20
157.1336614173
 30
0.0
  0
INSERT
  5
226
330
1F
100
AcDbEntity
  8
Í¼¿ò
100
AcDbBlockReference
  2
SW_CENTERMARKSYMBOL_14
 10
76.0263779528
 20
157.1336614173
 30
0.0
  0
INSERT
  5
232
330
1F
100
AcDbEntity
  8
Í¼¿ò
100
AcDbBlockReference
  2
SW_CENTERMARKSYMBOL_15
 10
81.2763779528
 20
163.1336614173
 30
0.0
  0
INSERT
  5
23E
330
1F
100
AcDbEntity
  8
Í¼¿ò
100
AcDbBlockReference
  2
SW_CENTERMARKSYMBOL_16
 10
84.7763779528
 20
159.6336614173
 30
0.0
  0
INSERT
  5
24A
330
1F
100
AcDbEntity
  8
Í¼¿ò
100
AcDbBlockReference
  2
SW_CENTERMARKSYMBOL_17
 10
81.2763779528
 20
156.1336614173
 30
0.0
  0
INSERT
  5
256
330
1F
100
AcDbEntity
  8
Í¼¿ò
100
AcDbBlockReference
  2
SW_CENTERMARKSYMBOL_18
 10
77.7763779528
 20
159.6336614173
 30
0.0
  0
INSERT
  5
262
330
1F
100
AcDbEntity
  8
Í¼¿ò
100
AcDbBlockReference
  2
SW_CENTERMARKSYMBOL_19
 10
90.0263779528
 20
153.6336614173
 30
0.0
  0
INSERT
  5
26E
330
1F
100
AcDbEntity
  8
Í¼¿ò
100
AcDbBlockReference
  2
SW_CENTERMARKSYMBOL_20
 10
86.5263779528
 20
150.1336614173
 30
0.0
  0
INSERT
  5
27A
330
1F
100
AcDbEntity
  8
Í¼¿ò
100
AcDbBlockReference
  2
SW_CENTERMARKSYMBOL_21
 10
83.0263779528
 20
153.6336614173
 30
0.0
  0
INSERT
  5
286
330
1F
100
AcDbEntity
  8
Í¼¿ò
100
AcDbBlockReference
  2
SW_CENTERMARKSYMBOL_22
 10
79.5263779528
 20
153.6336614173
 30
0.0
  0
INSERT
  5
292
330
1F
100
AcDbEntity
  8
Í¼¿ò
100
AcDbBlockReference
  2
SW_CENTERMARKSYMBOL_23
 10
76.0263779528
 20
150.1336614173
 30
0.0
  0
INSERT
  5
29E
330
1F
100
AcDbEntity
  8
Í¼¿ò
100
AcDbBlockReference
  2
SW_CENTERMARKSYMBOL_24
 10
72.5263779528
 20
153.6336614173
 30
0.0
  0
LINE
  5
29F
330
1F
100
AcDbEntity
  8
0
  6
Continuous
 62
     7
370
    25
100
AcDbLine
 10
173.0944882365
 20
178.8836616994
 30
0.0
 11
172.094488189
 21
178.8836616994
 31
0.0
  0
LINE
  5
2A0
330
1F
100
AcDbEntity
  8
0
  6
Continuous
 62
     7
370
    25
100
AcDbLine
 10
173.0944882365
 20
178.8836616994
 30
0.0
 11
173.0944882365
 21
174.5896965236
 31
0.0
  0
LINE
  5
2A1
330
1F
100
AcDbEntity
  8
0
  6
Continuous
 62
     7
370
    25
100
AcDbLine
 10
173.0944882365
 20
174.5896965236
 30
0.0
 11
172.094488189
 21
174.5896965236
 31
0.0
  0
LINE
  5
2A2
330
1F
100
AcDbEntity
  8
0
  6
Continuous
 62
     7
370
    25
100
AcDbLine
 10
172.094488189
 20
178.8836616994
 30
0.0
 11
172.094488189
 21
174.5896965236
 31
0.0
  0
LINE
  5
2A3
330
1F
100
AcDbEntity
  8
0
  6
Continuous
 62
     7
370
    25
100
AcDbLine
 10
173.0944882365
 20
121.4276265324
 30
0.0
 11
172.094488189
 21
121.4276265324
 31
0.0
  0
LINE
  5
2A4
330
1F
100
AcDbEntity
  8
0
  6
Continuous
 62
     7
370
    25
100
AcDbLine
 10
173.0944882365
 20
174.5896965236
 30
0.0
 11
173.0944882365
 21
121.4276265324
 31
0.0
  0
LINE
  5
2A5
330
1F
100
AcDbEntity
  8
0
  6
Continuous
 62
     7
370
    25
100
AcDbLine
 10
172.094488189
 20
174.5896965236
 30
0.0
 11
172.094488189
 21
121.4276265324
 31
0.0
  0
LINE
  5
2A6
330
1F
100
AcDbEntity
  8
0
  6
Continuous
 62
     7
370
    25
100
AcDbLine
 10
173.0944882365
 20
117.1336613566
 30
0.0
 11
172.094488189
 21
117.1336613566
 31
0.0
  0
LINE
  5
2A7
330
1F
100
AcDbEntity
  8
0
  6
Continuous
 62
     7
370
    25
100
AcDbLine
 10
173.0944882365
 20
121.4276265324
 30
0.0
 11
173.0944882365
 21
117.1336613566
 31
0.0
  0
LINE
  5
2A8
330
1F
100
AcDbEntity
  8
0
  6
Continuous
 62
     7
370
    25
100
AcDbLine
 10
172.094488189
 20
121.4276265324
 30
0.0
 11
172.094488189
 21
117.1336613566
 31
0.0
  0
DIMENSION
  5
2A9
330
1F
100
AcDbEntity
  8
Í¼¿ò
100
AcDbDimension
  2
_D_9
 10
173.094488189
 20
150.0055366971
 30
0.0
 11
175.6319583313
 21
150.0055366971
 31
0.0
 70
   160
  1
<>
 71
     2
 42
-1.0
  3
SLDDIMSTYLE2
100
AcDbAlignedDimension
 13
172.094488189
 23
178.8836614173
 33
0.0
 14
173.094488189
 24
178.8836614173
 34
0.0
100
AcDbRotatedDimension
  0
LINE
  5
2B3
330
1F
100
AcDbEntity
  8
0
  6
Continuous
 62
     7
370
    25
100
AcDbLine
 10
92.8574132836
 20
82.9354330234
 30
0.0
 11
92.8574132836
 21
83.9354330709
 31
0.0
  0
LINE
  5
2B4
330
1F
100
AcDbEntity
  8
0
  6
Continuous
 62
     7
370
    25
100
AcDbLine
 10
92.8574132836
 20
82.9354330234
 30
0.0
 11
69.6953426219
 21
82.9354330234
 31
0.0
  0
LINE
  5
2B5
330
1F
100
AcDbEntity
  8
0
  6
Continuous
 62
     7
370
    25
100
AcDbLine
 10
69.6953426219
 20
82.9354330234
 30
0.0
 11
69.6953426219
 21
83.9354330709
 31
0.0
  0
LINE
  5
2B6
330
1F
100
AcDbEntity
  8
0
  6
Continuous
 62
     7
370
    25
100
AcDbLine
 10
92.8574132836
 20
83.9354330709
 30
0.0
 11
69.6953426219
 21
83.9354330709
 31
0.0
  0
LINE
  5
2B7
330
1F
100
AcDbEntity
  8
0
  6
Continuous
 62
     7
370
    25
100
AcDbLine
 10
97.1513784594
 20
82.9354330234
 30
0.0
 11
97.1513784594
 21
83.9354330709
 31
0.0
  0
LINE
  5
2B8
330
1F
100
AcDbEntity
  8
0
  6
Continuous
 62
     7
370
    25
100
AcDbLine
 10
97.1513784594
 20
82.9354330234
 30
0.0
 11
92.8574132836
 21
82.9354330234
 31
0.0
  0
LINE
  5
2B9
330
1F
100
AcDbEntity
  8
0
  6
Continuous
 62
     7
370
    25
100
AcDbLine
 10
97.1513784594
 20
83.9354330709
 30
0.0
 11
92.8574132836
 21
83.9354330709
 31
0.0
  0
LINE
  5
2BA
330
1F
100
AcDbEntity
  8
0
  6
Continuous
 62
     7
370
    25
100
AcDbLine
 10
65.4013774461
 20
82.9354330234
 30
0.0
 11
65.4013774461
 21
83.9354330709
 31
0.0
  0
LINE
  5
2BB
330
1F
100
AcDbEntity
  8
0
  6
Continuous
 62
     7
370
    25
100
AcDbLine
 10
69.6953426219
 20
82.9354330234
 30
0.0
 11
65.4013774461
 21
82.9354330234
 31
0.0
  0
LINE
  5
2BC
330
1F
100
AcDbEntity
  8
0
  6
Continuous
 62
     7
370
    25
100
AcDbLine
 10
69.6953426219
 20
83.9354330709
 30
0.0
 11
65.4013774461
 21
83.9354330709
 31
0.0
  0
DIMENSION
  5
2BD
330
1F
100
AcDbEntity
  8
Í¼¿ò
100
AcDbDimension
  2
_D_10
 10
103.2406525474
 20
82.9354330709
 30
0.0
 11
103.2406525474
 21
84.3482134537
 31
0.0
 70
   160
  1
<>
 71
     2
 42
-1.0
  3
SLDDIMSTYLE2
100
AcDbAlignedDimension
 13
97.1513779528
 23
83.9354330709
 33
0.0
 14
89.2763779528
 24
82.9354330709
 34
0.0
 50
90.0
100
AcDbRotatedDimension
  0
ENDSEC
  0
SECTION
  2
OBJECTS
  0
DICTIONARY
  5
C
330
0
100
AcDbDictionary
281
     1
  3
ACAD_GROUP
350
D
  3
ACAD_LAYOUT
350
1A
  3
ACAD_MLINESTYLE
350
17
  3
ACAD_PLOTSETTINGS
350
19
  3
ACAD_PLOTSTYLENAME
350
E
  3
ACAD_SCALELIST
350
47
  0
DICTIONARY
  5
D
102
{ACAD_REACTORS
330
C
102
}
330
C
100
AcDbDictionary
281
     1
  0
DICTIONARY
  5
1A
102
{ACAD_REACTORS
330
C
102
}
330
C
100
AcDbDictionary
281
     1
  3
Layout1
350
1E
  3
Layout2
350
26
  3
Model
350
22
  0
DICTIONARY
  5
17
102
{ACAD_REACTORS
330
C
102
}
330
C
100
AcDbDictionary
281
     1
  3
Standard
350
18
  0
DICTIONARY
  5
19
102
{ACAD_REACTORS
330
C
102
}
330
C
100
AcDbDictionary
281
     1
  0
ACDBDICTIONARYWDFLT
  5
E
102
{ACAD_REACTORS
330
C
102
}
330
C
100
AcDbDictionary
281
     1
  3
Normal
350
F
100
AcDbDictionaryWithDefault
340
F
  0
DICTIONARY
  5
47
102
{ACAD_REACTORS
330
C
102
}
330
C
100
AcDbDictionary
281
     1
  3
A0
350
48
  3
A1
350
49
  3
A2
350
4A
  3
A3
350
4B
  3
A4
350
4C
  3
A5
350
4D
  3
A6
350
4E
  3
A7
350
4F
  3
A8
350
50
  3
A9
350
51
  3
B0
350
52
  3
B1
350
53
  3
B2
350
54
  3
B3
350
55
  3
B4
350
56
  3
B5
350
57
  3
B6
350
58
  3
B7
350
59
  3
B8
350
5A
  3
B9
350
5B
  3
C0
350
5C
  3
C1
350
5D
  3
C2
350
5E
  3
C3
350
5F
  3
C4
350
60
  3
C5
350
61
  3
C6
350
62
  3
C7
350
63
  3
C8
350
64
  3
C9
350
65
  3
D0
350
66
  3
D1
350
67
  3
D2
350
68
  0
LAYOUT
  5
1E
102
{ACAD_REACTORS
330
1A
102
}
330
1A
100
AcDbPlotSettings
  1

  2
none_device
  4

  6

 40
0.0
 41
0.0
 42
0.0
 43
0.0
 44
0.0
 45
0.0
 46
0.0
 47
0.0
 48
0.0
 49
0.0
140
0.0
141
0.0
142
1.0
143
1.0
 70
   688
 72
     1
 73
     0
 74
     5
  7

 75
    16
147
1.0
148
0.0
149
0.0
100
AcDbLayout
  1
Layout1
 70
     1
 71
     1
 10
0.0
 20
0.0
 11
420.0
 21
297.0
 12
0.0
 22
0.0
 32
0.0
 14
1.0000000000E+20
 24
1.0000000000E+20
 34
1.0000000000E+20
 15
-1.0000000000E+20
 25
-1.0000000000E+20
 35
-1.0000000000E+20
146
0.0
 13
0.0
 23
0.0
 33
0.0
 16
1.0
 26
0.0
 36
0.0
 17
0.0
 27
1.0
 37
0.0
 76
     0
330
1B
  0
LAYOUT
  5
26
102
{ACAD_REACTORS
330
1A
102
}
330
1A
100
AcDbPlotSettings
  1

  2
none_device
  4

  6

 40
0.0
 41
0.0
 42
0.0
 43
0.0
 44
0.0
 45
0.0
 46
0.0
 47
0.0
 48
0.0
 49
0.0
140
0.0
141
0.0
142
1.0
143
1.0
 70
   688
 72
     1
 73
     0
 74
     5
  7

 75
    16
147
1.0
148
0.0
149
0.0
100
AcDbLayout
  1
Layout2
 70
     1
 71
     2
 10
0.0
 20
0.0
 11
0.0
 21
0.0
 12
0.0
 22
0.0
 32
0.0
 14
0.0
 24
0.0
 34
0.0
 15
0.0
 25
0.0
 35
0.0
146
0.0
 13
0.0
 23
0.0
 33
0.0
 16
1.0
 26
0.0
 36
0.0
 17
0.0
 27
1.0
 37
0.0
 76
     0
330
23
  0
LAYOUT
  5
22
102
{ACAD_REACTORS
330
1A
102
}
330
1A
100
AcDbPlotSettings
  1

  2
none_device
  4
Letter_(8.50_x_11.00_Inches)
  6

 40
6.35
 41
6.35
 42
6.35000508
 43
6.35000508
 44
215.9
 45
279.4
 46
0.0
 47
0.0
 48
0.0
 49
0.0
140
0.0
141
0.0
142
1.0
143
1.0
 70
  1712
 72
     1
 73
     0
 74
     0
  7

 75
     0
147
1.0
148
0.0
149
0.0
100
AcDbLayout
  1
Model
 70
     1
 71
     0
 10
0.0
 20
0.0
 11
297.0
 21
210.0
 12
0.0
 22
0.0
 32
0.0
 14
0.0
 24
0.0
 34
0.0
 15
297.0
 25
210.0
 35
0.0
146
0.0
 13
0.0
 23
0.0
 33
0.0
 16
1.0
 26
0.0
 36
0.0
 17
0.0
 27
1.0
 37
0.0
 76
     0
330
1F
331
29
  0
MLINESTYLE
  5
18
102
{ACAD_REACTORS
330
17
102
}
330
17
100
AcDbMlineStyle
  2
Standard
 70
     0
  3

 62
   256
 51
90.0
 52
90.0
 71
     2
 49
0.5
 62
   256
  6
BYLAYER
 49
-0.5
 62
   256
  6
BYLAYER
  0
ACDBPLACEHOLDER
  5
F
102
{ACAD_REACTORS
330
E
102
}
330
E
  0
SCALE
  5
48
102
{ACAD_REACTORS
330
47
102
}
330
47
100
AcDbScale
 70
     0
300
1:1
140
1.0
141
1.0
290
     1
  0
SCALE
  5
49
102
{ACAD_REACTORS
330
47
102
}
330
47
100
AcDbScale
 70
     0
300
1:2
140
1.0
141
2.0
290
     0
  0
SCALE
  5
4A
102
{ACAD_REACTORS
330
47
102
}
330
47
100
AcDbScale
 70
     0
300
1:4
140
1.0
141
4.0
290
     0
  0
SCALE
  5
4B
102
{ACAD_REACTORS
330
47
102
}
330
47
100
AcDbScale
 70
     0
300
1:5
140
1.0
141
5.0
290
     0
  0
SCALE
  5
4C
102
{ACAD_REACTORS
330
47
102
}
330
47
100
AcDbScale
 70
     0
300
1:8
140
1.0
141
8.0
290
     0
  0
SCALE
  5
4D
102
{ACAD_REACTORS
330
47
102
}
330
47
100
AcDbScale
 70
     0
300
1:10
140
1.0
141
10.0
290
     0
  0
SCALE
  5
4E
102
{ACAD_REACTORS
330
47
102
}
330
47
100
AcDbScale
 70
     0
300
1:16
140
1.0
141
16.0
290
     0
  0
SCALE
  5
4F
102
{ACAD_REACTORS
330
47
102
}
330
47
100
AcDbScale
 70
     0
300
1:20
140
1.0
141
20.0
290
     0
  0
SCALE
  5
50
102
{ACAD_REACTORS
330
47
102
}
330
47
100
AcDbScale
 70
     0
300
1:30
140
1.0
141
30.0
290
     0
  0
SCALE
  5
51
102
{ACAD_REACTORS
330
47
102
}
330
47
100
AcDbScale
 70
     0
300
1:40
140
1.0
141
40.0
290
     0
  0
SCALE
  5
52
102
{ACAD_REACTORS
330
47
102
}
330
47
100
AcDbScale
 70
     0
300
1:50
140
1.0
141
50.0
290
     0
  0
SCALE
  5
53
102
{ACAD_REACTORS
330
47
102
}
330
47
100
AcDbScale
 70
     0
300
1:100
140
1.0
141
100.0
290
     0
  0
SCALE
  5
54
102
{ACAD_REACTORS
330
47
102
}
330
47
100
AcDbScale
 70
     0
300
2:1
140
2.0
141
1.0
290
     0
  0
SCALE
  5
55
102
{ACAD_REACTORS
330
47
102
}
330
47
100
AcDbScale
 70
     0
300
4:1
140
4.0
141
1.0
290
     0
  0
SCALE
  5
56
102
{ACAD_REACTORS
330
47
102
}
330
47
100
AcDbScale
 70
     0
300
8:1
140
8.0
141
1.0
290
     0
  0
SCALE
  5
57
102
{ACAD_REACTORS
330
47
102
}
330
47
100
AcDbScale
 70
     0
300
10:1
140
10.0
141
1.0
290
     0
  0
SCALE
  5
58
102
{ACAD_REACTORS
330
47
102
}
330
47
100
AcDbScale
 70
     0
300
100:1
140
100.0
141
1.0
290
     0
  0
SCALE
  5
59
102
{ACAD_REACTORS
330
47
102
}
330
47
100
AcDbScale
 70
     0
300
1/128" = 1'-0"
140
0.0078125
141
12.0
290
     0
  0
SCALE
  5
5A
102
{ACAD_REACTORS
330
47
102
}
330
47
100
AcDbScale
 70
     0
300
1/64" = 1'-0"
140
0.015625
141
12.0
290
     0
  0
SCALE
  5
5B
102
{ACAD_REACTORS
330
47
102
}
330
47
100
AcDbScale
 70
     0
300
1/32" = 1'-0"
140
0.03125
141
12.0
290
     0
  0
SCALE
  5
5C
102
{ACAD_REACTORS
330
47
102
}
330
47
100
AcDbScale
 70
     0
300
1/16" = 1'-0"
140
0.0625
141
12.0
290
     0
  0
SCALE
  5
5D
102
{ACAD_REACTORS
330
47
102
}
330
47
100
AcDbScale
 70
     0
300
3/32" = 1'-0"
140
0.09375
141
12.0
290
     0
  0
SCALE
  5
5E
102
{ACAD_REACTORS
330
47
102
}
330
47
100
AcDbScale
 70
     0
300
1/8" = 1'-0"
140
0.125
141
12.0
290
     0
  0
SCALE
  5
5F
102
{ACAD_REACTORS
330
47
102
}
330
47
100
AcDbScale
 70
     0
300
3/16" = 1'-0"
140
0.1875
141
12.0
290
     0
  0
SCALE
  5
60
102
{ACAD_REACTORS
330
47
102
}
330
47
100
AcDbScale
 70
     0
300
1/4" = 1'-0"
140
0.25
141
12.0
290
     0
  0
SCALE
  5
61
102
{ACAD_REACTORS
330
47
102
}
330
47
100
AcDbScale
 70
     0
300
3/8" = 1'-0"
140
0.375
141
12.0
290
     0
  0
SCALE
  5
62
102
{ACAD_REACTORS
330
47
102
}
330
47
100
AcDbScale
 70
     0
300
1/2" = 1'-0"
140
0.5
141
12.0
290
     0
  0
SCALE
  5
63
102
{ACAD_REACTORS
330
47
102
}
330
47
100
AcDbScale
 70
     0
300
3/4" = 1'-0"
140
0.75
141
12.0
290
     0
  0
SCALE
  5
64
102
{ACAD_REACTORS
330
47
102
}
330
47
100
AcDbScale
 70
     0
300
1" = 1'-0"
140
1.0
141
12.0
290
     0
  0
SCALE
  5
65
102
{ACAD_REACTORS
330
47
102
}
330
47
100
AcDbScale
 70
     0
300
1-1/2" = 1'-0"
140
1.5
141
12.0
290
     0
  0
SCALE
  5
66
102
{ACAD_REACTORS
330
47
102
}
330
47
100
AcDbScale
 70
     0
300
3" = 1'-0"
140
3.0
141
12.0
290
     0
  0
SCALE
  5
67
102
{ACAD_REACTORS
330
47
102
}
330
47
100
AcDbScale
 70
     0
300
6" = 1'-0"
140
6.0
141
12.0
290
     0
  0
SCALE
  5
68
102
{ACAD_REACTORS
330
47
102
}
330
47
100
AcDbScale
 70
     0
300
1'-0" = 1'-0"
140
12.0
141
12.0
290
     0
  0
ENDSEC
  0
EOF
